<svg xmlns="http://www.w3.org/2000/svg" width="60" height="60" viewBox="0 0 60 60">
  <path fill="#377CFF" d="M27.6445312,42.4882812 C29.5651042,42.4882812 31.2293294,42.1342773 32.637207,41.4262695 C34.0450846,40.7182617 35.4163411,39.5097656 36.7509766,37.8007812 L36.7509766,37.8007812 L36.9462891,37.8007812 L37.5566406,42 L39.3388672,42 L39.3388672,24.3486328 C39.3388672,21.1422526 38.6186523,18.7822266 37.1782227,17.2685547 C35.737793,15.7548828 33.5608724,14.9980469 30.6474609,14.9980469 C27.7991536,14.9980469 24.9182943,15.6816406 22.0048828,17.0488281 L22.0048828,17.0488281 L22.9082031,19.1484375 C25.5449219,17.78125 28.0921224,17.0976562 30.5498047,17.0976562 C32.8284505,17.0976562 34.4804688,17.7405599 35.5058594,19.0263672 C36.53125,20.3121745 37.0439453,22.2164714 37.0439453,24.7392578 L37.0439453,24.7392578 L37.0439453,26.4970703 L31.9902344,26.6435547 C27.9049479,26.7249349 24.7840169,27.4817708 22.6274414,28.9140625 C20.4708659,30.3463542 19.3925781,32.3564453 19.3925781,34.9443359 C19.3925781,37.304362 20.116862,39.1516927 21.5654297,40.4863281 C23.0139974,41.8209635 25.0403646,42.4882812 27.6445312,42.4882812 Z M27.7910156,40.2910156 C25.9355469,40.2910156 24.4991862,39.8312174 23.4819336,38.9116211 C22.464681,37.9920247 21.9560547,36.7021484 21.9560547,35.0419922 C21.9560547,32.9586589 22.7495117,31.4246419 24.3364258,30.4399414 C25.9233398,29.4552409 28.5804036,28.8733724 32.3076172,28.6943359 L32.3076172,28.6943359 L36.9462891,28.4990234 L36.9462891,31.1113281 C36.9462891,33.9921875 36.128418,36.2423503 34.4926758,37.8618164 C32.8569336,39.4812826 30.6230469,40.2910156 27.7910156,40.2910156 Z"/>
</svg>
