<?xml version="1.0" encoding="UTF-8"?>
<svg width="120px" height="80px" viewBox="0 0 120 80" version="1.1" xmlns="http://www.w3.org/2000/svg" xmlns:xlink="http://www.w3.org/1999/xlink">
    <title>Artboard</title>
    <g id="Artboard" stroke="none" stroke-width="1" fill="none" fill-rule="evenodd">
        <rect id="Rectangle" fill="#000000" opacity="0.3" x="10" y="19" width="30" height="30" rx="2"></rect>
        <rect id="Rectangle-Copy" fill="#000000" opacity="0.3" x="45" y="19" width="30" height="30" rx="2"></rect>
        <rect id="Rectangle-Copy-2" fill="#000000" opacity="0.3" x="80" y="19" width="30" height="30" rx="2"></rect>
        <rect id="Rectangle" fill-opacity="0.5" fill="#000000" x="10" y="52" width="20" height="3" rx="1.5"></rect>
        <rect id="Rectangle-Copy-5" fill-opacity="0.5" fill="#000000" x="45" y="52" width="20" height="3" rx="1.5"></rect>
        <rect id="Rectangle-Copy-8" fill-opacity="0.5" fill="#000000" x="80" y="52" width="20" height="3" rx="1.5"></rect>
        <rect id="Rectangle-Copy-3" fill-opacity="0.5" fill="#000000" x="10" y="57" width="15" height="2" rx="1"></rect>
        <rect id="Rectangle-Copy-6" fill-opacity="0.5" fill="#000000" x="45" y="57" width="15" height="2" rx="1"></rect>
        <rect id="Rectangle-Copy-9" fill-opacity="0.5" fill="#000000" x="80" y="57" width="15" height="2" rx="1"></rect>
        <rect id="Rectangle-Copy-4" fill-opacity="0.5" fill="#000000" x="10" y="60" width="15" height="2" rx="1"></rect>
        <rect id="Rectangle-Copy-7" fill-opacity="0.5" fill="#000000" x="45" y="60" width="15" height="2" rx="1"></rect>
        <rect id="Rectangle-Copy-10" fill-opacity="0.5" fill="#000000" x="80" y="60" width="15" height="2" rx="1"></rect>
    </g>
</svg>
