<svg xmlns="http://www.w3.org/2000/svg" width="120" height="80" viewBox="0 0 120 80"><g fill="#000" fill-rule="nonzero"><path d="m27.738 24-.624-.366v-.102l.624-.366v.163l-.434.254.434.253V24Zm.549-.348-.092-.519v-.108h.22v.108l-.092.519h-.036Zm.018.366a.116.116 0 0 1-.086-.035.116.116 0 0 1-.034-.085c0-.034.011-.063.034-.085a.116.116 0 0 1 .086-.035.117.117 0 0 1 .12.12.117.117 0 0 1-.12.12Zm.543-.018v-.975h.262c.14 0 .248.042.322.125.075.084.112.204.112.363 0 .157-.037.278-.11.362-.074.083-.18.125-.319.125h-.267Zm.18-.165h.073c.09 0 .155-.026.197-.079.042-.052.063-.134.063-.244 0-.11-.021-.19-.063-.243-.042-.053-.108-.079-.197-.079h-.073v.645Zm1.017.183c-.124 0-.218-.043-.282-.128-.064-.086-.096-.212-.096-.378 0-.167.032-.293.096-.378.064-.085.158-.127.282-.127.125 0 .22.042.283.127.063.085.095.211.095.378 0 .166-.032.292-.095.378-.064.085-.158.128-.283.128Zm0-.168c.13 0 .195-.113.195-.338 0-.225-.065-.337-.195-.337s-.195.112-.195.337c0 .225.065.338.195.338Zm.927.168c-.132 0-.233-.043-.302-.13-.07-.086-.105-.212-.105-.376s.035-.289.105-.375c.07-.087.17-.13.302-.13.11 0 .205.035.285.106l-.092.14a.281.281 0 0 0-.192-.078c-.15 0-.225.112-.225.337 0 .225.075.338.225.338.04 0 .077-.008.111-.024a.37.37 0 0 0 .102-.075l.102.13a.466.466 0 0 1-.144.104.425.425 0 0 1-.172.033Zm.723-.018v-.809h-.3v-.166h.78v.166h-.3V24h-.18Zm.87 0v-.419l-.33-.556h.215l.212.38.215-.38h.198l-.33.556V24h-.18Zm.644 0v-.975h.368c.105 0 .184.025.238.076.055.05.082.123.082.218s-.027.168-.082.218c-.054.05-.133.076-.237.076h-.188V24h-.181Zm.181-.552h.172c.054 0 .093-.01.117-.03.023-.02.035-.053.035-.099 0-.046-.012-.079-.035-.099-.024-.02-.063-.03-.117-.03h-.172v.258Zm.708.552v-.975h.64v.165h-.46v.231h.389v.165h-.389v.249h.46V24h-.64Zm1.724 0v-1.065h.176v.392a.37.37 0 0 1 .202-.059c.083 0 .148.024.193.071.045.048.067.116.067.204V24h-.177v-.43c0-.052-.01-.088-.029-.109-.02-.02-.053-.031-.101-.031a.306.306 0 0 0-.155.04V24h-.176Zm1.303.018c-.184 0-.276-.092-.276-.275v-.298h-.209v-.159h.209v-.203l.177-.076v.279h.27v.159h-.27v.271c0 .051.01.087.03.108.019.021.053.032.1.032a.32.32 0 0 0 .172-.051l.044.15a.482.482 0 0 1-.247.063Zm.381-.018v-.714h.105l.014.054a.237.237 0 0 1 .164-.072c.063 0 .108.024.137.072a.22.22 0 0 1 .159-.072c.051 0 .091.016.12.049a.19.19 0 0 1 .045.133V24h-.153v-.53c0-.035-.02-.053-.059-.053a.124.124 0 0 0-.084.032V24h-.153v-.53c0-.035-.019-.053-.058-.053-.03 0-.058.01-.084.031V24h-.153Zm1.39.018c-.184 0-.276-.092-.276-.275v-.648h-.276v-.16h.453v.782c0 .05.01.087.03.108.02.02.053.031.101.031a.32.32 0 0 0 .171-.051l.045.15a.482.482 0 0 1-.248.063Zm.416-.018v-.164l.434-.253-.434-.253v-.164l.624.366v.102l-.624.366Z" opacity=".149"/><g opacity=".3"><path d="m27.738 26-.624-.366v-.102l.624-.366v.164l-.433.253.433.254zM35.79 25.488v-.14h.69v.14h-.69Zm0 .33v-.14h.69v.14h-.69ZM36.786 25.481l-.063-.456h.207l-.063.456h-.081Zm.357 0-.063-.456h.207l-.063.456h-.081ZM39.396 25.481l-.063-.456h.207l-.063.456h-.081Zm.357 0-.063-.456h.207l-.063.456h-.081ZM40.182 26v-.163l.434-.254-.434-.253v-.164l.624.366v.102zM29.478 28l-.624-.366v-.102l.624-.366v.164l-.433.253.433.254zM33.222 28v-.163l.434-.254-.434-.253v-.164l.624.366v.102zM31.218 30l-.624-.366v-.102l.624-.366v.164l-.433.253.433.254zM41.88 29.488v-.14h.69v.14h-.69Zm0 .33v-.14h.69v.14h-.69ZM42.876 29.481l-.063-.456h.207l-.063.456h-.081Zm.357 0-.063-.456h.207l-.063.456h-.081ZM48.096 29.481l-.063-.456h.207l-.063.456h-.081Zm.357 0-.063-.456h.207l-.063.456h-.081ZM48.882 30v-.163l.434-.254-.434-.253v-.164l.624.366v.102zM31.218 32l-.624-.366v-.102l.624-.366v.164l-.433.253.433.254zM39.27 31.488v-.14h.69v.14h-.69Zm0 .33v-.14h.69v.14h-.69ZM40.266 31.481l-.063-.456h.207l-.063.456h-.081Zm.357 0-.063-.456h.207l-.063.456h-.081ZM48.096 31.481l-.063-.456h.207l-.063.456h-.081Zm.357 0-.063-.456h.207l-.063.456h-.081ZM55.8 31.488v-.14h.69v.14h-.69Zm0 .33v-.14h.69v.14h-.69ZM56.796 31.481l-.063-.456h.207l-.063.456h-.081Zm.357 0-.063-.456h.207l-.063.456h-.081ZM61.89 31.488v-.14h.69v.14h-.69Zm0 .33v-.14h.69v.14h-.69ZM86.25 31.488v-.14h.69v.14h-.69Zm0 .33v-.14h.69v.14h-.69ZM89.856 31.481l-.063-.456H90l-.063.456h-.081Zm.357 0-.063-.456h.207l-.063.456h-.081ZM90.642 32v-.163l.434-.254-.434-.253v-.164l.624.366v.102zM31.218 34l-.624-.366v-.102l.624-.366v.164l-.433.253.433.254zM44.49 33.489v-.142h.69v.142h-.69Zm0 .33v-.142h.69v.142h-.69ZM45.486 33.481l-.063-.456h.207l-.063.456h-.081Zm.357 0-.063-.456h.207l-.063.456h-.081ZM59.406 33.481l-.063-.456h.207l-.063.456h-.081Zm.357 0-.063-.456h.207l-.063.456h-.081ZM67.11 33.489v-.142h.69v.142h-.69Zm0 .33v-.142h.69v.142h-.69ZM68.106 33.481l-.063-.456h.207l-.063.456h-.081Zm.357 0-.063-.456h.207l-.063.456h-.081ZM70.59 33.489v-.142h.69v.142h-.69Zm0 .33v-.142h.69v.142h-.69ZM75.066 33.481l-.063-.456h.207l-.063.456h-.081Zm.357 0-.063-.456h.207l-.063.456h-.081ZM75.852 34v-.163l.434-.254-.434-.253v-.164l.624.366v.102zM31.218 36l-.624-.366v-.102l.624-.366v.164l-.433.253.433.254zM35.832 36v-.163l.434-.254-.434-.253v-.164l.624.366v.102zM46.008 36l-.624-.366v-.102l.624-.366v.164l-.433.253.433.254zM46.209 36.09l.576-1.155h.156l-.576 1.155zM51.492 36v-.163l.434-.254-.434-.253v-.164l.624.366v.102zM31.218 38l-.624-.366v-.102l.624-.366v.164l-.433.253.433.254zM38.4 37.489v-.142h.69v.142h-.69Zm0 .33v-.142h.69v.142h-.69ZM39.396 37.481l-.063-.456h.207l-.063.456h-.081Zm.357 0-.063-.456h.207l-.063.456h-.081ZM48.966 37.481l-.063-.456h.207l-.063.456h-.081Zm.357 0-.063-.456h.207l-.063.456h-.081ZM54.06 37.489v-.142h.69v.142h-.69Zm0 .33v-.142h.69v.142h-.69ZM55.056 37.481l-.063-.456h.207l-.063.456h-.081Zm.357 0-.063-.456h.207l-.063.456h-.081ZM56.649 38.09l.576-1.155h.156l-.576 1.155zM65.496 37.481l-.063-.456h.207l-.063.456h-.081Zm.357 0-.063-.456h.207l-.063.456h-.081ZM66.282 38v-.163l.434-.254-.434-.253v-.164l.624.366v.102zM31.218 40l-.624-.366v-.102l.624-.366v.164l-.433.253.433.254zM38.4 39.489v-.142h.69v.142h-.69Zm0 .33v-.142h.69v.142h-.69ZM39.396 39.481l-.063-.456h.207l-.063.456h-.081Zm.357 0-.063-.456h.207l-.063.456h-.081ZM43.746 39.481l-.063-.456h.207l-.063.456h-.081Zm.357 0-.063-.456h.207l-.063.456h-.081ZM48.84 39.489v-.142h.69v.142h-.69Zm0 .33v-.142h.69v.142h-.69ZM49.836 39.481l-.063-.456h.207l-.063.456h-.081Zm.357 0-.063-.456h.207l-.063.456h-.081ZM62.016 39.481l-.063-.456h.207l-.063.456h-.081Zm.357 0-.063-.456h.207l-.063.456h-.081ZM67.11 39.489v-.142h.69v.142h-.69Zm0 .33v-.142h.69v.142h-.69ZM68.106 39.481l-.063-.456h.207l-.063.456h-.081Zm.357 0-.063-.456h.207l-.063.456h-.081ZM73.179 40.09l.576-1.155h.156l-.576 1.155zM79.416 39.481l-.063-.456h.207l-.063.456h-.081Zm.357 0-.063-.456h.207l-.063.456h-.081ZM80.202 40v-.163l.434-.254-.434-.253v-.164l.624.366v.102zM29.478 42l-.624-.366v-.102l.624-.366v.164l-.433.253.433.254zM29.679 42.09l.576-1.155h.156l-.576 1.155zM34.092 42v-.163l.434-.254-.434-.253v-.164l.624.366v.102zM29.478 44l-.624-.366v-.102l.624-.366v.164l-.433.253.433.254zM33.222 44v-.163l.434-.254-.434-.253v-.164l.624.366v.102zM31.218 46l-.624-.366v-.102l.624-.366v.164l-.433.253.433.254zM34.962 46v-.163l.434-.254-.434-.253v-.164l.624.366v.102zM34.698 48l-.624-.366v-.102l.624-.366v.164l-.433.253.433.254zM36.702 48v-.163l.434-.254-.434-.253v-.164l.624.366v.102zM56.448 48l-.624-.366v-.102l.624-.366v.164l-.433.253.433.254zM56.649 48.09l.576-1.155h.156l-.576 1.155zM59.322 48v-.163l.434-.254-.434-.253v-.164l.624.366v.102zM31.218 50l-.624-.366v-.102l.624-.366v.164l-.433.253.433.254zM31.419 50.09l.576-1.155h.156l-.576 1.155zM35.832 50v-.163l.434-.254-.434-.253v-.164l.624.366v.102zM31.218 52l-.624-.366v-.102l.624-.366v.164l-.433.253.433.254zM40.14 51.489v-.142h.69v.142h-.69Zm0 .33v-.142h.69v.142h-.69ZM41.136 51.481l-.063-.456h.207l-.063.456h-.081Zm.357 0-.063-.456h.207l-.063.456h-.081ZM48.966 51.481l-.063-.456h.207l-.063.456h-.081Zm.357 0-.063-.456h.207l-.063.456h-.081ZM49.752 52v-.163l.434-.254-.434-.253v-.164l.624.366v.102zM51.228 52l-.624-.366v-.102l.624-.366v.164l-.433.253.433.254zM51.429 52.09l.576-1.155h.156l-.576 1.155zM57.582 52v-.163l.434-.254-.434-.253v-.164l.624.366v.102zM29.478 54l-.624-.366v-.102l.624-.366v.164l-.433.253.433.254zM29.679 54.09l.576-1.155h.156l-.576 1.155zM34.092 54v-.163l.434-.254-.434-.253v-.164l.624.366v.102zM27.738 56l-.624-.366v-.102l.624-.366v.164l-.433.253.433.254zM27.939 56.09l.576-1.155h.156l-.576 1.155zM32.352 56v-.163l.434-.254-.434-.253v-.164l.624.366v.102z"/></g><g opacity=".6"><path d="M27.991 26v-1.065h.178v.392a.37.37 0 0 1 .2-.059c.084 0 .149.024.194.071.045.048.068.116.068.204V26h-.178v-.43c0-.052-.01-.088-.029-.109-.02-.02-.053-.031-.101-.031a.306.306 0 0 0-.154.04V26h-.178ZM29.295 26.018c-.184 0-.276-.092-.276-.275v-.298h-.208v-.159h.208v-.203l.177-.076v.279h.27v.159h-.27v.271c0 .051.01.087.03.108.019.021.053.032.1.032a.32.32 0 0 0 .171-.051l.046.15a.482.482 0 0 1-.248.063ZM29.676 26v-.714h.105l.014.054a.237.237 0 0 1 .164-.072c.063 0 .108.024.137.072a.22.22 0 0 1 .159-.072c.051 0 .091.016.12.049a.19.19 0 0 1 .045.133V26h-.153v-.53c0-.035-.02-.053-.058-.053a.124.124 0 0 0-.084.032V26h-.154v-.53c0-.035-.019-.053-.058-.053-.03 0-.058.01-.084.031V26h-.153ZM31.067 26.018c-.184 0-.276-.092-.276-.275v-.648h-.277v-.16h.454v.782c0 .05.01.087.029.108.02.02.053.031.101.031a.32.32 0 0 0 .171-.051l.045.15a.482.482 0 0 1-.247.063ZM29.732 28v-1.065h.177v.392a.37.37 0 0 1 .2-.059c.084 0 .149.024.194.071.045.048.067.116.067.203V28h-.177v-.43c0-.052-.01-.088-.029-.109-.02-.02-.053-.031-.101-.031a.306.306 0 0 0-.154.04V28h-.177ZM30.956 28.018a.409.409 0 0 1-.293-.1.36.36 0 0 1-.107-.275.4.4 0 0 1 .047-.197.336.336 0 0 1 .129-.13.38.38 0 0 1 .192-.048c.071 0 .133.015.185.044a.31.31 0 0 1 .122.124.382.382 0 0 1 .042.226.35.35 0 0 1-.006.043h-.53c.019.108.092.163.22.163a.405.405 0 0 0 .22-.069l.067.13a.517.517 0 0 1-.139.068.513.513 0 0 1-.15.021Zm-.218-.447h.363c-.017-.102-.076-.153-.178-.153-.101 0-.163.051-.185.153ZM31.709 28.018a.308.308 0 0 1-.204-.06.21.21 0 0 1-.072-.171c0-.07.023-.123.07-.16a.318.318 0 0 1 .201-.056h.224v-.014c0-.05-.012-.085-.037-.107-.023-.021-.063-.032-.12-.032a.483.483 0 0 0-.245.066l-.053-.143a.672.672 0 0 1 .318-.073c.108 0 .187.022.238.067.05.045.075.116.075.212V28h-.13l-.015-.062a.414.414 0 0 1-.25.08Zm.037-.15a.362.362 0 0 0 .182-.045v-.119h-.207c-.038 0-.066.007-.083.02-.017.012-.026.031-.026.057 0 .029.011.05.033.065a.185.185 0 0 0 .101.022ZM32.604 28.018a.275.275 0 0 1-.224-.101.418.418 0 0 1-.084-.274c0-.115.028-.206.084-.274a.275.275 0 0 1 .224-.101.349.349 0 0 1 .195.058v-.391h.177V28h-.13l-.015-.06a.39.39 0 0 1-.227.078Zm.045-.162a.307.307 0 0 0 .15-.04v-.346a.307.307 0 0 0-.15-.04c-.116 0-.174.071-.174.213 0 .142.058.213.174.213ZM31.416 30v-.714h.105l.014.054a.237.237 0 0 1 .165-.072c.061 0 .107.024.136.072a.22.22 0 0 1 .159-.072c.051 0 .091.016.12.049a.19.19 0 0 1 .045.133V30h-.153v-.53c0-.035-.02-.053-.058-.053a.124.124 0 0 0-.085.032V30h-.152v-.53c0-.035-.02-.053-.059-.053-.03 0-.058.01-.084.031V30h-.153ZM32.696 30.018a.409.409 0 0 1-.293-.1.36.36 0 0 1-.106-.275.4.4 0 0 1 .046-.197.336.336 0 0 1 .129-.13.38.38 0 0 1 .192-.048c.071 0 .133.015.185.044a.31.31 0 0 1 .123.124.382.382 0 0 1 .041.226.35.35 0 0 1-.005.043h-.532c.02.108.093.163.221.163a.405.405 0 0 0 .22-.069l.066.13a.517.517 0 0 1-.137.068.513.513 0 0 1-.15.021Zm-.218-.447h.363c-.017-.102-.077-.153-.178-.153-.101 0-.163.051-.185.153ZM33.645 30.018c-.184 0-.276-.092-.276-.275v-.298h-.209v-.159h.209v-.203l.177-.076v.279h.27v.159h-.27v.271c0 .051.01.087.03.108.019.021.053.032.1.032a.32.32 0 0 0 .171-.051l.045.15a.482.482 0 0 1-.247.063ZM34.319 30.018a.308.308 0 0 1-.204-.06.21.21 0 0 1-.073-.171c0-.07.024-.123.07-.16a.318.318 0 0 1 .202-.056h.224v-.014c0-.05-.012-.085-.036-.107-.025-.021-.065-.032-.12-.032a.483.483 0 0 0-.246.066l-.053-.143a.672.672 0 0 1 .318-.073c.108 0 .187.022.238.067.05.045.075.116.075.212V30h-.13l-.015-.062a.414.414 0 0 1-.25.08Zm.037-.15a.362.362 0 0 0 .181-.045v-.119h-.206c-.039 0-.066.007-.083.02-.017.012-.026.031-.026.057 0 .029.011.05.033.065a.185.185 0 0 0 .101.022ZM31.416 32v-.714h.105l.014.054a.237.237 0 0 1 .165-.072c.061 0 .107.024.136.072a.22.22 0 0 1 .159-.072c.051 0 .091.016.12.049a.19.19 0 0 1 .045.133V32h-.153v-.53c0-.035-.02-.053-.058-.053a.124.124 0 0 0-.085.032V32h-.152v-.53c0-.035-.02-.053-.059-.053-.03 0-.058.01-.084.031V32h-.153ZM32.696 32.018a.409.409 0 0 1-.293-.1.36.36 0 0 1-.106-.275.4.4 0 0 1 .046-.197.336.336 0 0 1 .129-.13.38.38 0 0 1 .192-.048c.071 0 .133.015.185.044a.31.31 0 0 1 .123.124.382.382 0 0 1 .041.226.35.35 0 0 1-.005.043h-.532c.02.108.093.163.221.163a.405.405 0 0 0 .22-.069l.066.13a.517.517 0 0 1-.137.068.513.513 0 0 1-.15.021Zm-.218-.447h.363c-.017-.102-.077-.153-.178-.153-.101 0-.163.051-.185.153ZM33.645 32.018c-.184 0-.276-.092-.276-.275v-.298h-.209v-.159h.209v-.203l.177-.076v.279h.27v.159h-.27v.271c0 .051.01.087.03.108.019.021.053.032.1.032a.32.32 0 0 0 .171-.051l.045.15a.482.482 0 0 1-.247.063ZM34.319 32.018a.308.308 0 0 1-.204-.06.21.21 0 0 1-.073-.171c0-.07.024-.123.07-.16a.318.318 0 0 1 .202-.056h.224v-.014c0-.05-.012-.085-.036-.107-.025-.021-.065-.032-.12-.032a.483.483 0 0 0-.246.066l-.053-.143a.672.672 0 0 1 .318-.073c.108 0 .187.022.238.067.05.045.075.116.075.212V32h-.13l-.015-.062a.414.414 0 0 1-.25.08Zm.037-.15a.362.362 0 0 0 .181-.045v-.119h-.206c-.039 0-.066.007-.083.02-.017.012-.026.031-.026.057 0 .029.011.05.033.065a.185.185 0 0 0 .101.022ZM31.416 34v-.714h.105l.014.054a.237.237 0 0 1 .165-.072c.061 0 .107.024.136.072a.22.22 0 0 1 .159-.072c.051 0 .091.016.12.049a.19.19 0 0 1 .045.133V34h-.153v-.53c0-.035-.02-.053-.058-.053a.124.124 0 0 0-.085.032V34h-.152v-.53c0-.035-.02-.053-.059-.053-.03 0-.058.01-.084.031V34h-.153ZM32.696 34.018a.409.409 0 0 1-.293-.1.36.36 0 0 1-.106-.275.4.4 0 0 1 .046-.197.336.336 0 0 1 .129-.13.38.38 0 0 1 .192-.048c.071 0 .133.015.185.044a.31.31 0 0 1 .123.124.382.382 0 0 1 .041.226.35.35 0 0 1-.005.042h-.532c.02.11.093.164.221.164a.405.405 0 0 0 .22-.069l.066.13a.517.517 0 0 1-.137.068.513.513 0 0 1-.15.021Zm-.218-.447h.363c-.017-.102-.077-.153-.178-.153-.101 0-.163.051-.185.153ZM33.645 34.018c-.184 0-.276-.092-.276-.275v-.298h-.209v-.159h.209v-.203l.177-.076v.279h.27v.159h-.27v.271c0 .051.01.087.03.108.019.022.053.032.1.032a.32.32 0 0 0 .171-.051l.045.15a.482.482 0 0 1-.247.063ZM34.319 34.018a.308.308 0 0 1-.204-.06.21.21 0 0 1-.073-.171c0-.07.024-.123.07-.16a.318.318 0 0 1 .202-.056h.224v-.014c0-.05-.012-.085-.036-.107-.025-.021-.065-.032-.12-.032a.483.483 0 0 0-.246.066l-.053-.143a.672.672 0 0 1 .318-.073c.108 0 .187.022.238.067.05.045.075.116.075.212V34h-.13l-.015-.062a.414.414 0 0 1-.25.08Zm.037-.15a.362.362 0 0 0 .181-.045v-.119h-.206c-.039 0-.066.007-.083.02-.017.012-.026.031-.026.057 0 .029.011.05.033.065a.185.185 0 0 0 .101.022ZM31.905 36.018c-.184 0-.276-.092-.276-.275v-.298h-.209v-.159h.209v-.203l.177-.076v.279h.27v.159h-.27v.271c0 .051.01.087.03.108.019.022.053.032.1.032a.32.32 0 0 0 .172-.051l.045.15a.482.482 0 0 1-.248.063ZM32.566 36v-.555h-.276v-.159h.453v.555h.276V36h-.453Zm.074-.843a.116.116 0 0 1-.086-.034.116.116 0 0 1-.034-.086c0-.034.011-.063.034-.086a.116.116 0 0 1 .086-.034c.034 0 .063.011.085.034a.116.116 0 0 1 .035.086.116.116 0 0 1-.035.086.116.116 0 0 1-.085.034ZM33.645 36.018c-.184 0-.276-.092-.276-.275v-.298h-.209v-.159h.209v-.203l.177-.076v.279h.27v.159h-.27v.271c0 .051.01.087.03.108.019.022.053.032.1.032a.32.32 0 0 0 .171-.051l.045.15a.482.482 0 0 1-.247.063ZM34.547 36.018c-.184 0-.276-.092-.276-.275v-.648h-.276v-.16h.453v.781c0 .051.01.087.029.108.02.022.053.032.101.032a.32.32 0 0 0 .171-.051l.045.15a.482.482 0 0 1-.247.063ZM35.306 36.018a.409.409 0 0 1-.293-.1.36.36 0 0 1-.106-.275.4.4 0 0 1 .046-.197.336.336 0 0 1 .129-.13.38.38 0 0 1 .192-.048c.071 0 .133.015.185.044a.31.31 0 0 1 .122.124.382.382 0 0 1 .042.226.35.35 0 0 1-.005.042h-.532c.02.11.093.164.221.164a.405.405 0 0 0 .22-.069l.066.13a.517.517 0 0 1-.138.068.513.513 0 0 1-.15.021Zm-.218-.447h.363c-.017-.102-.077-.153-.178-.153-.102 0-.163.051-.185.153ZM47.565 36.018c-.184 0-.276-.092-.276-.275v-.298h-.209v-.159h.209v-.203l.177-.076v.279h.27v.159h-.27v.271c0 .051.01.087.03.108.019.022.053.032.1.032a.32.32 0 0 0 .172-.051l.044.15a.482.482 0 0 1-.247.063ZM48.227 36v-.555h-.276v-.159h.453v.555h.276V36h-.453Zm.073-.843a.116.116 0 0 1-.085-.034.116.116 0 0 1-.035-.086c0-.034.012-.063.035-.086a.116.116 0 0 1 .085-.034c.034 0 .063.011.086.034a.116.116 0 0 1 .034.086.116.116 0 0 1-.035.086.116.116 0 0 1-.085.034ZM49.305 36.018c-.184 0-.276-.092-.276-.275v-.298h-.209v-.159h.209v-.203l.177-.076v.279h.27v.159h-.27v.271c0 .051.01.087.03.108.019.022.053.032.1.032a.32.32 0 0 0 .172-.051l.044.15a.482.482 0 0 1-.247.063ZM50.206 36.018c-.184 0-.276-.092-.276-.275v-.648h-.276v-.16h.453v.781c0 .051.01.087.03.108.02.022.053.032.101.032a.32.32 0 0 0 .171-.051l.045.15a.482.482 0 0 1-.248.063ZM50.965 36.018a.409.409 0 0 1-.292-.1.36.36 0 0 1-.106-.275.4.4 0 0 1 .046-.197.336.336 0 0 1 .129-.13.38.38 0 0 1 .192-.048c.071 0 .133.015.185.044a.31.31 0 0 1 .123.124.382.382 0 0 1 .042.226.35.35 0 0 1-.006.042h-.532c.02.11.093.164.221.164a.405.405 0 0 0 .22-.069l.067.13a.517.517 0 0 1-.139.068.513.513 0 0 1-.15.021Zm-.217-.447h.363c-.017-.102-.076-.153-.178-.153s-.163.051-.185.153ZM31.936 38.018c-.183 0-.276-.092-.276-.275v-.648h-.276v-.16h.453v.781c0 .051.01.087.03.108.02.022.053.032.101.032a.32.32 0 0 0 .171-.051l.045.15a.482.482 0 0 1-.247.063ZM32.566 38v-.555h-.276v-.159h.453v.555h.276V38h-.453Zm.074-.843a.116.116 0 0 1-.086-.034.116.116 0 0 1-.034-.086c0-.034.011-.063.034-.086a.116.116 0 0 1 .086-.034c.034 0 .063.011.085.034a.116.116 0 0 1 .035.086.116.116 0 0 1-.035.086.116.116 0 0 1-.085.034ZM33.212 38v-.714h.13l.015.061a.375.375 0 0 1 .233-.08c.084.001.148.025.193.072.045.048.067.115.067.203V38h-.177v-.43c0-.051-.01-.087-.029-.108-.02-.022-.053-.032-.101-.032a.306.306 0 0 0-.154.04V38h-.178ZM34.082 38v-1.065h.177v.654l.301-.303h.228l-.298.287.306.427h-.218l-.216-.304-.103.1V38zM31.936 40.018c-.183 0-.276-.092-.276-.275v-.648h-.276v-.16h.453v.781c0 .051.01.087.03.108.02.022.053.032.101.032a.32.32 0 0 0 .171-.051l.045.15a.482.482 0 0 1-.247.063ZM32.566 40v-.555h-.276v-.159h.453v.555h.276V40h-.453Zm.074-.843a.116.116 0 0 1-.086-.034.116.116 0 0 1-.034-.086c0-.034.011-.063.034-.086a.116.116 0 0 1 .086-.034c.034 0 .063.011.085.034a.116.116 0 0 1 .035.086.116.116 0 0 1-.035.086.116.116 0 0 1-.085.034ZM33.212 40v-.714h.13l.015.061a.375.375 0 0 1 .233-.08c.084.001.148.025.193.072.045.048.067.115.067.203V40h-.177v-.43c0-.051-.01-.087-.029-.108-.02-.022-.053-.032-.101-.032a.306.306 0 0 0-.154.04V40h-.178ZM34.082 40v-1.065h.177v.654l.301-.303h.228l-.298.287.306.427h-.218l-.216-.304-.103.1V40zM30.602 42v-1.065h.177v.391a.37.37 0 0 1 .2-.058c.085 0 .149.024.194.071.045.048.068.115.068.204V42h-.177v-.43c0-.051-.01-.087-.03-.108-.02-.022-.053-.032-.101-.032a.306.306 0 0 0-.154.04V42h-.177ZM31.825 42.018a.409.409 0 0 1-.292-.1.36.36 0 0 1-.107-.275.4.4 0 0 1 .047-.197.336.336 0 0 1 .129-.13.38.38 0 0 1 .192-.048c.071 0 .133.015.185.044a.31.31 0 0 1 .123.124.382.382 0 0 1 .042.226.35.35 0 0 1-.006.042h-.531c.018.11.092.164.22.164a.405.405 0 0 0 .22-.069l.067.13a.517.517 0 0 1-.138.068.513.513 0 0 1-.15.021Zm-.217-.447h.363c-.017-.102-.076-.153-.178-.153-.101 0-.163.051-.185.153ZM32.578 42.018a.308.308 0 0 1-.203-.06.21.21 0 0 1-.072-.171c0-.07.023-.123.07-.16a.318.318 0 0 1 .201-.056h.224v-.014c0-.05-.013-.085-.037-.107-.024-.021-.064-.032-.12-.032a.483.483 0 0 0-.245.066l-.053-.143a.672.672 0 0 1 .318-.073c.108 0 .187.022.238.067.05.045.075.116.075.212V42h-.13l-.015-.062a.414.414 0 0 1-.25.08Zm.038-.15a.362.362 0 0 0 .181-.045v-.119h-.206c-.038 0-.066.007-.083.02-.017.012-.026.031-.026.057 0 .029.011.05.033.065a.185.185 0 0 0 .101.022ZM33.474 42.018a.275.275 0 0 1-.224-.101.418.418 0 0 1-.084-.274c0-.115.028-.206.084-.274a.275.275 0 0 1 .224-.101.349.349 0 0 1 .195.058v-.391h.177V42h-.13l-.016-.06a.39.39 0 0 1-.226.078Zm.045-.162a.307.307 0 0 0 .15-.04v-.346a.307.307 0 0 0-.15-.04c-.116 0-.174.071-.174.213 0 .142.058.213.174.213ZM30.096 44.018a.39.39 0 0 1-.227-.078l-.014.06h-.131v-1.065h.177v.391a.388.388 0 0 1 .195-.058c.094 0 .169.034.224.101a.418.418 0 0 1 .084.274.418.418 0 0 1-.084.274.275.275 0 0 1-.224.101Zm-.045-.162c.116 0 .174-.071.174-.213 0-.142-.058-.213-.174-.213-.05 0-.1.014-.15.04v.346c.05.026.1.04.15.04ZM30.915 44.018a.377.377 0 0 1-.19-.047.334.334 0 0 1-.13-.132.4.4 0 0 1-.046-.196.4.4 0 0 1 .047-.197.336.336 0 0 1 .128-.13.377.377 0 0 1 .191-.048c.072 0 .136.016.19.047a.336.336 0 0 1 .13.132.4.4 0 0 1 .046.196.4.4 0 0 1-.046.196.334.334 0 0 1-.13.132.377.377 0 0 1-.19.047Zm0-.162a.172.172 0 0 0 .137-.056.23.23 0 0 0 .049-.157.23.23 0 0 0-.05-.157.172.172 0 0 0-.136-.056.172.172 0 0 0-.136.056.23.23 0 0 0-.05.157c0 .067.017.12.05.157a.172.172 0 0 0 .136.056ZM31.734 44.018a.275.275 0 0 1-.224-.101.418.418 0 0 1-.084-.274c0-.115.028-.206.084-.274a.275.275 0 0 1 .224-.101.349.349 0 0 1 .195.058v-.391h.177V44h-.13l-.015-.06a.39.39 0 0 1-.227.078Zm.045-.162a.307.307 0 0 0 .15-.04v-.346a.307.307 0 0 0-.15-.04c-.116 0-.174.071-.174.213 0 .142.058.213.174.213ZM32.425 44.333a.343.343 0 0 1-.187-.05l.054-.147a.233.233 0 0 0 .12.035.129.129 0 0 0 .083-.025.206.206 0 0 0 .055-.089l.021-.056-.286-.715h.189l.187.483.188-.483h.177l-.326.84a.352.352 0 0 1-.106.16.276.276 0 0 1-.169.047ZM31.416 46v-.714h.105l.014.054a.237.237 0 0 1 .165-.072c.061 0 .107.024.136.072a.22.22 0 0 1 .159-.072c.051 0 .091.016.12.049a.19.19 0 0 1 .045.133V46h-.153v-.53c0-.035-.02-.053-.058-.053a.124.124 0 0 0-.085.032V46h-.152v-.53c0-.035-.02-.053-.059-.053-.03 0-.058.01-.084.031V46h-.153ZM32.578 46.018a.308.308 0 0 1-.203-.06.21.21 0 0 1-.072-.171c0-.07.023-.123.07-.16a.318.318 0 0 1 .201-.056h.224v-.014c0-.05-.013-.085-.037-.107-.024-.021-.064-.032-.12-.032a.483.483 0 0 0-.245.066l-.053-.143a.672.672 0 0 1 .318-.073c.108 0 .187.022.238.067.05.045.075.116.075.212V46h-.13l-.015-.062a.414.414 0 0 1-.25.08Zm.038-.15a.362.362 0 0 0 .181-.045v-.119h-.206c-.038 0-.066.007-.083.02-.017.012-.026.031-.026.057 0 .029.011.05.033.065a.185.185 0 0 0 .101.022ZM33.437 46v-.555h-.276v-.159h.453v.555h.276V46h-.453Zm.073-.843a.116.116 0 0 1-.085-.034.116.116 0 0 1-.035-.086c0-.034.011-.063.035-.086a.116.116 0 0 1 .085-.034c.034 0 .063.011.086.034a.116.116 0 0 1 .034.086.116.116 0 0 1-.035.086.116.116 0 0 1-.085.034ZM34.081 46v-.714h.131l.015.061a.375.375 0 0 1 .232-.08c.084.001.149.025.194.072.045.048.068.115.068.204V46h-.177v-.43c0-.051-.01-.087-.03-.108-.02-.022-.053-.032-.101-.032a.306.306 0 0 0-.154.04V46h-.178ZM34.952 48v-1.065h.177v.391a.37.37 0 0 1 .2-.058c.084 0 .149.024.194.071.045.048.067.115.067.204V48h-.177v-.43c0-.051-.01-.087-.029-.108-.02-.022-.053-.032-.101-.032a.306.306 0 0 0-.154.04V48h-.177ZM35.784 48v-.162h.264v-.511l-.175.136-.084-.115.316-.302h.123v.792h.264V48zM57.572 48v-1.065h.176v.391a.37.37 0 0 1 .202-.058c.084 0 .148.024.193.071.045.048.067.115.067.204V48h-.176v-.43c0-.051-.01-.087-.03-.108-.02-.022-.053-.032-.101-.032a.306.306 0 0 0-.154.04V48h-.178ZM58.404 48v-.162h.264v-.511l-.175.136-.084-.115.316-.302h.123v.792h.264V48zM32.286 50v-.714h.105l.014.054a.237.237 0 0 1 .164-.072c.063 0 .108.024.137.072a.22.22 0 0 1 .159-.072c.051 0 .091.016.12.049a.19.19 0 0 1 .045.133V50h-.153v-.53c0-.035-.02-.053-.059-.053a.124.124 0 0 0-.084.032V50h-.153v-.53c0-.035-.019-.053-.058-.053-.03 0-.058.01-.084.031V50h-.153ZM33.449 50.018a.308.308 0 0 1-.204-.06.21.21 0 0 1-.072-.171c0-.07.023-.123.07-.16a.318.318 0 0 1 .201-.056h.223v-.014c0-.05-.011-.085-.035-.107-.024-.021-.064-.032-.12-.032a.483.483 0 0 0-.246.066l-.053-.143a.672.672 0 0 1 .318-.073c.108 0 .187.022.238.067.05.045.075.116.075.212V50h-.13l-.015-.062a.414.414 0 0 1-.25.08Zm.037-.15a.362.362 0 0 0 .181-.045v-.119h-.207c-.038 0-.065.007-.082.02-.017.012-.026.031-.026.057 0 .029.011.05.033.065a.185.185 0 0 0 .101.022ZM34.306 50v-.555h-.275v-.159h.453v.555h.276V50h-.453Zm.074-.843a.116.116 0 0 1-.086-.034.116.116 0 0 1-.034-.086c0-.034.012-.063.035-.086a.116.116 0 0 1 .085-.034c.034 0 .063.011.085.034a.116.116 0 0 1 .035.086.116.116 0 0 1-.035.086.116.116 0 0 1-.085.034ZM34.952 50v-.714h.13l.015.061a.375.375 0 0 1 .233-.08c.084.001.148.025.193.072.045.048.067.115.067.204V50h-.177v-.43c0-.051-.01-.087-.029-.108-.02-.022-.053-.032-.101-.032a.306.306 0 0 0-.154.04V50h-.177ZM31.779 52.018a.638.638 0 0 1-.343-.089l.064-.138a.464.464 0 0 0 .131.058c.049.013.1.019.152.019.103 0 .155-.025.155-.074 0-.02-.005-.034-.016-.043-.012-.009-.032-.015-.06-.018l-.165-.02a.297.297 0 0 1-.17-.063c-.036-.034-.054-.082-.054-.145 0-.076.027-.135.081-.176a.384.384 0 0 1 .236-.061.66.66 0 0 1 .307.072l-.057.141a.5.5 0 0 0-.253-.063c-.091 0-.137.024-.137.072 0 .019.006.033.017.042a.12.12 0 0 0 .06.018l.165.02c.076.008.132.03.168.063.037.034.055.082.055.146a.205.205 0 0 1-.086.177.423.423 0 0 1-.25.062ZM32.715 52.018a.428.428 0 0 1-.203-.046.324.324 0 0 1-.134-.13.4.4 0 0 1-.047-.199.4.4 0 0 1 .047-.2.324.324 0 0 1 .134-.13.428.428 0 0 1 .203-.045c.093 0 .178.025.255.073l-.061.146a.487.487 0 0 0-.099-.044.316.316 0 0 0-.09-.013c-.14 0-.209.071-.209.213 0 .142.07.213.208.213a.32.32 0 0 0 .1-.015.524.524 0 0 0 .107-.053l.066.142a.468.468 0 0 1-.277.088ZM33.254 52v-.714h.138l.017.099a.348.348 0 0 1 .12-.09.365.365 0 0 1 .146-.027c.073 0 .136.019.189.057l-.066.153a.229.229 0 0 0-.14-.046c-.084 0-.16.04-.227.123V52h-.177ZM34.306 52v-.555h-.275v-.159h.453v.555h.276V52h-.453Zm.074-.843a.116.116 0 0 1-.086-.034.116.116 0 0 1-.034-.086c0-.034.012-.063.035-.086a.116.116 0 0 1 .085-.034c.034 0 .063.011.085.034a.116.116 0 0 1 .035.086.116.116 0 0 1-.035.086.116.116 0 0 1-.085.034ZM34.944 52.315v-1.029h.13l.016.06a.39.39 0 0 1 .226-.078c.094 0 .169.034.224.101a.418.418 0 0 1 .084.274.418.418 0 0 1-.084.274.275.275 0 0 1-.224.101.349.349 0 0 1-.195-.059v.356h-.177Zm.327-.459c.116 0 .174-.071.174-.213 0-.142-.058-.213-.174-.213-.05 0-.1.014-.15.04v.346c.05.026.1.04.15.04ZM36.255 52.018c-.184 0-.276-.092-.276-.275v-.298h-.209v-.159h.209v-.203l.177-.076v.279h.27v.159h-.27v.271c0 .051.01.087.03.108.019.022.053.032.1.032a.32.32 0 0 0 .171-.051l.045.15a.482.482 0 0 1-.247.063ZM52.659 52.018a.638.638 0 0 1-.343-.089l.064-.138a.464.464 0 0 0 .131.058c.049.013.1.019.152.019.104 0 .155-.025.155-.074 0-.02-.005-.034-.016-.043-.011-.009-.032-.015-.06-.018l-.166-.02a.297.297 0 0 1-.168-.063c-.037-.034-.055-.082-.055-.145 0-.076.027-.135.081-.176a.384.384 0 0 1 .236-.061.66.66 0 0 1 .307.072l-.057.141a.5.5 0 0 0-.254-.063c-.09 0-.136.024-.136.072 0 .019.006.033.017.042a.12.12 0 0 0 .06.018l.165.02c.075.008.132.03.168.063.037.034.055.082.055.146a.205.205 0 0 1-.086.177.423.423 0 0 1-.25.062ZM53.595 52.018a.428.428 0 0 1-.203-.046.324.324 0 0 1-.134-.13.4.4 0 0 1-.047-.199.4.4 0 0 1 .047-.2.324.324 0 0 1 .134-.13.428.428 0 0 1 .203-.045c.093 0 .178.025.255.073l-.062.146a.487.487 0 0 0-.098-.044.316.316 0 0 0-.09-.013c-.14 0-.209.071-.209.213 0 .142.07.213.209.213a.32.32 0 0 0 .098-.015.524.524 0 0 0 .108-.053l.067.142a.468.468 0 0 1-.278.088ZM54.133 52v-.714h.139l.018.099a.348.348 0 0 1 .12-.09.365.365 0 0 1 .145-.027c.073 0 .136.019.189.057l-.066.153a.229.229 0 0 0-.14-.046c-.084 0-.16.04-.227.123V52h-.178ZM55.186 52v-.555h-.276v-.159h.454v.555h.276V52h-.454Zm.074-.843a.116.116 0 0 1-.086-.034.116.116 0 0 1-.034-.086c0-.034.011-.063.034-.086a.116.116 0 0 1 .086-.034c.034 0 .063.011.086.034a.116.116 0 0 1 .034.086.116.116 0 0 1-.035.086.116.116 0 0 1-.085.034ZM55.824 52.315v-1.029h.13l.015.06a.39.39 0 0 1 .227-.078c.094 0 .169.034.224.101a.418.418 0 0 1 .084.274.418.418 0 0 1-.084.274.275.275 0 0 1-.224.101.349.349 0 0 1-.195-.059v.356h-.177Zm.327-.459c.116 0 .174-.071.174-.213 0-.142-.058-.213-.174-.213-.05 0-.1.014-.15.04v.346c.05.026.1.04.15.04ZM57.135 52.018c-.184 0-.276-.092-.276-.275v-.298h-.209v-.159h.209v-.203l.177-.076v.279h.27v.159h-.27v.271c0 .051.01.087.03.108.019.022.052.032.1.032a.32.32 0 0 0 .172-.051l.044.15a.482.482 0 0 1-.247.063ZM30.966 54.018a.39.39 0 0 1-.227-.078l-.015.06h-.13v-1.065h.177v.391a.388.388 0 0 1 .195-.058c.094 0 .169.034.224.101a.418.418 0 0 1 .083.274.418.418 0 0 1-.083.274.275.275 0 0 1-.224.101Zm-.045-.162c.116 0 .174-.071.174-.213 0-.142-.058-.213-.174-.213-.05 0-.1.014-.15.04v.346c.05.026.1.04.15.04ZM31.785 54.018a.377.377 0 0 1-.19-.047.334.334 0 0 1-.13-.132.4.4 0 0 1-.046-.196.4.4 0 0 1 .046-.197.336.336 0 0 1 .13-.13.377.377 0 0 1 .19-.048c.072 0 .136.016.19.047a.336.336 0 0 1 .13.132.4.4 0 0 1 .046.196.4.4 0 0 1-.047.196.334.334 0 0 1-.128.132.377.377 0 0 1-.191.047Zm0-.162a.172.172 0 0 0 .137-.056.23.23 0 0 0 .049-.157.23.23 0 0 0-.05-.157.172.172 0 0 0-.136-.056.172.172 0 0 0-.137.056.23.23 0 0 0-.049.157c0 .067.017.12.05.157a.172.172 0 0 0 .136.056ZM32.604 54.018a.275.275 0 0 1-.224-.101.418.418 0 0 1-.084-.274c0-.115.028-.206.084-.274a.275.275 0 0 1 .224-.101.349.349 0 0 1 .195.058v-.391h.177V54h-.13l-.015-.06a.39.39 0 0 1-.227.078Zm.045-.162a.307.307 0 0 0 .15-.04v-.346a.307.307 0 0 0-.15-.04c-.116 0-.174.071-.174.213 0 .142.058.213.174.213ZM33.295 54.333a.343.343 0 0 1-.187-.05l.054-.147a.233.233 0 0 0 .12.035.129.129 0 0 0 .083-.025.206.206 0 0 0 .055-.089l.021-.056-.287-.715h.19l.187.483.188-.483h.176l-.325.84a.352.352 0 0 1-.106.16.276.276 0 0 1-.169.047ZM28.861 56v-1.065h.177v.391a.37.37 0 0 1 .201-.058c.084 0 .149.024.194.071.045.048.067.115.067.204V56h-.177v-.43c0-.051-.01-.087-.029-.108-.02-.022-.053-.032-.101-.032a.306.306 0 0 0-.155.04V56h-.177ZM30.165 56.018c-.184 0-.276-.092-.276-.275v-.298h-.209v-.159h.209v-.203l.177-.076v.279h.27v.159h-.27v.271c0 .051.01.087.03.108.019.022.052.032.1.032a.32.32 0 0 0 .171-.051l.046.15a.482.482 0 0 1-.248.063ZM30.546 56v-.714h.105l.014.054a.237.237 0 0 1 .165-.072c.062 0 .107.024.136.072a.22.22 0 0 1 .159-.072c.051 0 .091.016.12.049a.19.19 0 0 1 .045.133V56h-.153v-.53c0-.035-.02-.053-.059-.053a.124.124 0 0 0-.084.032V56h-.152v-.53c0-.035-.02-.053-.059-.053-.03 0-.058.01-.084.031V56h-.153ZM31.936 56.018c-.183 0-.276-.092-.276-.275v-.648h-.276v-.16h.453v.781c0 .051.01.087.03.108.02.022.053.032.101.032a.32.32 0 0 0 .171-.051l.045.15a.482.482 0 0 1-.247.063Z"/></g><g opacity=".4"><path d="M32.806 26.018c-.184 0-.276-.092-.276-.275v-.648h-.276v-.16h.453v.782c0 .05.01.087.03.108.02.02.053.031.101.031a.32.32 0 0 0 .171-.051l.045.15a.482.482 0 0 1-.248.063ZM33.448 26.018a.308.308 0 0 1-.203-.06.21.21 0 0 1-.072-.171c0-.07.023-.123.07-.16a.318.318 0 0 1 .201-.056h.223v-.014c0-.05-.012-.085-.036-.107-.024-.021-.064-.032-.12-.032a.483.483 0 0 0-.246.066l-.052-.143a.672.672 0 0 1 .318-.073c.108 0 .187.022.238.067.05.045.075.116.075.212V26h-.13l-.015-.062a.414.414 0 0 1-.25.08Zm.038-.15a.362.362 0 0 0 .181-.045v-.119h-.207c-.038 0-.065.007-.082.02-.017.012-.026.031-.026.057 0 .029.011.05.033.065a.185.185 0 0 0 .101.022ZM34.081 26v-.714h.131l.015.061a.375.375 0 0 1 .233-.08c.083.001.148.025.193.072.045.048.068.116.068.204V26h-.178v-.43c0-.052-.01-.088-.029-.109-.02-.02-.053-.031-.101-.031a.306.306 0 0 0-.154.04V26h-.178ZM35.238 26.333a.564.564 0 0 1-.302-.08l.057-.145a.43.43 0 0 0 .233.063c.063 0 .11-.013.139-.038.03-.026.044-.064.044-.117v-.072a.388.388 0 0 1-.195.059.287.287 0 0 1-.27-.176.46.46 0 0 1-.038-.192.46.46 0 0 1 .038-.192.287.287 0 0 1 .27-.176.39.39 0 0 1 .227.079l.014-.06h.131v.742c0 .1-.03.175-.09.227-.059.052-.145.078-.258.078Zm.021-.492a.307.307 0 0 0 .15-.04v-.33a.307.307 0 0 0-.15-.041c-.058 0-.102.018-.13.053a.235.235 0 0 0-.044.152c0 .066.014.117.043.153.03.035.073.053.131.053ZM37.915 26.018a.409.409 0 0 1-.292-.1.36.36 0 0 1-.106-.275.4.4 0 0 1 .046-.197.336.336 0 0 1 .129-.13.38.38 0 0 1 .192-.048c.071 0 .133.015.185.044a.31.31 0 0 1 .122.124.382.382 0 0 1 .042.226.35.35 0 0 1-.005.043h-.532c.02.108.093.163.221.163a.405.405 0 0 0 .22-.069l.066.13a.517.517 0 0 1-.138.068.513.513 0 0 1-.15.021Zm-.217-.447h.363c-.017-.102-.077-.153-.178-.153-.102 0-.163.051-.185.153ZM38.431 26v-.714h.131l.015.061a.375.375 0 0 1 .233-.08c.084.001.148.025.193.072.045.048.067.116.067.204V26h-.177v-.43c0-.052-.01-.088-.029-.109-.02-.02-.053-.031-.101-.031a.306.306 0 0 0-.154.04V26h-.178ZM36.195 30.018a.428.428 0 0 1-.203-.046.324.324 0 0 1-.134-.13.4.4 0 0 1-.047-.199.4.4 0 0 1 .047-.2.324.324 0 0 1 .134-.13.428.428 0 0 1 .203-.045c.093 0 .178.024.255.073l-.062.146a.487.487 0 0 0-.098-.044.316.316 0 0 0-.09-.013c-.14 0-.209.071-.209.213 0 .142.07.213.209.213a.32.32 0 0 0 .098-.015.524.524 0 0 0 .108-.053l.066.141a.468.468 0 0 1-.277.089ZM36.691 30v-1.065h.177v.392a.37.37 0 0 1 .201-.059c.084 0 .149.024.194.071.045.048.068.116.068.203V30h-.178v-.43c0-.052-.01-.088-.029-.108-.02-.021-.053-.032-.101-.032a.306.306 0 0 0-.155.04V30h-.177ZM37.798 30.018a.308.308 0 0 1-.203-.06.21.21 0 0 1-.073-.171c0-.07.024-.123.07-.16a.318.318 0 0 1 .202-.056h.224v-.014c0-.05-.013-.085-.037-.107-.024-.021-.064-.032-.12-.032a.483.483 0 0 0-.245.066l-.053-.143a.672.672 0 0 1 .318-.073c.108 0 .187.022.238.067.05.045.075.116.075.212V30h-.13l-.015-.062a.414.414 0 0 1-.25.08Zm.038-.15a.362.362 0 0 0 .181-.045v-.119h-.207c-.038 0-.065.007-.082.02-.017.012-.026.031-.026.057 0 .029.011.05.033.065a.185.185 0 0 0 .101.022ZM38.474 30v-.714h.138l.017.099a.348.348 0 0 1 .12-.09.365.365 0 0 1 .146-.027c.073 0 .136.019.189.057l-.066.153a.229.229 0 0 0-.14-.046c-.085 0-.16.04-.228.122V30h-.176ZM39.609 30.018a.638.638 0 0 1-.344-.089l.065-.137a.464.464 0 0 0 .131.056c.049.014.1.02.152.02.103 0 .155-.024.155-.073 0-.02-.006-.035-.017-.044-.01-.009-.03-.015-.06-.018l-.165-.02a.297.297 0 0 1-.168-.063c-.037-.034-.055-.082-.055-.145 0-.076.027-.134.081-.175a.384.384 0 0 1 .235-.062.66.66 0 0 1 .308.072l-.057.141a.5.5 0 0 0-.254-.063c-.09 0-.136.024-.136.072 0 .019.006.033.017.042a.12.12 0 0 0 .06.018l.164.02c.077.008.133.03.17.063.036.034.054.082.054.146a.205.205 0 0 1-.086.177.423.423 0 0 1-.25.062ZM40.525 30.018a.409.409 0 0 1-.292-.1.36.36 0 0 1-.106-.275.4.4 0 0 1 .046-.197.336.336 0 0 1 .129-.13.38.38 0 0 1 .192-.048c.071 0 .133.015.185.044a.31.31 0 0 1 .122.124.382.382 0 0 1 .042.226.35.35 0 0 1-.006.043h-.53c.018.108.092.163.22.163a.405.405 0 0 0 .22-.069l.066.13a.517.517 0 0 1-.138.068.513.513 0 0 1-.15.021Zm-.217-.447h.363c-.017-.102-.077-.153-.178-.153-.102 0-.163.051-.185.153ZM41.475 30.018c-.184 0-.276-.092-.276-.275v-.298h-.209v-.159h.209v-.203l.177-.076v.279h.27v.159h-.27v.271c0 .051.01.087.03.108.019.021.053.032.1.032a.32.32 0 0 0 .171-.051l.045.15a.482.482 0 0 1-.247.063ZM43.965 30.018c-.11 0-.194-.028-.252-.085-.058-.056-.087-.139-.087-.247v-.661h.18v.65c0 .116.053.175.16.175.107 0 .161-.059.161-.176v-.649h.177v.662c0 .107-.029.19-.087.246-.058.057-.142.085-.252.085ZM44.745 30v-.808h-.3v-.167h.78v.167h-.3V30zM45.417 30v-.975h.64v.165h-.46v.243h.388v.165h-.388V30zM46.275 29.646v-.126h.6v.126zM47.445 30.018a.44.44 0 0 1-.27-.075.242.242 0 0 1-.1-.204c0-.047.011-.089.035-.125a.297.297 0 0 1 .117-.096v-.003a.228.228 0 0 1-.118-.208c0-.085.03-.151.091-.199a.387.387 0 0 1 .245-.071c.102 0 .183.023.244.07.061.046.092.109.092.188a.23.23 0 0 1-.116.201v.003c.05.023.088.053.113.09a.241.241 0 0 1 .038.138.256.256 0 0 1-.1.214.43.43 0 0 1-.271.077Zm.061-.573c.063-.033.093-.077.093-.132 0-.074-.051-.111-.154-.111a.205.205 0 0 0-.113.027.088.088 0 0 0-.042.078c0 .026.01.047.028.064.019.016.047.03.085.043l.103.031Zm-.061.408c.06 0 .106-.011.14-.034a.107.107 0 0 0 .049-.094.083.083 0 0 0-.029-.067.235.235 0 0 0-.084-.04l-.139-.044a.282.282 0 0 0-.096.067.125.125 0 0 0-.03.083c0 .042.016.074.049.096a.25.25 0 0 0 .14.033ZM35.822 32v-.714h.13l.015.061a.375.375 0 0 1 .233-.08c.084.001.148.025.193.072.045.048.067.116.067.203V32h-.177v-.43c0-.052-.01-.088-.029-.108-.02-.021-.053-.032-.101-.032a.306.306 0 0 0-.154.04V32h-.178ZM36.928 32.018a.308.308 0 0 1-.203-.06.21.21 0 0 1-.073-.171c0-.07.024-.123.07-.16a.318.318 0 0 1 .202-.056h.223v-.014c0-.05-.011-.085-.035-.107-.025-.021-.065-.032-.12-.032a.483.483 0 0 0-.246.066l-.053-.143a.672.672 0 0 1 .318-.073c.108 0 .187.022.238.067.05.045.075.116.075.212V32h-.13l-.015-.062a.414.414 0 0 1-.25.08Zm.038-.15a.362.362 0 0 0 .181-.045v-.119h-.206c-.039 0-.066.007-.083.02-.017.012-.026.031-.026.057 0 .029.011.05.033.065a.185.185 0 0 0 .101.022ZM37.506 32v-.714h.105l.014.054a.237.237 0 0 1 .164-.072c.063 0 .108.024.137.072a.22.22 0 0 1 .159-.072c.051 0 .091.016.12.049a.19.19 0 0 1 .045.133V32h-.153v-.53c0-.035-.02-.053-.059-.053a.124.124 0 0 0-.084.032V32h-.153v-.53c0-.035-.019-.053-.058-.053-.03 0-.058.01-.084.031V32h-.153ZM38.785 32.018a.409.409 0 0 1-.292-.1.36.36 0 0 1-.107-.275.4.4 0 0 1 .047-.197.336.336 0 0 1 .129-.13.38.38 0 0 1 .192-.048c.071 0 .133.015.185.044a.31.31 0 0 1 .122.124.382.382 0 0 1 .042.226.35.35 0 0 1-.006.043h-.53c.018.108.092.163.22.163a.405.405 0 0 0 .22-.069l.066.13a.517.517 0 0 1-.138.068.513.513 0 0 1-.15.021Zm-.217-.447h.363c-.017-.102-.077-.153-.178-.153-.102 0-.163.051-.185.153ZM41.265 32l-.28-.714h.188l.188.494.187-.494h.177l-.28.714zM42.136 32v-.555h-.276v-.159h.453v.555h.276V32h-.453Zm.074-.843a.116.116 0 0 1-.086-.035.116.116 0 0 1-.034-.085c0-.034.011-.063.034-.085a.116.116 0 0 1 .086-.035.116.116 0 0 1 .12.12.116.116 0 0 1-.035.085.116.116 0 0 1-.085.035ZM43.135 32.018a.409.409 0 0 1-.292-.1.36.36 0 0 1-.107-.275.4.4 0 0 1 .047-.197.336.336 0 0 1 .129-.13.38.38 0 0 1 .192-.048c.071 0 .133.015.185.044a.31.31 0 0 1 .122.124.382.382 0 0 1 .042.226.35.35 0 0 1-.006.043h-.53c.018.108.092.163.22.163a.405.405 0 0 0 .22-.069l.066.13a.517.517 0 0 1-.138.068.513.513 0 0 1-.15.021Zm-.217-.447h.363c-.017-.102-.077-.153-.178-.153-.102 0-.163.051-.185.153ZM43.698 32l-.165-.714h.157l.111.497.108-.414h.12l.108.414.111-.497h.15l-.166.714h-.162l-.105-.405-.105.405zM44.514 32.315v-1.029h.13l.015.06a.39.39 0 0 1 .227-.078c.094 0 .169.034.224.101a.418.418 0 0 1 .084.274.418.418 0 0 1-.084.274.275.275 0 0 1-.224.101.349.349 0 0 1-.195-.059v.356h-.177Zm.327-.459c.116 0 .174-.071.174-.213 0-.142-.058-.213-.174-.213-.05 0-.1.014-.15.04v.346c.05.026.1.04.15.04ZM45.705 32.018a.377.377 0 0 1-.19-.047.334.334 0 0 1-.13-.132.4.4 0 0 1-.046-.196.4.4 0 0 1 .046-.197.336.336 0 0 1 .13-.13.377.377 0 0 1 .19-.048c.072 0 .136.016.19.047a.336.336 0 0 1 .13.131.4.4 0 0 1 .046.197.4.4 0 0 1-.047.196.334.334 0 0 1-.129.132.377.377 0 0 1-.19.047Zm0-.162a.172.172 0 0 0 .136-.056.23.23 0 0 0 .05-.157.23.23 0 0 0-.05-.157.172.172 0 0 0-.136-.056.172.172 0 0 0-.136.056.23.23 0 0 0-.05.157c0 .067.017.12.05.157a.172.172 0 0 0 .136.056ZM46.303 32v-.714h.139l.017.099a.348.348 0 0 1 .12-.09.365.365 0 0 1 .146-.027c.073 0 .136.019.189.057l-.066.153a.229.229 0 0 0-.14-.046c-.084 0-.16.04-.227.122V32h-.178ZM47.565 32.018c-.184 0-.276-.092-.276-.275v-.298h-.209v-.159h.209v-.203l.177-.076v.279h.27v.159h-.27v.271c0 .051.01.087.03.108.019.021.052.032.1.032a.32.32 0 0 0 .172-.051l.044.15a.482.482 0 0 1-.247.063ZM50.115 32.018a.428.428 0 0 1-.203-.046.324.324 0 0 1-.134-.13.4.4 0 0 1-.047-.199.4.4 0 0 1 .047-.2.324.324 0 0 1 .134-.13.428.428 0 0 1 .203-.045c.093 0 .178.024.255.073l-.062.146a.487.487 0 0 0-.098-.044.316.316 0 0 0-.09-.013c-.14 0-.209.071-.209.213 0 .142.07.213.209.213a.32.32 0 0 0 .099-.015.524.524 0 0 0 .107-.053l.066.141a.468.468 0 0 1-.277.089ZM50.925 32.018a.377.377 0 0 1-.19-.047.334.334 0 0 1-.13-.132.4.4 0 0 1-.046-.196.4.4 0 0 1 .047-.197.336.336 0 0 1 .128-.13.377.377 0 0 1 .191-.048c.072 0 .136.016.19.047a.336.336 0 0 1 .13.131.4.4 0 0 1 .046.197.4.4 0 0 1-.046.196.334.334 0 0 1-.13.132.377.377 0 0 1-.19.047Zm0-.162a.172.172 0 0 0 .136-.056.23.23 0 0 0 .05-.157.23.23 0 0 0-.05-.157.172.172 0 0 0-.136-.056.172.172 0 0 0-.136.056.23.23 0 0 0-.05.157c0 .067.017.12.05.157a.172.172 0 0 0 .136.056ZM51.481 32v-.714h.131l.015.061a.375.375 0 0 1 .233-.08c.084.001.148.025.193.072.045.048.067.116.067.203V32h-.176v-.43c0-.052-.01-.088-.03-.108-.02-.021-.053-.032-.101-.032a.306.306 0 0 0-.155.04V32h-.177ZM52.785 32.018c-.184 0-.276-.092-.276-.275v-.298H52.3v-.159h.209v-.203l.177-.076v.279h.27v.159h-.27v.271c0 .051.01.087.03.108.019.021.052.032.1.032a.32.32 0 0 0 .171-.051l.045.15a.482.482 0 0 1-.247.063ZM53.575 32.018a.409.409 0 0 1-.292-.1.36.36 0 0 1-.107-.275.4.4 0 0 1 .047-.197.336.336 0 0 1 .129-.13.38.38 0 0 1 .192-.048c.071 0 .133.015.185.044a.31.31 0 0 1 .123.124.382.382 0 0 1 .041.226.35.35 0 0 1-.005.043h-.532c.02.108.093.163.221.163a.405.405 0 0 0 .22-.069l.067.13a.517.517 0 0 1-.139.068.513.513 0 0 1-.15.021Zm-.217-.447h.363c-.017-.102-.077-.153-.178-.153-.102 0-.163.051-.185.153ZM54.091 32v-.714h.131l.015.061a.375.375 0 0 1 .233-.08c.084.001.148.025.193.072.045.048.068.116.068.203V32h-.178v-.43c0-.052-.01-.088-.029-.108-.02-.021-.053-.032-.101-.032a.306.306 0 0 0-.155.04V32h-.177ZM55.395 32.018c-.184 0-.276-.092-.276-.275v-.298h-.209v-.159h.209v-.203l.177-.076v.279h.27v.159h-.27v.271c0 .051.01.087.03.108.019.021.053.032.1.032a.32.32 0 0 0 .171-.051l.045.15a.482.482 0 0 1-.247.063ZM57.618 32l-.165-.714h.157l.111.497.108-.414h.12l.108.414.111-.497h.15l-.166.714h-.162l-.105-.405-.105.405zM58.666 32v-.555h-.276v-.159h.453v.555h.276V32h-.453Zm.074-.843a.116.116 0 0 1-.086-.035.116.116 0 0 1-.034-.085c0-.034.012-.063.035-.085a.116.116 0 0 1 .085-.035.116.116 0 0 1 .12.12.116.116 0 0 1-.035.085.116.116 0 0 1-.085.035ZM59.574 32.018a.275.275 0 0 1-.224-.101.418.418 0 0 1-.084-.274c0-.115.028-.206.084-.274a.275.275 0 0 1 .224-.101.349.349 0 0 1 .195.058v-.391h.177V32h-.13l-.016-.06a.39.39 0 0 1-.226.078Zm.045-.162a.307.307 0 0 0 .15-.04v-.346a.307.307 0 0 0-.15-.04c-.116 0-.174.071-.174.213 0 .142.058.213.174.213ZM60.615 32.018c-.184 0-.276-.092-.276-.275v-.298h-.209v-.159h.209v-.203l.177-.076v.279h.27v.159h-.27v.271c0 .051.01.087.03.108.019.021.053.032.1.032a.32.32 0 0 0 .171-.051l.045.15a.482.482 0 0 1-.247.063ZM61.051 32v-1.065h.177v.392a.37.37 0 0 1 .201-.059c.084 0 .149.024.194.071.045.048.068.116.068.203V32h-.178v-.43c0-.052-.01-.088-.029-.108-.02-.021-.053-.032-.101-.032a.306.306 0 0 0-.155.04V32h-.177ZM63.054 32.018a.275.275 0 0 1-.224-.101.418.418 0 0 1-.084-.274c0-.115.028-.206.084-.274a.275.275 0 0 1 .224-.101.349.349 0 0 1 .195.058v-.391h.177V32h-.13l-.016-.06a.39.39 0 0 1-.226.078Zm.045-.162a.307.307 0 0 0 .15-.04v-.346a.307.307 0 0 0-.15-.04c-.116 0-.174.071-.174.213 0 .142.058.213.174.213ZM64.016 32.018a.409.409 0 0 1-.293-.1.36.36 0 0 1-.106-.275.4.4 0 0 1 .046-.197.336.336 0 0 1 .129-.13.38.38 0 0 1 .192-.048c.071 0 .133.015.185.044a.31.31 0 0 1 .123.124.382.382 0 0 1 .041.226.35.35 0 0 1-.005.043h-.532c.02.108.093.163.221.163a.405.405 0 0 0 .22-.069l.067.13a.517.517 0 0 1-.139.068.513.513 0 0 1-.15.021Zm-.218-.447h.363c-.017-.102-.077-.153-.178-.153-.101 0-.163.051-.185.153ZM64.755 32l-.28-.714h.188l.188.494.187-.494h.177l-.28.714zM65.626 32v-.555h-.276v-.159h.454v.555h.275V32h-.453Zm.074-.843a.116.116 0 0 1-.086-.035.116.116 0 0 1-.034-.085c0-.034.011-.063.034-.085a.116.116 0 0 1 .086-.035.116.116 0 0 1 .12.12.116.116 0 0 1-.034.085.116.116 0 0 1-.086.035ZM66.645 32.018a.428.428 0 0 1-.203-.046.324.324 0 0 1-.134-.13.4.4 0 0 1-.047-.199.4.4 0 0 1 .047-.2.324.324 0 0 1 .134-.13.428.428 0 0 1 .203-.045c.093 0 .178.024.255.073l-.062.146a.487.487 0 0 0-.098-.044.316.316 0 0 0-.09-.013c-.14 0-.209.071-.209.213 0 .142.07.213.208.213a.32.32 0 0 0 .1-.015.524.524 0 0 0 .108-.053l.066.141a.468.468 0 0 1-.278.089ZM67.495 32.018a.409.409 0 0 1-.292-.1.36.36 0 0 1-.107-.275.4.4 0 0 1 .047-.197.336.336 0 0 1 .129-.13.38.38 0 0 1 .192-.048c.071 0 .133.015.185.044a.31.31 0 0 1 .123.124.382.382 0 0 1 .041.226.35.35 0 0 1-.005.043h-.532c.02.108.093.163.221.163a.405.405 0 0 0 .22-.069l.067.13a.517.517 0 0 1-.139.068.513.513 0 0 1-.15.021Zm-.217-.447h.363c-.017-.102-.077-.153-.178-.153-.101 0-.163.051-.185.153ZM68.025 31.646v-.126h.6v.126zM68.928 32l-.165-.714h.157l.111.497.108-.414h.12l.108.414.111-.497h.15l-.166.714H69.3l-.105-.405-.105.405zM69.976 32v-.555h-.275v-.159h.453v.555h.275V32h-.453Zm.074-.843a.116.116 0 0 1-.085-.035.116.116 0 0 1-.035-.085c0-.034.011-.063.034-.085a.116.116 0 0 1 .086-.035c.034 0 .063.011.086.034a.116.116 0 0 1 .034.086.116.116 0 0 1-.034.085.116.116 0 0 1-.086.035ZM70.884 32.018a.275.275 0 0 1-.224-.101.418.418 0 0 1-.084-.274c0-.115.028-.206.084-.274a.275.275 0 0 1 .224-.101.349.349 0 0 1 .195.058v-.391h.177V32h-.13l-.016-.06a.39.39 0 0 1-.226.078Zm.045-.162a.307.307 0 0 0 .15-.04v-.346a.307.307 0 0 0-.15-.04c-.116 0-.174.071-.174.213 0 .142.058.213.174.213ZM71.925 32.018c-.184 0-.276-.092-.276-.275v-.298h-.209v-.159h.209v-.203l.177-.076v.279h.27v.159h-.27v.271c0 .051.01.087.03.108.019.021.053.032.1.032a.32.32 0 0 0 .171-.051l.046.15a.482.482 0 0 1-.248.063ZM72.362 32v-1.065h.177v.392a.37.37 0 0 1 .2-.059c.084 0 .149.024.194.071.045.048.067.116.067.203V32h-.177v-.43c0-.052-.01-.088-.029-.108-.02-.021-.053-.032-.101-.032a.306.306 0 0 0-.154.04V32h-.177ZM73.383 32.286l-.02-.09a.229.229 0 0 0 .124-.057.225.225 0 0 0 .064-.129.028.028 0 0 1-.009.002h-.009a.114.114 0 0 1-.086-.036.125.125 0 0 1-.034-.09c0-.037.012-.068.035-.094a.118.118 0 0 1 .091-.038c.044 0 .078.015.102.045.024.03.036.072.036.124 0 .064-.013.12-.038.172a.353.353 0 0 1-.105.128.335.335 0 0 1-.151.063ZM75.197 32v-.555h-.276v-.159h.453v.555h.275V32h-.453Zm.073-.843a.116.116 0 0 1-.085-.035.116.116 0 0 1-.035-.085c0-.034.011-.063.034-.085a.116.116 0 0 1 .086-.035c.034 0 .063.011.086.034a.116.116 0 0 1 .034.086.116.116 0 0 1-.034.085.116.116 0 0 1-.086.035ZM75.841 32v-.714h.131l.015.061a.375.375 0 0 1 .233-.08c.084.001.148.025.193.072.045.048.068.116.068.203V32h-.177v-.43c0-.052-.01-.088-.03-.108-.02-.021-.053-.032-.101-.032a.306.306 0 0 0-.155.04V32h-.177ZM76.936 32v-.555h-.276v-.159h.453v.555h.276V32h-.453Zm.074-.843a.116.116 0 0 1-.086-.035.116.116 0 0 1-.034-.085c0-.034.011-.063.034-.085a.116.116 0 0 1 .086-.035.116.116 0 0 1 .12.12.116.116 0 0 1-.035.085.116.116 0 0 1-.085.035ZM78.015 32.018c-.184 0-.276-.092-.276-.275v-.298h-.209v-.159h.209v-.203l.177-.076v.279h.27v.159h-.27v.271c0 .051.01.087.03.108.019.021.053.032.1.032a.32.32 0 0 0 .171-.051l.045.15a.482.482 0 0 1-.247.063ZM78.677 32v-.555H78.4v-.159h.453v.555h.277V32h-.453Zm.073-.843a.116.116 0 0 1-.085-.035.116.116 0 0 1-.035-.085c0-.034.012-.063.035-.085a.116.116 0 0 1 .085-.035c.034 0 .063.011.085.034a.116.116 0 0 1 .035.086.116.116 0 0 1-.035.085.116.116 0 0 1-.085.035ZM79.558 32.018a.308.308 0 0 1-.203-.06.21.21 0 0 1-.073-.171c0-.07.024-.123.07-.16a.318.318 0 0 1 .202-.056h.224v-.014c0-.05-.013-.085-.037-.107-.023-.021-.064-.032-.12-.032a.483.483 0 0 0-.246.066l-.052-.143a.672.672 0 0 1 .318-.073c.108 0 .187.022.238.067.05.045.075.116.075.212V32h-.13l-.015-.062a.414.414 0 0 1-.25.08Zm.038-.15a.362.362 0 0 0 .181-.045v-.119h-.207c-.037 0-.065.007-.082.02-.017.012-.025.031-.025.057 0 .029.01.05.032.065a.185.185 0 0 0 .101.022ZM80.656 32.018c-.184 0-.276-.092-.276-.275v-.648h-.275v-.16h.453v.782c0 .05.01.087.029.108.02.02.053.031.101.031a.32.32 0 0 0 .171-.051l.045.15a.482.482 0 0 1-.248.063ZM81.075 31.646v-.126h.6v.126zM82.239 32.018a.638.638 0 0 1-.344-.089l.065-.137a.464.464 0 0 0 .131.056c.049.014.1.02.153.02.102 0 .154-.024.154-.073 0-.02-.005-.035-.017-.044-.01-.009-.03-.015-.06-.018l-.165-.02a.297.297 0 0 1-.168-.063c-.037-.034-.055-.082-.055-.145 0-.076.027-.134.081-.175a.384.384 0 0 1 .236-.062.66.66 0 0 1 .307.072l-.057.141a.5.5 0 0 0-.254-.063c-.09 0-.136.024-.136.072 0 .019.006.033.017.042a.12.12 0 0 0 .06.018l.164.02c.076.008.133.03.17.063.036.034.054.082.054.146a.205.205 0 0 1-.086.177.423.423 0 0 1-.25.062ZM83.175 32.018a.428.428 0 0 1-.203-.046.324.324 0 0 1-.134-.13.4.4 0 0 1-.047-.199.4.4 0 0 1 .047-.2.324.324 0 0 1 .134-.13.428.428 0 0 1 .203-.045c.093 0 .178.024.255.073l-.062.146a.487.487 0 0 0-.098-.044.316.316 0 0 0-.09-.013c-.14 0-.209.071-.209.213 0 .142.07.213.208.213a.32.32 0 0 0 .1-.015.524.524 0 0 0 .108-.053l.066.141a.468.468 0 0 1-.278.089ZM83.909 32.018a.308.308 0 0 1-.204-.06.21.21 0 0 1-.073-.171c0-.07.024-.123.07-.16a.318.318 0 0 1 .202-.056h.224v-.014c0-.05-.013-.085-.037-.107-.023-.021-.063-.032-.12-.032a.483.483 0 0 0-.246.066l-.052-.143a.672.672 0 0 1 .318-.073c.108 0 .187.022.238.067.05.045.075.116.075.212V32h-.13l-.015-.062a.414.414 0 0 1-.25.08Zm.037-.15a.362.362 0 0 0 .181-.045v-.119h-.206c-.039 0-.066.007-.083.02-.017.012-.025.031-.025.057 0 .029.01.05.032.065a.185.185 0 0 0 .101.022ZM85.006 32.018c-.184 0-.275-.092-.275-.275v-.648h-.276v-.16h.453v.782c0 .05.01.087.029.108.02.02.053.031.101.031a.32.32 0 0 0 .171-.051l.045.15a.482.482 0 0 1-.248.063ZM85.766 32.018a.409.409 0 0 1-.293-.1.36.36 0 0 1-.106-.275.4.4 0 0 1 .046-.197.336.336 0 0 1 .129-.13.38.38 0 0 1 .192-.048c.071 0 .133.015.185.044a.31.31 0 0 1 .123.124.382.382 0 0 1 .041.226.35.35 0 0 1-.005.043h-.532c.02.108.093.163.221.163a.405.405 0 0 0 .22-.069l.067.13a.517.517 0 0 1-.139.068.513.513 0 0 1-.15.021Zm-.218-.447h.363c-.017-.102-.077-.153-.179-.153-.1 0-.162.051-.184.153ZM87.114 32v-.162h.264v-.511l-.176.136-.084-.115.317-.302h.123v.792h.264V32zM88.335 32.018a.127.127 0 0 1-.094-.038.127.127 0 0 1-.038-.094.129.129 0 0 1 .132-.132.129.129 0 0 1 .132.132.127.127 0 0 1-.038.094.127.127 0 0 1-.094.038ZM89.205 32.018a.323.323 0 0 1-.274-.125c-.063-.084-.095-.206-.095-.366s.032-.281.095-.365a.323.323 0 0 1 .274-.125c.119 0 .21.042.274.125.063.084.095.206.095.366s-.032.281-.095.365a.323.323 0 0 1-.274.125Zm-.183-.399.324-.336a.152.152 0 0 0-.141-.081c-.125 0-.188.108-.188.325a.89.89 0 0 0 .005.092Zm.183.234c.125 0 .188-.109.188-.326a.862.862 0 0 0-.005-.091l-.324.336a.154.154 0 0 0 .141.081ZM35.822 34v-1.065h.176v.391a.37.37 0 0 1 .202-.058c.083 0 .148.024.193.071.045.048.067.115.067.203V34h-.177v-.43c0-.051-.01-.087-.029-.108-.02-.022-.053-.032-.101-.032a.306.306 0 0 0-.154.04V34h-.178ZM37.125 34.018c-.184 0-.276-.092-.276-.275v-.298h-.209v-.159h.209v-.203l.177-.076v.279h.27v.159h-.27v.271c0 .051.01.087.03.108.019.022.053.032.1.032a.32.32 0 0 0 .172-.051l.044.15a.482.482 0 0 1-.247.063ZM37.995 34.018c-.184 0-.276-.092-.276-.275v-.298h-.209v-.159h.209v-.203l.177-.076v.279h.27v.159h-.27v.271c0 .051.01.087.03.108.019.022.052.032.1.032a.32.32 0 0 0 .171-.051l.045.15a.482.482 0 0 1-.247.063ZM38.424 34.315v-1.029h.13l.015.06a.39.39 0 0 1 .227-.078c.094 0 .169.034.224.101a.418.418 0 0 1 .083.274.418.418 0 0 1-.083.274.275.275 0 0 1-.224.101.349.349 0 0 1-.195-.059v.356h-.177Zm.327-.459c.116 0 .174-.071.174-.213 0-.142-.058-.213-.174-.213-.05 0-.1.014-.15.04v.346c.05.026.1.04.15.04ZM39.315 33.646v-.126h.6v.126zM40.525 34.018a.409.409 0 0 1-.292-.1.36.36 0 0 1-.106-.275.4.4 0 0 1 .046-.197.336.336 0 0 1 .129-.13.38.38 0 0 1 .192-.048c.071 0 .133.015.185.044a.31.31 0 0 1 .122.124.382.382 0 0 1 .042.226.35.35 0 0 1-.006.042h-.53c.018.11.092.164.22.164a.405.405 0 0 0 .22-.069l.066.13a.517.517 0 0 1-.138.068.513.513 0 0 1-.15.021Zm-.217-.447h.363c-.017-.102-.077-.153-.178-.153-.102 0-.163.051-.185.153ZM41.499 34.315v-.355a.388.388 0 0 1-.195.058.275.275 0 0 1-.224-.101.418.418 0 0 1-.084-.274c0-.115.028-.206.084-.274a.275.275 0 0 1 .224-.101.39.39 0 0 1 .226.078l.015-.06h.131v1.029h-.177Zm-.15-.459a.307.307 0 0 0 .15-.04v-.346a.307.307 0 0 0-.15-.04c-.116 0-.174.071-.174.213 0 .142.058.213.174.213ZM42.16 34.018c-.084 0-.148-.024-.193-.071-.045-.048-.068-.116-.068-.204v-.457h.177v.43c0 .051.01.087.03.108.02.022.053.032.101.032a.294.294 0 0 0 .08-.01.391.391 0 0 0 .075-.03v-.53h.176V34h-.13l-.015-.062a.382.382 0 0 1-.233.08ZM43.006 34v-.555h-.276v-.159h.453v.555h.276V34h-.453Zm.074-.843a.116.116 0 0 1-.086-.034.116.116 0 0 1-.034-.086c0-.034.011-.063.034-.086a.116.116 0 0 1 .086-.034c.034 0 .063.011.085.034a.116.116 0 0 1 .035.086.116.116 0 0 1-.035.086.116.116 0 0 1-.085.034ZM43.875 34l-.28-.714h.188l.188.494.187-.494h.177l-.28.714zM46.182 34l.291-.496-.284-.479h.215l.178.317.18-.317h.198l-.283.483.291.492h-.215l-.186-.33-.187.33zM47.145 33.646v-.126h.6v.126zM48.315 34.018c-.11 0-.194-.028-.252-.085-.058-.056-.087-.139-.087-.247v-.661h.18v.65c0 .117.053.175.16.175.107 0 .161-.059.161-.176v-.649h.177v.661c0 .108-.029.19-.087.247-.058.057-.142.085-.252.085ZM48.771 34l.321-.975h.186l.321.975h-.189l-.069-.216h-.321l-.069.216h-.18Zm.3-.381h.219l-.11-.358-.109.358ZM49.755 33.646v-.126h.6v.126zM50.982 34.018c-.132 0-.233-.043-.302-.13-.07-.086-.105-.212-.105-.375 0-.164.035-.29.105-.376.07-.087.17-.13.302-.13.11 0 .205.035.285.107l-.092.139a.281.281 0 0 0-.192-.078c-.15 0-.224.112-.224.338 0 .224.075.337.224.337.04 0 .078-.008.111-.024a.37.37 0 0 0 .102-.075l.102.13a.466.466 0 0 1-.144.104.425.425 0 0 1-.172.033ZM51.795 34.018a.377.377 0 0 1-.19-.047.334.334 0 0 1-.13-.132.4.4 0 0 1-.046-.196.4.4 0 0 1 .046-.197.336.336 0 0 1 .13-.13.377.377 0 0 1 .19-.048c.072 0 .135.016.19.047a.336.336 0 0 1 .13.132.4.4 0 0 1 .046.196.4.4 0 0 1-.047.196.334.334 0 0 1-.128.132.377.377 0 0 1-.191.047Zm0-.162a.172.172 0 0 0 .136-.056.23.23 0 0 0 .05-.157.23.23 0 0 0-.05-.157.172.172 0 0 0-.136-.056.172.172 0 0 0-.137.056.23.23 0 0 0-.049.157c0 .067.017.12.05.157a.172.172 0 0 0 .136.056ZM52.296 34v-.714h.105l.013.054a.237.237 0 0 1 .165-.072c.062 0 .108.024.137.072a.22.22 0 0 1 .159-.072c.051 0 .091.016.12.049a.19.19 0 0 1 .045.133V34h-.153v-.53c0-.035-.02-.053-.059-.053a.124.124 0 0 0-.084.032V34h-.153v-.53c0-.035-.019-.053-.058-.053-.03 0-.058.01-.084.031V34h-.153ZM53.214 34.315v-1.029h.13l.015.06a.39.39 0 0 1 .227-.078c.094 0 .169.034.224.101a.418.418 0 0 1 .083.274.418.418 0 0 1-.083.274.275.275 0 0 1-.224.101.349.349 0 0 1-.195-.059v.356h-.177Zm.327-.459c.116 0 .174-.071.174-.213 0-.142-.058-.213-.174-.213-.05 0-.1.014-.15.04v.346c.05.026.1.04.15.04ZM54.328 34.018a.308.308 0 0 1-.203-.06.21.21 0 0 1-.073-.171c0-.07.024-.123.07-.16a.318.318 0 0 1 .202-.056h.224v-.014c0-.05-.013-.085-.037-.107-.024-.021-.064-.032-.12-.032a.483.483 0 0 0-.245.066l-.053-.143a.672.672 0 0 1 .318-.073c.108 0 .187.022.238.067.05.045.075.116.075.212V34h-.13l-.015-.062a.414.414 0 0 1-.25.08Zm.038-.15a.362.362 0 0 0 .181-.045v-.119h-.206c-.039 0-.066.007-.083.02-.017.012-.026.031-.026.057 0 .029.011.05.033.065a.185.185 0 0 0 .101.022ZM55.395 34.018c-.184 0-.276-.092-.276-.275v-.298h-.209v-.159h.209v-.203l.177-.076v.279h.27v.159h-.27v.271c0 .051.01.087.03.108.019.022.053.032.1.032a.32.32 0 0 0 .171-.051l.045.15a.482.482 0 0 1-.247.063ZM56.056 34v-.555h-.276v-.159h.453v.555h.277V34h-.453Zm.074-.843a.116.116 0 0 1-.086-.034.116.116 0 0 1-.034-.086c0-.034.011-.063.035-.086a.116.116 0 0 1 .085-.034.116.116 0 0 1 .12.12.116.116 0 0 1-.035.086.116.116 0 0 1-.085.034ZM57.066 34.018a.39.39 0 0 1-.227-.078l-.014.06h-.131v-1.065h.177v.391a.388.388 0 0 1 .195-.058c.094 0 .169.034.224.101a.418.418 0 0 1 .083.274.418.418 0 0 1-.083.274.275.275 0 0 1-.224.101Zm-.045-.162c.116 0 .174-.071.174-.213 0-.142-.058-.213-.174-.213-.05 0-.1.014-.15.04v.346c.05.026.1.04.15.04ZM58.036 34.018c-.184 0-.276-.092-.276-.275v-.648h-.276v-.16h.453v.781c0 .051.01.087.03.108.02.022.053.032.101.032a.32.32 0 0 0 .171-.051l.045.15a.482.482 0 0 1-.248.063ZM58.795 34.018a.409.409 0 0 1-.292-.1.36.36 0 0 1-.107-.275.4.4 0 0 1 .047-.197.336.336 0 0 1 .129-.13.38.38 0 0 1 .192-.048c.071 0 .133.015.185.044a.31.31 0 0 1 .123.124.382.382 0 0 1 .041.226.35.35 0 0 1-.005.042h-.532c.02.11.093.164.221.164a.405.405 0 0 0 .22-.069l.066.13a.517.517 0 0 1-.138.068.513.513 0 0 1-.15.021Zm-.217-.447h.363c-.017-.102-.077-.153-.178-.153-.102 0-.163.051-.185.153ZM61.425 34.018a.428.428 0 0 1-.203-.046.324.324 0 0 1-.134-.13.4.4 0 0 1-.047-.199.4.4 0 0 1 .047-.2.324.324 0 0 1 .134-.13.428.428 0 0 1 .203-.045c.093 0 .178.024.255.073l-.062.146a.487.487 0 0 0-.098-.044.316.316 0 0 0-.09-.013c-.14 0-.209.071-.209.213 0 .142.07.213.209.213a.32.32 0 0 0 .098-.015.524.524 0 0 0 .108-.053l.066.142a.468.468 0 0 1-.277.088ZM62.235 34.018a.377.377 0 0 1-.19-.047.334.334 0 0 1-.13-.132.4.4 0 0 1-.046-.196.4.4 0 0 1 .046-.197.336.336 0 0 1 .13-.13.377.377 0 0 1 .19-.048c.072 0 .135.016.19.047a.336.336 0 0 1 .13.132.4.4 0 0 1 .046.196.4.4 0 0 1-.047.196.334.334 0 0 1-.129.132.377.377 0 0 1-.19.047Zm0-.162a.172.172 0 0 0 .136-.056.23.23 0 0 0 .05-.157.23.23 0 0 0-.05-.157.172.172 0 0 0-.136-.056.172.172 0 0 0-.136.056.23.23 0 0 0-.05.157c0 .067.017.12.05.157a.172.172 0 0 0 .136.056ZM62.791 34v-.714h.131l.015.061a.375.375 0 0 1 .233-.08c.084.001.148.025.193.072.045.048.067.115.067.203V34h-.176v-.43c0-.051-.01-.087-.03-.108-.02-.022-.053-.032-.101-.032a.306.306 0 0 0-.154.04V34h-.178ZM64.095 34.018c-.184 0-.276-.092-.276-.275v-.298h-.209v-.159h.209v-.203l.177-.076v.279h.27v.159h-.27v.271c0 .051.01.087.03.108.019.022.052.032.1.032a.32.32 0 0 0 .171-.051l.046.15a.482.482 0 0 1-.248.063ZM64.886 34.018a.409.409 0 0 1-.293-.1.36.36 0 0 1-.106-.275.4.4 0 0 1 .046-.197.336.336 0 0 1 .129-.13.38.38 0 0 1 .192-.048c.071 0 .133.015.185.044a.31.31 0 0 1 .122.124.382.382 0 0 1 .042.226.35.35 0 0 1-.006.042h-.53c.018.11.092.164.22.164a.405.405 0 0 0 .22-.069l.066.13a.517.517 0 0 1-.138.068.513.513 0 0 1-.15.021Zm-.218-.447h.363c-.017-.102-.077-.153-.179-.153-.1 0-.162.051-.184.153ZM65.401 34v-.714h.131l.015.061a.375.375 0 0 1 .233-.08c.083.001.148.025.193.072.045.048.067.115.067.203V34h-.177v-.43c0-.051-.01-.087-.029-.108-.02-.022-.053-.032-.101-.032a.306.306 0 0 0-.155.04V34h-.177ZM66.705 34.018c-.184 0-.276-.092-.276-.275v-.298h-.209v-.159h.209v-.203l.177-.076v.279h.27v.159h-.27v.271c0 .051.01.087.03.108.019.022.053.032.1.032a.32.32 0 0 0 .171-.051l.046.15a.482.482 0 0 1-.248.063ZM69.106 34v-.555h-.275v-.159h.453v.555h.275V34h-.453Zm.074-.843a.116.116 0 0 1-.086-.034.116.116 0 0 1-.034-.086c0-.034.011-.063.034-.086a.116.116 0 0 1 .086-.034c.034 0 .063.011.085.034a.116.116 0 0 1 .035.086.116.116 0 0 1-.034.086.116.116 0 0 1-.086.034ZM70.106 34.018a.409.409 0 0 1-.293-.1.36.36 0 0 1-.106-.275.4.4 0 0 1 .046-.197.336.336 0 0 1 .129-.13.38.38 0 0 1 .192-.048c.071 0 .133.015.185.044a.31.31 0 0 1 .122.124.382.382 0 0 1 .042.226.35.35 0 0 1-.006.042h-.53c.018.11.092.164.22.164a.405.405 0 0 0 .22-.069l.066.13a.517.517 0 0 1-.138.068.513.513 0 0 1-.15.021Zm-.218-.447h.363c-.017-.102-.077-.153-.179-.153-.1 0-.162.051-.184.153ZM71.845 34.018a.409.409 0 0 1-.292-.1.36.36 0 0 1-.106-.275.4.4 0 0 1 .046-.197.336.336 0 0 1 .129-.13.38.38 0 0 1 .192-.048c.071 0 .133.015.185.044a.31.31 0 0 1 .123.124.382.382 0 0 1 .041.226.35.35 0 0 1-.005.042h-.532c.02.11.093.164.221.164a.405.405 0 0 0 .22-.069l.067.13a.517.517 0 0 1-.139.068.513.513 0 0 1-.15.021Zm-.217-.447h.363c-.017-.102-.076-.153-.178-.153s-.163.051-.185.153ZM72.624 34.018a.275.275 0 0 1-.224-.101.418.418 0 0 1-.084-.274c0-.115.028-.206.084-.274a.275.275 0 0 1 .224-.101.349.349 0 0 1 .195.058v-.391h.177V34h-.13l-.016-.06a.39.39 0 0 1-.226.078Zm.045-.162a.307.307 0 0 0 .15-.04v-.346a.307.307 0 0 0-.15-.04c-.116 0-.174.071-.174.213 0 .142.058.213.174.213ZM73.518 34.333a.564.564 0 0 1-.302-.08l.058-.145a.43.43 0 0 0 .232.063c.063 0 .11-.013.139-.038.03-.026.044-.065.044-.117v-.072a.388.388 0 0 1-.195.059.287.287 0 0 1-.27-.175.46.46 0 0 1-.038-.193.46.46 0 0 1 .038-.191.287.287 0 0 1 .27-.175.39.39 0 0 1 .226.077l.016-.06h.13v.742c0 .1-.03.175-.09.227-.059.052-.145.078-.258.078Zm.021-.492a.307.307 0 0 0 .15-.04v-.33a.307.307 0 0 0-.15-.041c-.058 0-.102.018-.13.053a.235.235 0 0 0-.044.153c0 .065.015.116.044.152.028.035.072.053.13.053ZM74.456 34.018a.409.409 0 0 1-.293-.1.36.36 0 0 1-.106-.275.4.4 0 0 1 .046-.197.336.336 0 0 1 .129-.13.38.38 0 0 1 .192-.048c.071 0 .133.015.185.044a.31.31 0 0 1 .123.124.382.382 0 0 1 .041.226.35.35 0 0 1-.005.042h-.531c.019.11.092.164.22.164a.405.405 0 0 0 .22-.069l.066.13a.517.517 0 0 1-.137.068.513.513 0 0 1-.15.021Zm-.218-.447h.363c-.017-.102-.077-.153-.178-.153-.102 0-.163.051-.185.153ZM35.863 38v-.714h.139l.017.099a.348.348 0 0 1 .12-.09.365.365 0 0 1 .146-.027c.073 0 .136.019.189.057l-.066.153a.229.229 0 0 0-.14-.046c-.085 0-.16.04-.228.123V38h-.177ZM37.045 38.018a.409.409 0 0 1-.292-.1.36.36 0 0 1-.107-.275.4.4 0 0 1 .047-.197.336.336 0 0 1 .129-.13.38.38 0 0 1 .192-.048c.071 0 .133.015.185.044a.31.31 0 0 1 .123.124.382.382 0 0 1 .041.226.35.35 0 0 1-.006.042h-.53c.019.11.092.164.22.164a.405.405 0 0 0 .22-.069l.066.13a.517.517 0 0 1-.138.068.513.513 0 0 1-.15.021Zm-.217-.447h.363c-.017-.102-.077-.153-.179-.153-.1 0-.162.051-.184.153ZM38.026 38.018c-.184 0-.276-.092-.276-.275v-.648h-.276v-.16h.453v.781c0 .051.01.087.03.108.02.022.053.032.101.032a.32.32 0 0 0 .171-.051l.045.15a.482.482 0 0 1-.248.063ZM40.479 38.018a.638.638 0 0 1-.343-.089l.064-.138a.464.464 0 0 0 .131.058c.049.013.1.019.152.019.104 0 .155-.025.155-.074 0-.02-.006-.034-.017-.043-.01-.009-.03-.015-.06-.018l-.165-.02a.297.297 0 0 1-.168-.063c-.037-.034-.055-.082-.055-.145 0-.076.027-.135.081-.176a.384.384 0 0 1 .236-.061.66.66 0 0 1 .307.072l-.057.141a.5.5 0 0 0-.254-.063c-.09 0-.136.024-.136.072 0 .019.006.033.017.042a.12.12 0 0 0 .06.018l.164.02c.076.008.133.03.17.063.036.034.054.082.054.146a.205.205 0 0 1-.086.177.423.423 0 0 1-.25.062ZM41.475 38.018c-.184 0-.276-.092-.276-.275v-.298h-.209v-.159h.209v-.203l.177-.076v.279h.27v.159h-.27v.271c0 .051.01.087.03.108.019.022.053.032.1.032a.32.32 0 0 0 .171-.051l.045.15a.482.482 0 0 1-.247.063ZM41.995 38.333a.343.343 0 0 1-.187-.05l.054-.147a.233.233 0 0 0 .12.035.129.129 0 0 0 .083-.025.206.206 0 0 0 .055-.089l.021-.056-.286-.715h.188l.188.483.187-.483h.178l-.326.84a.352.352 0 0 1-.106.16.276.276 0 0 1-.169.047ZM43.246 38.018c-.184 0-.276-.092-.276-.275v-.648h-.276v-.16h.453v.781c0 .051.01.087.03.108.02.022.053.032.101.032a.32.32 0 0 0 .171-.051l.045.15a.482.482 0 0 1-.248.063ZM44.005 38.018a.409.409 0 0 1-.292-.1.36.36 0 0 1-.107-.275.4.4 0 0 1 .047-.197.336.336 0 0 1 .129-.13.38.38 0 0 1 .192-.048c.071 0 .133.015.185.044a.31.31 0 0 1 .122.124.382.382 0 0 1 .042.226.35.35 0 0 1-.006.042h-.53c.018.11.092.164.22.164a.405.405 0 0 0 .22-.069l.066.13a.517.517 0 0 1-.138.068.513.513 0 0 1-.15.021Zm-.217-.447h.363c-.017-.102-.077-.153-.179-.153-.1 0-.162.051-.184.153ZM44.829 38.018a.638.638 0 0 1-.343-.089l.064-.138a.464.464 0 0 0 .131.058c.049.013.1.019.153.019.102 0 .154-.025.154-.074 0-.02-.005-.034-.017-.043-.01-.009-.03-.015-.06-.018l-.165-.02a.297.297 0 0 1-.168-.063c-.037-.034-.055-.082-.055-.145 0-.076.027-.135.081-.176a.384.384 0 0 1 .236-.061.66.66 0 0 1 .307.072l-.057.141a.5.5 0 0 0-.254-.063c-.09 0-.136.024-.136.072 0 .019.006.033.017.042a.12.12 0 0 0 .06.018l.164.02c.076.008.133.03.17.063.036.034.054.082.054.146a.205.205 0 0 1-.086.177.423.423 0 0 1-.25.062ZM45.391 38v-1.065h.178v.391a.37.37 0 0 1 .2-.058c.084 0 .149.024.194.071.045.048.067.115.067.203V38h-.177v-.43c0-.051-.01-.087-.029-.108-.02-.022-.053-.032-.101-.032a.306.306 0 0 0-.154.04V38h-.178ZM46.615 38.018a.409.409 0 0 1-.292-.1.36.36 0 0 1-.107-.275.4.4 0 0 1 .047-.197.336.336 0 0 1 .129-.13.38.38 0 0 1 .192-.048c.071 0 .133.015.185.044a.31.31 0 0 1 .122.124.382.382 0 0 1 .042.226.35.35 0 0 1-.006.042h-.53c.018.11.092.164.22.164a.405.405 0 0 0 .22-.069l.066.13a.517.517 0 0 1-.138.068.513.513 0 0 1-.15.021Zm-.217-.447h.363c-.017-.102-.077-.153-.179-.153-.1 0-.162.051-.184.153ZM47.486 38.018a.409.409 0 0 1-.293-.1.36.36 0 0 1-.106-.275.4.4 0 0 1 .046-.197.336.336 0 0 1 .129-.13.38.38 0 0 1 .192-.048c.071 0 .133.015.185.044a.31.31 0 0 1 .122.124.382.382 0 0 1 .042.226.35.35 0 0 1-.005.042h-.532c.02.11.093.164.221.164a.405.405 0 0 0 .22-.069l.066.13a.517.517 0 0 1-.138.068.513.513 0 0 1-.15.021Zm-.218-.447h.363c-.017-.102-.077-.153-.178-.153-.102 0-.163.051-.185.153ZM48.435 38.018c-.184 0-.276-.092-.276-.275v-.298h-.209v-.159h.209v-.203l.177-.076v.279h.27v.159h-.27v.271c0 .051.01.087.03.108.019.022.052.032.1.032a.32.32 0 0 0 .172-.051l.044.15a.482.482 0 0 1-.247.063ZM50.611 38v-1.065h.178v.391a.37.37 0 0 1 .2-.058c.084 0 .149.024.194.071.045.048.068.115.068.203V38h-.178v-.43c0-.051-.01-.087-.029-.108-.02-.022-.053-.032-.101-.032a.306.306 0 0 0-.154.04V38h-.178ZM51.523 38v-.714h.138l.018.099a.348.348 0 0 1 .12-.09.365.365 0 0 1 .146-.027c.073 0 .136.019.189.057l-.066.153a.229.229 0 0 0-.14-.046c-.084 0-.16.04-.227.123V38h-.178ZM52.706 38.018a.409.409 0 0 1-.293-.1.36.36 0 0 1-.106-.275.4.4 0 0 1 .046-.197.336.336 0 0 1 .129-.13.38.38 0 0 1 .192-.048c.071 0 .133.015.185.044a.31.31 0 0 1 .122.124.382.382 0 0 1 .042.226.35.35 0 0 1-.006.042h-.53c.018.11.092.164.22.164a.405.405 0 0 0 .22-.069l.066.13a.517.517 0 0 1-.138.068.513.513 0 0 1-.15.021Zm-.218-.447h.363c-.017-.102-.077-.153-.178-.153-.102 0-.163.051-.185.153ZM53.416 38v-.555h-.208v-.159h.209v-.095c0-.089.025-.157.075-.204.05-.047.124-.07.22-.07a.49.49 0 0 1 .237.058l-.045.15a.322.322 0 0 0-.165-.046c-.05 0-.087.011-.11.034-.024.022-.035.057-.035.105v.068h.27v.159h-.27V38h-.178ZM56.145 38.018a.127.127 0 0 1-.094-.038.127.127 0 0 1-.038-.094.129.129 0 0 1 .132-.132.129.129 0 0 1 .132.132.127.127 0 0 1-.038.094.127.127 0 0 1-.094.038ZM57.879 38.018a.638.638 0 0 1-.343-.089l.064-.138a.464.464 0 0 0 .131.058c.049.013.1.019.152.019.103 0 .155-.025.155-.074 0-.02-.005-.034-.017-.043-.01-.009-.03-.015-.06-.018l-.165-.02a.297.297 0 0 1-.168-.063c-.037-.034-.055-.082-.055-.145 0-.076.027-.135.081-.176a.384.384 0 0 1 .235-.061.66.66 0 0 1 .308.072l-.057.141a.5.5 0 0 0-.254-.063c-.09 0-.136.024-.136.072 0 .019.006.033.017.042a.12.12 0 0 0 .06.018l.165.02c.075.008.132.03.168.063.037.034.055.082.055.146a.205.205 0 0 1-.086.177.423.423 0 0 1-.25.062ZM58.875 38.018c-.184 0-.276-.092-.276-.275v-.298h-.209v-.159h.209v-.203l.177-.076v.279h.27v.159h-.27v.271c0 .051.01.087.03.108.019.022.052.032.1.032a.32.32 0 0 0 .172-.051l.044.15a.482.482 0 0 1-.247.063ZM59.395 38.333a.343.343 0 0 1-.187-.05l.054-.147a.233.233 0 0 0 .12.035.129.129 0 0 0 .083-.025.206.206 0 0 0 .055-.089l.021-.056-.287-.715h.19l.187.483.188-.483h.176l-.325.84a.352.352 0 0 1-.106.16.276.276 0 0 1-.169.047ZM60.646 38.018c-.184 0-.276-.092-.276-.275v-.648h-.276v-.16h.453v.781c0 .051.01.087.03.108.02.022.053.032.101.032a.32.32 0 0 0 .171-.051l.045.15a.482.482 0 0 1-.248.063ZM61.405 38.018a.409.409 0 0 1-.292-.1.36.36 0 0 1-.106-.275.4.4 0 0 1 .046-.197.336.336 0 0 1 .129-.13.38.38 0 0 1 .192-.048c.071 0 .133.015.185.044a.31.31 0 0 1 .123.124.382.382 0 0 1 .041.226.35.35 0 0 1-.005.042h-.532c.02.11.093.164.221.164a.405.405 0 0 0 .22-.069l.066.13a.517.517 0 0 1-.138.068.513.513 0 0 1-.15.021Zm-.217-.447h.363c-.017-.102-.077-.153-.178-.153-.102 0-.163.051-.185.153ZM62.235 38.018a.127.127 0 0 1-.094-.038.127.127 0 0 1-.038-.094.129.129 0 0 1 .132-.132.129.129 0 0 1 .132.132.127.127 0 0 1-.038.094.127.127 0 0 1-.094.038ZM63.165 38.018a.428.428 0 0 1-.203-.046.324.324 0 0 1-.134-.13.4.4 0 0 1-.047-.199.4.4 0 0 1 .047-.2.324.324 0 0 1 .134-.13.428.428 0 0 1 .203-.045c.093 0 .178.024.255.073l-.062.146a.487.487 0 0 0-.098-.044.316.316 0 0 0-.09-.013c-.14 0-.209.071-.209.213 0 .142.07.213.209.213a.32.32 0 0 0 .098-.015.524.524 0 0 0 .108-.053l.066.142a.468.468 0 0 1-.277.088ZM63.969 38.018a.638.638 0 0 1-.343-.089l.064-.138a.464.464 0 0 0 .131.058c.049.013.1.019.153.019.102 0 .154-.025.154-.074 0-.02-.005-.034-.017-.043-.01-.009-.03-.015-.06-.018l-.165-.02a.297.297 0 0 1-.168-.063c-.037-.034-.055-.082-.055-.145 0-.076.027-.135.081-.176a.384.384 0 0 1 .236-.061.66.66 0 0 1 .307.072l-.057.141a.5.5 0 0 0-.254-.063c-.09 0-.136.024-.136.072 0 .019.006.033.017.042a.12.12 0 0 0 .06.018l.165.02c.076.008.132.03.168.063.037.034.055.082.055.146a.205.205 0 0 1-.086.177.423.423 0 0 1-.25.062ZM64.839 38.018a.638.638 0 0 1-.344-.089l.065-.138a.464.464 0 0 0 .131.058c.049.013.1.019.153.019.103 0 .154-.025.154-.074 0-.02-.005-.034-.017-.043-.01-.009-.03-.015-.06-.018l-.165-.02a.297.297 0 0 1-.168-.063c-.037-.034-.055-.082-.055-.145 0-.076.027-.135.081-.176a.384.384 0 0 1 .236-.061.66.66 0 0 1 .307.072l-.057.141a.5.5 0 0 0-.254-.063c-.09 0-.136.024-.136.072 0 .019.006.033.017.042a.12.12 0 0 0 .06.018l.164.02c.077.008.133.03.17.063.036.034.054.082.054.146a.205.205 0 0 1-.086.177.423.423 0 0 1-.25.062ZM35.863 40v-.714h.139l.017.099a.348.348 0 0 1 .12-.09.365.365 0 0 1 .146-.027c.073 0 .136.019.189.057l-.066.153a.229.229 0 0 0-.14-.046c-.085 0-.16.04-.228.123V40h-.177ZM37.045 40.018a.409.409 0 0 1-.292-.1.36.36 0 0 1-.107-.275.4.4 0 0 1 .047-.197.336.336 0 0 1 .129-.13.38.38 0 0 1 .192-.048c.071 0 .133.015.185.044a.31.31 0 0 1 .123.124.382.382 0 0 1 .041.226.35.35 0 0 1-.006.042h-.53c.019.11.092.164.22.164a.405.405 0 0 0 .22-.069l.066.13a.517.517 0 0 1-.138.068.513.513 0 0 1-.15.021Zm-.217-.447h.363c-.017-.102-.077-.153-.179-.153-.1 0-.162.051-.184.153ZM38.026 40.018c-.184 0-.276-.092-.276-.275v-.648h-.276v-.16h.453v.781c0 .051.01.087.03.108.02.022.053.032.101.032a.32.32 0 0 0 .171-.051l.045.15a.482.482 0 0 1-.248.063ZM40.396 40v-.555h-.276v-.159h.453v.555h.276V40h-.453Zm.074-.843a.116.116 0 0 1-.086-.034.116.116 0 0 1-.034-.086c0-.034.011-.063.034-.086a.116.116 0 0 1 .086-.034c.034 0 .063.011.085.034a.116.116 0 0 1 .035.086.116.116 0 0 1-.035.086.116.116 0 0 1-.085.034ZM41.415 40.018a.428.428 0 0 1-.203-.046.324.324 0 0 1-.134-.13.4.4 0 0 1-.047-.199.4.4 0 0 1 .047-.2.324.324 0 0 1 .134-.13.428.428 0 0 1 .203-.045c.093 0 .178.024.255.073l-.062.146a.487.487 0 0 0-.098-.044.316.316 0 0 0-.09-.013c-.14 0-.209.071-.209.213 0 .142.07.213.209.213a.32.32 0 0 0 .098-.015.524.524 0 0 0 .108-.053l.066.142a.468.468 0 0 1-.277.088ZM42.225 40.018a.377.377 0 0 1-.19-.047.334.334 0 0 1-.13-.132.4.4 0 0 1-.046-.196.4.4 0 0 1 .046-.197.336.336 0 0 1 .13-.13.377.377 0 0 1 .19-.048c.072 0 .136.016.19.047a.336.336 0 0 1 .13.132.4.4 0 0 1 .046.196.4.4 0 0 1-.047.196.334.334 0 0 1-.129.132.377.377 0 0 1-.19.047Zm0-.162a.172.172 0 0 0 .136-.056.23.23 0 0 0 .05-.157.23.23 0 0 0-.05-.157.172.172 0 0 0-.136-.056.172.172 0 0 0-.137.056.23.23 0 0 0-.049.157c0 .067.016.12.05.157a.172.172 0 0 0 .136.056ZM42.781 40v-.714h.131l.015.061a.375.375 0 0 1 .232-.08c.084.001.149.025.194.072.045.048.067.115.067.203V40h-.177v-.43c0-.051-.01-.087-.029-.108-.02-.022-.053-.032-.101-.032a.306.306 0 0 0-.154.04V40h-.178ZM45.391 40v-1.065h.178v.391a.37.37 0 0 1 .2-.058c.084 0 .149.024.194.071.045.048.067.115.067.203V40h-.177v-.43c0-.051-.01-.087-.029-.108-.02-.022-.053-.032-.101-.032a.306.306 0 0 0-.154.04V40h-.178ZM46.303 40v-.714h.139l.017.099a.348.348 0 0 1 .12-.09.365.365 0 0 1 .146-.027c.073 0 .136.019.189.057l-.066.153a.229.229 0 0 0-.14-.046c-.084 0-.16.04-.227.123V40h-.178ZM47.486 40.018a.409.409 0 0 1-.293-.1.36.36 0 0 1-.106-.275.4.4 0 0 1 .046-.197.336.336 0 0 1 .129-.13.38.38 0 0 1 .192-.048c.071 0 .133.015.185.044a.31.31 0 0 1 .122.124.382.382 0 0 1 .042.226.35.35 0 0 1-.005.042h-.532c.02.11.093.164.221.164a.405.405 0 0 0 .22-.069l.066.13a.517.517 0 0 1-.138.068.513.513 0 0 1-.15.021Zm-.218-.447h.363c-.017-.102-.077-.153-.178-.153-.102 0-.163.051-.185.153ZM48.197 40v-.555h-.209v-.159h.209v-.095c0-.089.025-.157.075-.204.05-.047.124-.07.22-.07a.49.49 0 0 1 .237.058l-.045.15a.322.322 0 0 0-.165-.046c-.05 0-.087.011-.11.034-.024.022-.036.057-.036.105v.068h.27v.159h-.27V40h-.176ZM50.925 40.018a.127.127 0 0 1-.094-.038.127.127 0 0 1-.038-.094.129.129 0 0 1 .132-.132.129.129 0 0 1 .132.132.127.127 0 0 1-.038.094.127.127 0 0 1-.094.038ZM51.43 40.09l.575-1.155h.156l-.576 1.155zM52.546 40v-.555h-.208v-.159h.208v-.095c0-.089.026-.157.076-.204.05-.047.124-.07.22-.07a.49.49 0 0 1 .237.058l-.045.15a.322.322 0 0 0-.165-.046c-.05 0-.087.011-.11.034-.024.022-.035.057-.035.105v.068h.27v.159h-.27V40h-.178ZM53.459 40.018a.308.308 0 0 1-.204-.06.21.21 0 0 1-.073-.171c0-.07.024-.123.07-.16a.318.318 0 0 1 .202-.056h.223v-.014c0-.05-.012-.085-.036-.107-.024-.021-.063-.032-.12-.032a.483.483 0 0 0-.246.066l-.052-.143a.672.672 0 0 1 .318-.073c.108 0 .187.022.238.067.05.045.075.116.075.212V40h-.13l-.015-.062a.414.414 0 0 1-.25.08Zm.037-.15a.362.362 0 0 0 .181-.045v-.119h-.206c-.038 0-.066.007-.083.02-.017.012-.026.031-.026.057 0 .029.011.05.033.065a.185.185 0 0 0 .101.022ZM54.315 40l-.28-.714h.188l.188.494.187-.494h.177l-.28.714zM55.186 40v-.555h-.276v-.159h.454v.555h.276V40h-.454Zm.074-.843a.116.116 0 0 1-.086-.034.116.116 0 0 1-.034-.086c0-.034.011-.063.034-.086a.116.116 0 0 1 .086-.034c.034 0 .063.011.086.034a.116.116 0 0 1 .034.086.116.116 0 0 1-.035.086.116.116 0 0 1-.085.034ZM56.205 40.018a.428.428 0 0 1-.203-.046.324.324 0 0 1-.134-.13.4.4 0 0 1-.047-.199.4.4 0 0 1 .047-.2.324.324 0 0 1 .134-.13.428.428 0 0 1 .203-.045c.093 0 .178.024.255.073l-.062.146a.487.487 0 0 0-.098-.044.316.316 0 0 0-.09-.013c-.14 0-.209.071-.209.213 0 .142.07.213.209.213a.32.32 0 0 0 .098-.015.524.524 0 0 0 .108-.053l.067.142a.468.468 0 0 1-.278.088ZM57.015 40.018a.377.377 0 0 1-.19-.047.334.334 0 0 1-.13-.132.4.4 0 0 1-.046-.196.4.4 0 0 1 .046-.197.336.336 0 0 1 .13-.13.377.377 0 0 1 .19-.048c.072 0 .135.016.19.047a.336.336 0 0 1 .13.132.4.4 0 0 1 .046.196.4.4 0 0 1-.047.196.334.334 0 0 1-.129.132.377.377 0 0 1-.19.047Zm0-.162a.172.172 0 0 0 .136-.056.23.23 0 0 0 .05-.157.23.23 0 0 0-.05-.157.172.172 0 0 0-.136-.056.172.172 0 0 0-.136.056.23.23 0 0 0-.05.157c0 .067.017.12.05.157a.172.172 0 0 0 .136.056ZM57.572 40v-.714h.13l.015.061a.375.375 0 0 1 .233-.08c.084.001.148.025.193.072.045.048.067.115.067.203V40h-.177v-.43c0-.051-.01-.087-.029-.108-.02-.022-.053-.032-.101-.032a.306.306 0 0 0-.155.04V40h-.176ZM58.755 40.018a.127.127 0 0 1-.094-.038.127.127 0 0 1-.038-.094.129.129 0 0 1 .132-.132.129.129 0 0 1 .132.132.127.127 0 0 1-.038.094.127.127 0 0 1-.094.038ZM59.536 40v-.555h-.276v-.159h.453v.555h.276V40h-.453Zm.074-.843a.116.116 0 0 1-.086-.034.116.116 0 0 1-.034-.086c0-.034.011-.063.034-.086a.116.116 0 0 1 .086-.034c.034 0 .063.011.085.034a.116.116 0 0 1 .035.086.116.116 0 0 1-.035.086.116.116 0 0 1-.085.034ZM60.555 40.018a.428.428 0 0 1-.203-.046.324.324 0 0 1-.134-.13.4.4 0 0 1-.047-.199.4.4 0 0 1 .047-.2.324.324 0 0 1 .134-.13.428.428 0 0 1 .203-.045c.093 0 .178.024.255.073l-.062.146a.487.487 0 0 0-.098-.044.316.316 0 0 0-.09-.013c-.14 0-.209.071-.209.213 0 .142.07.213.209.213a.32.32 0 0 0 .098-.015.524.524 0 0 0 .108-.053l.066.142a.468.468 0 0 1-.277.088ZM61.365 40.018a.377.377 0 0 1-.19-.047.334.334 0 0 1-.13-.132.4.4 0 0 1-.046-.196.4.4 0 0 1 .046-.197.336.336 0 0 1 .13-.13.377.377 0 0 1 .19-.048c.072 0 .136.016.19.047a.336.336 0 0 1 .13.132.4.4 0 0 1 .046.196.4.4 0 0 1-.047.196.334.334 0 0 1-.129.132.377.377 0 0 1-.19.047Zm0-.162a.172.172 0 0 0 .136-.056.23.23 0 0 0 .05-.157.23.23 0 0 0-.05-.157.172.172 0 0 0-.136-.056.172.172 0 0 0-.137.056.23.23 0 0 0-.049.157c0 .067.016.12.05.157a.172.172 0 0 0 .136.056ZM64.095 40.018c-.184 0-.276-.092-.276-.275v-.298h-.209v-.159h.209v-.203l.177-.076v.279h.27v.159h-.27v.271c0 .051.01.087.03.108.019.022.052.032.1.032a.32.32 0 0 0 .171-.051l.046.15a.482.482 0 0 1-.248.063ZM64.615 40.333a.343.343 0 0 1-.187-.05l.054-.147a.233.233 0 0 0 .12.035.129.129 0 0 0 .083-.025.206.206 0 0 0 .055-.089l.021-.056-.286-.715h.189l.187.483.188-.483h.176l-.325.84a.352.352 0 0 1-.106.16.276.276 0 0 1-.169.047ZM65.394 40.315v-1.029h.13l.016.06a.39.39 0 0 1 .226-.078c.094 0 .169.034.224.101a.418.418 0 0 1 .084.274.418.418 0 0 1-.084.274.275.275 0 0 1-.224.101.349.349 0 0 1-.195-.059v.356h-.177Zm.327-.459c.116 0 .174-.071.174-.213 0-.142-.058-.213-.174-.213-.05 0-.1.014-.15.04v.346c.05.026.1.04.15.04ZM66.625 40.018a.409.409 0 0 1-.292-.1.36.36 0 0 1-.107-.275.4.4 0 0 1 .047-.197.336.336 0 0 1 .129-.13.38.38 0 0 1 .192-.048c.071 0 .133.015.185.044a.31.31 0 0 1 .123.124.382.382 0 0 1 .041.226.35.35 0 0 1-.005.042h-.532c.02.11.093.164.221.164a.405.405 0 0 0 .22-.069l.067.13a.517.517 0 0 1-.139.068.513.513 0 0 1-.15.021Zm-.217-.447h.363c-.017-.102-.076-.153-.178-.153s-.163.051-.185.153ZM69.106 40v-.555h-.275v-.159h.453v.555h.275V40h-.453Zm.074-.843a.116.116 0 0 1-.086-.034.116.116 0 0 1-.034-.086c0-.034.011-.063.034-.086a.116.116 0 0 1 .086-.034c.034 0 .063.011.085.034a.116.116 0 0 1 .035.086.116.116 0 0 1-.034.086.116.116 0 0 1-.086.034ZM69.696 40v-.714h.105l.013.054a.237.237 0 0 1 .166-.072c.061 0 .107.024.136.072a.22.22 0 0 1 .159-.072c.051 0 .091.016.12.049a.19.19 0 0 1 .045.133V40h-.153v-.53c0-.035-.02-.053-.059-.053a.124.124 0 0 0-.084.032V40h-.153v-.53c0-.035-.019-.053-.058-.053-.03 0-.058.01-.084.031V40h-.153ZM70.858 40.018a.308.308 0 0 1-.203-.06.21.21 0 0 1-.073-.171c0-.07.024-.123.07-.16a.318.318 0 0 1 .202-.056h.224v-.014c0-.05-.013-.085-.037-.107-.023-.021-.064-.032-.12-.032a.483.483 0 0 0-.246.066l-.052-.143a.672.672 0 0 1 .318-.073c.108 0 .187.022.238.067.05.045.076.116.076.212V40h-.131l-.015-.062a.414.414 0 0 1-.25.08Zm.038-.15a.362.362 0 0 0 .181-.045v-.119h-.207c-.038 0-.065.007-.082.02-.017.012-.026.031-.026.057 0 .029.011.05.033.065a.185.185 0 0 0 .101.022ZM71.778 40.333a.564.564 0 0 1-.302-.08l.058-.145a.43.43 0 0 0 .232.063c.063 0 .11-.013.139-.038.03-.026.044-.065.044-.117v-.072a.388.388 0 0 1-.195.059.287.287 0 0 1-.27-.175.46.46 0 0 1-.037-.193.46.46 0 0 1 .037-.191.287.287 0 0 1 .27-.175.39.39 0 0 1 .227.077l.014-.06h.131v.742c0 .1-.03.175-.09.227-.059.052-.145.078-.258.078Zm.021-.492a.307.307 0 0 0 .15-.04v-.33a.307.307 0 0 0-.15-.041c-.058 0-.102.018-.13.053a.235.235 0 0 0-.044.153c0 .065.014.116.043.152.03.035.073.053.131.053ZM72.715 40.018a.409.409 0 0 1-.292-.1.36.36 0 0 1-.107-.275.4.4 0 0 1 .047-.197.336.336 0 0 1 .129-.13.38.38 0 0 1 .192-.048c.071 0 .133.015.185.044a.31.31 0 0 1 .123.124.382.382 0 0 1 .041.226.35.35 0 0 1-.005.042h-.532c.02.11.093.164.221.164a.405.405 0 0 0 .22-.069l.067.13a.517.517 0 0 1-.139.068.513.513 0 0 1-.15.021Zm-.217-.447h.363c-.017-.102-.077-.153-.178-.153-.102 0-.163.051-.185.153ZM74.03 40l.272-.364-.265-.35h.222l.17.222.161-.222h.203l-.266.354.273.36h-.222l-.177-.232-.169.232zM74.985 39.646v-.126h.6v.126zM76.066 40v-.555h-.276v-.159h.453v.555h.276V40h-.453Zm.074-.843a.116.116 0 0 1-.086-.034.116.116 0 0 1-.034-.086c0-.034.011-.063.034-.086a.116.116 0 0 1 .086-.034c.034 0 .063.011.085.034a.116.116 0 0 1 .035.086.116.116 0 0 1-.035.086.116.116 0 0 1-.085.034ZM77.085 40.018a.428.428 0 0 1-.203-.046.324.324 0 0 1-.134-.13.4.4 0 0 1-.047-.199.4.4 0 0 1 .047-.2.324.324 0 0 1 .134-.13.428.428 0 0 1 .203-.045c.093 0 .178.024.255.073l-.061.146a.487.487 0 0 0-.099-.044.316.316 0 0 0-.09-.013c-.14 0-.209.071-.209.213 0 .142.07.213.209.213a.32.32 0 0 0 .099-.015.524.524 0 0 0 .108-.053l.066.142a.468.468 0 0 1-.278.088ZM77.895 40.018a.377.377 0 0 1-.19-.047.334.334 0 0 1-.13-.132.4.4 0 0 1-.046-.196.4.4 0 0 1 .047-.197.336.336 0 0 1 .129-.13.377.377 0 0 1 .19-.048c.072 0 .135.016.19.047a.336.336 0 0 1 .13.132.4.4 0 0 1 .046.196.4.4 0 0 1-.046.196.334.334 0 0 1-.13.132.377.377 0 0 1-.19.047Zm0-.162a.172.172 0 0 0 .136-.056.23.23 0 0 0 .05-.157.23.23 0 0 0-.05-.157.172.172 0 0 0-.136-.056.172.172 0 0 0-.136.056.23.23 0 0 0-.05.157c0 .067.016.12.05.157a.172.172 0 0 0 .136.056ZM78.451 40v-.714h.131l.015.061a.375.375 0 0 1 .233-.08c.084.001.148.025.193.072.045.048.067.115.067.203V40h-.177v-.43c0-.051-.01-.087-.029-.108-.02-.022-.053-.032-.101-.032a.306.306 0 0 0-.154.04V40h-.178ZM37.869 52.018a.638.638 0 0 1-.344-.089l.065-.138a.464.464 0 0 0 .131.058c.049.013.1.019.153.019.102 0 .154-.025.154-.074 0-.02-.006-.034-.017-.043-.01-.009-.03-.015-.06-.018l-.165-.02a.297.297 0 0 1-.168-.063c-.037-.034-.055-.082-.055-.145 0-.076.027-.135.081-.176a.384.384 0 0 1 .236-.061.66.66 0 0 1 .307.072l-.057.141a.5.5 0 0 0-.254-.063c-.09 0-.136.024-.136.072 0 .019.006.033.017.042a.12.12 0 0 0 .06.018l.164.02c.076.008.133.03.17.063.036.034.054.082.054.146a.205.205 0 0 1-.086.177.423.423 0 0 1-.25.062ZM38.474 52v-.714h.138l.017.099a.348.348 0 0 1 .12-.09.365.365 0 0 1 .146-.027c.073 0 .136.019.189.057l-.066.153a.229.229 0 0 0-.14-.046c-.085 0-.16.04-.228.123V52h-.176ZM39.675 52.018a.428.428 0 0 1-.203-.046.324.324 0 0 1-.134-.13.4.4 0 0 1-.047-.199.4.4 0 0 1 .047-.2.324.324 0 0 1 .134-.13.428.428 0 0 1 .203-.045c.093 0 .178.025.255.073l-.062.146a.487.487 0 0 0-.098-.044.316.316 0 0 0-.09-.013c-.14 0-.209.071-.209.213 0 .142.07.213.209.213a.32.32 0 0 0 .098-.015.524.524 0 0 0 .108-.053l.066.142a.468.468 0 0 1-.277.088ZM42.136 52v-.555h-.276v-.159h.453v.555h.276V52h-.453Zm.074-.843a.116.116 0 0 1-.086-.034.116.116 0 0 1-.034-.086c0-.034.011-.063.034-.086a.116.116 0 0 1 .086-.034.116.116 0 0 1 .12.12.116.116 0 0 1-.035.086.116.116 0 0 1-.085.034ZM42.781 52v-.714h.131l.015.061a.375.375 0 0 1 .232-.08c.084.001.149.025.194.072.045.048.067.115.067.204V52h-.177v-.43c0-.051-.01-.087-.029-.108-.02-.022-.053-.032-.101-.032a.306.306 0 0 0-.154.04V52h-.178ZM43.914 52.018a.275.275 0 0 1-.224-.101.418.418 0 0 1-.084-.274c0-.115.028-.206.084-.274a.275.275 0 0 1 .224-.101.349.349 0 0 1 .195.058v-.391h.177V52h-.13l-.016-.06a.39.39 0 0 1-.226.078Zm.045-.162a.307.307 0 0 0 .15-.04v-.346a.307.307 0 0 0-.15-.04c-.116 0-.174.071-.174.213 0 .142.058.213.174.213ZM44.875 52.018a.409.409 0 0 1-.292-.1.36.36 0 0 1-.106-.275.4.4 0 0 1 .046-.197.336.336 0 0 1 .129-.13.38.38 0 0 1 .192-.048c.071 0 .133.015.185.044a.31.31 0 0 1 .122.124.382.382 0 0 1 .042.226.35.35 0 0 1-.005.042h-.532c.02.11.093.164.221.164a.405.405 0 0 0 .22-.069l.066.13a.517.517 0 0 1-.138.068.513.513 0 0 1-.15.021Zm-.217-.447h.363c-.017-.102-.077-.153-.178-.153-.102 0-.163.051-.185.153ZM45.32 52l.272-.364-.265-.35h.222l.17.222.161-.222h.203l-.266.354.273.36h-.222l-.177-.232-.169.232zM46.575 52.018a.127.127 0 0 1-.094-.038.127.127 0 0 1-.038-.094.129.129 0 0 1 .132-.132.129.129 0 0 1 .132.132.127.127 0 0 1-.038.094.127.127 0 0 1-.094.038ZM47.344 52.333a.54.54 0 0 1-.146-.02.468.468 0 0 1-.13-.058l.057-.146c.031.02.063.036.094.046.032.01.064.016.098.016.1 0 .149-.047.149-.143v-.583h-.276v-.159h.453v.77a.266.266 0 0 1-.078.204.311.311 0 0 1-.22.073Zm.195-1.176a.116.116 0 0 1-.085-.034.116.116 0 0 1-.035-.086c0-.034.012-.063.035-.086a.116.116 0 0 1 .085-.034c.034 0 .063.011.086.034a.116.116 0 0 1 .034.086.116.116 0 0 1-.034.086.116.116 0 0 1-.086.034ZM48.309 52.018a.638.638 0 0 1-.343-.089l.064-.138a.464.464 0 0 0 .131.058c.049.013.1.019.152.019.103 0 .155-.025.155-.074 0-.02-.006-.034-.017-.043-.01-.009-.03-.015-.06-.018l-.164-.02a.297.297 0 0 1-.17-.063c-.036-.034-.054-.082-.054-.145 0-.076.027-.135.081-.176a.384.384 0 0 1 .235-.061.66.66 0 0 1 .308.072l-.057.141a.5.5 0 0 0-.254-.063c-.09 0-.136.024-.136.072 0 .019.006.033.017.042a.12.12 0 0 0 .06.018l.164.02c.077.008.133.03.17.063.036.034.054.082.054.146a.205.205 0 0 1-.086.177.423.423 0 0 1-.25.062Z"/></g><path d="M36.653 36v-.975h.211l.138.491.138-.491h.218V36h-.162v-.717l-.149.528h-.093l-.148-.528V36zM37.645 36.333a.343.343 0 0 1-.187-.05l.054-.147a.233.233 0 0 0 .12.035.129.129 0 0 0 .083-.025.206.206 0 0 0 .055-.089l.021-.056-.287-.715h.19l.187.483.187-.483h.177l-.325.84a.352.352 0 0 1-.106.16.276.276 0 0 1-.169.047ZM39.333 36l-.151-.975h.166l.096.645.107-.532h.138l.106.532.096-.645h.158l-.152.975h-.162l-.117-.575-.117.575zM40.525 36.018a.409.409 0 0 1-.292-.1.36.36 0 0 1-.107-.275.4.4 0 0 1 .047-.197.336.336 0 0 1 .129-.13.38.38 0 0 1 .192-.048c.071 0 .133.015.185.044a.31.31 0 0 1 .122.124.382.382 0 0 1 .042.226.35.35 0 0 1-.006.043h-.53c.018.109.092.163.22.163a.405.405 0 0 0 .22-.069l.066.13a.517.517 0 0 1-.138.068.513.513 0 0 1-.15.021Zm-.217-.447h.363c-.017-.102-.077-.153-.179-.153-.1 0-.162.051-.184.153ZM41.406 36.018a.39.39 0 0 1-.227-.078l-.015.06h-.13v-1.065h.177v.392a.388.388 0 0 1 .195-.059c.094 0 .169.034.224.101a.418.418 0 0 1 .083.274.418.418 0 0 1-.083.274.275.275 0 0 1-.224.101Zm-.045-.162c.116 0 .174-.071.174-.213 0-.142-.058-.213-.174-.213-.05 0-.1.014-.15.04v.346c.05.026.1.04.15.04ZM42.219 36.018a.638.638 0 0 1-.344-.088l.065-.139a.464.464 0 0 0 .131.058c.049.013.1.019.152.019.103 0 .155-.025.155-.074 0-.02-.006-.034-.017-.043-.01-.009-.03-.015-.06-.018l-.165-.02a.297.297 0 0 1-.168-.063c-.037-.034-.055-.082-.055-.145 0-.076.027-.135.081-.175a.384.384 0 0 1 .235-.062.66.66 0 0 1 .308.072l-.057.141a.5.5 0 0 0-.254-.063c-.09 0-.136.024-.136.072 0 .019.006.033.017.042a.12.12 0 0 0 .06.018l.164.02c.076.008.133.03.17.063.036.034.054.082.054.146a.205.205 0 0 1-.086.177.423.423 0 0 1-.25.062ZM43.006 36v-.555h-.276v-.159h.453v.555h.276V36h-.453Zm.074-.843a.116.116 0 0 1-.086-.034.116.116 0 0 1-.034-.086c0-.034.011-.063.034-.085a.116.116 0 0 1 .086-.035c.034 0 .063.011.085.035a.116.116 0 0 1 .035.085.116.116 0 0 1-.035.086.116.116 0 0 1-.085.034ZM44.085 36.018c-.184 0-.276-.091-.276-.274v-.299H43.6v-.159h.209v-.203l.177-.076v.279h.27v.159h-.27v.272c0 .05.01.087.03.108.019.02.052.031.1.031a.32.32 0 0 0 .171-.051l.045.15a.482.482 0 0 1-.247.063ZM44.875 36.018a.409.409 0 0 1-.292-.1.36.36 0 0 1-.107-.275.4.4 0 0 1 .047-.197.336.336 0 0 1 .129-.13.38.38 0 0 1 .192-.048c.071 0 .133.015.185.044a.31.31 0 0 1 .122.124.382.382 0 0 1 .042.226.35.35 0 0 1-.006.043h-.53c.019.109.092.163.22.163a.405.405 0 0 0 .22-.069l.066.13a.517.517 0 0 1-.138.068.513.513 0 0 1-.15.021Zm-.217-.447h.363c-.017-.102-.077-.153-.179-.153-.1 0-.162.051-.184.153ZM37.593 48l-.151-.975h.166l.096.645.107-.532h.138l.106.532.096-.645h.158l-.152.975h-.162l-.117-.574-.117.574zM38.785 48.018a.409.409 0 0 1-.292-.1.36.36 0 0 1-.107-.275.4.4 0 0 1 .047-.197.336.336 0 0 1 .129-.13.38.38 0 0 1 .192-.048c.071 0 .133.015.185.044a.31.31 0 0 1 .122.124.382.382 0 0 1 .042.226.35.35 0 0 1-.006.043h-.53c.018.109.092.163.22.163a.405.405 0 0 0 .22-.069l.066.13a.517.517 0 0 1-.138.068.513.513 0 0 1-.15.021Zm-.217-.447h.363c-.017-.102-.077-.153-.178-.153-.102 0-.163.051-.185.153ZM39.766 48.018c-.184 0-.276-.091-.276-.275v-.648h-.276v-.16h.453v.782c0 .05.01.087.03.108.02.02.053.031.101.031a.32.32 0 0 0 .171-.051l.045.15a.482.482 0 0 1-.248.063ZM40.545 48.018a.428.428 0 0 1-.203-.046.324.324 0 0 1-.134-.13.4.4 0 0 1-.047-.199.4.4 0 0 1 .047-.2.324.324 0 0 1 .134-.13.428.428 0 0 1 .203-.045c.093 0 .178.025.255.074l-.062.145a.487.487 0 0 0-.098-.044.316.316 0 0 0-.09-.013c-.14 0-.209.071-.209.213 0 .142.07.213.208.213a.32.32 0 0 0 .1-.015.524.524 0 0 0 .107-.053l.066.142a.468.468 0 0 1-.277.088ZM41.355 48.018a.377.377 0 0 1-.19-.047.334.334 0 0 1-.13-.132.4.4 0 0 1-.046-.196.4.4 0 0 1 .047-.197.336.336 0 0 1 .128-.13.377.377 0 0 1 .191-.048c.072 0 .136.016.19.047a.336.336 0 0 1 .13.132.4.4 0 0 1 .046.196.4.4 0 0 1-.047.196.334.334 0 0 1-.129.132.377.377 0 0 1-.19.047Zm0-.162a.172.172 0 0 0 .136-.056.23.23 0 0 0 .05-.157.23.23 0 0 0-.05-.157.172.172 0 0 0-.136-.056.172.172 0 0 0-.137.056.23.23 0 0 0-.049.157c0 .067.017.12.05.157a.172.172 0 0 0 .136.056ZM41.856 48v-.714h.105l.013.054a.237.237 0 0 1 .166-.072c.061 0 .107.024.136.072a.22.22 0 0 1 .159-.072c.051 0 .091.016.12.049a.19.19 0 0 1 .045.133V48h-.153v-.53c0-.035-.02-.053-.059-.053a.124.124 0 0 0-.084.032V48h-.153v-.53c0-.035-.019-.053-.058-.053-.03 0-.058.01-.084.031V48h-.153ZM43.135 48.018a.409.409 0 0 1-.292-.1.36.36 0 0 1-.107-.275.4.4 0 0 1 .047-.197.336.336 0 0 1 .129-.13.38.38 0 0 1 .192-.048c.071 0 .133.015.185.044a.31.31 0 0 1 .122.124.382.382 0 0 1 .042.226.35.35 0 0 1-.006.043h-.53c.018.109.092.163.22.163a.405.405 0 0 0 .22-.069l.066.13a.517.517 0 0 1-.138.068.513.513 0 0 1-.15.021Zm-.217-.447h.363c-.017-.102-.077-.153-.179-.153-.1 0-.162.051-.184.153ZM44.955 48.018c-.184 0-.276-.091-.276-.275v-.298h-.209v-.159h.209v-.203l.177-.076v.279h.27v.159h-.27v.272c0 .05.01.087.03.108.019.02.052.031.1.031a.32.32 0 0 0 .172-.051l.044.15a.482.482 0 0 1-.247.063ZM45.705 48.018a.377.377 0 0 1-.19-.047.334.334 0 0 1-.13-.132.4.4 0 0 1-.046-.196.4.4 0 0 1 .046-.197.336.336 0 0 1 .13-.13.377.377 0 0 1 .19-.048c.072 0 .135.016.19.047a.336.336 0 0 1 .13.132.4.4 0 0 1 .046.196.4.4 0 0 1-.047.196.334.334 0 0 1-.129.132.377.377 0 0 1-.19.047Zm0-.162a.172.172 0 0 0 .136-.056.23.23 0 0 0 .05-.157.23.23 0 0 0-.05-.157.172.172 0 0 0-.136-.056.172.172 0 0 0-.137.056.23.23 0 0 0-.049.157c0 .067.017.12.05.157a.172.172 0 0 0 .136.056ZM47.093 48v-.975h.211l.138.491.138-.491h.218V48h-.162v-.717l-.149.528h-.093l-.148-.528V48zM48.085 48.333a.343.343 0 0 1-.187-.05l.054-.147a.233.233 0 0 0 .12.035.129.129 0 0 0 .083-.025.206.206 0 0 0 .055-.089l.021-.056-.287-.715h.19l.187.483.188-.483h.176l-.325.84a.352.352 0 0 1-.106.16.276.276 0 0 1-.169.047ZM49.773 48l-.151-.975h.166l.096.645.107-.532h.138l.106.532.096-.645h.158l-.152.975h-.162l-.117-.574-.117.574zM50.965 48.018a.409.409 0 0 1-.292-.1.36.36 0 0 1-.107-.275.4.4 0 0 1 .047-.197.336.336 0 0 1 .129-.13.38.38 0 0 1 .192-.048c.071 0 .133.015.185.044a.31.31 0 0 1 .122.124.382.382 0 0 1 .042.226.35.35 0 0 1-.006.043h-.53c.018.109.092.163.22.163a.405.405 0 0 0 .22-.069l.066.13a.517.517 0 0 1-.138.068.513.513 0 0 1-.15.021Zm-.217-.447h.363c-.017-.102-.077-.153-.178-.153-.102 0-.163.051-.185.153ZM51.846 48.018a.39.39 0 0 1-.227-.078l-.015.06h-.13v-1.065h.177v.392a.388.388 0 0 1 .195-.059c.094 0 .169.034.224.101a.418.418 0 0 1 .083.274.418.418 0 0 1-.083.274.275.275 0 0 1-.224.101Zm-.045-.162c.116 0 .174-.071.174-.213 0-.142-.058-.213-.174-.213-.05 0-.1.014-.15.04v.346c.05.026.1.04.15.04ZM52.659 48.018a.638.638 0 0 1-.344-.088l.065-.139a.464.464 0 0 0 .131.058c.049.013.1.019.152.019.103 0 .155-.024.155-.074 0-.02-.005-.034-.017-.043-.01-.009-.03-.015-.06-.018l-.165-.02a.297.297 0 0 1-.168-.063c-.037-.034-.055-.082-.055-.145 0-.076.027-.135.081-.175a.384.384 0 0 1 .236-.062.66.66 0 0 1 .307.072l-.057.141a.5.5 0 0 0-.254-.063c-.09 0-.136.024-.136.072 0 .019.006.033.017.042a.12.12 0 0 0 .06.018l.164.02c.076.009.133.03.17.063.036.034.054.083.054.146a.205.205 0 0 1-.086.177.423.423 0 0 1-.25.062ZM53.447 48v-.555h-.277v-.159h.453v.555h.276V48h-.453Zm.073-.843a.116.116 0 0 1-.086-.034.116.116 0 0 1-.034-.086c0-.034.011-.063.035-.085a.116.116 0 0 1 .085-.035c.034 0 .062.011.085.035a.116.116 0 0 1 .035.085.116.116 0 0 1-.035.086.116.116 0 0 1-.085.034ZM54.525 48.018c-.184 0-.276-.091-.276-.275v-.298h-.209v-.159h.209v-.203l.177-.076v.279h.27v.159h-.27v.272c0 .05.01.087.03.108.019.02.052.031.1.031a.32.32 0 0 0 .171-.051l.045.15a.482.482 0 0 1-.247.063ZM55.316 48.018a.409.409 0 0 1-.293-.1.36.36 0 0 1-.107-.275.4.4 0 0 1 .047-.197.336.336 0 0 1 .129-.13.38.38 0 0 1 .192-.048c.071 0 .133.015.185.044a.31.31 0 0 1 .122.124.382.382 0 0 1 .042.226.35.35 0 0 1-.006.043h-.53c.018.109.092.163.22.163a.405.405 0 0 0 .22-.069l.066.13a.517.517 0 0 1-.138.068.513.513 0 0 1-.15.021Zm-.218-.447h.363c-.017-.102-.077-.153-.178-.153-.102 0-.163.051-.185.153Z"/></g></svg>