<?xml version="1.0" encoding="UTF-8"?>
<svg width="120px" height="80px" viewBox="0 0 120 80" version="1.1" xmlns="http://www.w3.org/2000/svg" xmlns:xlink="http://www.w3.org/1999/xlink">
    <title>Artboard</title>
    <g id="Artboard" stroke="none" stroke-width="1" fill="none" fill-rule="evenodd" opacity="0.302618118">
        <g id="downloadblock" transform="translate(10.000000, 15.000000)" fill="#000000" fill-rule="nonzero">
            <g id="Group">
                <path d="M2,0 L98,0 C99.1045695,-2.02906125e-16 100,0.8954305 100,2 L100,11 C100,12.1045695 99.1045695,13 98,13 L2,13 C0.8954305,13 1.84399221e-15,12.1045695 0,11 L0,2 C-1.3527075e-16,0.8954305 0.8954305,1.3527075e-16 2,0 Z" id="Path"></path>
                <path d="M2,18 L98,18 C99.1045695,18 100,18.8954305 100,20 L100,29 C100,30.1045695 99.1045695,31 98,31 L2,31 C0.8954305,31 1.84399221e-15,30.1045695 0,29 L0,20 C-1.3527075e-16,18.8954305 0.8954305,18 2,18 Z" id="Path-Copy"></path>
                <path d="M2,36 L98,36 C99.1045695,36 100,36.8954305 100,38 L100,47 C100,48.1045695 99.1045695,49 98,49 L2,49 C0.8954305,49 1.84399221e-15,48.1045695 0,47 L0,38 C-1.3527075e-16,36.8954305 0.8954305,36 2,36 Z" id="Path-Copy-2"></path>
            </g>
        </g>
    </g>
</svg>