<svg xmlns="http://www.w3.org/2000/svg" width="80" height="80" viewBox="0 0 80 80"><g fill="none" fill-rule="evenodd"><path fill="#000" fill-rule="nonzero" d="M8 22h64v9H8z"/><g fill="#FFF"><path fill-rule="nonzero" d="m66.086 24.414 1.414 1.414 1.414-1.414.707.707-2.121 2.121-2.122-2.12z"/><path d="M65 27.621h5v1h-5z"/></g><path fill="#000" fill-rule="nonzero" d="M8 36h64v9H8z"/><g fill="#FFF"><path fill-rule="nonzero" d="m66.086 38.414 1.414 1.414 1.414-1.414.707.707-2.121 2.121-2.122-2.12z"/><path d="M65 41.621h5v1h-5z"/></g><path fill="#000" fill-rule="nonzero" d="M8 50h64v9H8z"/><g fill="#FFF"><path fill-rule="nonzero" d="m66.086 52.414 1.414 1.414 1.414-1.414.707.707-2.121 2.121-2.122-2.12z"/><path d="M65 55.621h5v1h-5z"/></g></g></svg>