<?xml version="1.0" encoding="UTF-8"?>
<svg width="80px" height="80px" viewBox="0 0 80 80" version="1.1" xmlns="http://www.w3.org/2000/svg" xmlns:xlink="http://www.w3.org/1999/xlink">
    <title>Artboard</title>
    <g id="Artboard" stroke="none" stroke-width="1" fill="none" fill-rule="evenodd">
        <g id="Group" transform="translate(8.000000, 22.000000)">
            <g>
                <rect id="Rectangle" fill="#000000" fill-rule="nonzero" x="0" y="0" width="64" height="9"></rect>
                <g id="Group-2" transform="translate(57.000000, 1.000000)" fill="#FFFFFF">
                    <polygon id="Combined-Shape" fill-rule="nonzero" transform="translate(2.500000, 2.121320) rotate(-45.000000) translate(-2.500000, -2.121320) " points="2 0.621320344 2 2.62132034 4 2.62132034 4 3.62132034 1 3.62132034 1 0.621320344"></polygon>
                    <rect id="Rectangle" x="0" y="4.62132034" width="5" height="1"></rect>
                </g>
            </g>
            <g id="Group-Copy" transform="translate(0.000000, 14.000000)">
                <rect id="Rectangle" fill="#000000" fill-rule="nonzero" x="0" y="0" width="64" height="9"></rect>
                <g id="Group-2" transform="translate(57.000000, 1.000000)" fill="#FFFFFF">
                    <polygon id="Combined-Shape" fill-rule="nonzero" transform="translate(2.500000, 2.121320) rotate(-45.000000) translate(-2.500000, -2.121320) " points="2 0.621320344 2 2.62132034 4 2.62132034 4 3.62132034 1 3.62132034 1 0.621320344"></polygon>
                    <rect id="Rectangle" x="0" y="4.62132034" width="5" height="1"></rect>
                </g>
            </g>
            <g id="Group-Copy-2" transform="translate(0.000000, 28.000000)">
                <rect id="Rectangle" fill="#000000" fill-rule="nonzero" x="0" y="0" width="64" height="9"></rect>
                <g id="Group-2" transform="translate(57.000000, 1.000000)" fill="#FFFFFF">
                    <polygon id="Combined-Shape" fill-rule="nonzero" transform="translate(2.500000, 2.121320) rotate(-45.000000) translate(-2.500000, -2.121320) " points="2 0.621320344 2 2.62132034 4 2.62132034 4 3.62132034 1 3.62132034 1 0.621320344"></polygon>
                    <rect id="Rectangle" x="0" y="4.62132034" width="5" height="1"></rect>
                </g>
            </g>
        </g>
    </g>
</svg>