<svg xmlns="http://www.w3.org/2000/svg" width="120" height="80" viewBox="0 0 120 80"><g fill="#000" fill-rule="nonzero"><g transform="translate(14 17)"><path d="M0 0h91v47H0z" opacity=".3"/><path d="M0 24.954c10.389-.457 24.363 1.264 41.918 5.164C59.474 34.016 75.832 35.091 91 33.343V47H0V24.954Z" opacity=".3"/><ellipse cx="78.988" cy="11.98" opacity=".3" rx="6.468" ry="6.451"/></g><path d="M22.699 33.104h.672v.396h-1.185v-2.106h.513zM24.379 33.524a.924.924 0 0 1-.443-.105.769.769 0 0 1-.308-.3.896.896 0 0 1-.113-.456.89.89 0 0 1 .114-.454.774.774 0 0 1 .312-.302.933.933 0 0 1 .444-.105c.164 0 .312.035.444.105.132.07.236.17.312.302a.89.89 0 0 1 .114.454.88.88 0 0 1-.116.455.781.781 0 0 1-.314.301.942.942 0 0 1-.446.105Zm0-.444a.334.334 0 0 0 .25-.108c.07-.072.104-.175.104-.309s-.034-.237-.1-.309a.325.325 0 0 0-.248-.108c-.1 0-.183.035-.249.106-.066.072-.099.175-.099.311 0 .134.032.237.098.309a.316.316 0 0 0 .244.108ZM26.041 32.105a.677.677 0 0 1 .225-.217.58.58 0 0 1 .3-.08v.543h-.141c-.128 0-.224.028-.288.083-.064.055-.096.151-.096.289v.777h-.513v-1.674h.513v.279ZM28.39 32.636c0 .048-.003.098-.009.15H27.22a.349.349 0 0 0 .1.239.307.307 0 0 0 .218.082c.128 0 .217-.054.267-.162h.546a.75.75 0 0 1-.426.504.882.882 0 0 1-.369.075.898.898 0 0 1-.438-.105.747.747 0 0 1-.3-.3.926.926 0 0 1-.108-.456c0-.174.035-.326.106-.456.072-.13.171-.23.299-.3a.904.904 0 0 1 .441-.105c.162 0 .306.034.432.102a.732.732 0 0 1 .296.291.883.883 0 0 1 .106.441Zm-.525-.135a.264.264 0 0 0-.09-.21.331.331 0 0 0-.225-.078.325.325 0 0 0-.218.075.333.333 0 0 0-.109.213h.642ZM30.796 31.808c.208 0 .373.063.497.189.123.126.184.301.184.525v.978h-.51v-.909a.346.346 0 0 0-.085-.25.312.312 0 0 0-.236-.089c-.1 0-.178.03-.236.088a.346.346 0 0 0-.085.251v.909h-.51v-.909a.346.346 0 0 0-.085-.25.312.312 0 0 0-.236-.089c-.1 0-.178.03-.236.088a.346.346 0 0 0-.085.251v.909h-.513v-1.674h.513v.21a.55.55 0 0 1 .204-.166.641.641 0 0 1 .285-.062c.126 0 .239.027.337.081a.58.58 0 0 1 .233.231.674.674 0 0 1 .564-.312ZM32.731 31.652a.31.31 0 0 1-.22-.08.258.258 0 0 1-.086-.196c0-.08.029-.146.086-.2a.31.31 0 0 1 .22-.079c.088 0 .16.026.217.08.057.053.086.119.086.199a.258.258 0 0 1-.086.197.307.307 0 0 1-.217.079Zm.255.174V33.5h-.513v-1.674h.513ZM33.871 32.063a.557.557 0 0 1 .207-.189.635.635 0 0 1 .309-.072.693.693 0 0 1 .64.405 1 1 0 0 1 .098.453c0 .172-.032.324-.097.455a.736.736 0 0 1-.266.303.686.686 0 0 1-.375.106.638.638 0 0 1-.308-.072.564.564 0 0 1-.208-.186v1.032h-.513v-2.472h.513v.237Zm.732.597a.414.414 0 0 0-.107-.301.352.352 0 0 0-.262-.11.346.346 0 0 0-.26.111.42.42 0 0 0-.106.303.42.42 0 0 0 .106.303.346.346 0 0 0 .26.111.349.349 0 0 0 .261-.112.421.421 0 0 0 .108-.305ZM36.076 33.524a.962.962 0 0 1-.39-.075.666.666 0 0 1-.27-.205.54.54 0 0 1-.111-.293h.507a.195.195 0 0 0 .081.141.287.287 0 0 0 .177.054.253.253 0 0 0 .148-.038.115.115 0 0 0 .053-.097c0-.048-.025-.084-.075-.107a1.515 1.515 0 0 0-.243-.076 2.281 2.281 0 0 1-.3-.089.518.518 0 0 1-.207-.146.4.4 0 0 1-.087-.272c0-.096.026-.183.08-.262a.535.535 0 0 1 .233-.188.896.896 0 0 1 .368-.069c.21 0 .376.052.497.156.12.104.19.242.208.414h-.474a.204.204 0 0 0-.077-.138.265.265 0 0 0-.169-.051.234.234 0 0 0-.138.035.11.11 0 0 0-.048.094c0 .048.026.084.077.108.05.024.13.048.238.072.124.032.225.064.303.095a.523.523 0 0 1 .206.15c.059.069.089.161.091.277a.44.44 0 0 1-.082.262.546.546 0 0 1-.237.182.906.906 0 0 1-.359.066ZM38.722 31.826V33.5h-.513v-.228a.563.563 0 0 1-.212.178.645.645 0 0 1-.295.068.662.662 0 0 1-.339-.085.576.576 0 0 1-.228-.248.842.842 0 0 1-.081-.381v-.978h.51v.909c0 .112.029.199.087.261a.305.305 0 0 0 .234.093c.1 0 .179-.031.237-.093a.367.367 0 0 0 .087-.261v-.909h.513ZM41.227 31.808c.208 0 .373.063.497.189.123.126.184.301.184.525v.978h-.51v-.909a.346.346 0 0 0-.086-.25.312.312 0 0 0-.235-.089c-.1 0-.178.03-.236.088a.346.346 0 0 0-.085.251v.909h-.51v-.909a.346.346 0 0 0-.086-.25.312.312 0 0 0-.235-.089c-.1 0-.178.03-.236.088a.346.346 0 0 0-.085.251v.909h-.513v-1.674h.513v.21a.55.55 0 0 1 .204-.166.641.641 0 0 1 .285-.062c.126 0 .238.027.337.081a.58.58 0 0 1 .233.231.674.674 0 0 1 .564-.312ZM42.802 32.66a1 1 0 0 1 .098-.453.693.693 0 0 1 .64-.405c.11 0 .21.023.301.069a.55.55 0 0 1 .215.186v-.777h.513v2.22h-.513v-.24a.523.523 0 0 1-.206.192.644.644 0 0 1-.31.072.686.686 0 0 1-.375-.106.736.736 0 0 1-.265-.303 1.01 1.01 0 0 1-.098-.455Zm1.254.003a.42.42 0 0 0-.106-.303.346.346 0 0 0-.26-.111.348.348 0 0 0-.26.11.414.414 0 0 0-.106.301c0 .128.035.23.106.305a.344.344 0 0 0 .26.112.346.346 0 0 0 .26-.111.42.42 0 0 0 .106-.303ZM45.703 33.524a.924.924 0 0 1-.443-.105.769.769 0 0 1-.309-.3.896.896 0 0 1-.112-.456.89.89 0 0 1 .114-.454.774.774 0 0 1 .312-.302.933.933 0 0 1 .444-.105c.164 0 .312.035.444.105.132.07.236.17.312.302a.89.89 0 0 1 .114.454.88.88 0 0 1-.116.455.781.781 0 0 1-.315.301.942.942 0 0 1-.445.105Zm0-.444a.334.334 0 0 0 .25-.108c.07-.072.104-.175.104-.309s-.034-.237-.1-.309a.325.325 0 0 0-.248-.108c-.1 0-.183.035-.249.106-.066.072-.099.175-.099.311 0 .134.033.237.098.309a.316.316 0 0 0 .244.108ZM47.365 31.28v2.22h-.513v-2.22zM48.499 33.524a.924.924 0 0 1-.443-.105.769.769 0 0 1-.308-.3.896.896 0 0 1-.113-.456.89.89 0 0 1 .114-.454.774.774 0 0 1 .312-.302.933.933 0 0 1 .444-.105c.164 0 .312.035.444.105.132.07.236.17.312.302a.89.89 0 0 1 .114.454.88.88 0 0 1-.115.455.781.781 0 0 1-.316.301.942.942 0 0 1-.445.105Zm0-.444a.334.334 0 0 0 .25-.108c.07-.072.104-.175.104-.309s-.034-.237-.1-.309a.325.325 0 0 0-.248-.108c-.1 0-.183.035-.249.106-.066.072-.099.175-.099.311 0 .134.032.237.098.309a.316.316 0 0 0 .244.108ZM50.161 32.105a.677.677 0 0 1 .225-.217.58.58 0 0 1 .3-.08v.543h-.141c-.128 0-.224.028-.288.083-.064.055-.096.151-.096.289v.777h-.513v-1.674h.513v.279ZM52.249 33.524a.962.962 0 0 1-.39-.075.666.666 0 0 1-.27-.205.54.54 0 0 1-.111-.293h.507a.195.195 0 0 0 .081.141.287.287 0 0 0 .177.054.253.253 0 0 0 .148-.038.115.115 0 0 0 .053-.097c0-.048-.025-.084-.075-.107a1.515 1.515 0 0 0-.243-.076 2.281 2.281 0 0 1-.3-.089.518.518 0 0 1-.207-.146.4.4 0 0 1-.087-.272c0-.096.026-.183.08-.262a.535.535 0 0 1 .233-.188.896.896 0 0 1 .368-.069c.21 0 .375.052.496.156.121.104.191.242.209.414h-.474a.204.204 0 0 0-.077-.138.265.265 0 0 0-.169-.051.234.234 0 0 0-.138.035.11.11 0 0 0-.048.094c0 .048.025.084.076.108.051.024.131.048.239.072.124.032.225.064.303.095a.523.523 0 0 1 .205.15c.06.069.09.161.092.277a.44.44 0 0 1-.083.262.546.546 0 0 1-.236.182.906.906 0 0 1-.359.066ZM53.5 31.652a.31.31 0 0 1-.22-.08.258.258 0 0 1-.086-.196c0-.08.028-.146.085-.2a.31.31 0 0 1 .221-.079c.088 0 .16.026.218.08.056.053.085.119.085.199a.258.258 0 0 1-.085.197.307.307 0 0 1-.218.079Zm.255.174V33.5h-.513v-1.674h.513ZM55.06 33.065v.435h-.261c-.186 0-.331-.045-.435-.136-.104-.091-.156-.24-.156-.446v-.666h-.204v-.426h.204v-.408h.513v.408h.336v.426h-.336v.672c0 .05.012.086.036.108.024.022.064.033.12.033h.183ZM22.084 36.16a1 1 0 0 1 .098-.453.693.693 0 0 1 .64-.405c.118 0 .221.024.31.072a.53.53 0 0 1 .206.189v-.237h.513V37h-.513v-.237a.554.554 0 0 1-.209.189.644.644 0 0 1-.31.072.68.68 0 0 1-.372-.106.736.736 0 0 1-.265-.303 1.01 1.01 0 0 1-.098-.455Zm1.254.003a.42.42 0 0 0-.107-.303.346.346 0 0 0-.259-.111.348.348 0 0 0-.26.11.414.414 0 0 0-.106.301c0 .128.035.23.106.305a.344.344 0 0 0 .26.112.346.346 0 0 0 .26-.111.42.42 0 0 0 .106-.303ZM26.359 35.308c.208 0 .373.063.496.189s.185.301.185.525V37h-.51v-.909a.346.346 0 0 0-.086-.25.312.312 0 0 0-.235-.089c-.1 0-.178.03-.235.088a.346.346 0 0 0-.086.251V37h-.51v-.909a.346.346 0 0 0-.085-.25.312.312 0 0 0-.236-.089c-.1 0-.178.03-.235.088a.346.346 0 0 0-.086.251V37h-.513v-1.674h.513v.21a.55.55 0 0 1 .204-.166.641.641 0 0 1 .285-.062c.126 0 .238.027.337.081a.58.58 0 0 1 .233.231.674.674 0 0 1 .564-.312ZM28.978 36.136c0 .048-.003.098-.009.15h-1.161a.349.349 0 0 0 .1.239.307.307 0 0 0 .218.082c.128 0 .217-.054.267-.162h.546a.75.75 0 0 1-.426.504.882.882 0 0 1-.369.075.898.898 0 0 1-.438-.105.747.747 0 0 1-.3-.3.926.926 0 0 1-.108-.456c0-.174.036-.326.107-.456.07-.13.17-.23.298-.3a.904.904 0 0 1 .441-.105c.162 0 .306.034.432.102a.732.732 0 0 1 .295.291.883.883 0 0 1 .107.441Zm-.525-.135a.264.264 0 0 0-.09-.21.331.331 0 0 0-.225-.078.325.325 0 0 0-.218.075.333.333 0 0 0-.109.213h.642ZM30.181 36.565V37h-.261c-.186 0-.331-.045-.435-.136-.104-.091-.156-.24-.156-.446v-.666h-.204v-.426h.204v-.408h.513v.408h.336v.426h-.336v.672c0 .05.012.086.036.108.024.022.064.033.12.033h.183ZM31.018 36.526l-.333.861h-.327l.174-.861zM31.861 36.163c0-.174.035-.326.107-.456a.74.74 0 0 1 .296-.3.89.89 0 0 1 .437-.105.83.83 0 0 1 .526.165c.142.11.234.265.278.465h-.546c-.046-.128-.135-.192-.267-.192a.27.27 0 0 0-.225.11.507.507 0 0 0-.084.313c0 .136.028.24.084.314a.27.27 0 0 0 .225.109c.132 0 .221-.064.267-.192h.546a.786.786 0 0 1-.279.462.821.821 0 0 1-.525.168.89.89 0 0 1-.437-.105.74.74 0 0 1-.297-.3.937.937 0 0 1-.106-.456ZM34.54 37.024a.924.924 0 0 1-.443-.105.769.769 0 0 1-.309-.3.896.896 0 0 1-.112-.456.89.89 0 0 1 .114-.454.774.774 0 0 1 .312-.302.933.933 0 0 1 .444-.105c.164 0 .312.035.444.105.132.07.236.17.312.302a.89.89 0 0 1 .114.454.88.88 0 0 1-.115.455.781.781 0 0 1-.316.301.942.942 0 0 1-.445.105Zm0-.444a.334.334 0 0 0 .25-.108c.07-.072.104-.175.104-.309s-.033-.237-.1-.309a.325.325 0 0 0-.248-.108c-.1 0-.183.035-.249.106-.066.072-.099.175-.099.311 0 .134.032.237.097.309a.316.316 0 0 0 .245.108ZM36.709 35.308c.196 0 .352.063.47.19.116.128.175.302.175.524V37h-.51v-.909a.367.367 0 0 0-.087-.261.305.305 0 0 0-.234-.093.305.305 0 0 0-.234.093.367.367 0 0 0-.087.261V37h-.513v-1.674h.513v.222a.541.541 0 0 1 .21-.175.668.668 0 0 1 .297-.065ZM38.392 37.024a.962.962 0 0 1-.39-.075.666.666 0 0 1-.27-.206.54.54 0 0 1-.111-.292h.507a.195.195 0 0 0 .081.141.287.287 0 0 0 .177.054.253.253 0 0 0 .148-.038.115.115 0 0 0 .053-.097c0-.048-.025-.084-.075-.107a1.515 1.515 0 0 0-.243-.076 2.281 2.281 0 0 1-.3-.089.518.518 0 0 1-.207-.146.4.4 0 0 1-.087-.272c0-.096.026-.183.08-.262a.535.535 0 0 1 .233-.188.896.896 0 0 1 .368-.069c.21 0 .375.052.496.156.122.104.191.242.209.414h-.474a.204.204 0 0 0-.077-.138.265.265 0 0 0-.169-.051.234.234 0 0 0-.138.035.11.11 0 0 0-.048.094c0 .048.025.084.076.108.051.024.131.048.239.072.124.032.225.064.303.095a.523.523 0 0 1 .205.15c.06.069.09.161.092.277a.44.44 0 0 1-.083.262.546.546 0 0 1-.236.182.906.906 0 0 1-.359.066ZM40.963 36.136c0 .048-.003.098-.009.15h-1.161a.349.349 0 0 0 .1.239.307.307 0 0 0 .218.082c.128 0 .217-.054.267-.162h.546a.75.75 0 0 1-.426.504.882.882 0 0 1-.369.075.898.898 0 0 1-.438-.105.747.747 0 0 1-.3-.3.926.926 0 0 1-.108-.456c0-.174.035-.326.106-.456s.171-.23.299-.3a.904.904 0 0 1 .441-.105c.162 0 .306.034.432.102a.732.732 0 0 1 .295.291.883.883 0 0 1 .107.441Zm-.525-.135a.264.264 0 0 0-.09-.21.331.331 0 0 0-.225-.078.325.325 0 0 0-.217.075.333.333 0 0 0-.11.213h.642ZM41.131 36.163c0-.174.035-.326.106-.456a.74.74 0 0 1 .297-.3.89.89 0 0 1 .437-.105.83.83 0 0 1 .527.165c.14.11.233.265.277.465h-.546c-.046-.128-.135-.192-.267-.192a.27.27 0 0 0-.225.11.507.507 0 0 0-.084.313c0 .136.028.24.084.314a.27.27 0 0 0 .225.109c.132 0 .221-.064.267-.192h.546a.786.786 0 0 1-.279.462.821.821 0 0 1-.525.168.89.89 0 0 1-.436-.105.74.74 0 0 1-.297-.3.937.937 0 0 1-.107-.456ZM43.981 36.565V37h-.261c-.186 0-.331-.045-.435-.136-.104-.091-.156-.24-.156-.446v-.666h-.204v-.426h.204v-.408h.513v.408h.336v.426h-.336v.672c0 .05.012.086.036.108.024.022.064.033.12.033h.183ZM45.844 36.136c0 .048-.003.098-.009.15h-1.161a.349.349 0 0 0 .1.239.307.307 0 0 0 .218.082c.128 0 .217-.054.267-.162h.546a.75.75 0 0 1-.426.504.882.882 0 0 1-.369.075.898.898 0 0 1-.438-.105.747.747 0 0 1-.3-.3.926.926 0 0 1-.108-.456c0-.174.035-.326.106-.456s.171-.23.299-.3a.904.904 0 0 1 .441-.105c.162 0 .306.034.432.102a.732.732 0 0 1 .295.291.883.883 0 0 1 .107.441Zm-.525-.135a.264.264 0 0 0-.09-.21.331.331 0 0 0-.225-.078.325.325 0 0 0-.217.075.333.333 0 0 0-.11.213h.642ZM47.047 36.565V37h-.261c-.186 0-.331-.045-.435-.136-.104-.091-.156-.24-.156-.446v-.666h-.204v-.426h.204v-.408h.513v.408h.336v.426h-.336v.672c0 .05.012.086.036.108.024.022.064.033.12.033h.183ZM48.985 35.326V37h-.513v-.228a.563.563 0 0 1-.212.179.645.645 0 0 1-.295.067.662.662 0 0 1-.339-.085.576.576 0 0 1-.228-.248.842.842 0 0 1-.081-.381v-.978h.51v.909c0 .112.029.199.087.261a.305.305 0 0 0 .234.093c.1 0 .179-.031.237-.093a.367.367 0 0 0 .087-.261v-.909h.513ZM49.867 35.605a.677.677 0 0 1 .225-.217.58.58 0 0 1 .3-.08v.543h-.141c-.128 0-.224.028-.288.083-.064.055-.096.151-.096.289V37h-.513v-1.674h.513v.279ZM22.084 39.66a1 1 0 0 1 .098-.453.693.693 0 0 1 .64-.405c.118 0 .221.024.31.072a.53.53 0 0 1 .206.189v-.237h.513V40.5h-.513v-.237a.554.554 0 0 1-.209.189.644.644 0 0 1-.31.072.68.68 0 0 1-.372-.106.736.736 0 0 1-.265-.303 1.01 1.01 0 0 1-.098-.455Zm1.254.003a.42.42 0 0 0-.107-.303.346.346 0 0 0-.259-.111.348.348 0 0 0-.26.11.414.414 0 0 0-.106.301c0 .128.035.23.106.305a.344.344 0 0 0 .26.112.346.346 0 0 0 .26-.111.42.42 0 0 0 .106-.303ZM24.121 39.66a1 1 0 0 1 .098-.453.693.693 0 0 1 .64-.405c.11 0 .21.023.301.069a.55.55 0 0 1 .215.186v-.777h.513v2.22h-.513v-.24a.523.523 0 0 1-.206.192.644.644 0 0 1-.31.072.686.686 0 0 1-.375-.106.736.736 0 0 1-.266-.303 1.01 1.01 0 0 1-.097-.455Zm1.254.003a.42.42 0 0 0-.107-.303.346.346 0 0 0-.259-.111.348.348 0 0 0-.26.11.414.414 0 0 0-.106.301c0 .128.035.23.107.305a.344.344 0 0 0 .259.112.346.346 0 0 0 .26-.111.42.42 0 0 0 .106-.303ZM26.518 38.652a.31.31 0 0 1-.22-.08.258.258 0 0 1-.086-.196c0-.08.029-.146.085-.2a.31.31 0 0 1 .221-.079c.088 0 .16.026.218.08.056.053.085.119.085.199a.258.258 0 0 1-.085.197.307.307 0 0 1-.218.079Zm.255.174V40.5h-.513v-1.674h.513ZM27.658 39.063a.557.557 0 0 1 .207-.189.635.635 0 0 1 .309-.072.693.693 0 0 1 .64.405 1 1 0 0 1 .098.453c0 .172-.032.324-.098.455a.736.736 0 0 1-.265.303.686.686 0 0 1-.375.106.638.638 0 0 1-.308-.072.564.564 0 0 1-.208-.186v1.032h-.513v-2.472h.513v.237Zm.732.597a.414.414 0 0 0-.107-.301.352.352 0 0 0-.262-.11.346.346 0 0 0-.26.111.42.42 0 0 0-.106.303.42.42 0 0 0 .106.303.346.346 0 0 0 .26.111.349.349 0 0 0 .261-.112.421.421 0 0 0 .108-.305ZM29.44 38.652a.31.31 0 0 1-.22-.08.258.258 0 0 1-.086-.196c0-.08.029-.146.085-.2a.31.31 0 0 1 .221-.079c.088 0 .16.026.217.08.058.053.086.119.086.199a.258.258 0 0 1-.085.197.307.307 0 0 1-.218.079Zm.255.174V40.5h-.513v-1.674h.513ZM30.748 40.524a.962.962 0 0 1-.39-.075.666.666 0 0 1-.27-.206.54.54 0 0 1-.111-.292h.507a.195.195 0 0 0 .081.141.287.287 0 0 0 .177.054.253.253 0 0 0 .148-.038.115.115 0 0 0 .053-.097c0-.048-.025-.084-.075-.107a1.515 1.515 0 0 0-.243-.076 2.281 2.281 0 0 1-.3-.089.518.518 0 0 1-.207-.146.4.4 0 0 1-.087-.272c0-.096.026-.183.08-.262a.535.535 0 0 1 .233-.188.896.896 0 0 1 .368-.069c.21 0 .375.052.497.156.12.104.19.242.208.414h-.474a.204.204 0 0 0-.076-.138.265.265 0 0 0-.17-.051.234.234 0 0 0-.138.035.11.11 0 0 0-.048.094c0 .048.026.084.076.108.052.024.131.048.239.072.124.032.225.064.303.095a.523.523 0 0 1 .205.15c.06.069.09.161.092.277a.44.44 0 0 1-.082.262.546.546 0 0 1-.238.182.906.906 0 0 1-.358.066ZM31.639 39.663c0-.174.036-.326.107-.456a.74.74 0 0 1 .297-.3.89.89 0 0 1 .436-.105.83.83 0 0 1 .526.165c.142.11.234.265.278.465h-.546c-.046-.128-.135-.192-.267-.192a.27.27 0 0 0-.225.11.507.507 0 0 0-.084.313c0 .136.028.24.084.314a.27.27 0 0 0 .225.109c.132 0 .221-.064.267-.192h.546a.786.786 0 0 1-.279.462.821.821 0 0 1-.525.168.89.89 0 0 1-.436-.105.74.74 0 0 1-.297-.3.937.937 0 0 1-.107-.456ZM33.814 38.652a.31.31 0 0 1-.22-.08.258.258 0 0 1-.086-.196c0-.08.029-.146.085-.2a.31.31 0 0 1 .221-.079c.088 0 .16.026.218.08.056.053.085.119.085.199a.258.258 0 0 1-.085.197.307.307 0 0 1-.218.079Zm.255.174V40.5h-.513v-1.674h.513ZM35.461 38.808c.196 0 .352.063.47.19.117.128.175.302.175.524v.978h-.51v-.909a.367.367 0 0 0-.087-.261.305.305 0 0 0-.234-.093.305.305 0 0 0-.234.093.367.367 0 0 0-.087.261v.909h-.513v-1.674h.513v.222a.541.541 0 0 1 .21-.175.668.668 0 0 1 .297-.065ZM37.099 38.802c.118 0 .221.024.31.072a.53.53 0 0 1 .206.189v-.237h.513v1.671c0 .154-.03.294-.091.419a.697.697 0 0 1-.28.298.903.903 0 0 1-.466.111c-.248 0-.449-.059-.603-.175a.662.662 0 0 1-.264-.476h.507a.243.243 0 0 0 .114.152c.06.036.134.055.222.055.106 0 .19-.03.253-.091s.095-.159.095-.293v-.237a.569.569 0 0 1-.207.19.625.625 0 0 1-.309.074.686.686 0 0 1-.375-.106.736.736 0 0 1-.265-.303 1.01 1.01 0 0 1-.098-.455 1 1 0 0 1 .098-.453.693.693 0 0 1 .64-.405Zm.516.861a.42.42 0 0 0-.107-.303.346.346 0 0 0-.259-.111.348.348 0 0 0-.26.11.414.414 0 0 0-.106.301c0 .128.035.23.106.305a.344.344 0 0 0 .26.112.346.346 0 0 0 .26-.111.42.42 0 0 0 .106-.303ZM40.714 39.636c0 .048-.003.098-.009.15h-1.161a.349.349 0 0 0 .1.239.307.307 0 0 0 .218.082c.128 0 .217-.054.267-.162h.546a.75.75 0 0 1-.426.504.882.882 0 0 1-.369.075.898.898 0 0 1-.438-.105.747.747 0 0 1-.3-.3.926.926 0 0 1-.108-.456c0-.174.035-.326.107-.456.07-.13.17-.23.298-.3a.904.904 0 0 1 .441-.105c.162 0 .306.034.432.102a.732.732 0 0 1 .296.291.883.883 0 0 1 .106.441Zm-.525-.135a.264.264 0 0 0-.09-.21.331.331 0 0 0-.225-.078.325.325 0 0 0-.218.075.333.333 0 0 0-.109.213h.642ZM41.497 38.28v2.22h-.513v-2.22zM42.127 38.652a.31.31 0 0 1-.22-.08.258.258 0 0 1-.086-.196c0-.08.029-.146.086-.2a.31.31 0 0 1 .22-.079c.088 0 .16.026.217.08.057.053.086.119.086.199a.258.258 0 0 1-.086.197.307.307 0 0 1-.217.079Zm.255.174V40.5h-.513v-1.674h.513ZM43.687 40.065v.435h-.261c-.186 0-.331-.045-.435-.136-.104-.091-.156-.24-.156-.446v-.666h-.204v-.426h.204v-.408h.513v.408h.336v.426h-.336v.672c0 .05.012.086.036.108.024.022.064.033.12.033h.183ZM44.212 40.524a.31.31 0 0 1-.22-.08.258.258 0 0 1-.086-.196c0-.08.029-.147.086-.201a.308.308 0 0 1 .22-.081c.088 0 .16.027.218.081a.266.266 0 0 1 .085.201.258.258 0 0 1-.085.197.307.307 0 0 1-.218.079ZM22.751 45.673a.283.283 0 0 1-.034.137.253.253 0 0 1-.108.103.392.392 0 0 1-.185.039h-.152v.348h-.182v-.907h.334c.07 0 .13.012.18.036.049.024.086.058.11.1.025.043.037.09.037.144Zm-.335.132c.05 0 .088-.012.112-.035a.127.127 0 0 0 .036-.097c0-.088-.05-.132-.148-.132h-.144v.264h.144ZM23.55 45.924a.43.43 0 0 1-.006.07h-.526a.18.18 0 0 0 .054.123c.033.03.072.044.119.044a.149.149 0 0 0 .144-.087h.196a.328.328 0 0 1-.12.17.35.35 0 0 1-.216.068.376.376 0 0 1-.187-.046.325.325 0 0 1-.129-.131.4.4 0 0 1-.046-.195c0-.075.015-.14.046-.196.03-.057.073-.1.127-.13a.382.382 0 0 1 .189-.046c.068 0 .13.015.184.044.054.03.096.072.126.126a.38.38 0 0 1 .045.186Zm-.189-.052a.144.144 0 0 0-.05-.112.18.18 0 0 0-.122-.042.165.165 0 0 0-.113.04.18.18 0 0 0-.057.114h.342ZM23.865 45.338v.962h-.182v-.962zM24.226 45.338v.962h-.182v-.962zM25.075 45.924a.43.43 0 0 1-.006.07h-.526a.18.18 0 0 0 .054.123c.032.03.072.044.119.044a.149.149 0 0 0 .144-.087h.196a.328.328 0 0 1-.12.17.35.35 0 0 1-.216.068.376.376 0 0 1-.187-.046.325.325 0 0 1-.129-.131.4.4 0 0 1-.046-.195c0-.075.015-.14.046-.196.03-.057.072-.1.127-.13a.382.382 0 0 1 .189-.046c.068 0 .13.015.184.044.054.03.096.072.126.126a.38.38 0 0 1 .044.186Zm-.189-.052a.144.144 0 0 0-.05-.112.18.18 0 0 0-.122-.042.165.165 0 0 0-.113.04.18.18 0 0 0-.057.114h.342ZM25.606 45.57c.086 0 .155.026.208.08.053.055.08.13.08.227v.423h-.183v-.398c0-.057-.014-.101-.042-.132a.152.152 0 0 0-.117-.046c-.05 0-.09.015-.12.046-.028.031-.043.075-.043.132v.398h-.182v-.72h.182v.09a.251.251 0 0 1 .093-.074.288.288 0 0 1 .124-.027ZM26.278 45.73v.348c0 .024.006.042.018.052.012.011.031.017.059.017h.084v.153h-.114c-.153 0-.23-.075-.23-.224v-.347h-.086v-.15h.086v-.177h.183v.178h.162v.15h-.162ZM27.24 45.924a.43.43 0 0 1-.005.07h-.526a.18.18 0 0 0 .054.123c.032.03.072.044.118.044a.149.149 0 0 0 .145-.087h.196a.328.328 0 0 1-.12.17.35.35 0 0 1-.217.068.376.376 0 0 1-.186-.046.325.325 0 0 1-.129-.131.4.4 0 0 1-.046-.195c0-.075.015-.14.045-.196.03-.057.073-.1.128-.13a.382.382 0 0 1 .188-.046c.069 0 .13.015.184.044.055.03.097.072.126.126a.38.38 0 0 1 .045.186Zm-.188-.052a.144.144 0 0 0-.05-.112.18.18 0 0 0-.122-.042.165.165 0 0 0-.114.04.18.18 0 0 0-.056.114h.342ZM27.648 46.312a.38.38 0 0 1-.158-.032.28.28 0 0 1-.111-.087.22.22 0 0 1-.045-.12h.183a.1.1 0 0 0 .041.068.142.142 0 0 0 .09.028.138.138 0 0 0 .08-.021.063.063 0 0 0 .03-.053c0-.024-.012-.041-.036-.053a.673.673 0 0 0-.114-.038.964.964 0 0 1-.132-.04.23.23 0 0 1-.088-.064.171.171 0 0 1-.037-.116c0-.04.011-.076.034-.11a.231.231 0 0 1 .099-.077.37.37 0 0 1 .151-.029.31.31 0 0 1 .206.064c.051.043.08.101.084.174h-.174a.094.094 0 0 0-.036-.068.133.133 0 0 0-.085-.026.134.134 0 0 0-.076.019.058.058 0 0 0-.026.05c0 .025.012.043.036.056a.565.565 0 0 0 .113.038.96.96 0 0 1 .129.04.227.227 0 0 1 .088.065.177.177 0 0 1 .038.115.19.19 0 0 1-.035.111.227.227 0 0 1-.098.078.374.374 0 0 1-.15.028ZM28.035 45.939a.4.4 0 0 1 .044-.192c.03-.056.07-.1.122-.13a.318.318 0 0 1 .169-.048c.051 0 .096.01.136.03.04.02.071.044.095.074v-.093h.184v1.063H28.6v-.442a.299.299 0 0 1-.235.11.31.31 0 0 1-.167-.048.335.335 0 0 1-.12-.132.409.409 0 0 1-.044-.192Zm.566 0a.228.228 0 0 0-.027-.114.188.188 0 0 0-.164-.097.189.189 0 0 0-.163.097.224.224 0 0 0-.027.114c0 .044.01.082.028.115a.187.187 0 0 0 .162.098.185.185 0 0 0 .164-.098.228.228 0 0 0 .027-.114ZM29.643 45.58v.72h-.184v-.091a.24.24 0 0 1-.091.073.285.285 0 0 1-.123.027.305.305 0 0 1-.15-.036.252.252 0 0 1-.102-.105.348.348 0 0 1-.037-.166v-.422h.182v.396c0 .057.015.101.043.132.029.031.068.046.117.046.05 0 .09-.015.119-.046.028-.03.042-.075.042-.132v-.396h.184ZM30.492 45.924a.43.43 0 0 1-.006.07h-.526a.18.18 0 0 0 .054.123c.033.03.072.044.119.044a.149.149 0 0 0 .144-.087h.196a.328.328 0 0 1-.12.17.35.35 0 0 1-.216.068.376.376 0 0 1-.187-.046.325.325 0 0 1-.129-.131.4.4 0 0 1-.046-.195c0-.075.015-.14.046-.196.03-.057.073-.1.127-.13a.382.382 0 0 1 .189-.046c.068 0 .13.015.184.044.054.03.096.072.126.126a.38.38 0 0 1 .045.186Zm-.189-.052a.144.144 0 0 0-.05-.112.18.18 0 0 0-.122-.042.165.165 0 0 0-.113.04.18.18 0 0 0-.057.114h.342ZM31.234 46.133l.182-.553h.194l-.267.72h-.221l-.265-.72h.195zM31.805 45.494a.11.11 0 0 1-.08-.03.101.101 0 0 1-.032-.077c0-.03.01-.055.032-.076a.11.11 0 0 1 .08-.03.11.11 0 0 1 .08.03c.02.02.031.046.031.076s-.01.056-.031.076a.11.11 0 0 1-.08.031Zm.09.086v.72h-.183v-.72h.182ZM32.374 46.133l.182-.553h.194l-.266.72h-.221l-.266-.72h.195zM33.522 45.924a.43.43 0 0 1-.005.07h-.527a.18.18 0 0 0 .055.123c.032.03.071.044.118.044a.149.149 0 0 0 .144-.087h.197a.328.328 0 0 1-.12.17.35.35 0 0 1-.217.068.376.376 0 0 1-.187-.046.325.325 0 0 1-.128-.131.4.4 0 0 1-.046-.195c0-.075.015-.14.045-.196.03-.057.073-.1.127-.13a.382.382 0 0 1 .189-.046c.068 0 .13.015.184.044.054.03.096.072.126.126a.38.38 0 0 1 .045.186Zm-.189-.052a.144.144 0 0 0-.05-.112.18.18 0 0 0-.121-.042.165.165 0 0 0-.114.04.18.18 0 0 0-.056.114h.341ZM33.837 45.692a.255.255 0 0 1 .221-.122v.19h-.049c-.057 0-.1.014-.129.04-.029.028-.044.074-.044.141v.359h-.181v-.72h.181v.112ZM34.362 45.692a.255.255 0 0 1 .221-.122v.19h-.048c-.058 0-.1.014-.13.04-.029.028-.043.074-.043.141v.359h-.182v-.72h.182v.112ZM34.658 45.937c0-.072.015-.137.044-.193a.315.315 0 0 1 .285-.175.293.293 0 0 1 .238.114v-.103h.183v.72h-.183v-.105a.27.27 0 0 1-.097.084.296.296 0 0 1-.142.033.306.306 0 0 1-.166-.047.328.328 0 0 1-.118-.132.424.424 0 0 1-.044-.196Zm.567.003a.233.233 0 0 0-.026-.114.183.183 0 0 0-.165-.098.184.184 0 0 0-.163.097.226.226 0 0 0-.027.112c0 .044.009.082.027.114a.192.192 0 0 0 .07.075.188.188 0 0 0 .258-.072.233.233 0 0 0 .026-.114ZM36.171 46.312a.38.38 0 0 1-.158-.032.28.28 0 0 1-.111-.087.22.22 0 0 1-.045-.12h.183a.1.1 0 0 0 .041.068.142.142 0 0 0 .089.028.138.138 0 0 0 .081-.021.063.063 0 0 0 .03-.053c0-.024-.012-.041-.036-.053a.673.673 0 0 0-.114-.038.964.964 0 0 1-.132-.04.23.23 0 0 1-.088-.064.171.171 0 0 1-.037-.116c0-.04.011-.076.034-.11a.231.231 0 0 1 .099-.077.37.37 0 0 1 .151-.029.31.31 0 0 1 .206.064c.05.043.079.101.084.174h-.174a.094.094 0 0 0-.036-.068.133.133 0 0 0-.085-.026.134.134 0 0 0-.076.019.058.058 0 0 0-.027.05c0 .025.013.043.037.056a.565.565 0 0 0 .113.038.96.96 0 0 1 .129.04.227.227 0 0 1 .087.065.177.177 0 0 1 .039.115.19.19 0 0 1-.035.111.227.227 0 0 1-.099.078.374.374 0 0 1-.15.028ZM37.274 45.924a.43.43 0 0 1-.006.07h-.526a.18.18 0 0 0 .055.123c.032.03.071.044.118.044a.149.149 0 0 0 .144-.087h.197a.328.328 0 0 1-.12.17.35.35 0 0 1-.217.068.376.376 0 0 1-.187-.046.325.325 0 0 1-.128-.131.4.4 0 0 1-.047-.195c0-.075.016-.14.046-.196.03-.057.073-.1.127-.13a.382.382 0 0 1 .189-.046c.068 0 .13.015.184.044.054.03.096.072.126.126a.38.38 0 0 1 .045.186Zm-.189-.052a.144.144 0 0 0-.05-.112.18.18 0 0 0-.121-.042.165.165 0 0 0-.114.04.18.18 0 0 0-.057.114h.342ZM38.3 45.57a.29.29 0 0 1 .215.08c.054.055.08.13.08.227v.423h-.181v-.398c0-.056-.014-.1-.043-.13a.154.154 0 0 0-.117-.044.156.156 0 0 0-.118.045c-.029.03-.043.073-.043.13v.397h-.182v-.398c0-.056-.015-.1-.043-.13a.154.154 0 0 0-.117-.044c-.05 0-.09.015-.12.045-.028.03-.043.073-.043.13v.397h-.182v-.72h.182v.087a.242.242 0 0 1 .09-.072.313.313 0 0 1 .272.01.25.25 0 0 1 .104.102.26.26 0 0 1 .102-.1.29.29 0 0 1 .145-.038ZM38.95 45.684a.294.294 0 0 1 .238-.116.315.315 0 0 1 .286.175c.029.056.044.12.044.194a.424.424 0 0 1-.044.196.328.328 0 0 1-.118.132.308.308 0 0 1-.167.047.29.29 0 0 1-.238-.115v.446h-.182V45.58h.182v.104Zm.382.253a.226.226 0 0 0-.027-.112.185.185 0 0 0-.164-.097.188.188 0 0 0-.163.099.23.23 0 0 0-.027.113.23.23 0 0 0 .026.113.188.188 0 0 0 .164.099.18.18 0 0 0 .094-.026.193.193 0 0 0 .07-.074.233.233 0 0 0 .027-.115ZM40.32 45.924a.43.43 0 0 1-.006.07h-.526a.18.18 0 0 0 .055.123c.032.03.071.044.118.044a.149.149 0 0 0 .144-.087h.196a.328.328 0 0 1-.12.17.35.35 0 0 1-.216.068.376.376 0 0 1-.187-.046.325.325 0 0 1-.129-.131.4.4 0 0 1-.046-.195c0-.075.015-.14.046-.196.03-.057.073-.1.127-.13a.382.382 0 0 1 .189-.046c.068 0 .13.015.184.044.054.03.096.072.126.126a.38.38 0 0 1 .045.186Zm-.189-.052a.144.144 0 0 0-.05-.112.18.18 0 0 0-.122-.042.165.165 0 0 0-.113.04.18.18 0 0 0-.057.114h.342ZM40.634 45.692a.255.255 0 0 1 .221-.122v.19h-.048c-.057 0-.1.014-.13.04-.028.028-.043.074-.043.141v.359h-.182v-.72h.182v.112ZM41.587 46.133l.182-.553h.194l-.266.72h-.221l-.266-.72h.195zM42.735 45.924a.43.43 0 0 1-.005.07h-.527a.18.18 0 0 0 .055.123c.032.03.071.044.118.044a.149.149 0 0 0 .145-.087h.196a.328.328 0 0 1-.12.17.35.35 0 0 1-.217.068.376.376 0 0 1-.186-.046.325.325 0 0 1-.13-.131.4.4 0 0 1-.045-.195c0-.075.015-.14.045-.196.03-.057.073-.1.128-.13a.382.382 0 0 1 .188-.046c.069 0 .13.015.184.044.054.03.096.072.126.126a.38.38 0 0 1 .045.186Zm-.189-.052a.144.144 0 0 0-.05-.112.18.18 0 0 0-.121-.042.165.165 0 0 0-.114.04.18.18 0 0 0-.056.114h.341ZM43.05 45.338v.962h-.182v-.962zM43.321 45.494a.11.11 0 0 1-.08-.03.101.101 0 0 1-.032-.077c0-.03.011-.055.032-.076a.11.11 0 0 1 .08-.03.11.11 0 0 1 .08.03c.021.02.032.046.032.076s-.01.056-.032.076a.11.11 0 0 1-.08.031Zm.09.086v.72h-.182v-.72h.182ZM43.802 45.73v.348c0 .024.006.042.018.052.012.011.031.017.059.017h.084v.153h-.114c-.153 0-.23-.075-.23-.224v-.347h-.086v-.15h.086v-.177h.183v.178h.161v.15h-.16ZM44.175 46.31a.113.113 0 0 1-.08-.031.101.101 0 0 1-.033-.077c0-.03.01-.055.032-.076a.113.113 0 0 1 .081-.03c.032 0 .059.01.08.03.02.02.03.046.03.077 0 .03-.01.055-.03.076a.109.109 0 0 1-.08.03ZM45.732 45.393v.907h-.182v-.59l-.243.59h-.138l-.244-.59v.59h-.182v-.907h.206l.289.675.288-.675zM46.23 46.312a.38.38 0 0 1-.187-.046.332.332 0 0 1-.13-.131.391.391 0 0 1-.048-.195c0-.074.017-.139.05-.195a.339.339 0 0 1 .132-.13.387.387 0 0 1 .189-.047c.07 0 .132.015.188.046.057.031.101.075.134.13a.383.383 0 0 1 .048.196.375.375 0 0 1-.05.195.347.347 0 0 1-.135.13.393.393 0 0 1-.19.047Zm0-.159a.19.19 0 0 0 .094-.024.175.175 0 0 0 .07-.072.243.243 0 0 0 .025-.117c0-.069-.018-.121-.054-.158a.177.177 0 0 0-.132-.055.173.173 0 0 0-.13.055c-.035.037-.053.09-.053.158s.017.121.051.158a.17.17 0 0 0 .13.055ZM46.922 45.692a.255.255 0 0 1 .221-.122v.19h-.048c-.057 0-.1.014-.13.04-.028.028-.043.074-.043.141v.359h-.182v-.72h.182v.112ZM47.447 45.685a.26.26 0 0 1 .097-.084.298.298 0 0 1 .141-.033.315.315 0 0 1 .286.175c.029.056.043.12.043.194a.424.424 0 0 1-.043.196.328.328 0 0 1-.119.132.308.308 0 0 1-.167.047c-.053 0-.1-.01-.14-.032a.274.274 0 0 1-.098-.083v.103h-.181v-.962h.181v.347Zm.381.252a.226.226 0 0 0-.026-.112.185.185 0 0 0-.165-.097.188.188 0 0 0-.163.099.23.23 0 0 0-.026.113.23.23 0 0 0 .026.113.188.188 0 0 0 .163.099.18.18 0 0 0 .095-.026.193.193 0 0 0 .07-.074.233.233 0 0 0 .026-.115ZM48.24 45.494a.11.11 0 0 1-.08-.03.101.101 0 0 1-.033-.077c0-.03.011-.055.032-.076a.11.11 0 0 1 .08-.03.11.11 0 0 1 .08.03c.021.02.032.046.032.076s-.01.056-.032.076a.11.11 0 0 1-.08.031Zm.089.086v.72h-.182v-.72h.182ZM49.217 45.57c.086 0 .155.026.208.08.053.055.08.13.08.227v.423h-.183v-.398c0-.057-.014-.101-.043-.132a.152.152 0 0 0-.117-.046c-.05 0-.09.015-.119.046-.029.031-.043.075-.043.132v.398h-.182v-.72H49v.09a.251.251 0 0 1 .093-.074.288.288 0 0 1 .124-.027ZM49.997 46.312a.38.38 0 0 1-.187-.046.332.332 0 0 1-.131-.131.391.391 0 0 1-.047-.195c0-.074.016-.139.048-.195a.339.339 0 0 1 .133-.13.387.387 0 0 1 .189-.047c.07 0 .132.015.188.046.057.031.101.075.134.13a.383.383 0 0 1 .049.196.375.375 0 0 1-.05.195.347.347 0 0 1-.136.13.393.393 0 0 1-.19.047Zm0-.159a.19.19 0 0 0 .093-.024.175.175 0 0 0 .07-.072.243.243 0 0 0 .025-.117c0-.069-.018-.121-.054-.158a.177.177 0 0 0-.132-.055.173.173 0 0 0-.13.055c-.035.037-.053.09-.053.158s.017.121.051.158a.17.17 0 0 0 .13.055ZM50.906 45.57c.085 0 .155.026.208.08.052.055.079.13.079.227v.423h-.182v-.398c0-.057-.015-.101-.043-.132a.152.152 0 0 0-.117-.046c-.05 0-.09.015-.12.046-.028.031-.043.075-.043.132v.398h-.182v-.72h.182v.09a.251.251 0 0 1 .093-.074.288.288 0 0 1 .125-.027ZM51.887 45.73v.348c0 .024.006.042.018.052.011.011.031.017.059.017h.084v.153h-.114c-.154 0-.23-.075-.23-.224v-.347h-.086v-.15h.086v-.177h.183v.178h.161v.15h-.161ZM52.361 45.692a.255.255 0 0 1 .221-.122v.19h-.048c-.057 0-.1.014-.129.04-.029.028-.044.074-.044.141v.359h-.181v-.72h.181v.112ZM52.797 45.494a.11.11 0 0 1-.08-.03.101.101 0 0 1-.032-.077c0-.03.01-.055.032-.076a.11.11 0 0 1 .08-.03.11.11 0 0 1 .08.03c.021.02.032.046.032.076s-.01.056-.032.076a.11.11 0 0 1-.08.031Zm.09.086v.72h-.182v-.72h.182ZM53.342 46.312a.38.38 0 0 1-.159-.032.28.28 0 0 1-.111-.087.22.22 0 0 1-.045-.12h.183a.1.1 0 0 0 .041.068.142.142 0 0 0 .09.028.138.138 0 0 0 .08-.021.063.063 0 0 0 .03-.053c0-.024-.012-.041-.036-.053a.673.673 0 0 0-.114-.038.964.964 0 0 1-.132-.04.23.23 0 0 1-.088-.064.171.171 0 0 1-.037-.116c0-.04.011-.076.034-.11a.231.231 0 0 1 .1-.077.37.37 0 0 1 .15-.029.31.31 0 0 1 .206.064c.051.043.08.101.085.174h-.175a.094.094 0 0 0-.035-.068.133.133 0 0 0-.086-.026.134.134 0 0 0-.076.019.058.058 0 0 0-.026.05c0 .025.012.043.036.056a.565.565 0 0 0 .113.038.96.96 0 0 1 .129.04.227.227 0 0 1 .088.065.177.177 0 0 1 .038.115.19.19 0 0 1-.034.111.227.227 0 0 1-.1.078.374.374 0 0 1-.15.028ZM53.986 45.73v.348c0 .024.006.042.018.052.012.011.031.017.06.017h.084v.153h-.115c-.153 0-.23-.075-.23-.224v-.347h-.086v-.15h.086v-.177h.184v.178h.16v.15h-.16ZM54.371 45.494a.11.11 0 0 1-.08-.03.101.101 0 0 1-.032-.077c0-.03.011-.055.032-.076a.11.11 0 0 1 .08-.03.11.11 0 0 1 .08.03c.021.02.032.046.032.076s-.01.056-.032.076a.11.11 0 0 1-.08.031Zm.09.086v.72h-.182v-.72h.182ZM54.594 45.939a.4.4 0 0 1 .044-.192c.03-.056.07-.1.122-.13a.318.318 0 0 1 .169-.048c.051 0 .096.01.136.03.04.02.071.044.095.074v-.093h.184v1.063h-.184v-.442a.299.299 0 0 1-.235.11.31.31 0 0 1-.167-.048.335.335 0 0 1-.12-.132.409.409 0 0 1-.044-.192Zm.566 0a.228.228 0 0 0-.027-.114.188.188 0 0 0-.164-.097.189.189 0 0 0-.163.097.224.224 0 0 0-.026.114c0 .044.009.082.027.115a.187.187 0 0 0 .162.098.185.185 0 0 0 .164-.098.228.228 0 0 0 .027-.114ZM56.202 45.58v.72h-.184v-.091a.24.24 0 0 1-.091.073.285.285 0 0 1-.123.027.305.305 0 0 1-.15-.036.252.252 0 0 1-.102-.105.348.348 0 0 1-.037-.166v-.422h.182v.396c0 .057.015.101.043.132.029.031.068.046.117.046.05 0 .09-.015.118-.046.03-.03.043-.075.043-.132v-.396h.184ZM57.05 45.924a.43.43 0 0 1-.005.07h-.526a.18.18 0 0 0 .054.123c.033.03.072.044.119.044a.149.149 0 0 0 .144-.087h.196a.328.328 0 0 1-.12.17.35.35 0 0 1-.216.068.376.376 0 0 1-.187-.046.325.325 0 0 1-.129-.131.4.4 0 0 1-.046-.195c0-.075.015-.14.046-.196.03-.057.073-.1.127-.13a.382.382 0 0 1 .189-.046c.068 0 .13.015.184.044.054.03.096.072.126.126a.38.38 0 0 1 .045.186Zm-.188-.052a.144.144 0 0 0-.05-.112.18.18 0 0 0-.121-.042.165.165 0 0 0-.114.04.18.18 0 0 0-.057.114h.342ZM57.446 45.937c0-.072.014-.137.043-.193a.315.315 0 0 1 .285-.175.293.293 0 0 1 .239.114v-.103h.183v.72h-.183v-.105a.27.27 0 0 1-.097.084.296.296 0 0 1-.143.033.306.306 0 0 1-.165-.047.328.328 0 0 1-.119-.132.424.424 0 0 1-.043-.196Zm.567.003a.233.233 0 0 0-.026-.114.183.183 0 0 0-.166-.098.184.184 0 0 0-.163.097.226.226 0 0 0-.026.112c0 .044.009.082.026.114a.192.192 0 0 0 .07.075.188.188 0 0 0 .258-.072.233.233 0 0 0 .027-.114ZM58.773 45.57c.086 0 .155.026.208.08.053.055.08.13.08.227v.423h-.183v-.398c0-.057-.014-.101-.043-.132a.152.152 0 0 0-.117-.046c-.05 0-.09.015-.118.046-.03.031-.044.075-.044.132v.398h-.182v-.72h.182v.09a.251.251 0 0 1 .093-.074.288.288 0 0 1 .124-.027ZM59.445 45.73v.348c0 .024.006.042.018.052.011.011.031.017.059.017h.084v.153h-.114c-.153 0-.23-.075-.23-.224v-.347h-.086v-.15h.086v-.177h.183v.178h.161v.15h-.16ZM60.407 45.924a.43.43 0 0 1-.005.07h-.527a.18.18 0 0 0 .055.123c.032.03.072.044.118.044a.149.149 0 0 0 .145-.087h.196a.328.328 0 0 1-.12.17.35.35 0 0 1-.217.068.376.376 0 0 1-.186-.046.325.325 0 0 1-.129-.131.4.4 0 0 1-.046-.195c0-.075.015-.14.045-.196.03-.057.073-.1.128-.13a.382.382 0 0 1 .188-.046c.069 0 .13.015.184.044.054.03.096.072.126.126a.38.38 0 0 1 .045.186Zm-.188-.052a.144.144 0 0 0-.051-.112.18.18 0 0 0-.12-.042.165.165 0 0 0-.115.04.18.18 0 0 0-.056.114h.342ZM60.62 46.31a.113.113 0 0 1-.08-.031.101.101 0 0 1-.033-.077c0-.03.01-.055.032-.076a.113.113 0 0 1 .081-.03c.032 0 .059.01.08.03.02.02.03.046.03.077 0 .03-.01.055-.03.076a.109.109 0 0 1-.08.03ZM22.403 48.01a.431.431 0 0 1-.171-.033.28.28 0 0 1-.12-.094.246.246 0 0 1-.046-.144h.195a.126.126 0 0 0 .04.088.14.14 0 0 0 .098.033c.043 0 .076-.01.1-.03a.1.1 0 0 0 .037-.08.092.092 0 0 0-.025-.067.173.173 0 0 0-.062-.041 1.022 1.022 0 0 0-.102-.033 1.093 1.093 0 0 1-.144-.052.219.219 0 0 1-.135-.214c0-.053.014-.1.041-.14a.256.256 0 0 1 .113-.092.411.411 0 0 1 .167-.031c.093 0 .17.022.228.068.058.045.09.109.097.19h-.2a.104.104 0 0 0-.04-.077.15.15 0 0 0-.098-.03.126.126 0 0 0-.085.027c-.022.018-.032.044-.032.079 0 .024.008.044.024.06a.183.183 0 0 0 .06.04c.023.01.057.02.1.034.06.017.107.035.145.052a.26.26 0 0 1 .096.078c.027.035.04.08.04.136a.257.257 0 0 1-.148.235.377.377 0 0 1-.173.037ZM23.561 47.28V48h-.183v-.091a.24.24 0 0 1-.092.073.285.285 0 0 1-.123.027.305.305 0 0 1-.149-.036.252.252 0 0 1-.102-.105.348.348 0 0 1-.037-.166v-.422h.182v.396c0 .057.014.101.043.132.028.031.067.046.117.046s.09-.015.118-.046c.029-.03.043-.075.043-.132v-.396h.183ZM24.016 48.012a.38.38 0 0 1-.158-.032.28.28 0 0 1-.111-.087.22.22 0 0 1-.045-.12h.183a.1.1 0 0 0 .04.068.142.142 0 0 0 .09.028.138.138 0 0 0 .081-.021.063.063 0 0 0 .03-.053c0-.024-.012-.041-.036-.053a.673.673 0 0 0-.114-.038.964.964 0 0 1-.132-.04.23.23 0 0 1-.088-.064.171.171 0 0 1-.037-.116c0-.04.011-.076.034-.11a.231.231 0 0 1 .099-.077.37.37 0 0 1 .151-.029.31.31 0 0 1 .206.064c.05.043.079.101.084.174h-.174a.094.094 0 0 0-.036-.068.133.133 0 0 0-.085-.026.134.134 0 0 0-.076.019.058.058 0 0 0-.027.05c0 .025.013.043.037.056a.565.565 0 0 0 .113.038.96.96 0 0 1 .129.04.227.227 0 0 1 .087.065.177.177 0 0 1 .039.115.19.19 0 0 1-.035.111.227.227 0 0 1-.099.078.374.374 0 0 1-.15.028ZM24.631 47.384a.294.294 0 0 1 .238-.116.315.315 0 0 1 .285.175c.03.056.044.12.044.194a.424.424 0 0 1-.044.196.328.328 0 0 1-.118.132.308.308 0 0 1-.167.047.29.29 0 0 1-.238-.115v.446h-.182V47.28h.182v.104Zm.381.253a.226.226 0 0 0-.027-.112.185.185 0 0 0-.164-.097.188.188 0 0 0-.163.099.23.23 0 0 0-.027.113.23.23 0 0 0 .027.113.188.188 0 0 0 .163.099.18.18 0 0 0 .094-.026.193.193 0 0 0 .07-.074.233.233 0 0 0 .027-.115ZM26 47.624a.43.43 0 0 1-.005.07h-.527a.18.18 0 0 0 .055.123c.032.03.072.044.118.044a.149.149 0 0 0 .145-.087h.196a.328.328 0 0 1-.12.17.35.35 0 0 1-.217.068.376.376 0 0 1-.186-.046.325.325 0 0 1-.13-.131.4.4 0 0 1-.045-.195c0-.075.015-.14.045-.196.03-.057.073-.1.128-.13a.382.382 0 0 1 .188-.046c.069 0 .13.015.184.044.054.03.096.072.126.126a.38.38 0 0 1 .045.186Zm-.188-.052a.144.144 0 0 0-.051-.112.18.18 0 0 0-.121-.042.165.165 0 0 0-.114.04.18.18 0 0 0-.056.114h.342ZM26.532 47.27c.086 0 .155.026.208.08.053.055.08.13.08.227V48h-.183v-.398c0-.057-.014-.101-.043-.132a.152.152 0 0 0-.117-.046c-.05 0-.09.015-.119.046-.029.031-.043.075-.043.132V48h-.182v-.72h.182v.09a.251.251 0 0 1 .093-.074.288.288 0 0 1 .124-.027ZM26.945 47.637c0-.072.015-.137.044-.193a.318.318 0 0 1 .42-.145c.043.02.077.047.102.08v-.341h.184V48h-.184v-.107a.247.247 0 0 1-.095.086.297.297 0 0 1-.142.033.31.31 0 0 1-.166-.047.326.326 0 0 1-.12-.132.424.424 0 0 1-.043-.196Zm.567.003a.233.233 0 0 0-.026-.114.183.183 0 0 0-.165-.098.184.184 0 0 0-.163.097.226.226 0 0 0-.027.112c0 .044.009.082.027.114a.192.192 0 0 0 .07.075.188.188 0 0 0 .258-.072.233.233 0 0 0 .026-.114ZM27.966 47.194a.11.11 0 0 1-.08-.03.101.101 0 0 1-.032-.077c0-.03.01-.055.032-.076a.11.11 0 0 1 .08-.03.11.11 0 0 1 .08.03c.02.02.032.046.032.076s-.011.056-.032.076a.11.11 0 0 1-.08.031Zm.09.086V48h-.183v-.72h.182ZM28.51 48.012a.38.38 0 0 1-.158-.032.28.28 0 0 1-.111-.087.22.22 0 0 1-.045-.12h.183a.1.1 0 0 0 .041.068.142.142 0 0 0 .09.028.138.138 0 0 0 .08-.021.063.063 0 0 0 .03-.053c0-.024-.012-.041-.036-.053a.673.673 0 0 0-.114-.038.964.964 0 0 1-.132-.04.23.23 0 0 1-.088-.064.171.171 0 0 1-.037-.116c0-.04.011-.076.034-.11a.231.231 0 0 1 .099-.077.37.37 0 0 1 .151-.029.31.31 0 0 1 .206.064c.05.043.08.101.084.174h-.174a.094.094 0 0 0-.036-.068.133.133 0 0 0-.085-.026.134.134 0 0 0-.076.019.058.058 0 0 0-.027.05c0 .025.013.043.037.056a.565.565 0 0 0 .113.038.96.96 0 0 1 .129.04.227.227 0 0 1 .087.065.177.177 0 0 1 .039.115.19.19 0 0 1-.035.111.227.227 0 0 1-.098.078.374.374 0 0 1-.15.028ZM29.219 48.012a.38.38 0 0 1-.159-.032.28.28 0 0 1-.11-.087.22.22 0 0 1-.046-.12h.184a.1.1 0 0 0 .04.068.142.142 0 0 0 .09.028.138.138 0 0 0 .08-.021.063.063 0 0 0 .03-.053c0-.024-.012-.041-.036-.053a.673.673 0 0 0-.113-.038.964.964 0 0 1-.132-.04.23.23 0 0 1-.089-.064.171.171 0 0 1-.037-.116c0-.04.012-.076.035-.11a.231.231 0 0 1 .098-.077.37.37 0 0 1 .152-.029.31.31 0 0 1 .205.064c.051.043.08.101.085.174h-.174a.094.094 0 0 0-.036-.068.133.133 0 0 0-.085-.026.134.134 0 0 0-.076.019.058.058 0 0 0-.027.05c0 .025.012.043.036.056a.565.565 0 0 0 .113.038.96.96 0 0 1 .13.04.227.227 0 0 1 .087.065.177.177 0 0 1 .038.115.19.19 0 0 1-.034.111.227.227 0 0 1-.099.078.374.374 0 0 1-.15.028ZM30.321 47.624a.43.43 0 0 1-.005.07h-.526a.18.18 0 0 0 .054.123c.032.03.072.044.118.044a.149.149 0 0 0 .145-.087h.196a.328.328 0 0 1-.12.17.35.35 0 0 1-.217.068.376.376 0 0 1-.186-.046.325.325 0 0 1-.129-.131.4.4 0 0 1-.046-.195c0-.075.015-.14.045-.196.03-.057.073-.1.128-.13a.382.382 0 0 1 .188-.046c.069 0 .13.015.184.044.055.03.097.072.126.126a.38.38 0 0 1 .045.186Zm-.188-.052a.144.144 0 0 0-.05-.112.18.18 0 0 0-.122-.042.165.165 0 0 0-.114.04.18.18 0 0 0-.056.114h.342ZM31.162 47.27c.086 0 .156.026.208.08.053.055.08.13.08.227V48h-.182v-.398c0-.057-.015-.101-.043-.132a.152.152 0 0 0-.117-.046c-.05 0-.09.015-.12.046-.028.031-.043.075-.043.132V48h-.182v-.72h.182v.09a.251.251 0 0 1 .093-.074.288.288 0 0 1 .124-.027ZM31.942 48.012a.38.38 0 0 1-.187-.046.332.332 0 0 1-.13-.131.391.391 0 0 1-.048-.195c0-.074.016-.139.049-.195a.339.339 0 0 1 .133-.13.387.387 0 0 1 .189-.047c.069 0 .132.015.188.046.056.031.1.075.133.13a.383.383 0 0 1 .05.196.375.375 0 0 1-.051.195.347.347 0 0 1-.135.13.393.393 0 0 1-.19.047Zm0-.159a.19.19 0 0 0 .093-.024.175.175 0 0 0 .07-.072.243.243 0 0 0 .026-.117c0-.069-.018-.121-.054-.158a.177.177 0 0 0-.132-.055.173.173 0 0 0-.13.055c-.036.037-.053.09-.053.158s.017.121.051.158a.17.17 0 0 0 .13.055ZM32.851 47.27c.086 0 .155.026.208.08.053.055.08.13.08.227V48h-.183v-.398c0-.057-.014-.101-.043-.132a.152.152 0 0 0-.117-.046c-.05 0-.09.015-.118.046-.03.031-.044.075-.044.132V48h-.182v-.72h.182v.09a.251.251 0 0 1 .093-.074.288.288 0 0 1 .124-.027ZM34.3 47.28V48h-.183v-.091a.24.24 0 0 1-.091.073.285.285 0 0 1-.123.027.305.305 0 0 1-.15-.036.252.252 0 0 1-.102-.105.348.348 0 0 1-.037-.166v-.422h.182v.396c0 .057.014.101.043.132.029.031.068.046.117.046.05 0 .09-.015.118-.046.029-.03.043-.075.043-.132v-.396h.184ZM34.662 47.392a.255.255 0 0 1 .221-.122v.19h-.048c-.057 0-.1.014-.13.04-.028.028-.043.074-.043.141V48h-.182v-.72h.182v.112ZM35.404 47.27c.086 0 .155.026.208.08.053.055.08.13.08.227V48h-.182v-.398c0-.057-.015-.101-.043-.132a.152.152 0 0 0-.117-.046c-.05 0-.09.015-.12.046-.028.031-.043.075-.043.132V48h-.182v-.72h.182v.09a.251.251 0 0 1 .093-.074.288.288 0 0 1 .124-.027ZM35.818 47.637c0-.072.014-.137.043-.193a.315.315 0 0 1 .285-.175.293.293 0 0 1 .239.114v-.103h.183V48h-.183v-.105a.27.27 0 0 1-.097.084.296.296 0 0 1-.143.033.306.306 0 0 1-.165-.047.328.328 0 0 1-.119-.132.424.424 0 0 1-.043-.196Zm.567.003a.233.233 0 0 0-.026-.114.183.183 0 0 0-.166-.098.184.184 0 0 0-.163.097.226.226 0 0 0-.026.112c0 .044.008.082.026.114a.192.192 0 0 0 .07.075.188.188 0 0 0 .258-.072.233.233 0 0 0 .027-.114ZM37.008 47.637c0-.072.015-.137.044-.193a.315.315 0 0 1 .285-.175.293.293 0 0 1 .238.114v-.103h.184V48h-.184v-.105a.27.27 0 0 1-.097.084.296.296 0 0 1-.142.033.306.306 0 0 1-.166-.047.328.328 0 0 1-.118-.132.424.424 0 0 1-.044-.196Zm.567.003a.233.233 0 0 0-.026-.114.183.183 0 0 0-.165-.098.184.184 0 0 0-.163.097.226.226 0 0 0-.027.112c0 .044.01.082.027.114a.192.192 0 0 0 .07.075.188.188 0 0 0 .258-.072.233.233 0 0 0 .026-.114ZM37.89 47.64c0-.075.015-.14.045-.196.03-.056.073-.099.126-.13a.365.365 0 0 1 .185-.046c.09 0 .163.022.222.067a.326.326 0 0 1 .117.188h-.196a.144.144 0 0 0-.053-.074.153.153 0 0 0-.091-.026.15.15 0 0 0-.124.056.25.25 0 0 0-.045.16c0 .07.015.122.045.16a.15.15 0 0 0 .124.057c.073 0 .122-.033.144-.1h.196a.332.332 0 0 1-.118.187.349.349 0 0 1-.22.069.365.365 0 0 1-.186-.046.325.325 0 0 1-.126-.13.404.404 0 0 1-.045-.196ZM39.349 48.012a.38.38 0 0 1-.188-.046.332.332 0 0 1-.13-.131.391.391 0 0 1-.048-.195c0-.074.016-.139.049-.195a.339.339 0 0 1 .133-.13.387.387 0 0 1 .189-.047c.069 0 .132.015.188.046.057.031.1.075.133.13a.383.383 0 0 1 .05.196.375.375 0 0 1-.05.195.347.347 0 0 1-.136.13.393.393 0 0 1-.19.047Zm0-.159a.19.19 0 0 0 .092-.024.175.175 0 0 0 .07-.072.243.243 0 0 0 .026-.117c0-.069-.018-.121-.054-.158a.177.177 0 0 0-.132-.055.173.173 0 0 0-.13.055c-.036.037-.053.09-.053.158s.017.121.051.158a.17.17 0 0 0 .13.055ZM40.04 47.392a.255.255 0 0 1 .221-.122v.19h-.048c-.057 0-.1.014-.13.04-.028.028-.043.074-.043.141V48h-.182v-.72h.182v.112ZM40.337 47.64c0-.075.015-.14.045-.196.03-.056.072-.099.126-.13a.365.365 0 0 1 .185-.046c.089 0 .163.022.221.067a.326.326 0 0 1 .118.188h-.196a.144.144 0 0 0-.053-.074.153.153 0 0 0-.092-.026.15.15 0 0 0-.123.056.25.25 0 0 0-.046.16c0 .07.016.122.046.16a.15.15 0 0 0 .123.057c.074 0 .122-.033.145-.1h.196a.332.332 0 0 1-.118.187.349.349 0 0 1-.221.069.365.365 0 0 1-.185-.046.325.325 0 0 1-.126-.13.404.404 0 0 1-.045-.196ZM41.258 47.194a.11.11 0 0 1-.08-.03.101.101 0 0 1-.032-.077c0-.03.011-.055.032-.076a.11.11 0 0 1 .08-.03.11.11 0 0 1 .08.03c.021.02.032.046.032.076s-.01.056-.032.076a.11.11 0 0 1-.08.031Zm.09.086V48h-.182v-.72h.182ZM41.79 47.637c0-.072.014-.137.043-.193a.315.315 0 0 1 .285-.175.293.293 0 0 1 .239.114v-.103h.183V48h-.183v-.105a.27.27 0 0 1-.097.084.296.296 0 0 1-.142.033.306.306 0 0 1-.166-.047.328.328 0 0 1-.119-.132.424.424 0 0 1-.043-.196Zm.567.003a.233.233 0 0 0-.026-.114.183.183 0 0 0-.165-.098.184.184 0 0 0-.164.097.226.226 0 0 0-.026.112c0 .044.009.082.026.114a.192.192 0 0 0 .07.075.188.188 0 0 0 .258-.072.233.233 0 0 0 .027-.114ZM43.398 47.28V48h-.183v-.091a.24.24 0 0 1-.092.073.285.285 0 0 1-.123.027.305.305 0 0 1-.15-.036.252.252 0 0 1-.101-.105.348.348 0 0 1-.037-.166v-.422h.182v.396c0 .057.014.101.042.132.03.031.068.046.117.046.05 0 .09-.015.119-.046.028-.03.043-.075.043-.132v-.396h.183ZM43.53 47.64c0-.075.016-.14.046-.196.03-.056.072-.099.126-.13a.365.365 0 0 1 .185-.046c.09 0 .163.022.221.067a.326.326 0 0 1 .118.188h-.196a.144.144 0 0 0-.053-.074.153.153 0 0 0-.092-.026.15.15 0 0 0-.123.056.25.25 0 0 0-.046.16c0 .07.016.122.046.16a.15.15 0 0 0 .123.057c.074 0 .122-.033.145-.1h.196a.332.332 0 0 1-.118.187.349.349 0 0 1-.221.069.365.365 0 0 1-.185-.046.325.325 0 0 1-.126-.13.404.404 0 0 1-.045-.196ZM44.572 47.43v.348c0 .024.006.042.017.052.012.011.032.017.06.017h.084V48h-.114c-.154 0-.23-.075-.23-.224v-.347h-.086v-.15h.086v-.177h.183v.178h.161v.15h-.161ZM45.184 48.012a.38.38 0 0 1-.187-.046.332.332 0 0 1-.13-.131.391.391 0 0 1-.048-.195c0-.074.016-.139.049-.195a.339.339 0 0 1 .133-.13.387.387 0 0 1 .188-.047c.07 0 .133.015.189.046.056.031.1.075.133.13a.383.383 0 0 1 .049.196.375.375 0 0 1-.05.195.347.347 0 0 1-.135.13.393.393 0 0 1-.19.047Zm0-.159a.19.19 0 0 0 .093-.024.175.175 0 0 0 .07-.072.243.243 0 0 0 .026-.117c0-.069-.018-.121-.054-.158a.177.177 0 0 0-.132-.055.173.173 0 0 0-.13.055c-.036.037-.053.09-.053.158s.017.121.05.158a.17.17 0 0 0 .13.055ZM45.876 47.392a.255.255 0 0 1 .221-.122v.19h-.048c-.057 0-.1.014-.13.04-.029.028-.043.074-.043.141V48h-.182v-.72h.182v.112ZM46.62 47.194a.11.11 0 0 1-.08-.03.101.101 0 0 1-.031-.077c0-.03.01-.055.032-.076a.11.11 0 0 1 .08-.03.11.11 0 0 1 .08.03c.02.02.032.046.032.076s-.011.056-.032.076a.11.11 0 0 1-.08.031Zm.09.086V48h-.182v-.72h.182ZM47.289 47.27c.086 0 .155.026.208.08.053.055.08.13.08.227V48h-.183v-.398c0-.057-.014-.101-.043-.132a.152.152 0 0 0-.117-.046c-.05 0-.09.015-.119.046-.029.031-.043.075-.043.132V48h-.182v-.72h.182v.09a.251.251 0 0 1 .093-.074.288.288 0 0 1 .124-.027ZM47.961 47.43v.348c0 .024.006.042.018.052.011.011.031.017.059.017h.084V48h-.114c-.154 0-.23-.075-.23-.224v-.347h-.086v-.15h.086v-.177h.183v.178h.161v.15h-.161ZM48.923 47.624a.43.43 0 0 1-.005.07h-.527a.18.18 0 0 0 .055.123c.032.03.071.044.118.044a.149.149 0 0 0 .145-.087h.196a.328.328 0 0 1-.12.17.35.35 0 0 1-.217.068.376.376 0 0 1-.186-.046.325.325 0 0 1-.13-.131.4.4 0 0 1-.045-.195c0-.075.015-.14.045-.196.03-.057.073-.1.128-.13a.382.382 0 0 1 .188-.046c.069 0 .13.015.184.044.054.03.096.072.126.126a.38.38 0 0 1 .045.186Zm-.189-.052a.144.144 0 0 0-.05-.112.18.18 0 0 0-.121-.042.165.165 0 0 0-.114.04.18.18 0 0 0-.056.114h.341ZM49.238 47.392a.255.255 0 0 1 .221-.122v.19h-.049c-.057 0-.1.014-.129.04-.029.028-.043.074-.043.141V48h-.182v-.72h.182v.112ZM49.534 47.637c0-.072.015-.137.044-.193a.318.318 0 0 1 .42-.145c.043.02.076.047.102.08v-.341h.184V48H50.1v-.107a.247.247 0 0 1-.095.086.297.297 0 0 1-.142.033.31.31 0 0 1-.166-.047.326.326 0 0 1-.12-.132.424.424 0 0 1-.043-.196Zm.567.003a.233.233 0 0 0-.026-.114.183.183 0 0 0-.165-.098.184.184 0 0 0-.163.097.226.226 0 0 0-.027.112c0 .044.009.082.027.114a.192.192 0 0 0 .07.075.188.188 0 0 0 .258-.072.233.233 0 0 0 .026-.114ZM51.142 47.28V48h-.183v-.091a.24.24 0 0 1-.092.073.285.285 0 0 1-.123.027.305.305 0 0 1-.15-.036.252.252 0 0 1-.101-.105.348.348 0 0 1-.037-.166v-.422h.182v.396c0 .057.014.101.043.132.028.031.067.046.117.046s.09-.015.118-.046c.029-.03.043-.075.043-.132v-.396h.183ZM52.216 47.27a.29.29 0 0 1 .214.08c.054.055.081.13.081.227V48h-.182v-.398c0-.056-.014-.1-.043-.13a.154.154 0 0 0-.117-.044.156.156 0 0 0-.118.045c-.029.03-.043.073-.043.13V48h-.182v-.398c0-.056-.014-.1-.043-.13a.154.154 0 0 0-.117-.044c-.05 0-.09.015-.119.045-.029.03-.043.073-.043.13V48h-.182v-.72h.181v.087a.242.242 0 0 1 .09-.072.313.313 0 0 1 .272.01.25.25 0 0 1 .104.102.26.26 0 0 1 .102-.1.29.29 0 0 1 .145-.038ZM53.673 47.28V48h-.183v-.091a.24.24 0 0 1-.092.073.285.285 0 0 1-.123.027.305.305 0 0 1-.15-.036.252.252 0 0 1-.101-.105.348.348 0 0 1-.037-.166v-.422h.182v.396c0 .057.014.101.043.132.028.031.067.046.117.046s.09-.015.118-.046c.029-.03.043-.075.043-.132v-.396h.183ZM54.064 47.43v.348c0 .024.006.042.018.052.012.011.031.017.06.017h.084V48h-.115c-.153 0-.23-.075-.23-.224v-.347h-.086v-.15h.086v-.177h.183v.178h.162v.15h-.162ZM54.967 47.833l.182-.553h.194l-.267.72h-.221l-.265-.72h.195zM56.115 47.624a.43.43 0 0 1-.006.07h-.526a.18.18 0 0 0 .054.123c.033.03.072.044.119.044a.149.149 0 0 0 .144-.087h.196a.328.328 0 0 1-.12.17.35.35 0 0 1-.216.068.376.376 0 0 1-.187-.046.325.325 0 0 1-.129-.131.4.4 0 0 1-.046-.195c0-.075.015-.14.046-.196.03-.057.073-.1.127-.13a.382.382 0 0 1 .189-.046c.068 0 .13.015.184.044.054.03.096.072.126.126a.38.38 0 0 1 .045.186Zm-.189-.052a.144.144 0 0 0-.05-.112.18.18 0 0 0-.121-.042.165.165 0 0 0-.114.04.18.18 0 0 0-.057.114h.342ZM56.43 47.038V48h-.182v-.962zM57.1 47.038V48h-.182v-.962zM57.372 47.194a.11.11 0 0 1-.08-.03.101.101 0 0 1-.032-.077c0-.03.01-.055.032-.076a.11.11 0 0 1 .08-.03.11.11 0 0 1 .08.03c.02.02.032.046.032.076s-.011.056-.032.076a.11.11 0 0 1-.08.031Zm.09.086V48h-.183v-.72h.182ZM57.823 47.385a.26.26 0 0 1 .097-.084.298.298 0 0 1 .14-.033.315.315 0 0 1 .286.175c.03.056.044.12.044.194a.424.424 0 0 1-.044.196.328.328 0 0 1-.118.132.308.308 0 0 1-.167.047c-.054 0-.101-.01-.141-.032a.274.274 0 0 1-.097-.083V48h-.182v-.962h.182v.347Zm.38.252a.226.226 0 0 0-.026-.112.185.185 0 0 0-.164-.097.188.188 0 0 0-.163.099.23.23 0 0 0-.027.113.23.23 0 0 0 .026.113.188.188 0 0 0 .164.099.18.18 0 0 0 .094-.026.193.193 0 0 0 .07-.074.233.233 0 0 0 .027-.115ZM59.192 47.624a.43.43 0 0 1-.006.07h-.526a.18.18 0 0 0 .055.123c.032.03.071.044.118.044a.149.149 0 0 0 .144-.087h.197a.328.328 0 0 1-.12.17.35.35 0 0 1-.217.068.376.376 0 0 1-.187-.046.325.325 0 0 1-.128-.131.4.4 0 0 1-.047-.195c0-.075.016-.14.046-.196.03-.057.073-.1.127-.13a.382.382 0 0 1 .189-.046c.068 0 .13.015.184.044.054.03.096.072.126.126a.38.38 0 0 1 .045.186Zm-.189-.052a.144.144 0 0 0-.05-.112.18.18 0 0 0-.121-.042.165.165 0 0 0-.114.04.18.18 0 0 0-.057.114h.342ZM59.506 47.392a.255.255 0 0 1 .221-.122v.19h-.048c-.057 0-.1.014-.13.04-.028.028-.043.074-.043.141V48h-.182v-.72h.182v.112ZM60.17 48.012a.38.38 0 0 1-.188-.046.332.332 0 0 1-.13-.131.391.391 0 0 1-.048-.195c0-.074.016-.139.049-.195a.339.339 0 0 1 .133-.13.387.387 0 0 1 .189-.047c.069 0 .132.015.188.046.056.031.1.075.133.13a.383.383 0 0 1 .049.196.375.375 0 0 1-.05.195.347.347 0 0 1-.135.13.393.393 0 0 1-.19.047Zm0-.159a.19.19 0 0 0 .092-.024.175.175 0 0 0 .07-.072.243.243 0 0 0 .026-.117c0-.069-.018-.121-.054-.158a.177.177 0 0 0-.132-.055.173.173 0 0 0-.13.055c-.036.037-.053.09-.053.158s.017.121.051.158a.17.17 0 0 0 .13.055ZM60.76 48.01a.113.113 0 0 1-.082-.031.101.101 0 0 1-.032-.077c0-.03.011-.055.032-.076a.113.113 0 0 1 .081-.03c.033 0 .059.01.08.03.02.02.031.046.031.076s-.01.056-.031.077a.109.109 0 0 1-.08.03ZM62.103 48h-.182l-.412-.622V48h-.182v-.908h.182l.412.624v-.624h.182zM62.962 47.28V48h-.184v-.091a.24.24 0 0 1-.091.073.285.285 0 0 1-.123.027.305.305 0 0 1-.15-.036.252.252 0 0 1-.102-.105.348.348 0 0 1-.037-.166v-.422h.182v.396c0 .057.015.101.043.132.029.031.068.046.117.046.05 0 .09-.015.119-.046.028-.03.042-.075.042-.132v-.396h.184ZM63.323 47.038V48h-.182v-.962zM63.685 47.038V48h-.182v-.962zM63.817 47.637c0-.072.015-.137.044-.193a.315.315 0 0 1 .285-.175.293.293 0 0 1 .238.114v-.103h.183V48h-.183v-.105a.27.27 0 0 1-.097.084.296.296 0 0 1-.142.033.306.306 0 0 1-.166-.047.328.328 0 0 1-.118-.132.424.424 0 0 1-.044-.196Zm.567.003a.233.233 0 0 0-.026-.114.183.183 0 0 0-.165-.098.184.184 0 0 0-.163.097.226.226 0 0 0-.027.112c0 .044.009.082.027.114a.192.192 0 0 0 .07.075.188.188 0 0 0 .258-.072.233.233 0 0 0 .026-.114ZM65.64 47.27a.29.29 0 0 1 .214.08c.054.055.08.13.08.227V48h-.181v-.398c0-.056-.014-.1-.043-.13a.154.154 0 0 0-.117-.044.156.156 0 0 0-.118.045c-.029.03-.043.073-.043.13V48h-.182v-.398c0-.056-.015-.1-.043-.13a.154.154 0 0 0-.117-.044c-.05 0-.09.015-.12.045-.028.03-.043.073-.043.13V48h-.182v-.72h.182v.087a.242.242 0 0 1 .09-.072.313.313 0 0 1 .272.01.25.25 0 0 1 .104.102.26.26 0 0 1 .102-.1.29.29 0 0 1 .145-.038ZM22.043 49.337c0-.073.014-.137.043-.193a.315.315 0 0 1 .285-.175.293.293 0 0 1 .239.113v-.102h.183v.72h-.183v-.105a.27.27 0 0 1-.097.084.296.296 0 0 1-.143.033.306.306 0 0 1-.165-.047.328.328 0 0 1-.119-.132.424.424 0 0 1-.043-.196Zm.567.003a.233.233 0 0 0-.026-.114.183.183 0 0 0-.165-.098.184.184 0 0 0-.164.097.226.226 0 0 0-.026.112c0 .044.009.082.026.114a.192.192 0 0 0 .07.075.188.188 0 0 0 .258-.072.233.233 0 0 0 .027-.114ZM22.924 49.34c0-.075.015-.14.046-.196.03-.056.072-.099.126-.13a.365.365 0 0 1 .184-.046c.09 0 .164.022.222.067a.326.326 0 0 1 .118.188h-.197a.144.144 0 0 0-.052-.074.153.153 0 0 0-.092-.026.15.15 0 0 0-.123.056.25.25 0 0 0-.046.16c0 .07.015.122.046.16a.15.15 0 0 0 .123.057c.074 0 .122-.033.144-.1h.197a.332.332 0 0 1-.119.187.349.349 0 0 1-.22.069.365.365 0 0 1-.185-.046.325.325 0 0 1-.126-.13.404.404 0 0 1-.046-.196ZM23.707 49.34c0-.075.015-.14.045-.196.03-.056.073-.099.127-.13a.365.365 0 0 1 .184-.046c.09 0 .163.022.222.067a.326.326 0 0 1 .117.188h-.196a.144.144 0 0 0-.053-.074.153.153 0 0 0-.091-.026.15.15 0 0 0-.124.056.25.25 0 0 0-.045.16c0 .07.015.122.045.16a.15.15 0 0 0 .124.057c.073 0 .122-.033.144-.1h.196a.332.332 0 0 1-.118.187.349.349 0 0 1-.22.069.365.365 0 0 1-.186-.046.325.325 0 0 1-.126-.13.404.404 0 0 1-.045-.196ZM25.216 48.98v.72h-.183v-.091a.24.24 0 0 1-.092.073.285.285 0 0 1-.123.027.305.305 0 0 1-.15-.036.252.252 0 0 1-.101-.105.348.348 0 0 1-.037-.166v-.422h.182v.396c0 .058.014.101.043.132.028.031.067.046.117.046s.09-.015.118-.046c.029-.03.043-.075.043-.132v-.396h.183ZM26.29 48.97a.29.29 0 0 1 .214.08c.054.055.081.13.081.227v.423h-.182v-.398c0-.056-.014-.1-.043-.13a.154.154 0 0 0-.117-.044.156.156 0 0 0-.117.045c-.03.03-.044.073-.044.13v.397H25.9v-.398c0-.056-.014-.1-.043-.13a.154.154 0 0 0-.117-.044c-.05 0-.09.015-.119.045-.029.03-.043.073-.043.13v.397h-.182v-.72h.182v.087a.242.242 0 0 1 .09-.072.313.313 0 0 1 .272.01.25.25 0 0 1 .103.102.26.26 0 0 1 .102-.1.29.29 0 0 1 .145-.038ZM27.034 49.712a.38.38 0 0 1-.159-.032.28.28 0 0 1-.111-.087.22.22 0 0 1-.045-.12h.183a.1.1 0 0 0 .041.068.142.142 0 0 0 .09.028.138.138 0 0 0 .08-.021.063.063 0 0 0 .03-.053c0-.024-.012-.041-.036-.053a.673.673 0 0 0-.114-.038.964.964 0 0 1-.132-.04.23.23 0 0 1-.088-.064.171.171 0 0 1-.037-.116c0-.04.011-.076.034-.11a.231.231 0 0 1 .1-.077.37.37 0 0 1 .15-.029.31.31 0 0 1 .206.064c.051.043.08.101.084.174h-.174a.094.094 0 0 0-.035-.068.133.133 0 0 0-.086-.026.134.134 0 0 0-.076.019.058.058 0 0 0-.026.05c0 .025.012.043.036.056a.565.565 0 0 0 .113.038.96.96 0 0 1 .129.04.227.227 0 0 1 .088.065.177.177 0 0 1 .038.115.19.19 0 0 1-.034.111.227.227 0 0 1-.1.078.374.374 0 0 1-.15.028ZM27.42 49.337c0-.073.014-.137.043-.193a.315.315 0 0 1 .285-.175.293.293 0 0 1 .238.113v-.102h.184v.72h-.184v-.105a.27.27 0 0 1-.096.084.296.296 0 0 1-.143.033.306.306 0 0 1-.165-.047.328.328 0 0 1-.119-.132.424.424 0 0 1-.043-.196Zm.566.003a.233.233 0 0 0-.026-.114.183.183 0 0 0-.165-.098.184.184 0 0 0-.163.097.226.226 0 0 0-.026.112c0 .044.008.082.026.114a.192.192 0 0 0 .07.075.188.188 0 0 0 .258-.072.233.233 0 0 0 .026-.114ZM28.747 48.97c.086 0 .155.026.208.08.053.055.08.13.08.227v.423h-.183v-.398c0-.057-.014-.101-.043-.132a.152.152 0 0 0-.117-.046c-.05 0-.09.015-.119.046-.029.031-.043.075-.043.132v.398h-.182v-.72h.182v.09a.251.251 0 0 1 .093-.074.288.288 0 0 1 .124-.027ZM29.406 49.509l-.152.365h-.117l.085-.365zM30.177 49.13h-.126v.57h-.185v-.57h-.082v-.15h.082v-.037c0-.088.025-.153.076-.195.05-.041.126-.06.227-.058v.153c-.044 0-.075.007-.092.022-.017.016-.026.044-.026.085v.03h.126v.15ZM30.965 49.324a.43.43 0 0 1-.005.07h-.527a.18.18 0 0 0 .055.123c.032.03.071.044.118.044a.149.149 0 0 0 .144-.087h.197a.328.328 0 0 1-.12.17.35.35 0 0 1-.217.068.376.376 0 0 1-.187-.046.325.325 0 0 1-.128-.131.4.4 0 0 1-.047-.195c0-.075.016-.14.046-.196.03-.057.073-.1.127-.13a.382.382 0 0 1 .189-.046c.068 0 .13.015.184.044.054.03.096.072.126.126a.38.38 0 0 1 .045.186Zm-.189-.052a.144.144 0 0 0-.05-.112.18.18 0 0 0-.121-.042.165.165 0 0 0-.114.04.18.18 0 0 0-.057.114h.342ZM31.28 48.738v.962h-.182v-.962zM31.551 48.894a.11.11 0 0 1-.08-.03.101.101 0 0 1-.032-.077c0-.03.01-.055.032-.076a.11.11 0 0 1 .08-.03.11.11 0 0 1 .08.03c.021.02.032.046.032.076s-.01.056-.032.076a.11.11 0 0 1-.08.031Zm.09.086v.72h-.182v-.72h.182ZM32.096 49.712a.38.38 0 0 1-.159-.032.28.28 0 0 1-.111-.087.22.22 0 0 1-.045-.12h.184a.1.1 0 0 0 .04.068.142.142 0 0 0 .09.028.138.138 0 0 0 .08-.021.063.063 0 0 0 .03-.053c0-.024-.012-.041-.036-.053a.673.673 0 0 0-.114-.038.964.964 0 0 1-.131-.04.23.23 0 0 1-.089-.064.171.171 0 0 1-.037-.116c0-.04.012-.076.035-.11a.231.231 0 0 1 .098-.077.37.37 0 0 1 .152-.029.31.31 0 0 1 .205.064c.051.043.08.101.085.174h-.175a.094.094 0 0 0-.035-.068.133.133 0 0 0-.085-.026.134.134 0 0 0-.076.019.058.058 0 0 0-.027.05c0 .025.012.043.036.056a.565.565 0 0 0 .113.038.96.96 0 0 1 .13.04.227.227 0 0 1 .087.065.177.177 0 0 1 .038.115.19.19 0 0 1-.034.111.227.227 0 0 1-.099.078.374.374 0 0 1-.15.028ZM32.93 48.894a.11.11 0 0 1-.08-.03.101.101 0 0 1-.031-.077c0-.03.01-.055.031-.076a.11.11 0 0 1 .08-.03.11.11 0 0 1 .08.03c.022.02.032.046.032.076s-.01.056-.032.076a.11.11 0 0 1-.08.031Zm.09.086v.72h-.182v-.72h.182ZM33.153 49.337c0-.073.014-.137.043-.193a.318.318 0 0 1 .42-.145c.043.02.077.047.102.08v-.341h.185v.962h-.185v-.107a.247.247 0 0 1-.095.086.297.297 0 0 1-.141.033.31.31 0 0 1-.167-.047.326.326 0 0 1-.119-.132.424.424 0 0 1-.043-.196Zm.566.003a.233.233 0 0 0-.026-.114.183.183 0 0 0-.165-.098.184.184 0 0 0-.163.097.226.226 0 0 0-.026.112c0 .044.008.082.026.114a.192.192 0 0 0 .07.075.188.188 0 0 0 .258-.072.233.233 0 0 0 .026-.114ZM35.285 48.97a.29.29 0 0 1 .214.08c.054.055.08.13.08.227v.423h-.181v-.398c0-.056-.015-.1-.043-.13a.154.154 0 0 0-.117-.044.156.156 0 0 0-.118.045c-.029.03-.043.073-.043.13v.397h-.182v-.398c0-.056-.015-.1-.043-.13a.154.154 0 0 0-.117-.044c-.05 0-.09.015-.12.045-.028.03-.043.073-.043.13v.397h-.182v-.72h.182v.087a.242.242 0 0 1 .09-.072.313.313 0 0 1 .272.01.25.25 0 0 1 .104.102.26.26 0 0 1 .102-.1.29.29 0 0 1 .145-.038ZM36.072 49.712a.38.38 0 0 1-.187-.046.332.332 0 0 1-.13-.131.391.391 0 0 1-.048-.195c0-.074.016-.139.049-.195a.339.339 0 0 1 .133-.13.387.387 0 0 1 .189-.047c.069 0 .132.015.188.046.057.031.101.075.133.13a.383.383 0 0 1 .05.196.375.375 0 0 1-.05.195.347.347 0 0 1-.136.13.393.393 0 0 1-.19.047Zm0-.159a.19.19 0 0 0 .093-.024.175.175 0 0 0 .07-.072.243.243 0 0 0 .026-.117c0-.069-.018-.121-.054-.158a.177.177 0 0 0-.132-.055.173.173 0 0 0-.13.055c-.036.037-.053.09-.053.158s.017.121.051.158a.17.17 0 0 0 .13.055ZM36.764 48.738v.962h-.182v-.962zM37.613 49.324a.43.43 0 0 1-.005.07h-.527a.18.18 0 0 0 .055.123c.032.03.071.044.118.044a.149.149 0 0 0 .145-.087h.196a.328.328 0 0 1-.12.17.35.35 0 0 1-.217.068.376.376 0 0 1-.186-.046.325.325 0 0 1-.13-.131.4.4 0 0 1-.045-.195c0-.075.015-.14.045-.196.03-.057.073-.1.128-.13a.382.382 0 0 1 .188-.046c.069 0 .13.015.184.044.054.03.096.072.126.126a.38.38 0 0 1 .045.186Zm-.189-.052a.144.144 0 0 0-.05-.112.18.18 0 0 0-.121-.042.165.165 0 0 0-.114.04.18.18 0 0 0-.056.114h.341ZM38.021 49.712a.38.38 0 0 1-.158-.032.28.28 0 0 1-.112-.087.22.22 0 0 1-.044-.12h.183a.1.1 0 0 0 .04.068.142.142 0 0 0 .09.028.138.138 0 0 0 .081-.021.063.063 0 0 0 .03-.053c0-.024-.013-.041-.036-.053a.673.673 0 0 0-.114-.038.964.964 0 0 1-.132-.04.23.23 0 0 1-.088-.064.171.171 0 0 1-.038-.116c0-.04.012-.076.035-.11a.231.231 0 0 1 .099-.077.37.37 0 0 1 .151-.029.31.31 0 0 1 .206.064c.05.043.079.101.084.174h-.174a.094.094 0 0 0-.036-.068.133.133 0 0 0-.085-.026.134.134 0 0 0-.076.019.058.058 0 0 0-.027.05c0 .025.012.043.037.056a.565.565 0 0 0 .113.038.96.96 0 0 1 .129.04.227.227 0 0 1 .087.065.177.177 0 0 1 .039.115.19.19 0 0 1-.035.111.227.227 0 0 1-.099.078.374.374 0 0 1-.15.028ZM38.666 49.13v.348c0 .024.006.042.018.052.011.011.031.017.059.017h.084v.153h-.114c-.154 0-.23-.075-.23-.224v-.347h-.086v-.15h.086v-.177h.183v.178h.161v.15h-.161ZM39.05 48.894a.11.11 0 0 1-.08-.03.101.101 0 0 1-.031-.077c0-.03.01-.055.032-.076a.11.11 0 0 1 .08-.03.11.11 0 0 1 .08.03c.021.02.032.046.032.076s-.011.056-.032.076a.11.11 0 0 1-.08.031Zm.09.086v.72h-.181v-.72h.181ZM39.99 49.324a.43.43 0 0 1-.006.07h-.526a.18.18 0 0 0 .054.123c.032.03.072.044.119.044a.149.149 0 0 0 .144-.087h.196a.328.328 0 0 1-.12.17.35.35 0 0 1-.216.068.376.376 0 0 1-.187-.046.325.325 0 0 1-.129-.131.4.4 0 0 1-.046-.195c0-.075.015-.14.046-.196.03-.057.072-.1.127-.13a.382.382 0 0 1 .189-.046c.068 0 .13.015.183.044.055.03.097.072.127.126a.38.38 0 0 1 .044.186Zm-.19-.052a.144.144 0 0 0-.05-.112.18.18 0 0 0-.12-.042.165.165 0 0 0-.114.04.18.18 0 0 0-.057.114h.342ZM40.614 48.738v.962h-.182v-.962zM40.746 49.337c0-.073.015-.137.044-.193a.315.315 0 0 1 .285-.175.293.293 0 0 1 .238.113v-.102h.183v.72h-.183v-.105a.27.27 0 0 1-.097.084.296.296 0 0 1-.142.033.306.306 0 0 1-.166-.047.328.328 0 0 1-.118-.132.424.424 0 0 1-.044-.196Zm.567.003a.233.233 0 0 0-.026-.114.183.183 0 0 0-.165-.098.184.184 0 0 0-.163.097.226.226 0 0 0-.027.112c0 .044.009.082.027.114a.192.192 0 0 0 .07.075.188.188 0 0 0 .258-.072.233.233 0 0 0 .026-.114ZM41.627 49.34c0-.075.016-.14.046-.196.03-.056.072-.099.126-.13a.365.365 0 0 1 .185-.046c.089 0 .163.022.221.067a.326.326 0 0 1 .118.188h-.196a.144.144 0 0 0-.053-.074.153.153 0 0 0-.092-.026.15.15 0 0 0-.123.056.25.25 0 0 0-.046.16c0 .07.015.122.046.16a.15.15 0 0 0 .123.057c.074 0 .122-.033.145-.1h.196a.332.332 0 0 1-.118.187.349.349 0 0 1-.221.069.365.365 0 0 1-.185-.046.325.325 0 0 1-.126-.13.404.404 0 0 1-.046-.196ZM42.55 48.894a.11.11 0 0 1-.08-.03.101.101 0 0 1-.033-.077c0-.03.01-.055.032-.076a.11.11 0 0 1 .08-.03.11.11 0 0 1 .08.03c.021.02.032.046.032.076s-.01.056-.032.076a.11.11 0 0 1-.08.031Zm.089.086v.72h-.182v-.72h.182ZM43.217 48.97c.086 0 .155.026.208.08.053.055.08.13.08.227v.423h-.182v-.398c0-.057-.015-.101-.043-.132a.152.152 0 0 0-.117-.046c-.05 0-.09.015-.12.046-.028.031-.043.075-.043.132v.398h-.182v-.72H43v.09a.251.251 0 0 1 .093-.074.288.288 0 0 1 .124-.027ZM43.77 48.894a.11.11 0 0 1-.08-.03.101.101 0 0 1-.032-.077c0-.03.01-.055.032-.076a.11.11 0 0 1 .08-.03.11.11 0 0 1 .08.03c.021.02.032.046.032.076s-.011.056-.032.076a.11.11 0 0 1-.08.031Zm.09.086v.72h-.183v-.72h.182ZM43.992 49.337c0-.073.015-.137.044-.193a.315.315 0 0 1 .285-.175.293.293 0 0 1 .238.113v-.102h.183v.72h-.183v-.105a.27.27 0 0 1-.097.084.296.296 0 0 1-.142.033.306.306 0 0 1-.166-.047.328.328 0 0 1-.118-.132.424.424 0 0 1-.044-.196Zm.567.003a.233.233 0 0 0-.026-.114.183.183 0 0 0-.165-.098.184.184 0 0 0-.163.097.226.226 0 0 0-.027.112c0 .044.009.082.027.114a.192.192 0 0 0 .07.075.188.188 0 0 0 .258-.072.233.233 0 0 0 .026-.114ZM45.12 49.509l-.153.365h-.117l.085-.365zM45.742 48.738v.962h-.182v-.962zM45.874 49.337c0-.073.015-.137.044-.193a.315.315 0 0 1 .285-.175.293.293 0 0 1 .238.113v-.102h.184v.72h-.184v-.105a.27.27 0 0 1-.097.084.296.296 0 0 1-.142.033.306.306 0 0 1-.166-.047.328.328 0 0 1-.118-.132.424.424 0 0 1-.044-.196Zm.567.003a.233.233 0 0 0-.026-.114.183.183 0 0 0-.165-.098.184.184 0 0 0-.163.097.226.226 0 0 0-.027.112c0 .044.01.082.027.114a.192.192 0 0 0 .07.075.188.188 0 0 0 .258-.072.233.233 0 0 0 .026-.114ZM46.756 49.34c0-.075.015-.14.045-.196.03-.056.073-.099.126-.13a.365.365 0 0 1 .185-.046c.09 0 .163.022.222.067a.326.326 0 0 1 .117.188h-.196a.144.144 0 0 0-.053-.074.153.153 0 0 0-.091-.026.15.15 0 0 0-.124.056.25.25 0 0 0-.045.16c0 .07.015.122.045.16a.15.15 0 0 0 .124.057c.073 0 .122-.033.144-.1h.196a.332.332 0 0 1-.118.187.349.349 0 0 1-.22.069.365.365 0 0 1-.186-.046.325.325 0 0 1-.126-.13.404.404 0 0 1-.045-.196ZM48.265 48.98v.72h-.183v-.091a.24.24 0 0 1-.092.073.285.285 0 0 1-.123.027.305.305 0 0 1-.15-.036.252.252 0 0 1-.101-.105.348.348 0 0 1-.037-.166v-.422h.182v.396c0 .058.014.101.043.132.028.031.067.046.117.046s.09-.015.118-.046c.029-.03.043-.075.043-.132v-.396h.183ZM48.72 49.712a.38.38 0 0 1-.158-.032.28.28 0 0 1-.112-.087.22.22 0 0 1-.044-.12h.183a.1.1 0 0 0 .04.068.142.142 0 0 0 .09.028.138.138 0 0 0 .081-.021.063.063 0 0 0 .03-.053c0-.024-.013-.041-.036-.053a.673.673 0 0 0-.114-.038.964.964 0 0 1-.132-.04.23.23 0 0 1-.088-.064.171.171 0 0 1-.038-.116c0-.04.012-.076.035-.11a.231.231 0 0 1 .099-.077.37.37 0 0 1 .151-.029.31.31 0 0 1 .206.064c.05.043.079.101.084.174h-.174a.094.094 0 0 0-.036-.068.133.133 0 0 0-.085-.026.134.134 0 0 0-.076.019.058.058 0 0 0-.027.05c0 .025.012.043.037.056a.565.565 0 0 0 .113.038.96.96 0 0 1 .128.04.227.227 0 0 1 .088.065.177.177 0 0 1 .039.115.19.19 0 0 1-.035.111.227.227 0 0 1-.099.078.374.374 0 0 1-.15.028ZM50.132 49.324a.43.43 0 0 1-.005.07H49.6a.18.18 0 0 0 .055.123c.032.03.071.044.118.044a.149.149 0 0 0 .144-.087h.197a.328.328 0 0 1-.12.17.35.35 0 0 1-.217.068.376.376 0 0 1-.186-.046.325.325 0 0 1-.13-.131.4.4 0 0 1-.045-.195c0-.075.015-.14.045-.196.03-.057.073-.1.128-.13a.382.382 0 0 1 .188-.046c.069 0 .13.015.184.044.054.03.096.072.126.126a.38.38 0 0 1 .045.186Zm-.188-.052a.144.144 0 0 0-.051-.112.18.18 0 0 0-.121-.042.165.165 0 0 0-.114.04.18.18 0 0 0-.056.114h.342ZM50.447 49.092a.255.255 0 0 1 .221-.122v.19h-.048c-.058 0-.1.014-.13.04-.029.028-.043.074-.043.141v.359h-.182v-.72h.182v.112ZM50.743 49.337c0-.073.015-.137.044-.193a.315.315 0 0 1 .285-.175.293.293 0 0 1 .238.113v-.102h.183v.72h-.183v-.105a.27.27 0 0 1-.097.084.296.296 0 0 1-.142.033.306.306 0 0 1-.166-.047.328.328 0 0 1-.118-.132.424.424 0 0 1-.044-.196Zm.567.003a.233.233 0 0 0-.026-.114.183.183 0 0 0-.165-.098.184.184 0 0 0-.163.097.226.226 0 0 0-.027.112c0 .044.009.082.027.114a.192.192 0 0 0 .07.075.188.188 0 0 0 .258-.072.233.233 0 0 0 .026-.114ZM51.883 49.13v.348c0 .024.006.042.018.052.011.011.031.017.059.017h.084v.153h-.114c-.154 0-.23-.075-.23-.224v-.347h-.086v-.15h.086v-.177h.183v.178h.161v.15h-.16ZM52.76 49.712a.38.38 0 0 1-.158-.032.28.28 0 0 1-.111-.087.22.22 0 0 1-.045-.12h.183a.1.1 0 0 0 .041.068.142.142 0 0 0 .09.028.138.138 0 0 0 .08-.021.063.063 0 0 0 .03-.053c0-.024-.012-.041-.036-.053a.673.673 0 0 0-.114-.038.964.964 0 0 1-.132-.04.23.23 0 0 1-.088-.064.171.171 0 0 1-.037-.116c0-.04.011-.076.034-.11a.231.231 0 0 1 .1-.077.37.37 0 0 1 .15-.029.31.31 0 0 1 .206.064c.051.043.08.101.084.174h-.174a.094.094 0 0 0-.035-.068.133.133 0 0 0-.086-.026.134.134 0 0 0-.076.019.058.058 0 0 0-.026.05c0 .025.012.043.036.056a.565.565 0 0 0 .113.038.96.96 0 0 1 .129.04.227.227 0 0 1 .088.065.177.177 0 0 1 .038.115.19.19 0 0 1-.034.111.227.227 0 0 1-.1.078.374.374 0 0 1-.15.028ZM53.513 49.712a.38.38 0 0 1-.187-.046.332.332 0 0 1-.13-.131.391.391 0 0 1-.048-.195c0-.074.016-.139.049-.195a.339.339 0 0 1 .133-.13.387.387 0 0 1 .189-.047c.069 0 .132.015.188.046.056.031.1.075.133.13a.383.383 0 0 1 .049.196.375.375 0 0 1-.05.195.347.347 0 0 1-.135.13.393.393 0 0 1-.19.047Zm0-.159a.19.19 0 0 0 .093-.024.175.175 0 0 0 .07-.072.243.243 0 0 0 .026-.117c0-.069-.018-.121-.054-.158a.177.177 0 0 0-.132-.055.173.173 0 0 0-.13.055c-.036.037-.053.09-.053.158s.017.121.051.158a.17.17 0 0 0 .13.055ZM54.205 48.738v.962h-.182v-.962zM54.567 48.738v.962h-.182v-.962zM54.838 48.894a.11.11 0 0 1-.08-.03.101.101 0 0 1-.032-.077c0-.03.01-.055.032-.076a.11.11 0 0 1 .08-.03.11.11 0 0 1 .08.03c.021.02.032.046.032.076s-.01.056-.032.076a.11.11 0 0 1-.08.031Zm.09.086v.72h-.182v-.72h.182ZM55.06 49.34c0-.075.015-.14.046-.196.03-.056.072-.099.126-.13a.365.365 0 0 1 .184-.046c.09 0 .164.022.222.067a.326.326 0 0 1 .118.188h-.197a.144.144 0 0 0-.052-.074.153.153 0 0 0-.092-.026.15.15 0 0 0-.123.056.25.25 0 0 0-.046.16c0 .07.015.122.046.16a.15.15 0 0 0 .123.057c.074 0 .122-.033.145-.1h.196a.332.332 0 0 1-.119.187.349.349 0 0 1-.22.069.365.365 0 0 1-.185-.046.325.325 0 0 1-.126-.13.404.404 0 0 1-.046-.196ZM55.982 48.894a.11.11 0 0 1-.08-.03.101.101 0 0 1-.032-.077c0-.03.01-.055.032-.076a.11.11 0 0 1 .08-.03.11.11 0 0 1 .08.03c.021.02.032.046.032.076s-.01.056-.032.076a.11.11 0 0 1-.08.031Zm.09.086v.72h-.182v-.72h.182ZM56.463 49.13v.348c0 .024.006.042.018.052.011.011.031.017.059.017h.084v.153h-.114c-.154 0-.23-.075-.23-.224v-.347h-.086v-.15h.086v-.177h.183v.178h.161v.15h-.161ZM57.435 48.98v.72h-.183v-.091a.24.24 0 0 1-.092.073.285.285 0 0 1-.122.027.305.305 0 0 1-.15-.036.252.252 0 0 1-.102-.105.348.348 0 0 1-.037-.166v-.422h.182v.396c0 .058.014.101.043.132.029.031.068.046.117.046.05 0 .09-.015.118-.046.029-.03.043-.075.043-.132v-.396h.183ZM57.568 49.337c0-.073.015-.137.044-.193a.318.318 0 0 1 .42-.145c.043.02.076.047.102.08v-.341h.184v.962h-.184v-.107a.247.247 0 0 1-.095.086.297.297 0 0 1-.142.033.31.31 0 0 1-.166-.047.326.326 0 0 1-.12-.132.424.424 0 0 1-.043-.196Zm.567.003a.233.233 0 0 0-.026-.114.183.183 0 0 0-.165-.098.184.184 0 0 0-.163.097.226.226 0 0 0-.027.112c0 .044.009.082.027.114a.192.192 0 0 0 .07.075.188.188 0 0 0 .258-.072.233.233 0 0 0 .026-.114ZM58.588 48.894a.11.11 0 0 1-.08-.03.101.101 0 0 1-.031-.077c0-.03.01-.055.032-.076a.11.11 0 0 1 .08-.03.11.11 0 0 1 .08.03c.02.02.031.046.031.076s-.01.056-.032.076a.11.11 0 0 1-.08.031Zm.09.086v.72h-.182v-.72h.182ZM59.257 48.97c.086 0 .155.026.208.08.053.055.079.13.079.227v.423h-.182v-.398c0-.057-.014-.101-.043-.132a.152.152 0 0 0-.117-.046c-.05 0-.09.015-.119.046-.029.031-.043.075-.043.132v.398h-.182v-.72h.182v.09a.251.251 0 0 1 .093-.074.288.288 0 0 1 .124-.027ZM60.425 48.97c.086 0 .156.026.208.08.053.055.08.13.08.227v.423h-.182v-.398c0-.057-.015-.101-.043-.132a.152.152 0 0 0-.117-.046c-.05 0-.09.015-.12.046-.028.031-.043.075-.043.132v.398h-.182v-.72h.182v.09a.251.251 0 0 1 .093-.074.288.288 0 0 1 .124-.027ZM61.566 48.98v.72h-.184v-.091a.24.24 0 0 1-.091.073.285.285 0 0 1-.123.027.305.305 0 0 1-.15-.036.252.252 0 0 1-.102-.105.348.348 0 0 1-.037-.166v-.422h.182v.396c0 .058.014.101.043.132.029.031.068.046.117.046.05 0 .09-.015.118-.046.029-.03.043-.075.043-.132v-.396h.184ZM62.144 48.97c.086 0 .155.026.208.08.053.055.08.13.08.227v.423h-.183v-.398c0-.057-.014-.101-.043-.132a.152.152 0 0 0-.117-.046c-.05 0-.09.015-.119.046-.029.031-.043.075-.043.132v.398h-.182v-.72h.182v.09a.251.251 0 0 1 .093-.074.288.288 0 0 1 .124-.027ZM62.557 49.34c0-.075.016-.14.046-.196.03-.056.072-.099.126-.13a.365.365 0 0 1 .185-.046c.089 0 .163.022.221.067a.326.326 0 0 1 .118.188h-.196a.144.144 0 0 0-.053-.074.153.153 0 0 0-.092-.026.15.15 0 0 0-.123.056.25.25 0 0 0-.046.16c0 .07.015.122.046.16a.15.15 0 0 0 .123.057c.074 0 .122-.033.145-.1h.196a.332.332 0 0 1-.118.187.349.349 0 0 1-.221.069.365.365 0 0 1-.185-.046.325.325 0 0 1-.126-.13.404.404 0 0 1-.046-.196ZM63.586 49.509l-.152.365h-.117l.084-.365zM64.425 48.97c.086 0 .156.026.209.08.052.055.079.13.079.227v.423h-.182v-.398c0-.057-.014-.101-.043-.132a.152.152 0 0 0-.117-.046c-.05 0-.09.015-.12.046-.028.031-.043.075-.043.132v.398h-.182v-.72h.182v.09a.251.251 0 0 1 .093-.074.288.288 0 0 1 .124-.027ZM65.206 49.712a.38.38 0 0 1-.188-.046.332.332 0 0 1-.13-.131.391.391 0 0 1-.048-.195c0-.074.016-.139.049-.195a.339.339 0 0 1 .133-.13.387.387 0 0 1 .189-.047c.069 0 .132.015.188.046.057.031.1.075.133.13a.383.383 0 0 1 .05.196.375.375 0 0 1-.05.195.347.347 0 0 1-.136.13.393.393 0 0 1-.19.047Zm0-.159a.19.19 0 0 0 .092-.024.175.175 0 0 0 .07-.072.243.243 0 0 0 .026-.117c0-.069-.018-.121-.054-.158a.177.177 0 0 0-.132-.055.173.173 0 0 0-.13.055c-.036.037-.053.09-.053.158s.017.121.051.158a.17.17 0 0 0 .13.055ZM66.114 48.97c.086 0 .155.026.208.08.053.055.08.13.08.227v.423h-.183v-.398c0-.057-.014-.101-.042-.132a.152.152 0 0 0-.117-.046c-.05 0-.09.015-.12.046-.028.031-.043.075-.043.132v.398h-.182v-.72h.182v.09a.251.251 0 0 1 .093-.074.288.288 0 0 1 .124-.027ZM22.365 51.412a.38.38 0 0 1-.158-.032.28.28 0 0 1-.111-.087.22.22 0 0 1-.045-.12h.183a.1.1 0 0 0 .04.068.142.142 0 0 0 .09.028.138.138 0 0 0 .081-.021.063.063 0 0 0 .03-.053c0-.024-.012-.041-.036-.053a.673.673 0 0 0-.114-.038.964.964 0 0 1-.132-.04.23.23 0 0 1-.088-.064.171.171 0 0 1-.037-.116c0-.04.011-.076.034-.11a.231.231 0 0 1 .099-.077.37.37 0 0 1 .151-.029.31.31 0 0 1 .206.064c.05.043.079.101.084.174h-.174a.094.094 0 0 0-.036-.068.133.133 0 0 0-.085-.026.134.134 0 0 0-.076.019.058.058 0 0 0-.027.05c0 .025.013.043.037.056a.565.565 0 0 0 .113.038.96.96 0 0 1 .129.04.227.227 0 0 1 .087.065.177.177 0 0 1 .039.115.19.19 0 0 1-.035.111.227.227 0 0 1-.099.078.374.374 0 0 1-.15.028ZM23.118 51.412a.38.38 0 0 1-.187-.046.332.332 0 0 1-.13-.131.391.391 0 0 1-.048-.195c0-.074.016-.139.048-.195a.339.339 0 0 1 .134-.13.387.387 0 0 1 .188-.047c.07 0 .132.015.189.046.056.031.1.075.133.13a.383.383 0 0 1 .049.196.375.375 0 0 1-.05.195.347.347 0 0 1-.136.13.393.393 0 0 1-.19.047Zm0-.159a.19.19 0 0 0 .093-.024.175.175 0 0 0 .07-.072.243.243 0 0 0 .026-.117c0-.069-.018-.121-.054-.158a.177.177 0 0 0-.132-.055.173.173 0 0 0-.131.055c-.035.037-.053.09-.053.158s.017.121.052.158a.17.17 0 0 0 .129.055ZM23.81 50.438v.962h-.182v-.962zM24.17 50.438v.962h-.181v-.962zM24.443 50.594a.11.11 0 0 1-.08-.03.101.101 0 0 1-.032-.077c0-.03.01-.055.032-.076a.11.11 0 0 1 .08-.03.11.11 0 0 1 .08.03c.02.02.031.046.031.076s-.01.056-.031.076a.11.11 0 0 1-.08.031Zm.09.086v.72h-.183v-.72h.182ZM24.665 51.04c0-.075.015-.14.046-.196.03-.056.072-.099.126-.13a.365.365 0 0 1 .184-.046c.09 0 .163.022.222.067a.326.326 0 0 1 .117.188h-.196a.144.144 0 0 0-.052-.074.153.153 0 0 0-.092-.026.15.15 0 0 0-.124.056.25.25 0 0 0-.045.16c0 .07.015.122.045.16a.15.15 0 0 0 .124.057c.074 0 .122-.033.144-.1h.196a.332.332 0 0 1-.118.187.349.349 0 0 1-.22.069.365.365 0 0 1-.185-.046.325.325 0 0 1-.127-.13.404.404 0 0 1-.045-.196ZM25.587 50.594a.11.11 0 0 1-.08-.03.101.101 0 0 1-.032-.077c0-.03.01-.055.032-.076a.11.11 0 0 1 .08-.03.11.11 0 0 1 .08.03c.02.02.031.046.031.076s-.01.056-.031.076a.11.11 0 0 1-.08.031Zm.09.086v.72h-.183v-.72h.182ZM26.068 50.83v.348c0 .024.006.042.017.052.012.011.032.017.06.017h.084v.153h-.114c-.154 0-.23-.075-.23-.224v-.347h-.086v-.15h.085v-.177h.184v.178h.16v.15h-.16ZM27.04 50.68v.72h-.183v-.091a.24.24 0 0 1-.092.073.285.285 0 0 1-.123.027.305.305 0 0 1-.15-.036.252.252 0 0 1-.101-.105.348.348 0 0 1-.037-.166v-.422h.182v.396c0 .057.014.101.043.132.028.031.067.046.117.046s.09-.015.118-.046c.028-.03.043-.075.043-.132v-.396h.183ZM27.173 51.037c0-.072.014-.137.043-.193a.318.318 0 0 1 .42-.145c.043.02.077.047.102.08v-.341h.185v.962h-.185v-.107a.247.247 0 0 1-.095.086.297.297 0 0 1-.141.033.31.31 0 0 1-.167-.047.326.326 0 0 1-.119-.132.424.424 0 0 1-.043-.196Zm.567.003a.233.233 0 0 0-.026-.114.183.183 0 0 0-.166-.098.184.184 0 0 0-.163.097.226.226 0 0 0-.026.112c0 .044.008.082.026.114a.192.192 0 0 0 .07.075.188.188 0 0 0 .258-.072.233.233 0 0 0 .027-.114ZM28.193 50.594a.11.11 0 0 1-.08-.03.101.101 0 0 1-.032-.077c0-.03.011-.055.032-.076a.11.11 0 0 1 .08-.03.11.11 0 0 1 .08.03c.021.02.032.046.032.076s-.01.056-.032.076a.11.11 0 0 1-.08.031Zm.09.086v.72H28.1v-.72h.182ZM28.861 50.67c.086 0 .156.026.208.08.053.055.08.13.08.227v.423h-.182v-.398c0-.057-.015-.101-.043-.132a.152.152 0 0 0-.117-.046c-.05 0-.09.015-.12.046-.028.031-.043.075-.043.132v.398h-.182v-.72h.182v.09a.251.251 0 0 1 .093-.074.288.288 0 0 1 .124-.027ZM30.3 51.024a.43.43 0 0 1-.005.07h-.526a.18.18 0 0 0 .054.123c.032.03.072.044.119.044a.149.149 0 0 0 .144-.087h.196a.328.328 0 0 1-.12.17.35.35 0 0 1-.216.068.376.376 0 0 1-.187-.046.325.325 0 0 1-.129-.131.4.4 0 0 1-.046-.195c0-.075.015-.14.046-.196.03-.057.073-.1.127-.13a.382.382 0 0 1 .189-.046c.068 0 .13.015.184.044.054.03.096.072.126.126a.38.38 0 0 1 .044.186Zm-.188-.052a.144.144 0 0 0-.05-.112.18.18 0 0 0-.122-.042.165.165 0 0 0-.113.04.18.18 0 0 0-.057.114h.342ZM30.615 50.792a.255.255 0 0 1 .221-.122v.19h-.048c-.057 0-.1.014-.13.04-.028.028-.043.074-.043.141v.359h-.182v-.72h.182v.112ZM31.278 51.412a.38.38 0 0 1-.187-.046.332.332 0 0 1-.13-.131.391.391 0 0 1-.048-.195c0-.074.016-.139.049-.195a.339.339 0 0 1 .133-.13.387.387 0 0 1 .188-.047c.07 0 .132.015.189.046.056.031.1.075.133.13a.383.383 0 0 1 .049.196.375.375 0 0 1-.05.195.347.347 0 0 1-.135.13.393.393 0 0 1-.19.047Zm0-.159a.19.19 0 0 0 .093-.024.175.175 0 0 0 .07-.072.243.243 0 0 0 .026-.117c0-.069-.018-.121-.054-.158a.177.177 0 0 0-.132-.055.173.173 0 0 0-.13.055c-.036.037-.054.09-.054.158s.018.121.052.158a.17.17 0 0 0 .13.055ZM32.063 51.412a.38.38 0 0 1-.158-.032.28.28 0 0 1-.111-.087.22.22 0 0 1-.045-.12h.183a.1.1 0 0 0 .04.068.142.142 0 0 0 .09.028.138.138 0 0 0 .081-.021.063.063 0 0 0 .03-.053c0-.024-.012-.041-.036-.053a.673.673 0 0 0-.114-.038.964.964 0 0 1-.132-.04.23.23 0 0 1-.088-.064.171.171 0 0 1-.037-.116c0-.04.011-.076.034-.11a.231.231 0 0 1 .099-.077.37.37 0 0 1 .151-.029.31.31 0 0 1 .206.064c.05.043.079.101.084.174h-.174a.094.094 0 0 0-.036-.068.133.133 0 0 0-.085-.026.134.134 0 0 0-.076.019.058.058 0 0 0-.027.05c0 .025.013.043.037.056a.565.565 0 0 0 .113.038.96.96 0 0 1 .129.04.227.227 0 0 1 .087.065.177.177 0 0 1 .039.115.19.19 0 0 1-.035.111.227.227 0 0 1-.099.078.374.374 0 0 1-.15.028ZM33.475 51.024a.43.43 0 0 1-.005.07h-.527a.18.18 0 0 0 .055.123c.032.03.072.044.118.044a.149.149 0 0 0 .145-.087h.196a.328.328 0 0 1-.12.17.35.35 0 0 1-.217.068.376.376 0 0 1-.186-.046.325.325 0 0 1-.129-.131.4.4 0 0 1-.046-.195c0-.075.015-.14.045-.196.03-.057.073-.1.128-.13a.382.382 0 0 1 .188-.046c.069 0 .13.015.184.044.054.03.096.072.126.126a.38.38 0 0 1 .045.186Zm-.188-.052a.144.144 0 0 0-.051-.112.18.18 0 0 0-.121-.042.165.165 0 0 0-.114.04.18.18 0 0 0-.056.114h.342ZM33.883 51.412a.38.38 0 0 1-.158-.032.28.28 0 0 1-.111-.087.22.22 0 0 1-.045-.12h.183a.1.1 0 0 0 .04.068.142.142 0 0 0 .09.028.138.138 0 0 0 .081-.021.063.063 0 0 0 .03-.053c0-.024-.012-.041-.036-.053a.673.673 0 0 0-.114-.038.964.964 0 0 1-.132-.04.23.23 0 0 1-.088-.064.171.171 0 0 1-.037-.116c0-.04.011-.076.034-.11a.231.231 0 0 1 .099-.077.37.37 0 0 1 .151-.029.31.31 0 0 1 .206.064c.05.043.079.101.084.174h-.174a.094.094 0 0 0-.036-.068.133.133 0 0 0-.085-.026.134.134 0 0 0-.076.019.058.058 0 0 0-.027.05c0 .025.013.043.037.056a.565.565 0 0 0 .113.038.96.96 0 0 1 .129.04.227.227 0 0 1 .087.065.177.177 0 0 1 .039.115.19.19 0 0 1-.035.111.227.227 0 0 1-.099.078.374.374 0 0 1-.15.028ZM34.528 50.83v.348c0 .024.006.042.018.052.011.011.031.017.059.017h.084v.153h-.114c-.154 0-.23-.075-.23-.224v-.347h-.086v-.15h.086v-.177h.183v.178h.161v.15h-.16ZM35.8 51.024a.43.43 0 0 1-.006.07h-.526a.18.18 0 0 0 .054.123c.032.03.072.044.119.044a.149.149 0 0 0 .144-.087h.196a.328.328 0 0 1-.12.17.35.35 0 0 1-.216.068.376.376 0 0 1-.187-.046.325.325 0 0 1-.129-.131.4.4 0 0 1-.046-.195c0-.075.015-.14.046-.196.03-.057.072-.1.127-.13a.382.382 0 0 1 .189-.046c.068 0 .13.015.184.044.054.03.096.072.126.126a.38.38 0 0 1 .044.186Zm-.189-.052a.144.144 0 0 0-.05-.112.18.18 0 0 0-.122-.042.165.165 0 0 0-.113.04.18.18 0 0 0-.057.114h.342ZM36.262 50.83h-.126v.57h-.184v-.57h-.082v-.15h.082v-.037c0-.088.025-.153.075-.195.05-.041.126-.06.227-.058v.153c-.044 0-.074.007-.092.022-.017.016-.026.044-.026.085v.03h.126v.15ZM36.71 50.83h-.125v.57H36.4v-.57h-.082v-.15h.082v-.037c0-.088.025-.153.075-.195.05-.041.127-.06.228-.058v.153c-.044 0-.075.007-.092.022-.018.016-.026.044-.026.085v.03h.126v.15ZM36.921 50.594a.11.11 0 0 1-.08-.03.101.101 0 0 1-.031-.077c0-.03.01-.055.031-.076a.11.11 0 0 1 .08-.03.11.11 0 0 1 .08.03c.022.02.032.046.032.076s-.01.056-.032.076a.11.11 0 0 1-.08.031Zm.09.086v.72h-.182v-.72h.182ZM37.144 51.04c0-.075.015-.14.045-.196.03-.056.073-.099.126-.13a.365.365 0 0 1 .185-.046c.09 0 .163.022.222.067a.326.326 0 0 1 .117.188h-.196a.144.144 0 0 0-.053-.074.153.153 0 0 0-.091-.026.15.15 0 0 0-.124.056.25.25 0 0 0-.045.16c0 .07.015.122.045.16a.15.15 0 0 0 .124.057c.073 0 .121-.033.144-.1h.196a.332.332 0 0 1-.118.187.349.349 0 0 1-.221.069.365.365 0 0 1-.185-.046.325.325 0 0 1-.126-.13.404.404 0 0 1-.045-.196ZM38.065 50.594a.11.11 0 0 1-.08-.03.101.101 0 0 1-.031-.077c0-.03.01-.055.031-.076a.11.11 0 0 1 .08-.03.11.11 0 0 1 .08.03c.022.02.032.046.032.076s-.01.056-.032.076a.11.11 0 0 1-.08.031Zm.09.086v.72h-.182v-.72h.182ZM38.546 50.83v.348c0 .024.006.042.018.052.012.011.031.017.06.017h.084v.153h-.115c-.153 0-.23-.075-.23-.224v-.347h-.086v-.15h.086v-.177h.183v.178h.162v.15h-.162ZM39.519 50.68v.72h-.184v-.091a.24.24 0 0 1-.091.073.285.285 0 0 1-.123.027.305.305 0 0 1-.15-.036.252.252 0 0 1-.102-.105.348.348 0 0 1-.037-.166v-.422h.182v.396c0 .057.015.101.043.132.029.031.068.046.117.046.05 0 .09-.015.119-.046.028-.03.042-.075.042-.132v-.396h.184ZM39.88 50.792a.255.255 0 0 1 .221-.122v.19h-.048c-.057 0-.1.014-.13.04-.028.028-.043.074-.043.141v.359h-.182v-.72h.182v.112ZM40.715 50.438v.962h-.182v-.962zM40.986 50.594a.11.11 0 0 1-.08-.03.101.101 0 0 1-.031-.077c0-.03.01-.055.032-.076a.11.11 0 0 1 .08-.03.11.11 0 0 1 .08.03c.02.02.031.046.031.076s-.01.056-.032.076a.11.11 0 0 1-.08.031Zm.09.086v.72h-.182v-.72h.182ZM41.538 50.668c.053 0 .1.01.141.032a.26.26 0 0 1 .097.082v-.102h.183v.725a.386.386 0 0 1-.04.179.3.3 0 0 1-.121.125.386.386 0 0 1-.195.046.417.417 0 0 1-.252-.072.265.265 0 0 1-.111-.195h.18c.01.033.03.06.062.08.032.019.07.028.115.028a.178.178 0 0 0 .13-.047c.032-.032.049-.08.049-.144v-.112a.289.289 0 0 1-.238.118.31.31 0 0 1-.167-.046.326.326 0 0 1-.119-.132.424.424 0 0 1-.043-.196c0-.072.014-.137.043-.193a.315.315 0 0 1 .285-.176Zm.238.372a.233.233 0 0 0-.026-.114.183.183 0 0 0-.166-.098.184.184 0 0 0-.163.097.226.226 0 0 0-.026.112c0 .044.009.082.026.114a.192.192 0 0 0 .07.075.188.188 0 0 0 .258-.072.233.233 0 0 0 .027-.114ZM42.817 50.68v.72h-.183v-.091a.24.24 0 0 1-.092.073.285.285 0 0 1-.123.027.305.305 0 0 1-.15-.036.252.252 0 0 1-.101-.105.348.348 0 0 1-.038-.166v-.422h.182v.396c0 .057.015.101.043.132.029.031.068.046.117.046.05 0 .09-.015.119-.046.028-.03.043-.075.043-.132v-.396h.183ZM43.179 50.438v.962h-.182v-.962zM43.31 51.037c0-.072.015-.137.044-.193a.315.315 0 0 1 .285-.176.293.293 0 0 1 .239.114v-.102h.183v.72h-.183v-.105a.27.27 0 0 1-.097.084.296.296 0 0 1-.143.033.306.306 0 0 1-.165-.047.328.328 0 0 1-.119-.132.424.424 0 0 1-.043-.196Zm.568.003a.233.233 0 0 0-.026-.114.183.183 0 0 0-.165-.098.184.184 0 0 0-.164.097.226.226 0 0 0-.026.112c0 .044.009.082.026.114a.192.192 0 0 0 .07.075.188.188 0 0 0 .258-.072.233.233 0 0 0 .027-.114ZM44.32 51.41a.113.113 0 0 1-.082-.031.101.101 0 0 1-.031-.076c0-.03.01-.056.031-.077a.113.113 0 0 1 .082-.03c.032 0 .058.01.079.03.02.02.031.046.031.077 0 .03-.01.055-.031.076a.109.109 0 0 1-.08.03Z"/></g></svg>