<svg xmlns="http://www.w3.org/2000/svg" width="80" height="80" viewBox="0 0 80 80"><g fill="#000" fill-rule="nonzero"><path d="M75 21H6v39h69V21Zm-1 1v37H7V22h67Z"/><path d="m6 47.095 1.107-.396c8.94-3.117 15.368-3.354 22.315-1.632l.887.228c.151.04.304.08.46.123l.985.275 1.143.333 3.493 1.034c10.772 3.113 20.369 3.904 36.782 1.634l1.014-.142.814.947c-17.483 2.507-28.003 1.767-39.348-1.426l-1.07-.308-3.16-.936-1.065-.31-.939-.262-.437-.118-.834-.214-.758-.18c-5.671-1.275-11.061-.993-18.822 1.741l-1.049.38c-.59.218-1.097-.039-1.518-.771ZM67.5 25a3.5 3.5 0 1 0 0 7 3.5 3.5 0 0 0 0-7Zm0 1.06a2.44 2.44 0 1 1 0 4.88 2.44 2.44 0 0 1 0-4.88ZM27 26h26v2H27zM27 33h28v1H27zM27 35h21v1H27zM27 37h26v1H27zM27 39h10v1H27zM27 29h20v2H27z"/></g></svg>