<?xml version="1.0" encoding="UTF-8"?>
<svg width="80px" height="80px" viewBox="0 0 80 80" version="1.1" xmlns="http://www.w3.org/2000/svg" xmlns:xlink="http://www.w3.org/1999/xlink">
    <title>Artboard</title>
    <g id="Artboard" stroke="none" stroke-width="1" fill="none" fill-rule="evenodd">
        <g id="imagetextblock" transform="translate(6.000000, 21.000000)" fill="#000000" fill-rule="nonzero">
            <g id="Group">
                <path d="M69,0 L0,0 L0,39 L69,39 L69,0 Z M68,1 L68,38 L1,38 L1,1 L68,1 Z" id="Rectangle"></path>
                <path d="M0,26.0949144 L1.10734273,25.6988069 C10.0464903,22.5819986 16.4751406,22.3453576 23.4223841,24.0670584 L24.3093709,24.2945732 C24.4603286,24.3345584 24.6134914,24.3757399 24.7698222,24.4183625 L25.7535253,24.6933507 L26.8966764,25.02574 L30.3904164,26.0595146 C41.1617292,29.1734081 50.7588782,29.9638542 67.1720972,27.6943772 L68.1855726,27.5516 L69,28.4986269 C51.5169109,31.0063835 40.9970962,30.2656604 29.6521928,27.0732538 L28.5820901,26.7654729 L25.4214907,25.8286808 L24.3573674,25.5194446 L23.4179783,25.2566777 C23.2693855,25.2161337 23.124173,25.1770594 22.9814324,25.1392216 L22.1473843,24.9251667 L21.3892728,24.7458407 C15.7176967,23.4695982 10.3276809,23.7523678 2.56740673,26.4863262 L1.51842472,26.8654579 C0.927594941,27.0842434 0.421453368,26.8273956 0,26.0949144 Z" id="Path"></path>
                <path d="M61.5,4 C59.5670034,4 58,5.56700338 58,7.5 C58,9.43299662 59.5670034,11 61.5,11 C63.4329966,11 65,9.43299662 65,7.5 C65,5.56700338 63.4329966,4 61.5,4 Z M61.5,5.06060606 C62.8472401,5.06060606 63.9393939,6.15275993 63.9393939,7.5 C63.9393939,8.84724007 62.8472401,9.93939394 61.5,9.93939394 C60.1527599,9.93939394 59.0606061,8.84724007 59.0606061,7.5 C59.0606061,6.15275993 60.1527599,5.06060606 61.5,5.06060606 Z" id="Oval"></path>
            </g>
        </g>
    </g>
</svg>