<svg xmlns="http://www.w3.org/2000/svg" width="80" height="80" viewBox="0 0 80 80"><g fill="#000" fill-rule="nonzero"><path d="M37 19H9v24h28V19Zm-1 1v22H10V20h26Z"/><path d="m9.138 30.977.448-.381c3.61-2.998 6.205-3.226 9.01-1.57l.358.22.186.118.397.265.462.32 1.41.993c4.35 2.995 8.225 3.755 14.853 1.573l.41-.138.328.911c-7.06 2.412-11.307 1.7-15.888-1.37l-.432-.297-1.277-.9-.43-.298-.379-.253-.176-.113-.337-.205-.306-.173c-2.29-1.227-4.466-.955-7.6 1.674l-.423.365c-.239.21-.443-.037-.614-.741ZM30.5 23a3.5 3.5 0 1 0 0 7 3.5 3.5 0 0 0 0-7Zm0 1.06a2.44 2.44 0 1 1 0 4.88 2.44 2.44 0 0 1 0-4.88ZM9 47h26v2H9zM9 54h28v1H9zM9 56h21v1H9zM9 58h26v1H9zM9 60h10v1H9zM9 50h20v2H9zM71 19H43v24h28V19Zm-1 1v22H44V20h26Z"/><path d="m43.138 30.977.448-.381c3.61-2.998 6.205-3.226 9.01-1.57l.358.22.186.118.397.265.462.32 1.41.993c4.35 2.995 8.225 3.755 14.853 1.573l.41-.138.328.911c-7.06 2.412-11.307 1.7-15.888-1.37l-.432-.297-1.277-.9-.43-.298-.379-.253-.176-.113-.337-.205-.306-.173c-2.29-1.227-4.466-.955-7.6 1.674l-.423.365c-.239.21-.443-.037-.614-.741ZM64.5 23a3.5 3.5 0 1 0 0 7 3.5 3.5 0 0 0 0-7Zm0 1.06a2.44 2.44 0 1 1 0 4.88 2.44 2.44 0 0 1 0-4.88ZM43 47h26v2H43zM43 54h28v1H43zM43 56h21v1H43zM43 58h26v1H43zM43 60h10v1H43zM43 50h20v2H43z"/></g></svg>