<svg xmlns="http://www.w3.org/2000/svg" width="80" height="80" viewBox="0 0 80 80"><g fill="none" fill-rule="evenodd"><g fill="#000" fill-rule="nonzero"><path d="M41 28H13v24h28V28Zm-1 1v22H14V29h26Z"/><path d="m13.138 39.977.448-.381c3.61-2.998 6.205-3.226 9.01-1.57l.358.22.186.118.397.265.462.32 1.41.993c4.35 2.995 8.225 3.755 14.853 1.573l.41-.138.328.911c-7.06 2.412-11.307 1.7-15.888-1.37l-.432-.297-1.277-.9-.43-.298-.379-.253-.176-.113-.337-.205-.306-.173c-2.29-1.227-4.466-.955-7.6 1.674l-.423.365c-.239.21-.443-.037-.614-.741ZM34.5 32a3.5 3.5 0 1 0 0 7 3.5 3.5 0 0 0 0-7Zm0 1.06a2.44 2.44 0 1 1 0 4.88 2.44 2.44 0 0 1 0-4.88ZM45 33h18v2H45zM45 40h19v1H45zM45 42h14v1H45zM45 44h18v1H45zM45 46h7v1h-7zM45 36h14v2H45z"/></g><path stroke="#000" d="M40.5 28.5h27v23h-27z"/></g></svg>