<svg xmlns="http://www.w3.org/2000/svg" width="80" height="80" viewBox="0 0 80 80"><g fill="#000" fill-rule="nonzero"><path d="M29 24H8v15h21V24Zm-1 1v13H9V25h19Z"/><path d="m8 32.095.337-.396c2.72-3.117 4.677-3.354 6.792-1.632l.27.228.14.123.299.275.348.333 1.063 1.034c3.278 3.113 6.2 3.904 11.195 1.634l.308-.142.248.947c-5.32 2.507-8.523 1.767-11.975-1.426l-.326-.308-.962-.936-.324-.31-.286-.262-.133-.118-.253-.214-.231-.18c-1.726-1.275-3.367-.993-5.729 1.741l-.319.38c-.18.218-.334-.039-.462-.771Z"/><path d="M23.5 27a2.5 2.5 0 1 0 0 5 2.5 2.5 0 0 0 0-5Zm0 1a1.5 1.5 0 1 1 0 3 1.5 1.5 0 0 1 0-3ZM8 43h18v2H8zM8 50h19v1H8zM8 52h14v1H8zM8 54h18v1H8zM8 56h7v1H8zM8 46h14v2H8zM73 24H34v15h39V24Zm-1 1v13H35V25h37Z"/><path d="m34 32.095.626-.396c5.052-3.117 8.686-3.354 12.613-1.632l.501.228c.085.04.172.08.26.123l.556.275.646.333 1.975 1.034c6.088 3.113 11.513 3.904 20.79 1.634l.573-.142.46.947c-9.882 2.507-15.828 1.767-22.24-1.426l-.605-.308-1.786-.936-.602-.31-.53-.262a24.36 24.36 0 0 0-.247-.118l-.472-.214-.428-.18c-3.206-1.275-6.253-.993-10.639 1.741l-.593.38c-.334.218-.62-.039-.858-.771ZM67.5 27a2.5 2.5 0 1 0 0 5 2.5 2.5 0 0 0 0-5Zm0 1a1.5 1.5 0 1 1 0 3 1.5 1.5 0 0 1 0-3ZM34 43h18v2H34zM34 50h38v1H34zM34 52h28v1H34zM34 54h36v1H34zM34 56h14v1H34zM34 46h14v2H34z"/></g></svg>