<?xml version="1.0" encoding="UTF-8"?>
<svg width="80px" height="80px" viewBox="0 0 80 80" version="1.1" xmlns="http://www.w3.org/2000/svg" xmlns:xlink="http://www.w3.org/1999/xlink">
    <title>Artboard</title>
    <g id="Artboard" stroke="none" stroke-width="1" fill="none" fill-rule="evenodd">
        <g id="imagetextblock" transform="translate(8.000000, 24.000000)" fill="#000000" fill-rule="nonzero">
            <g id="Group">
                <path d="M21,0 L0,0 L0,15 L21,15 L21,0 Z M20,1 L20,14 L1,14 L1,1 L20,1 Z" id="Rectangle"></path>
                <path d="M0,8.09491439 L0.337017354,7.69880687 C3.05762749,4.58199855 5.01417322,4.34535756 7.12855168,6.06705836 L7.39850418,6.29457323 C7.44444783,6.33455844 7.49106261,6.37573992 7.53864155,6.41836253 L7.83802943,6.69335065 L8.18594499,7.02573996 L9.24925716,8.05951462 C12.5274828,11.1734081 15.4483542,11.9638542 20.4436818,9.69437716 L20.7521308,9.55160002 L21,10.4986269 C15.6790598,13.0063835 12.4773771,12.2656604 9.02458041,9.07325375 L8.69889698,8.76547291 L7.73697542,7.82868078 L7.41311182,7.51944461 L7.1272108,7.25667771 C7.08198688,7.21613368 7.03779177,7.17705939 6.99434899,7.13922158 L6.74050826,6.92516667 L6.50977868,6.74584073 C4.78364684,5.46959817 3.14320724,5.75236778 0.781384656,8.48632623 L0.462129262,8.86545791 C0.282311504,9.08424341 0.128268416,8.82739557 0,8.09491439 Z" id="Path"></path>
                <path d="M15.5,3 C14.1192881,3 13,4.11928813 13,5.5 C13,6.88071187 14.1192881,8 15.5,8 C16.8807119,8 18,6.88071187 18,5.5 C18,4.11928813 16.8807119,3 15.5,3 Z M15.5,4 C16.3284271,4 17,4.67157288 17,5.5 C17,6.32842712 16.3284271,7 15.5,7 C14.6715729,7 14,6.32842712 14,5.5 C14,4.67157288 14.6715729,4 15.5,4 Z" id="Oval"></path>
            </g>
            <g id="Group-2" transform="translate(0.000000, 19.000000)">
                <rect id="Rectangle" x="0" y="0" width="18" height="2"></rect>
                <rect id="Rectangle" x="0" y="7" width="19" height="1"></rect>
                <rect id="Rectangle" x="0" y="9" width="14" height="1"></rect>
                <rect id="Rectangle" x="0" y="11" width="18" height="1"></rect>
                <rect id="Rectangle" x="0" y="13" width="7" height="1"></rect>
                <rect id="Rectangle" x="0" y="3" width="14" height="2"></rect>
            </g>
        </g>
        <g id="imagetextblock-copy" transform="translate(34.000000, 24.000000)" fill="#000000" fill-rule="nonzero">
            <g id="Group">
                <path d="M39,0 L0,0 L0,15 L39,15 L39,0 Z M38,1 L38,14 L1,14 L1,1 L38,1 Z" id="Rectangle"></path>
                <path d="M0,8.09491439 L0.625889371,7.69880687 C5.67845105,4.58199855 9.31203599,4.34535756 13.2387388,6.06705836 L13.7400792,6.29457323 C13.8254031,6.33455844 13.9119734,6.37573992 14.0003343,6.41836253 L14.5563404,6.69335065 L15.2024693,7.02573996 L17.1771919,8.05951462 C23.2653252,11.1734081 28.6898007,11.9638542 37.9668375,9.69437716 L38.5396715,9.55160002 L39,10.4986269 C29.118254,13.0063835 23.1722718,12.2656604 16.759935,9.07325375 L16.1550944,8.76547291 L14.3686686,7.82868078 L13.7672077,7.51944461 L13.2362486,7.25667771 C13.1522614,7.21613368 13.0701847,7.17705939 12.9895053,7.13922158 L12.5180868,6.92516667 L12.089589,6.74584073 C8.88391555,5.46959817 5.83738487,5.75236778 1.45114293,8.48632623 L0.858240058,8.86545791 C0.524292793,9.08424341 0.238212773,8.82739557 0,8.09491439 Z" id="Path"></path>
                <path d="M33.5,3 C32.1192881,3 31,4.11928813 31,5.5 C31,6.88071187 32.1192881,8 33.5,8 C34.8807119,8 36,6.88071187 36,5.5 C36,4.11928813 34.8807119,3 33.5,3 Z M33.5,4 C34.3284271,4 35,4.67157288 35,5.5 C35,6.32842712 34.3284271,7 33.5,7 C32.6715729,7 32,6.32842712 32,5.5 C32,4.67157288 32.6715729,4 33.5,4 Z" id="Oval"></path>
            </g>
            <g id="Group-2" transform="translate(0.000000, 19.000000)">
                <rect id="Rectangle" x="0" y="0" width="18" height="2"></rect>
                <rect id="Rectangle" x="0" y="7" width="38" height="1"></rect>
                <rect id="Rectangle" x="0" y="9" width="28" height="1"></rect>
                <rect id="Rectangle" x="0" y="11" width="36" height="1"></rect>
                <rect id="Rectangle" x="0" y="13" width="14" height="1"></rect>
                <rect id="Rectangle" x="0" y="3" width="14" height="2"></rect>
            </g>
        </g>
    </g>
</svg>