<?xml version="1.0" encoding="UTF-8"?>
<svg width="80px" height="80px" viewBox="0 0 80 80" version="1.1" xmlns="http://www.w3.org/2000/svg" xmlns:xlink="http://www.w3.org/1999/xlink">
    <title>Artboard</title>
    <g id="Artboard" stroke="none" stroke-width="1" fill="none" fill-rule="evenodd">
        <g id="Row-Icons-block-1" transform="translate(10.000000, 26.000000)">
            <rect id="Rectangle" fill="#000000" fill-rule="nonzero" x="0" y="0" width="59.1" height="28.4"></rect>
            <rect id="Rectangle" fill="#FFFFFF" fill-rule="nonzero" x="20" y="4.1" width="19.1" height="1"></rect>
            <rect id="Rectangle" fill="#FFFFFF" fill-rule="nonzero" x="22.2" y="6" width="14.6" height="1"></rect>
            <g id="Group" transform="translate(7.900000, 10.000000)">
                <g transform="translate(16.400000, -0.000000)">
                    <rect id="Rectangle" fill="#FFFFFF" fill-rule="nonzero" x="-3.55271368e-15" y="8.2" width="10.6" height="1"></rect>
                    <rect id="Rectangle" fill="#FFFFFF" fill-rule="nonzero" x="2.1" y="10.2" width="6.4" height="1"></rect>
                    <rect id="Rectangle" fill="#FFFFFF" fill-rule="nonzero" x="1.3" y="12.1" width="7.8" height="1"></rect>
                    <circle id="Oval" stroke="#FFFFFF" cx="5.2" cy="2.8" r="2.8"></circle>
                </g>
                <g transform="translate(0.000000, -0.000000)">
                    <rect id="Rectangle" fill="#FFFFFF" fill-rule="nonzero" x="1.77635684e-15" y="8.2" width="10.6" height="1"></rect>
                    <rect id="Rectangle" fill="#FFFFFF" fill-rule="nonzero" x="2.1" y="10.2" width="6.4" height="1"></rect>
                    <rect id="Rectangle" fill="#FFFFFF" fill-rule="nonzero" x="1.3" y="12.1" width="7.8" height="1"></rect>
                    <circle id="Oval" stroke="#FFFFFF" cx="5.2" cy="2.8" r="2.8"></circle>
                </g>
                <g transform="translate(32.800000, -0.000000)">
                    <rect id="Rectangle" fill="#FFFFFF" fill-rule="nonzero" x="0" y="8.2" width="10.6" height="1"></rect>
                    <rect id="Rectangle" fill="#FFFFFF" fill-rule="nonzero" x="2.1" y="10.2" width="6.4" height="1"></rect>
                    <rect id="Rectangle" fill="#FFFFFF" fill-rule="nonzero" x="1.3" y="12.1" width="7.8" height="1"></rect>
                    <circle id="Oval" stroke="#FFFFFF" cx="5.3" cy="2.8" r="2.8"></circle>
                </g>
            </g>
        </g>
    </g>
</svg>