<?xml version="1.0" encoding="UTF-8"?>
<svg width="80px" height="80px" viewBox="0 0 80 80" version="1.1" xmlns="http://www.w3.org/2000/svg" xmlns:xlink="http://www.w3.org/1999/xlink">
    <title>Artboard</title>
    <g id="Artboard" stroke="none" stroke-width="1" fill="none" fill-rule="evenodd">
        <g id="imagetextblock" transform="translate(7.000000, 28.000000)" fill="#000000" fill-rule="nonzero">
            <g id="Group" transform="translate(37.000000, 0.000000)">
                <path d="M28,0 L0,0 L0,24 L28,24 L28,0 Z M27,1 L27,23 L1,23 L1,1 L27,1 Z" id="Rectangle"></path>
                <path d="M0.138443285,11.9765227 L0.585577957,11.5955678 C4.19512241,8.59798862 6.79095146,8.3704 9.59618362,10.0262395 L9.95434061,10.2450511 C10.0152959,10.2835068 10.0771417,10.3231129 10.1402666,10.364105 L10.5374767,10.6285739 L10.9990705,10.9482481 L12.4098101,11.9424771 C16.7591658,14.9372529 20.6344051,15.6974616 27.2619099,13.5148003 L27.6711418,13.3774849 L28,14.2882846 C20.9404916,16.7001104 16.6926885,15.9877226 12.1117223,12.9174371 L11.6796248,12.62143 L10.4034042,11.7204735 L9.97372116,11.4230668 L9.59440461,11.1703516 C9.5344042,11.1313586 9.47576875,11.093779 9.41813143,11.0573886 L9.08135058,10.8515221 L8.77523224,10.679056 C6.4851027,9.45163434 4.30866455,9.723587 1.17513818,12.3529617 L0.751569029,12.7175902 C0.512997474,12.9280063 0.308622226,12.6809839 0.138443285,11.9765227 Z" id="Path"></path>
                <path d="M21.5,4 C19.5670034,4 18,5.56700338 18,7.5 C18,9.43299662 19.5670034,11 21.5,11 C23.4329966,11 25,9.43299662 25,7.5 C25,5.56700338 23.4329966,4 21.5,4 Z M21.5,5.06060606 C22.8472401,5.06060606 23.9393939,6.15275993 23.9393939,7.5 C23.9393939,8.84724007 22.8472401,9.93939394 21.5,9.93939394 C20.1527599,9.93939394 19.0606061,8.84724007 19.0606061,7.5 C19.0606061,6.15275993 20.1527599,5.06060606 21.5,5.06060606 Z" id="Oval"></path>
            </g>
            <g id="Group-2" transform="translate(16.000000, 0.000000)">
                <rect id="Rectangle" x="0" y="0" width="16" height="2"></rect>
                <rect id="Rectangle" x="0" y="7" width="17" height="1"></rect>
                <rect id="Rectangle" x="0" y="9" width="13" height="1"></rect>
                <rect id="Rectangle" x="0" y="11" width="16" height="1"></rect>
                <rect id="Rectangle" x="0" y="13" width="6" height="1"></rect>
                <rect id="Rectangle" x="0" y="3" width="12" height="2"></rect>
            </g>
            <g id="Group-3">
                <rect id="Rectangle" x="0" y="0" width="9" height="2"></rect>
                <rect id="Rectangle-Copy" x="0" y="3" width="9" height="2"></rect>
                <rect id="Rectangle-Copy-2" x="0" y="6" width="9" height="2"></rect>
            </g>
        </g>
    </g>
</svg>