<svg xmlns="http://www.w3.org/2000/svg" width="120" height="80" viewBox="0 0 120 80"><g fill="#000" fill-rule="evenodd"><g fill-rule="nonzero"><g transform="translate(83 27)"><path d="M0 0h26v26H0z" opacity=".3"/><path d="M0 14.039c2.968-.248 6.96.686 11.977 2.802 5.016 2.114 9.69 2.698 14.023 1.75V26H0V14.039Z"/><circle cx="18.5" cy="7.5" r="3.5"/></g><path d="M35.66 29.33h.784v.46h-1.38v-2.445h.597zM37.617 29.818c-.191 0-.363-.04-.515-.122a.894.894 0 0 1-.36-.348 1.038 1.038 0 0 1-.131-.53c0-.2.044-.375.133-.527a.9.9 0 0 1 .363-.35c.154-.082.326-.122.517-.122.19 0 .363.04.517.121a.9.9 0 0 1 .363.35c.089.153.133.329.133.528 0 .2-.045.376-.135.528a.908.908 0 0 1-.366.35 1.099 1.099 0 0 1-.52.122Zm0-.516a.39.39 0 0 0 .292-.125c.08-.084.12-.203.12-.359 0-.155-.039-.275-.117-.359a.379.379 0 0 0-.288-.125.38.38 0 0 0-.29.124c-.077.082-.115.202-.115.36 0 .156.038.275.113.359.076.084.17.125.285.125ZM39.552 28.17a.787.787 0 0 1 .262-.252.677.677 0 0 1 .35-.092v.63h-.165c-.149 0-.26.032-.335.096-.075.064-.112.176-.112.336v.902h-.597v-1.944h.597v.324ZM42.287 28.787c0 .056-.003.114-.01.174h-1.352c.01.12.048.213.117.277a.358.358 0 0 0 .253.096c.15 0 .253-.063.311-.188h.636a.869.869 0 0 1-.496.585 1.03 1.03 0 0 1-.43.087c-.19 0-.36-.04-.51-.122a.868.868 0 0 1-.35-.348 1.073 1.073 0 0 1-.125-.53c0-.202.041-.378.124-.53a.857.857 0 0 1 .348-.348c.149-.08.32-.121.513-.121.189 0 .356.039.503.118a.852.852 0 0 1 .344.338c.083.146.124.317.124.512Zm-.611-.157a.306.306 0 0 0-.105-.244.386.386 0 0 0-.262-.09c-.1 0-.184.029-.253.087a.386.386 0 0 0-.128.247h.748ZM45.089 27.826c.242 0 .435.073.578.219.143.146.215.35.215.61v1.135h-.594v-1.055a.4.4 0 0 0-.1-.291.364.364 0 0 0-.274-.103.364.364 0 0 0-.274.103.4.4 0 0 0-.1.29v1.056h-.593v-1.055a.4.4 0 0 0-.1-.291.364.364 0 0 0-.274-.103.364.364 0 0 0-.274.103.4.4 0 0 0-.1.29v1.056h-.597v-1.944h.597v.244a.639.639 0 0 1 .238-.193.749.749 0 0 1 .331-.071.81.81 0 0 1 .393.094.675.675 0 0 1 .271.268.784.784 0 0 1 .657-.362ZM47.39 27.644a.447.447 0 0 1-.291-.092.284.284 0 0 1-.113-.228c0-.093.037-.17.113-.232A.447.447 0 0 1 47.39 27a.44.44 0 0 1 .288.092.287.287 0 0 1 .113.232c0 .09-.037.167-.113.228a.44.44 0 0 1-.288.092Zm.338.202v1.944h-.679v-1.944h.679ZM48.67 28.122a.648.648 0 0 1 .24-.22.742.742 0 0 1 .36-.083.809.809 0 0 1 .746.47c.076.15.113.326.113.526s-.037.375-.113.527a.855.855 0 0 1-.31.352.8.8 0 0 1-.436.124.744.744 0 0 1-.358-.084.656.656 0 0 1-.243-.216v1.199h-.597v-2.87h.597v.275Zm.852.693a.48.48 0 0 0-.124-.35.41.41 0 0 0-.306-.127.403.403 0 0 0-.302.128.486.486 0 0 0-.124.352c0 .149.041.266.124.352a.403.403 0 0 0 .302.129c.119 0 .22-.044.304-.13a.488.488 0 0 0 .126-.354ZM51.237 29.818c-.17 0-.322-.03-.454-.087a.775.775 0 0 1-.315-.239.627.627 0 0 1-.129-.34h.59a.226.226 0 0 0 .095.164.334.334 0 0 0 .206.063.295.295 0 0 0 .173-.044.133.133 0 0 0 .06-.113c0-.055-.028-.097-.087-.123a1.768 1.768 0 0 0-.282-.09 2.662 2.662 0 0 1-.35-.102.604.604 0 0 1-.24-.17.464.464 0 0 1-.102-.316c0-.111.03-.213.092-.305a.623.623 0 0 1 .273-.217c.12-.054.262-.08.428-.08.244 0 .437.06.578.18.14.121.222.282.243.481h-.552a.237.237 0 0 0-.09-.16.31.31 0 0 0-.197-.06.273.273 0 0 0-.16.041.128.128 0 0 0-.056.11c0 .055.03.097.089.125.06.028.152.056.278.084.144.037.262.073.352.11.091.035.171.093.24.174.068.08.104.187.106.322a.51.51 0 0 1-.096.305.635.635 0 0 1-.276.21c-.12.051-.259.077-.417.077ZM54.318 27.846v1.944h-.598v-.265a.655.655 0 0 1-.246.208.753.753 0 0 1-.344.078.772.772 0 0 1-.395-.1.67.67 0 0 1-.265-.287.976.976 0 0 1-.094-.442v-1.136h.593v1.056c0 .13.034.23.102.303a.356.356 0 0 0 .272.108.36.36 0 0 0 .276-.108.426.426 0 0 0 .101-.303v-1.056h.598ZM57.235 27.826c.242 0 .434.073.578.219.143.146.214.35.214.61v1.135h-.593v-1.055a.4.4 0 0 0-.1-.291.364.364 0 0 0-.274-.103.364.364 0 0 0-.274.103.4.4 0 0 0-.1.29v1.056h-.594v-1.055a.4.4 0 0 0-.1-.291.364.364 0 0 0-.274-.103.364.364 0 0 0-.274.103.4.4 0 0 0-.1.29v1.056h-.597v-1.944h.598v.244a.639.639 0 0 1 .237-.193.749.749 0 0 1 .332-.071.81.81 0 0 1 .393.094.675.675 0 0 1 .27.268.784.784 0 0 1 .658-.362ZM59.068 28.815c0-.2.038-.375.114-.526a.809.809 0 0 1 .746-.47c.128 0 .245.026.35.08a.64.64 0 0 1 .25.216v-.903h.598v2.578h-.597v-.279a.608.608 0 0 1-.24.223.752.752 0 0 1-.361.084.8.8 0 0 1-.437-.124.855.855 0 0 1-.309-.352 1.17 1.17 0 0 1-.114-.527Zm1.46.003a.486.486 0 0 0-.123-.352.403.403 0 0 0-.303-.128.406.406 0 0 0-.302.127.48.48 0 0 0-.124.35c0 .148.042.266.124.353a.4.4 0 0 0 .302.13c.12 0 .22-.042.303-.128a.486.486 0 0 0 .124-.352ZM62.446 29.818c-.19 0-.362-.04-.515-.122a.894.894 0 0 1-.36-.348 1.038 1.038 0 0 1-.13-.53c0-.2.044-.375.132-.527a.9.9 0 0 1 .363-.35c.154-.082.326-.122.517-.122s.364.04.517.121a.9.9 0 0 1 .364.35c.088.153.132.329.132.528 0 .2-.045.376-.134.528a.908.908 0 0 1-.367.35 1.099 1.099 0 0 1-.519.122Zm0-.516a.39.39 0 0 0 .292-.125c.08-.084.12-.203.12-.359 0-.155-.038-.275-.117-.359a.379.379 0 0 0-.288-.125.38.38 0 0 0-.29.124c-.076.082-.115.202-.115.36 0 .156.038.275.114.359.075.084.17.125.284.125ZM64.382 27.212v2.578h-.597v-2.578zM65.702 29.818c-.191 0-.363-.04-.515-.122a.894.894 0 0 1-.36-.348 1.038 1.038 0 0 1-.131-.53c0-.2.044-.375.133-.527a.9.9 0 0 1 .363-.35c.154-.082.326-.122.517-.122.19 0 .363.04.517.121a.9.9 0 0 1 .363.35c.089.153.133.329.133.528 0 .2-.045.376-.135.528a.908.908 0 0 1-.366.35 1.099 1.099 0 0 1-.519.122Zm0-.516a.39.39 0 0 0 .292-.125c.08-.084.12-.203.12-.359 0-.155-.039-.275-.117-.359a.379.379 0 0 0-.288-.125.38.38 0 0 0-.29.124c-.077.082-.115.202-.115.36 0 .156.038.275.113.359.076.084.17.125.285.125ZM67.637 28.17a.787.787 0 0 1 .262-.252.677.677 0 0 1 .35-.092v.63h-.165c-.149 0-.26.032-.335.096-.075.064-.112.176-.112.336v.902h-.597v-1.944h.597v.324ZM70.068 29.818c-.17 0-.321-.03-.454-.087a.775.775 0 0 1-.314-.239.627.627 0 0 1-.13-.34h.591a.226.226 0 0 0 .094.164.334.334 0 0 0 .206.063.295.295 0 0 0 .173-.044.133.133 0 0 0 .061-.113c0-.055-.029-.097-.087-.123a1.768 1.768 0 0 0-.283-.09 2.662 2.662 0 0 1-.35-.102.604.604 0 0 1-.24-.17.464.464 0 0 1-.101-.316c0-.111.03-.213.092-.305a.623.623 0 0 1 .273-.217c.12-.054.262-.08.427-.08.245 0 .438.06.579.18.14.121.221.282.242.481h-.552a.237.237 0 0 0-.089-.16.31.31 0 0 0-.197-.06.273.273 0 0 0-.16.041.128.128 0 0 0-.057.11c0 .055.03.097.09.125.059.028.151.056.277.084.145.037.262.073.353.11.09.035.17.093.24.174.068.08.104.187.106.322a.51.51 0 0 1-.096.305.635.635 0 0 1-.276.21c-.12.051-.26.077-.418.077ZM71.574 27.644a.447.447 0 0 1-.292-.092.284.284 0 0 1-.113-.228c0-.093.037-.17.113-.232a.447.447 0 0 1 .292-.092.44.44 0 0 1 .287.092.287.287 0 0 1 .114.232c0 .09-.038.167-.114.228a.44.44 0 0 1-.287.092Zm.337.202v1.944h-.679v-1.944h.68ZM73.342 29.285v.505h-.304c-.217 0-.386-.053-.507-.158-.121-.106-.182-.279-.182-.518v-.773h-.237v-.495h.237v-.473h.598v.473h.391v.495h-.391v.78c0 .058.014.1.042.126.028.025.074.038.14.038h.213ZM34.945 32.298c0-.2.037-.375.113-.526a.809.809 0 0 1 .746-.47c.137 0 .258.028.361.083a.617.617 0 0 1 .24.22v-.275h.597v1.943h-.597v-.275a.644.644 0 0 1-.243.22.752.752 0 0 1-.362.083.794.794 0 0 1-.433-.124.855.855 0 0 1-.309-.351 1.17 1.17 0 0 1-.113-.528Zm1.46.003a.486.486 0 0 0-.124-.351.403.403 0 0 0-.302-.13.406.406 0 0 0-.303.128.48.48 0 0 0-.124.35c0 .149.042.266.124.353a.4.4 0 0 0 .303.131c.118 0 .22-.043.302-.129a.486.486 0 0 0 .124-.352ZM39.922 31.309c.243 0 .435.073.579.22.143.145.214.349.214.609v1.135h-.594v-1.055a.4.4 0 0 0-.1-.291.364.364 0 0 0-.273-.103.364.364 0 0 0-.274.103.4.4 0 0 0-.1.29v1.056h-.594v-1.055a.4.4 0 0 0-.1-.291.364.364 0 0 0-.274-.103.364.364 0 0 0-.274.103.4.4 0 0 0-.1.29v1.056h-.597V31.33h.598v.243a.639.639 0 0 1 .237-.193.749.749 0 0 1 .332-.071.81.81 0 0 1 .393.094.675.675 0 0 1 .27.268.784.784 0 0 1 .657-.362ZM42.972 32.27c0 .056-.004.114-.01.174H41.61c.009.121.048.213.117.277a.358.358 0 0 0 .253.096c.149 0 .253-.063.31-.188h.637a.869.869 0 0 1-.497.585 1.03 1.03 0 0 1-.43.087c-.19 0-.36-.04-.51-.122a.868.868 0 0 1-.349-.348 1.073 1.073 0 0 1-.125-.53c0-.202.041-.378.124-.529a.857.857 0 0 1 .347-.348c.15-.082.32-.122.514-.122.188 0 .356.04.503.118a.852.852 0 0 1 .344.338c.083.146.124.317.124.512Zm-.611-.157a.306.306 0 0 0-.105-.244.386.386 0 0 0-.262-.09c-.1 0-.185.029-.253.087a.386.386 0 0 0-.128.247h.748ZM44.373 32.768v.505h-.304c-.217 0-.386-.053-.507-.158-.12-.106-.181-.278-.181-.518v-.773h-.238v-.494h.238v-.474h.597v.474h.391v.494h-.391v.78c0 .059.014.1.042.126.028.025.074.038.14.038h.213ZM45.348 32.723l-.388 1h-.381l.203-1zM46.329 32.301c0-.202.041-.378.124-.529a.86.86 0 0 1 .346-.348c.148-.082.317-.122.508-.122.244 0 .449.064.613.191a.903.903 0 0 1 .323.54h-.636c-.053-.148-.157-.223-.31-.223a.314.314 0 0 0-.263.127c-.065.085-.097.207-.097.364 0 .158.032.28.097.364a.314.314 0 0 0 .262.128c.154 0 .258-.075.311-.223h.636a.912.912 0 0 1-.325.536.958.958 0 0 1-.611.195c-.191 0-.36-.04-.508-.122a.86.86 0 0 1-.346-.348 1.085 1.085 0 0 1-.124-.53ZM49.448 33.301c-.19 0-.362-.04-.515-.122a.894.894 0 0 1-.36-.348 1.038 1.038 0 0 1-.13-.53c0-.2.043-.375.132-.527a.9.9 0 0 1 .363-.35c.154-.082.326-.122.517-.122s.364.04.517.122a.9.9 0 0 1 .364.35c.088.152.132.328.132.527 0 .2-.045.376-.134.528a.908.908 0 0 1-.367.35 1.099 1.099 0 0 1-.519.122Zm0-.515a.39.39 0 0 0 .292-.126c.08-.083.12-.203.12-.359 0-.155-.039-.275-.117-.358a.379.379 0 0 0-.288-.126.38.38 0 0 0-.29.124c-.077.082-.115.203-.115.36 0 .156.038.276.114.36.075.083.17.125.284.125ZM51.974 31.309c.228 0 .41.073.546.22.137.148.205.35.205.609v1.135h-.594v-1.055a.426.426 0 0 0-.101-.303.356.356 0 0 0-.273-.108.356.356 0 0 0-.272.108.426.426 0 0 0-.102.303v1.055h-.597V31.33h.597v.257a.63.63 0 0 1 .245-.203.78.78 0 0 1 .346-.075ZM53.933 33.301c-.17 0-.32-.029-.454-.087a.775.775 0 0 1-.314-.239.627.627 0 0 1-.13-.34h.591a.226.226 0 0 0 .094.165.334.334 0 0 0 .206.062.295.295 0 0 0 .173-.043.133.133 0 0 0 .062-.114c0-.055-.03-.096-.088-.123a1.768 1.768 0 0 0-.283-.089 2.662 2.662 0 0 1-.35-.103.604.604 0 0 1-.24-.17.464.464 0 0 1-.101-.316c0-.111.03-.213.092-.304a.623.623 0 0 1 .273-.218c.12-.054.262-.08.428-.08.244 0 .437.06.578.18.14.122.221.282.242.482h-.551a.237.237 0 0 0-.09-.16.31.31 0 0 0-.197-.06.273.273 0 0 0-.16.04.128.128 0 0 0-.056.11c0 .056.03.097.089.125.059.028.152.056.277.084.145.037.262.074.353.11.09.036.17.094.24.174.068.08.104.187.106.322a.51.51 0 0 1-.096.305.635.635 0 0 1-.276.21c-.12.052-.26.077-.418.077ZM56.927 32.27c0 .056-.003.114-.01.174h-1.352c.01.121.048.213.117.277a.358.358 0 0 0 .253.096c.15 0 .253-.063.311-.188h.636a.869.869 0 0 1-.496.585 1.03 1.03 0 0 1-.43.087c-.19 0-.36-.04-.51-.122a.868.868 0 0 1-.35-.348 1.073 1.073 0 0 1-.125-.53c0-.202.041-.378.124-.529a.857.857 0 0 1 .348-.348c.149-.082.32-.122.513-.122.189 0 .356.04.503.118a.852.852 0 0 1 .344.338c.083.146.124.317.124.512Zm-.611-.157a.306.306 0 0 0-.105-.244.386.386 0 0 0-.262-.09c-.1 0-.185.029-.253.087a.386.386 0 0 0-.128.247h.748ZM57.123 32.301c0-.202.041-.378.124-.529a.86.86 0 0 1 .346-.348c.147-.082.317-.122.508-.122.244 0 .449.064.613.191a.903.903 0 0 1 .323.54h-.636c-.053-.148-.157-.223-.31-.223a.314.314 0 0 0-.263.127c-.065.085-.097.207-.097.364 0 .158.032.28.097.364a.314.314 0 0 0 .262.128c.154 0 .258-.075.311-.223h.636a.912.912 0 0 1-.325.536.958.958 0 0 1-.611.195c-.191 0-.36-.04-.508-.122a.86.86 0 0 1-.346-.348 1.085 1.085 0 0 1-.124-.53ZM60.441 32.768v.505h-.304c-.216 0-.385-.053-.506-.158-.121-.106-.182-.278-.182-.518v-.773h-.237v-.494h.237v-.474h.598v.474h.39v.494h-.39v.78c0 .059.013.1.041.126.028.025.075.038.14.038h.213ZM62.61 32.27c0 .056-.003.114-.01.174h-1.352c.01.121.048.213.117.277a.358.358 0 0 0 .253.096c.15 0 .253-.063.311-.188h.636a.869.869 0 0 1-.496.585 1.03 1.03 0 0 1-.43.087c-.19 0-.36-.04-.51-.122a.868.868 0 0 1-.349-.348 1.073 1.073 0 0 1-.126-.53c0-.202.042-.378.124-.529a.857.857 0 0 1 .348-.348c.149-.082.32-.122.513-.122.189 0 .357.04.503.118a.852.852 0 0 1 .344.338c.083.146.124.317.124.512Zm-.61-.157a.306.306 0 0 0-.106-.244.386.386 0 0 0-.262-.09c-.1 0-.184.029-.253.087a.386.386 0 0 0-.127.247h.747ZM64.011 32.768v.505h-.304c-.216 0-.385-.053-.506-.158-.121-.106-.182-.278-.182-.518v-.773h-.237v-.494h.237v-.474h.598v.474h.39v.494h-.39v.78c0 .059.014.1.041.126.028.025.075.038.14.038h.213ZM66.268 31.33v1.943h-.597v-.265a.655.655 0 0 1-.247.208.753.753 0 0 1-.344.078.772.772 0 0 1-.395-.1.67.67 0 0 1-.265-.287.976.976 0 0 1-.094-.442V31.33h.593v1.055c0 .13.034.231.102.303a.356.356 0 0 0 .272.108.36.36 0 0 0 .276-.108.426.426 0 0 0 .102-.303V31.33h.597ZM67.295 31.654a.787.787 0 0 1 .262-.253.677.677 0 0 1 .35-.092v.63h-.165c-.15 0-.26.032-.335.096-.075.064-.112.176-.112.336v.902h-.597V31.33h.597v.324ZM34.945 35.781c0-.2.037-.375.113-.526a.809.809 0 0 1 .746-.47c.137 0 .258.028.361.084a.617.617 0 0 1 .24.219v-.275h.597v1.943h-.597v-.275a.644.644 0 0 1-.243.22.752.752 0 0 1-.362.083.794.794 0 0 1-.433-.123.855.855 0 0 1-.309-.352 1.17 1.17 0 0 1-.113-.528Zm1.46.004a.486.486 0 0 0-.124-.352.403.403 0 0 0-.302-.13.406.406 0 0 0-.303.128.48.48 0 0 0-.124.35c0 .149.042.267.124.354a.4.4 0 0 0 .303.13c.118 0 .22-.043.302-.129a.486.486 0 0 0 .124-.351ZM37.316 35.781c0-.2.038-.375.114-.526a.809.809 0 0 1 .746-.47c.128 0 .245.027.35.08a.64.64 0 0 1 .25.216v-.902h.598v2.577h-.597v-.278a.608.608 0 0 1-.24.223.752.752 0 0 1-.361.083.8.8 0 0 1-.437-.123.855.855 0 0 1-.309-.352 1.17 1.17 0 0 1-.114-.528Zm1.46.004a.486.486 0 0 0-.123-.352.403.403 0 0 0-.303-.13.406.406 0 0 0-.302.128.48.48 0 0 0-.124.35c0 .149.042.267.124.354a.4.4 0 0 0 .302.13c.12 0 .22-.043.303-.129a.486.486 0 0 0 .124-.351ZM40.156 34.61a.447.447 0 0 1-.292-.092.284.284 0 0 1-.113-.228c0-.093.038-.17.113-.231a.447.447 0 0 1 .292-.093.44.44 0 0 1 .288.093.287.287 0 0 1 .113.231c0 .09-.038.167-.113.228a.44.44 0 0 1-.288.093Zm.338.203v1.943h-.68v-1.943h.68ZM41.435 35.088a.648.648 0 0 1 .241-.22.742.742 0 0 1 .36-.083.809.809 0 0 1 .746.47c.075.151.113.326.113.526s-.038.376-.113.528a.855.855 0 0 1-.31.352.8.8 0 0 1-.436.123.744.744 0 0 1-.358-.083.656.656 0 0 1-.243-.216v1.198h-.597v-2.87h.597v.275Zm.852.693a.48.48 0 0 0-.124-.35.41.41 0 0 0-.305-.127.403.403 0 0 0-.303.129.486.486 0 0 0-.124.352c0 .148.042.265.124.351a.403.403 0 0 0 .303.13c.118 0 .22-.044.304-.131a.488.488 0 0 0 .125-.354ZM43.558 34.61a.447.447 0 0 1-.291-.092.284.284 0 0 1-.113-.228c0-.093.037-.17.113-.231a.447.447 0 0 1 .291-.093.44.44 0 0 1 .288.093.287.287 0 0 1 .113.231c0 .09-.037.167-.113.228a.44.44 0 0 1-.288.093Zm.338.203v1.943h-.679v-1.943h.679ZM45.033 36.784c-.17 0-.321-.029-.454-.087a.775.775 0 0 1-.315-.238.627.627 0 0 1-.129-.34h.59a.226.226 0 0 0 .095.164.334.334 0 0 0 .206.062.295.295 0 0 0 .173-.043.133.133 0 0 0 .06-.113c0-.056-.028-.097-.086-.124a1.768 1.768 0 0 0-.283-.089 2.662 2.662 0 0 1-.35-.103.604.604 0 0 1-.24-.17.464.464 0 0 1-.102-.315c0-.112.03-.214.093-.305a.623.623 0 0 1 .272-.218c.12-.053.263-.08.428-.08.244 0 .437.06.578.181.141.12.222.281.243.48h-.552a.237.237 0 0 0-.09-.16.31.31 0 0 0-.196-.059.273.273 0 0 0-.161.04.128.128 0 0 0-.056.11c0 .056.03.098.089.125.06.028.152.056.278.084.144.037.262.074.353.11.09.036.17.094.239.174.068.08.104.187.106.322a.51.51 0 0 1-.096.305.635.635 0 0 1-.276.21c-.12.052-.259.077-.417.077ZM46.07 35.785c0-.202.042-.379.124-.53a.86.86 0 0 1 .346-.348c.148-.081.317-.122.508-.122.245 0 .45.064.613.192a.903.903 0 0 1 .324.54h-.636c-.054-.15-.157-.224-.311-.224a.314.314 0 0 0-.262.128c-.065.084-.098.206-.098.364s.033.279.098.364a.314.314 0 0 0 .262.127c.154 0 .257-.075.31-.223h.637a.912.912 0 0 1-.325.536.958.958 0 0 1-.612.195c-.19 0-.36-.04-.508-.122a.86.86 0 0 1-.346-.348 1.085 1.085 0 0 1-.124-.53ZM48.651 34.61a.447.447 0 0 1-.291-.092.284.284 0 0 1-.113-.228c0-.093.037-.17.113-.231a.447.447 0 0 1 .291-.093.44.44 0 0 1 .288.093.287.287 0 0 1 .113.231c0 .09-.037.167-.113.228a.44.44 0 0 1-.288.093Zm.338.203v1.943h-.679v-1.943h.679ZM50.52 34.792c.229 0 .411.074.547.221.137.148.205.35.205.608v1.135h-.594v-1.055a.426.426 0 0 0-.101-.303.356.356 0 0 0-.273-.108.356.356 0 0 0-.272.108.426.426 0 0 0-.102.303v1.055h-.597v-1.943h.597v.258a.63.63 0 0 1 .245-.204.78.78 0 0 1 .346-.075ZM52.428 34.785c.137 0 .258.028.361.084a.617.617 0 0 1 .24.219v-.275h.597v1.94c0 .179-.035.34-.106.486a.81.81 0 0 1-.325.346 1.053 1.053 0 0 1-.544.13c-.288 0-.522-.069-.702-.204a.769.769 0 0 1-.307-.553h.59a.282.282 0 0 0 .133.176c.07.043.156.065.259.065a.407.407 0 0 0 .295-.106c.073-.071.11-.184.11-.34v-.275a.662.662 0 0 1-.241.22.73.73 0 0 1-.36.086.8.8 0 0 1-.437-.123.855.855 0 0 1-.309-.352 1.17 1.17 0 0 1-.113-.528c0-.2.037-.375.113-.526a.809.809 0 0 1 .746-.47Zm.6 1a.486.486 0 0 0-.123-.352.403.403 0 0 0-.302-.13.406.406 0 0 0-.303.128.48.48 0 0 0-.124.35c0 .149.042.267.124.354a.4.4 0 0 0 .303.13c.118 0 .22-.043.302-.129a.486.486 0 0 0 .124-.351ZM56.637 35.753c0 .056-.003.114-.01.174h-1.352c.01.121.048.213.117.277a.358.358 0 0 0 .253.096c.15 0 .253-.063.311-.188h.636a.869.869 0 0 1-.496.585 1.03 1.03 0 0 1-.43.087c-.19 0-.36-.04-.51-.122a.868.868 0 0 1-.35-.348 1.073 1.073 0 0 1-.125-.53c0-.201.041-.378.124-.529a.857.857 0 0 1 .348-.348c.149-.081.32-.122.513-.122.189 0 .356.04.503.118a.852.852 0 0 1 .344.338c.083.147.124.317.124.512Zm-.611-.156a.306.306 0 0 0-.105-.244.386.386 0 0 0-.262-.09c-.1 0-.184.028-.253.086a.386.386 0 0 0-.128.248h.748ZM57.549 34.179v2.577h-.597v-2.577zM58.331 34.61a.447.447 0 0 1-.292-.092.284.284 0 0 1-.113-.228c0-.093.038-.17.113-.231a.447.447 0 0 1 .292-.093.44.44 0 0 1 .288.093.287.287 0 0 1 .113.231c0 .09-.038.167-.113.228a.44.44 0 0 1-.288.093Zm.337.203v1.943h-.678v-1.943h.678ZM60.099 36.251v.505h-.304c-.217 0-.385-.052-.507-.158-.12-.106-.181-.278-.181-.517v-.774h-.238v-.494h.238v-.474h.597v.474h.391v.494h-.39v.78c0 .059.013.1.041.126.028.026.075.038.14.038h.213ZM60.71 36.784a.363.363 0 0 1-.257-.092.299.299 0 0 1-.1-.228c0-.093.034-.17.1-.234a.359.359 0 0 1 .257-.094c.103 0 .187.032.253.094.067.063.1.14.1.234 0 .09-.033.166-.1.228a.358.358 0 0 1-.253.092ZM35.69 41.079a.354.354 0 0 1-.052.186.368.368 0 0 1-.163.14.649.649 0 0 1-.28.052h-.23v.474h-.275v-1.234h.505c.106 0 .196.017.27.05.075.033.131.078.169.136a.354.354 0 0 1 .056.196Zm-.507.179c.076 0 .132-.016.169-.047a.164.164 0 0 0 .055-.132c0-.12-.075-.18-.224-.18h-.218v.359h.218ZM36.683 41.42a.57.57 0 0 1-.007.096h-.735a.24.24 0 0 0 .076.166c.045.04.1.06.165.06.095 0 .162-.04.202-.118h.274a.446.446 0 0 1-.167.232.496.496 0 0 1-.303.091.535.535 0 0 1-.26-.062.448.448 0 0 1-.18-.178.533.533 0 0 1-.065-.265c0-.102.021-.19.064-.267a.437.437 0 0 1 .178-.177.544.544 0 0 1 .263-.062.54.54 0 0 1 .257.06c.075.04.134.097.176.17a.506.506 0 0 1 .062.254Zm-.263-.07a.194.194 0 0 0-.07-.153.255.255 0 0 0-.17-.058.234.234 0 0 0-.158.056.243.243 0 0 0-.08.155h.478ZM37.06 40.623v1.308h-.242v-1.308zM37.544 40.623v1.308H37.3v-1.308zM38.72 41.42a.57.57 0 0 1-.006.096h-.735a.24.24 0 0 0 .076.166c.045.04.1.06.165.06.094 0 .161-.04.201-.118h.274a.446.446 0 0 1-.166.232.496.496 0 0 1-.304.091.535.535 0 0 1-.26-.062.448.448 0 0 1-.18-.178.533.533 0 0 1-.064-.265c0-.102.021-.19.063-.267a.437.437 0 0 1 .178-.177.544.544 0 0 1 .263-.062.54.54 0 0 1 .257.06c.076.04.135.097.176.17a.506.506 0 0 1 .063.254Zm-.262-.07a.194.194 0 0 0-.071-.153.255.255 0 0 0-.169-.058.234.234 0 0 0-.159.056.243.243 0 0 0-.079.155h.478ZM39.388 40.938c.115 0 .208.036.278.11.071.074.106.177.106.309v.574h-.243v-.54c0-.079-.019-.138-.057-.18a.201.201 0 0 0-.156-.063c-.068 0-.12.02-.16.063-.038.042-.058.101-.058.18v.54h-.243v-.98h.243v.123a.337.337 0 0 1 .125-.1.378.378 0 0 1 .165-.036ZM40.287 41.155v.474c0 .033.007.057.023.072.016.014.042.022.08.022h.112v.208h-.153c-.205 0-.307-.101-.307-.304v-.472h-.115v-.203h.115v-.243h.245v.243h.215v.203h-.215ZM41.615 41.42a.57.57 0 0 1-.007.096h-.735a.24.24 0 0 0 .076.166c.045.04.1.06.165.06.094 0 .162-.04.201-.118h.274a.446.446 0 0 1-.166.232.496.496 0 0 1-.304.091.535.535 0 0 1-.26-.062.448.448 0 0 1-.18-.178.533.533 0 0 1-.064-.265c0-.102.021-.19.063-.267a.437.437 0 0 1 .178-.177.544.544 0 0 1 .263-.062.54.54 0 0 1 .257.06c.076.04.135.097.176.17a.506.506 0 0 1 .063.254Zm-.263-.07a.194.194 0 0 0-.071-.153.255.255 0 0 0-.169-.058.234.234 0 0 0-.159.056.243.243 0 0 0-.079.155h.478ZM42.117 41.947a.5.5 0 0 1-.211-.043.376.376 0 0 1-.149-.118.301.301 0 0 1-.06-.164h.245a.136.136 0 0 0 .055.094.188.188 0 0 0 .119.037c.046 0 .082-.01.108-.029a.086.086 0 0 0 .04-.072c0-.032-.017-.056-.048-.072a.888.888 0 0 0-.152-.052 1.271 1.271 0 0 1-.177-.055.306.306 0 0 1-.118-.086.235.235 0 0 1-.05-.158c0-.054.016-.103.047-.148a.31.31 0 0 1 .132-.106.487.487 0 0 1 .202-.04c.115 0 .206.03.275.088a.326.326 0 0 1 .112.236h-.232a.129.129 0 0 0-.048-.092.175.175 0 0 0-.114-.035.177.177 0 0 0-.101.025.08.08 0 0 0-.036.069c0 .033.016.058.049.075a.746.746 0 0 0 .15.052c.07.018.128.036.173.055a.304.304 0 0 1 .117.087c.033.04.05.092.051.157a.263.263 0 0 1-.046.152.304.304 0 0 1-.132.105.492.492 0 0 1-.2.038ZM42.633 41.44c0-.098.02-.185.06-.261a.451.451 0 0 1 .163-.178.42.42 0 0 1 .226-.063c.068 0 .128.013.181.04.053.026.095.06.128.101v-.127h.245v1.446h-.245v-.601a.393.393 0 0 1-.314.149.408.408 0 0 1-.224-.065.452.452 0 0 1-.16-.18.564.564 0 0 1-.06-.261Zm.758.002a.315.315 0 0 0-.037-.156.244.244 0 0 0-.436 0 .31.31 0 0 0-.036.154c0 .06.012.112.036.156a.252.252 0 0 0 .095.1.241.241 0 0 0 .247 0 .254.254 0 0 0 .094-.099.315.315 0 0 0 .037-.155ZM44.782 40.952v.98h-.245v-.124a.322.322 0 0 1-.122.1.375.375 0 0 1-.164.036.402.402 0 0 1-.2-.049.34.34 0 0 1-.136-.143.48.48 0 0 1-.05-.226v-.574h.243v.54c0 .077.02.137.058.179.038.041.09.062.156.062.067 0 .12-.02.158-.062.038-.042.057-.102.057-.18v-.54h.245ZM45.96 41.42a.57.57 0 0 1-.008.096h-.735a.24.24 0 0 0 .076.166c.045.04.1.06.165.06.095 0 .162-.04.202-.118h.274a.446.446 0 0 1-.167.232.496.496 0 0 1-.303.091.535.535 0 0 1-.26-.062.448.448 0 0 1-.18-.178.533.533 0 0 1-.065-.265c0-.102.022-.19.064-.267a.437.437 0 0 1 .178-.177.544.544 0 0 1 .263-.062.54.54 0 0 1 .257.06c.075.04.134.097.176.17a.506.506 0 0 1 .062.254Zm-.264-.07a.194.194 0 0 0-.07-.153.255.255 0 0 0-.17-.058.234.234 0 0 0-.158.056.243.243 0 0 0-.08.155h.478ZM46.909 41.703l.243-.751h.259l-.356.979h-.296l-.354-.98h.26zM47.691 40.835a.18.18 0 0 1-.121-.042.13.13 0 0 1-.048-.103.13.13 0 0 1 .048-.103.18.18 0 0 1 .121-.042.18.18 0 0 1 .122.042.13.13 0 0 1 .048.103.13.13 0 0 1-.048.103.18.18 0 0 1-.122.042Zm.137.117v.98h-.277v-.98h.277ZM48.432 41.703l.244-.751h.258l-.356.979h-.295l-.354-.98h.26zM50.009 41.42a.57.57 0 0 1-.008.096h-.735a.24.24 0 0 0 .077.166c.044.04.1.06.165.06.094 0 .161-.04.201-.118h.274a.446.446 0 0 1-.167.232.496.496 0 0 1-.303.091.535.535 0 0 1-.26-.062.448.448 0 0 1-.18-.178.533.533 0 0 1-.064-.265c0-.102.02-.19.063-.267a.437.437 0 0 1 .178-.177.544.544 0 0 1 .263-.062.54.54 0 0 1 .257.06c.076.04.134.097.176.17a.506.506 0 0 1 .063.254Zm-.264-.07a.194.194 0 0 0-.07-.153.255.255 0 0 0-.17-.058.234.234 0 0 0-.158.056.243.243 0 0 0-.079.155h.477ZM50.386 41.104a.336.336 0 0 1 .295-.166v.26h-.064c-.076 0-.134.018-.173.054-.038.037-.058.1-.058.191v.488h-.243v-.98h.243v.153ZM51.088 41.104a.336.336 0 0 1 .295-.166v.26h-.064c-.076 0-.134.018-.173.054-.039.037-.058.1-.058.191v.488h-.243v-.98h.243v.153ZM51.484 41.438c0-.099.02-.187.058-.263a.415.415 0 0 1 .381-.239.386.386 0 0 1 .318.155v-.14h.245v.98h-.245v-.143a.364.364 0 0 1-.13.114.39.39 0 0 1-.19.045.404.404 0 0 1-.22-.063.443.443 0 0 1-.159-.18.585.585 0 0 1-.058-.266Zm.757.004a.322.322 0 0 0-.034-.155.247.247 0 0 0-.439-.002.312.312 0 0 0-.036.153c0 .059.012.11.036.155a.26.26 0 0 0 .094.101c.039.024.08.036.124.036a.247.247 0 0 0 .22-.134.322.322 0 0 0 .035-.154ZM53.506 41.947a.5.5 0 0 1-.212-.043.376.376 0 0 1-.148-.118.301.301 0 0 1-.06-.164h.245a.136.136 0 0 0 .054.094.188.188 0 0 0 .12.037c.046 0 .082-.01.108-.029a.086.086 0 0 0 .039-.072c0-.032-.016-.056-.048-.072a.888.888 0 0 0-.152-.052 1.271 1.271 0 0 1-.176-.055.306.306 0 0 1-.118-.086.235.235 0 0 1-.05-.158c0-.054.015-.103.046-.148a.31.31 0 0 1 .132-.106.487.487 0 0 1 .203-.04c.114 0 .206.03.274.088a.326.326 0 0 1 .113.236h-.233a.129.129 0 0 0-.048-.092.175.175 0 0 0-.113-.035.177.177 0 0 0-.102.025.08.08 0 0 0-.036.069c0 .033.017.058.049.075a.746.746 0 0 0 .151.052c.07.018.127.036.172.055a.304.304 0 0 1 .117.087c.033.04.05.092.052.157a.263.263 0 0 1-.046.152.304.304 0 0 1-.132.105.492.492 0 0 1-.201.038ZM55.022 41.42a.57.57 0 0 1-.007.096h-.735a.24.24 0 0 0 .076.166c.045.04.1.06.165.06.094 0 .161-.04.201-.118h.274a.446.446 0 0 1-.167.232.496.496 0 0 1-.303.091.535.535 0 0 1-.26-.062.448.448 0 0 1-.18-.178.533.533 0 0 1-.064-.265c0-.102.021-.19.063-.267a.437.437 0 0 1 .178-.177.544.544 0 0 1 .263-.062.54.54 0 0 1 .257.06c.076.04.135.097.176.17a.506.506 0 0 1 .063.254Zm-.263-.07a.194.194 0 0 0-.071-.153.255.255 0 0 0-.169-.058.234.234 0 0 0-.159.056.243.243 0 0 0-.079.155h.478ZM56.351 40.938c.118 0 .214.036.286.11a.422.422 0 0 1 .109.309v.574h-.244v-.54c0-.077-.019-.136-.057-.177a.204.204 0 0 0-.156-.06.207.207 0 0 0-.157.06c-.04.041-.059.1-.059.176v.541h-.243v-.54c0-.077-.019-.136-.057-.177a.204.204 0 0 0-.156-.06.21.21 0 0 0-.16.06c-.038.041-.058.1-.058.176v.541h-.243v-.98h.243v.12a.325.325 0 0 1 .121-.098.412.412 0 0 1 .364.013c.06.033.105.079.137.139a.383.383 0 0 1 .33-.187ZM57.22 41.093a.387.387 0 0 1 .318-.157.415.415 0 0 1 .381.238.574.574 0 0 1 .058.264c0 .1-.02.189-.058.266a.443.443 0 0 1-.158.18.407.407 0 0 1-.223.063.383.383 0 0 1-.318-.155v.606h-.243v-1.446h.243v.141Zm.509.345a.312.312 0 0 0-.036-.153.249.249 0 0 0-.22-.132.24.24 0 0 0-.124.035.254.254 0 0 0-.094.1.317.317 0 0 0-.035.154c0 .058.012.11.035.153a.254.254 0 0 0 .094.1.24.24 0 0 0 .25 0 .26.26 0 0 0 .094-.101.321.321 0 0 0 .036-.156ZM59.092 41.42a.57.57 0 0 1-.007.096h-.735a.24.24 0 0 0 .076.166c.045.04.1.06.165.06.094 0 .162-.04.201-.118h.274a.446.446 0 0 1-.166.232.496.496 0 0 1-.304.091.535.535 0 0 1-.26-.062.448.448 0 0 1-.18-.178.533.533 0 0 1-.064-.265c0-.102.021-.19.063-.267a.437.437 0 0 1 .178-.177.544.544 0 0 1 .263-.062.54.54 0 0 1 .257.06c.076.04.135.097.176.17a.506.506 0 0 1 .063.254Zm-.263-.07a.194.194 0 0 0-.071-.153.255.255 0 0 0-.169-.058.234.234 0 0 0-.159.056.243.243 0 0 0-.079.155h.478ZM59.47 41.104a.336.336 0 0 1 .295-.166v.26H59.7c-.076 0-.134.018-.172.054-.04.037-.059.1-.059.191v.488h-.243v-.98h.243v.153ZM60.743 41.703l.243-.751h.259l-.356.979h-.295l-.355-.98h.26zM62.32 41.42a.57.57 0 0 1-.008.096h-.735a.24.24 0 0 0 .076.166c.045.04.1.06.166.06.094 0 .161-.04.201-.118h.274a.446.446 0 0 1-.167.232.496.496 0 0 1-.303.091.535.535 0 0 1-.26-.062.448.448 0 0 1-.18-.178.533.533 0 0 1-.065-.265c0-.102.022-.19.064-.267a.437.437 0 0 1 .178-.177.544.544 0 0 1 .263-.062.54.54 0 0 1 .257.06c.075.04.134.097.176.17a.506.506 0 0 1 .062.254Zm-.264-.07a.194.194 0 0 0-.07-.153.255.255 0 0 0-.17-.058.234.234 0 0 0-.158.056.243.243 0 0 0-.079.155h.477ZM62.697 40.623v1.308h-.243v-1.308zM63.08 40.835a.18.18 0 0 1-.121-.042.13.13 0 0 1-.048-.103.13.13 0 0 1 .048-.103.18.18 0 0 1 .121-.042.18.18 0 0 1 .122.042.13.13 0 0 1 .048.103.13.13 0 0 1-.048.103.18.18 0 0 1-.122.042Zm.137.117v.98h-.277v-.98h.277ZM63.703 41.155v.474c0 .033.008.057.023.072.016.014.042.022.08.022h.112v.208h-.153c-.205 0-.307-.101-.307-.304v-.472h-.115v-.203h.115v-.243h.245v.243h.215v.203h-.215ZM64.201 41.944a.149.149 0 0 1-.108-.042.139.139 0 0 1-.043-.103c0-.041.014-.076.043-.104a.149.149 0 0 1 .108-.041c.043 0 .078.014.106.041a.14.14 0 0 1 .042.104.14.14 0 0 1-.042.103.144.144 0 0 1-.106.042ZM66.28 40.697v1.234h-.242v-.802l-.325.802h-.184l-.327-.802v.802h-.243v-1.234h.276l.386.918.386-.918zM66.953 41.947a.509.509 0 0 1-.253-.062.45.45 0 0 1-.176-.178.536.536 0 0 1-.064-.265c0-.1.021-.19.065-.266a.459.459 0 0 1 .18-.177.519.519 0 0 1 .255-.063c.093 0 .178.02.254.063a.459.459 0 0 1 .18.177.525.525 0 0 1 .066.266c0 .1-.023.188-.068.265a.47.47 0 0 1-.182.178.527.527 0 0 1-.257.062Zm0-.215c.044 0 .086-.011.125-.033a.237.237 0 0 0 .094-.098.333.333 0 0 0 .035-.16c0-.093-.024-.164-.073-.214a.238.238 0 0 0-.178-.075.233.233 0 0 0-.176.075c-.048.05-.071.121-.071.215 0 .093.023.164.069.214.046.05.104.076.175.076ZM67.872 41.104a.336.336 0 0 1 .295-.166v.26h-.064c-.077 0-.134.018-.173.054-.039.037-.058.1-.058.191v.488h-.243v-.98h.243v.153ZM68.574 41.095a.35.35 0 0 1 .129-.115.393.393 0 0 1 .188-.044.415.415 0 0 1 .382.238.574.574 0 0 1 .058.264c0 .1-.02.189-.058.266a.443.443 0 0 1-.158.18.407.407 0 0 1-.224.063.393.393 0 0 1-.188-.043.368.368 0 0 1-.13-.112v.14h-.243v-1.31h.244v.473Zm.509.343a.312.312 0 0 0-.036-.153.249.249 0 0 0-.22-.132.24.24 0 0 0-.124.035.254.254 0 0 0-.094.1.317.317 0 0 0-.035.154c0 .058.011.11.035.153a.254.254 0 0 0 .094.1.24.24 0 0 0 .25 0 .26.26 0 0 0 .094-.101.321.321 0 0 0 .036-.156ZM69.652 40.835a.18.18 0 0 1-.122-.042.13.13 0 0 1-.048-.103.13.13 0 0 1 .048-.103.18.18 0 0 1 .122-.042.18.18 0 0 1 .121.042.13.13 0 0 1 .049.103.13.13 0 0 1-.049.103.18.18 0 0 1-.121.042Zm.136.117v.98h-.276v-.98h.276ZM70.938 40.938c.114 0 .207.036.278.11.07.074.106.177.106.309v.574h-.243v-.54c0-.079-.02-.138-.058-.18a.201.201 0 0 0-.156-.063c-.067 0-.12.02-.16.063-.038.042-.057.101-.057.18v.54h-.243v-.98h.243v.123a.337.337 0 0 1 .124-.1.378.378 0 0 1 .166-.036ZM71.985 41.947a.509.509 0 0 1-.253-.062.45.45 0 0 1-.176-.178.536.536 0 0 1-.064-.265c0-.1.022-.19.066-.266a.459.459 0 0 1 .18-.177.519.519 0 0 1 .254-.063c.094 0 .178.02.254.063a.459.459 0 0 1 .18.177.525.525 0 0 1 .066.266c0 .1-.023.188-.068.265a.47.47 0 0 1-.182.178.527.527 0 0 1-.257.062Zm0-.215c.044 0 .086-.011.125-.033a.237.237 0 0 0 .094-.098.333.333 0 0 0 .035-.16c0-.093-.024-.164-.073-.214a.238.238 0 0 0-.178-.075.233.233 0 0 0-.176.075c-.047.05-.07.121-.07.215 0 .093.022.164.068.214.047.05.105.076.175.076ZM73.194 40.938c.115 0 .208.036.278.11.07.074.106.177.106.309v.574h-.243v-.54c0-.079-.02-.138-.057-.18a.201.201 0 0 0-.157-.063c-.067 0-.12.02-.159.063-.038.042-.058.101-.058.18v.54h-.243v-.98h.243v.123a.337.337 0 0 1 .124-.1.378.378 0 0 1 .166-.036ZM34.973 43.454v.474c0 .033.008.057.023.072.016.014.042.022.08.022h.112v.208h-.153c-.205 0-.307-.101-.307-.304v-.472h-.115v-.203h.115v-.243h.245v.243h.215v.203h-.215ZM35.607 43.403a.336.336 0 0 1 .295-.166v.26h-.064c-.077 0-.134.018-.173.054-.039.037-.058.1-.058.191v.488h-.243v-.98h.243v.153ZM36.21 43.134a.18.18 0 0 1-.122-.042.13.13 0 0 1-.049-.103.13.13 0 0 1 .049-.104.18.18 0 0 1 .121-.041.18.18 0 0 1 .122.041.13.13 0 0 1 .048.104.13.13 0 0 1-.048.103.18.18 0 0 1-.122.042Zm.135.117v.98h-.276v-.98h.276ZM36.917 44.246a.5.5 0 0 1-.212-.043.376.376 0 0 1-.149-.118.301.301 0 0 1-.06-.164h.245a.136.136 0 0 0 .055.094.188.188 0 0 0 .119.037c.046 0 .082-.01.108-.029a.086.086 0 0 0 .04-.072c0-.032-.016-.056-.048-.072a.888.888 0 0 0-.152-.052 1.271 1.271 0 0 1-.177-.055.306.306 0 0 1-.118-.086.235.235 0 0 1-.05-.158c0-.054.016-.103.047-.148a.31.31 0 0 1 .132-.106.487.487 0 0 1 .202-.04c.115 0 .206.03.275.088a.326.326 0 0 1 .113.236h-.233a.129.129 0 0 0-.048-.092.175.175 0 0 0-.114-.035.177.177 0 0 0-.101.025.08.08 0 0 0-.036.069c0 .033.016.058.049.075a.746.746 0 0 0 .15.052c.07.018.128.036.173.055a.304.304 0 0 1 .117.087c.033.04.05.092.051.157a.263.263 0 0 1-.046.152.304.304 0 0 1-.132.105.492.492 0 0 1-.2.038ZM37.778 43.454v.474c0 .033.008.057.024.072.015.014.042.022.079.022h.113v.208h-.153c-.205 0-.308-.101-.308-.304v-.472h-.114v-.203h.114v-.243h.245v.243h.216v.203h-.216ZM38.313 43.134a.18.18 0 0 1-.122-.042.13.13 0 0 1-.048-.103.13.13 0 0 1 .048-.104.18.18 0 0 1 .122-.041.18.18 0 0 1 .121.041.13.13 0 0 1 .049.104.13.13 0 0 1-.049.103.18.18 0 0 1-.121.042Zm.136.117v.98h-.276v-.98h.276ZM38.59 43.739c0-.098.02-.185.06-.261a.451.451 0 0 1 .162-.178.42.42 0 0 1 .226-.063c.068 0 .128.013.181.04.053.026.095.06.128.101v-.127h.245v1.446h-.245v-.601a.393.393 0 0 1-.314.149.408.408 0 0 1-.224-.065.452.452 0 0 1-.16-.18.564.564 0 0 1-.06-.261Zm.757.002a.315.315 0 0 0-.037-.156.244.244 0 0 0-.436 0 .31.31 0 0 0-.036.154c0 .06.012.112.036.156a.252.252 0 0 0 .095.1.241.241 0 0 0 .247 0 .254.254 0 0 0 .094-.099.315.315 0 0 0 .037-.155ZM40.738 43.25v.98h-.245v-.123a.322.322 0 0 1-.122.1.375.375 0 0 1-.164.036.402.402 0 0 1-.2-.049.34.34 0 0 1-.136-.143.48.48 0 0 1-.05-.226v-.574h.243v.539c0 .078.02.138.058.18.038.041.09.062.156.062.067 0 .12-.02.158-.062.038-.042.057-.102.057-.18v-.54h.245ZM41.915 43.72a.57.57 0 0 1-.007.095h-.735a.24.24 0 0 0 .076.166c.045.04.1.06.166.06.094 0 .161-.04.201-.118h.274a.446.446 0 0 1-.167.232.496.496 0 0 1-.303.091.535.535 0 0 1-.26-.062.448.448 0 0 1-.18-.178.533.533 0 0 1-.065-.265c0-.102.022-.19.064-.268a.437.437 0 0 1 .178-.176.544.544 0 0 1 .263-.062.54.54 0 0 1 .257.06c.075.04.134.097.176.17a.506.506 0 0 1 .062.254Zm-.263-.071a.194.194 0 0 0-.07-.153.255.255 0 0 0-.17-.058.234.234 0 0 0-.158.056.243.243 0 0 0-.08.155h.478ZM42.4 43.737c0-.1.02-.187.059-.264a.415.415 0 0 1 .381-.239.386.386 0 0 1 .318.156v-.14h.245v.98h-.245v-.143a.364.364 0 0 1-.13.114.39.39 0 0 1-.19.045.404.404 0 0 1-.221-.063.443.443 0 0 1-.158-.18.585.585 0 0 1-.058-.266Zm.758.004a.322.322 0 0 0-.035-.155.247.247 0 0 0-.438-.002.312.312 0 0 0-.036.153c0 .059.012.11.036.155a.26.26 0 0 0 .093.101c.04.024.08.036.125.036a.247.247 0 0 0 .22-.134.322.322 0 0 0 .035-.154ZM44.174 43.237c.115 0 .208.036.278.11.07.074.106.177.106.309v.574h-.243v-.54c0-.079-.02-.138-.057-.18a.201.201 0 0 0-.157-.063c-.067 0-.12.02-.159.063-.038.042-.058.101-.058.18v.54h-.243v-.98h.243v.123a.337.337 0 0 1 .124-.1.378.378 0 0 1 .166-.036ZM45.072 43.454v.474c0 .033.008.057.024.072.015.014.042.022.079.022h.113v.208h-.153c-.205 0-.308-.101-.308-.304v-.472h-.114v-.203h.114v-.243h.245v.243h.216v.203h-.216ZM46.4 43.72a.57.57 0 0 1-.007.095h-.735a.24.24 0 0 0 .077.166c.044.04.1.06.165.06.094 0 .161-.04.201-.118h.274a.446.446 0 0 1-.167.232.496.496 0 0 1-.303.091.535.535 0 0 1-.26-.062.448.448 0 0 1-.18-.178.533.533 0 0 1-.064-.265c0-.102.02-.19.063-.268a.437.437 0 0 1 .178-.176.544.544 0 0 1 .263-.062.54.54 0 0 1 .257.06c.076.04.134.097.176.17a.506.506 0 0 1 .063.254Zm-.263-.071a.194.194 0 0 0-.07-.153.255.255 0 0 0-.17-.058.234.234 0 0 0-.158.056.243.243 0 0 0-.079.155h.477ZM46.643 44.243a.149.149 0 0 1-.109-.042.139.139 0 0 1-.042-.103c0-.042.014-.076.042-.104a.149.149 0 0 1 .109-.041c.042 0 .078.014.106.041a.14.14 0 0 1 .041.104.14.14 0 0 1-.041.103.144.144 0 0 1-.106.042ZM47.819 44.243a.567.567 0 0 1-.229-.044.376.376 0 0 1-.16-.128.34.34 0 0 1-.061-.196h.26c.004.05.021.09.053.12s.076.044.131.044a.2.2 0 0 0 .134-.041.136.136 0 0 0 .049-.109.127.127 0 0 0-.033-.09.231.231 0 0 0-.083-.056 1.348 1.348 0 0 0-.136-.045 1.444 1.444 0 0 1-.192-.07.301.301 0 0 1-.18-.29c0-.074.018-.137.054-.192a.344.344 0 0 1 .151-.124.541.541 0 0 1 .223-.044c.125 0 .226.031.304.093a.346.346 0 0 1 .13.26h-.268a.142.142 0 0 0-.053-.106.197.197 0 0 0-.13-.042.167.167 0 0 0-.115.038c-.028.024-.042.06-.042.107 0 .033.01.06.032.083.021.022.048.04.08.053.032.013.077.029.135.047.078.023.143.047.192.07.05.024.093.06.129.106.036.048.054.11.054.186a.354.354 0 0 1-.198.32.496.496 0 0 1-.231.05ZM49.366 43.25v.98h-.245v-.123a.322.322 0 0 1-.122.1.375.375 0 0 1-.164.036.402.402 0 0 1-.2-.049.34.34 0 0 1-.136-.143.48.48 0 0 1-.05-.226v-.574h.243v.539c0 .078.02.138.058.18.038.041.09.062.156.062.067 0 .12-.02.158-.062.038-.042.057-.102.057-.18v-.54h.245ZM49.974 44.246a.5.5 0 0 1-.212-.043.376.376 0 0 1-.148-.118.301.301 0 0 1-.06-.164h.245a.136.136 0 0 0 .055.094.188.188 0 0 0 .119.037c.046 0 .082-.01.108-.029a.086.086 0 0 0 .04-.072c0-.032-.017-.056-.048-.072a.888.888 0 0 0-.152-.052 1.271 1.271 0 0 1-.177-.055.306.306 0 0 1-.118-.086.235.235 0 0 1-.05-.158c0-.054.016-.103.047-.148a.31.31 0 0 1 .132-.106.487.487 0 0 1 .202-.04c.115 0 .206.03.275.088a.326.326 0 0 1 .112.236h-.232a.129.129 0 0 0-.048-.092.175.175 0 0 0-.114-.035.177.177 0 0 0-.102.025.08.08 0 0 0-.035.069c0 .033.016.058.049.075a.746.746 0 0 0 .15.052c.07.018.127.036.173.055a.304.304 0 0 1 .117.087c.033.04.05.092.051.157a.263.263 0 0 1-.046.152.304.304 0 0 1-.132.105.492.492 0 0 1-.2.038ZM50.796 43.392a.387.387 0 0 1 .318-.157.415.415 0 0 1 .381.238.574.574 0 0 1 .058.264c0 .1-.019.189-.058.266a.443.443 0 0 1-.158.18.407.407 0 0 1-.223.063.383.383 0 0 1-.318-.155v.606h-.243v-1.446h.243v.141Zm.509.345a.312.312 0 0 0-.036-.153.249.249 0 0 0-.22-.132.24.24 0 0 0-.124.035.254.254 0 0 0-.093.1.317.317 0 0 0-.036.154c0 .058.012.11.036.153a.254.254 0 0 0 .093.1.24.24 0 0 0 .25 0 .26.26 0 0 0 .094-.101.321.321 0 0 0 .036-.156ZM52.668 43.72a.57.57 0 0 1-.007.095h-.735a.24.24 0 0 0 .076.166c.045.04.1.06.165.06.095 0 .162-.04.202-.118h.274a.446.446 0 0 1-.167.232.496.496 0 0 1-.303.091.535.535 0 0 1-.26-.062.448.448 0 0 1-.18-.178.533.533 0 0 1-.065-.265c0-.102.021-.19.064-.268a.437.437 0 0 1 .177-.176.544.544 0 0 1 .264-.062.54.54 0 0 1 .256.06c.076.04.135.097.176.17a.506.506 0 0 1 .063.254Zm-.263-.071a.194.194 0 0 0-.07-.153.255.255 0 0 0-.17-.058.234.234 0 0 0-.158.056.243.243 0 0 0-.08.155h.478ZM53.336 43.237c.114 0 .207.036.278.11.07.074.106.177.106.309v.574h-.244v-.54c0-.079-.019-.138-.057-.18a.201.201 0 0 0-.156-.063c-.067 0-.12.02-.16.063-.038.042-.057.101-.057.18v.54h-.244v-.98h.244v.123a.337.337 0 0 1 .124-.1.378.378 0 0 1 .166-.036ZM53.888 43.737c0-.1.02-.187.058-.264a.42.42 0 0 1 .562-.197.359.359 0 0 1 .136.11v-.464h.246v1.308h-.246v-.145a.332.332 0 0 1-.127.117.391.391 0 0 1-.19.044.408.408 0 0 1-.222-.063.44.44 0 0 1-.159-.18.585.585 0 0 1-.058-.266Zm.757.004a.322.322 0 0 0-.034-.155.247.247 0 0 0-.439-.002.312.312 0 0 0-.035.153c0 .059.011.11.035.155a.26.26 0 0 0 .094.101c.039.024.08.036.124.036a.247.247 0 0 0 .22-.134.322.322 0 0 0 .035-.154ZM55.272 43.134a.18.18 0 0 1-.121-.042.13.13 0 0 1-.049-.103.13.13 0 0 1 .049-.104.18.18 0 0 1 .121-.041.18.18 0 0 1 .122.041.13.13 0 0 1 .048.104.13.13 0 0 1-.048.103.18.18 0 0 1-.122.042Zm.136.117v.98h-.276v-.98h.276ZM55.98 44.246a.5.5 0 0 1-.212-.043.376.376 0 0 1-.149-.118.301.301 0 0 1-.06-.164h.245a.136.136 0 0 0 .055.094.188.188 0 0 0 .119.037c.046 0 .082-.01.108-.029a.086.086 0 0 0 .04-.072c0-.032-.016-.056-.048-.072a.888.888 0 0 0-.152-.052 1.271 1.271 0 0 1-.177-.055.306.306 0 0 1-.118-.086.235.235 0 0 1-.05-.158c0-.054.016-.103.047-.148a.31.31 0 0 1 .132-.106.487.487 0 0 1 .202-.04c.115 0 .206.03.275.088a.326.326 0 0 1 .113.236h-.233a.129.129 0 0 0-.048-.092.175.175 0 0 0-.114-.035.177.177 0 0 0-.101.025.08.08 0 0 0-.036.069c0 .033.016.058.049.075a.746.746 0 0 0 .15.052c.07.018.128.036.173.055a.304.304 0 0 1 .117.087c.033.04.05.092.051.157a.263.263 0 0 1-.046.152.304.304 0 0 1-.132.105.492.492 0 0 1-.2.038ZM56.926 44.246a.5.5 0 0 1-.212-.043.376.376 0 0 1-.148-.118.301.301 0 0 1-.06-.164h.245a.136.136 0 0 0 .055.094.188.188 0 0 0 .119.037c.046 0 .082-.01.108-.029a.086.086 0 0 0 .04-.072c0-.032-.017-.056-.049-.072a.888.888 0 0 0-.152-.052 1.271 1.271 0 0 1-.176-.055.306.306 0 0 1-.118-.086.235.235 0 0 1-.05-.158c0-.054.016-.103.047-.148a.31.31 0 0 1 .132-.106.487.487 0 0 1 .202-.04c.115 0 .206.03.274.088a.326.326 0 0 1 .113.236h-.232a.129.129 0 0 0-.048-.092.175.175 0 0 0-.114-.035.177.177 0 0 0-.102.025.08.08 0 0 0-.035.069c0 .033.016.058.048.075a.746.746 0 0 0 .152.052c.069.018.126.036.172.055a.304.304 0 0 1 .117.087c.033.04.05.092.051.157a.263.263 0 0 1-.046.152.304.304 0 0 1-.132.105.492.492 0 0 1-.2.038ZM58.442 43.72a.57.57 0 0 1-.007.095H57.7a.24.24 0 0 0 .076.166c.045.04.1.06.165.06.095 0 .162-.04.202-.118h.274a.446.446 0 0 1-.167.232.496.496 0 0 1-.303.091.535.535 0 0 1-.26-.062.448.448 0 0 1-.18-.178.533.533 0 0 1-.065-.265c0-.102.021-.19.064-.268a.437.437 0 0 1 .178-.176.544.544 0 0 1 .263-.062.54.54 0 0 1 .257.06c.075.04.134.097.176.17a.506.506 0 0 1 .062.254Zm-.263-.071a.194.194 0 0 0-.07-.153.255.255 0 0 0-.17-.058.234.234 0 0 0-.158.056.243.243 0 0 0-.08.155h.478ZM59.523 43.237c.115 0 .208.036.278.11.07.074.106.177.106.309v.574h-.243v-.54c0-.079-.02-.138-.057-.18a.201.201 0 0 0-.157-.063c-.067 0-.12.02-.159.063-.038.042-.058.101-.058.18v.54h-.243v-.98h.243v.123a.337.337 0 0 1 .124-.1.378.378 0 0 1 .166-.036ZM60.57 44.246a.509.509 0 0 1-.252-.062.45.45 0 0 1-.177-.178.536.536 0 0 1-.064-.265c0-.1.022-.19.066-.266a.459.459 0 0 1 .18-.177.519.519 0 0 1 .254-.063c.094 0 .179.02.255.063a.459.459 0 0 1 .18.177.525.525 0 0 1 .065.266c0 .1-.022.188-.067.265a.47.47 0 0 1-.183.178.527.527 0 0 1-.257.062Zm0-.215c.045 0 .087-.011.126-.033a.237.237 0 0 0 .094-.098.333.333 0 0 0 .035-.16c0-.093-.024-.164-.073-.214a.238.238 0 0 0-.178-.076.233.233 0 0 0-.176.076c-.048.05-.071.121-.071.215 0 .093.023.164.069.214.046.05.104.076.174.076ZM61.78 43.237c.114 0 .207.036.278.11.07.074.106.177.106.309v.574h-.244v-.54c0-.079-.019-.138-.057-.18a.201.201 0 0 0-.156-.063c-.067 0-.12.02-.16.063-.038.042-.057.101-.057.18v.54h-.244v-.98h.244v.123a.337.337 0 0 1 .124-.1.378.378 0 0 1 .166-.036ZM63.717 43.25v.98h-.245v-.123a.322.322 0 0 1-.123.1.375.375 0 0 1-.164.036.402.402 0 0 1-.2-.049.34.34 0 0 1-.136-.143.48.48 0 0 1-.05-.226v-.574h.244v.539c0 .078.019.138.057.18.038.041.09.062.156.062.067 0 .12-.02.158-.062.039-.042.058-.102.058-.18v-.54h.245ZM64.2 43.403a.336.336 0 0 1 .295-.166v.26h-.064c-.077 0-.134.018-.173.054-.039.037-.058.1-.058.191v.488h-.244v-.98h.244v.153ZM65.191 43.237c.115 0 .208.036.278.11.071.074.106.177.106.309v.574h-.243v-.54c0-.079-.019-.138-.057-.18a.201.201 0 0 0-.157-.063c-.067 0-.12.02-.158.063-.04.042-.059.101-.059.18v.54h-.243v-.98h.243v.123a.337.337 0 0 1 .125-.1.378.378 0 0 1 .165-.036ZM65.744 43.737c0-.1.02-.187.058-.264a.415.415 0 0 1 .381-.239.386.386 0 0 1 .318.156v-.14h.245v.98h-.245v-.143a.364.364 0 0 1-.13.114.39.39 0 0 1-.19.045.404.404 0 0 1-.22-.063.443.443 0 0 1-.159-.18.585.585 0 0 1-.058-.266Zm.757.004a.322.322 0 0 0-.035-.155.247.247 0 0 0-.438-.002.312.312 0 0 0-.036.153c0 .059.012.11.036.155a.26.26 0 0 0 .094.101c.038.024.08.036.124.036a.247.247 0 0 0 .22-.134.322.322 0 0 0 .035-.154ZM67.335 43.737c0-.1.02-.187.058-.264a.415.415 0 0 1 .381-.239.386.386 0 0 1 .318.156v-.14h.245v.98h-.245v-.143a.364.364 0 0 1-.129.114.39.39 0 0 1-.19.045.404.404 0 0 1-.222-.063.443.443 0 0 1-.158-.18.585.585 0 0 1-.058-.266Zm.757.004a.322.322 0 0 0-.034-.155.247.247 0 0 0-.439-.002.312.312 0 0 0-.036.153c0 .059.012.11.036.155a.26.26 0 0 0 .094.101c.039.024.08.036.124.036a.247.247 0 0 0 .22-.134.322.322 0 0 0 .035-.154ZM68.513 43.74c0-.1.02-.19.06-.266a.439.439 0 0 1 .17-.176.48.48 0 0 1 .246-.063c.119 0 .218.03.296.09.078.062.13.147.157.256h-.262a.195.195 0 0 0-.07-.1.202.202 0 0 0-.123-.036.2.2 0 0 0-.165.077.345.345 0 0 0-.06.219c0 .093.02.165.06.216a.2.2 0 0 0 .165.077c.098 0 .163-.045.193-.134h.262a.453.453 0 0 1-.158.253.46.46 0 0 1-.295.093.48.48 0 0 1-.247-.062.439.439 0 0 1-.168-.177.558.558 0 0 1-.061-.266ZM70.467 44.246a.509.509 0 0 1-.253-.062.45.45 0 0 1-.176-.178.536.536 0 0 1-.064-.265c0-.1.022-.19.065-.266a.459.459 0 0 1 .18-.177.519.519 0 0 1 .255-.063c.093 0 .178.02.254.063a.459.459 0 0 1 .18.177.525.525 0 0 1 .066.266c0 .1-.023.188-.068.265a.47.47 0 0 1-.182.178.527.527 0 0 1-.257.062Zm0-.215c.044 0 .086-.011.125-.033a.237.237 0 0 0 .094-.098.333.333 0 0 0 .035-.16c0-.093-.024-.164-.073-.214a.238.238 0 0 0-.178-.076.233.233 0 0 0-.176.076c-.047.05-.071.121-.071.215 0 .093.023.164.07.214.045.05.104.076.174.076ZM71.386 43.403a.336.336 0 0 1 .295-.166v.26h-.064c-.076 0-.134.018-.173.054-.039.037-.058.1-.058.191v.488h-.243v-.98h.243v.153ZM71.782 43.74c0-.1.02-.19.06-.266a.439.439 0 0 1 .17-.176.48.48 0 0 1 .246-.063c.12 0 .218.03.296.09.078.062.13.147.157.256h-.262a.195.195 0 0 0-.07-.1.202.202 0 0 0-.123-.036.2.2 0 0 0-.165.077.345.345 0 0 0-.06.219c0 .093.02.165.06.216a.2.2 0 0 0 .165.077c.099 0 .163-.045.193-.134h.262a.453.453 0 0 1-.158.253.46.46 0 0 1-.295.093.48.48 0 0 1-.247-.062.439.439 0 0 1-.168-.177.558.558 0 0 1-.061-.266ZM73.034 43.134a.18.18 0 0 1-.121-.042.13.13 0 0 1-.049-.103.13.13 0 0 1 .049-.104.18.18 0 0 1 .121-.041.18.18 0 0 1 .121.041.13.13 0 0 1 .049.104.13.13 0 0 1-.049.103.18.18 0 0 1-.121.042Zm.136.117v.98h-.276v-.98h.276ZM34.627 46.036c0-.1.02-.187.058-.264a.415.415 0 0 1 .381-.239.386.386 0 0 1 .318.156v-.14h.245v.98h-.245v-.143a.364.364 0 0 1-.129.114.39.39 0 0 1-.19.045.404.404 0 0 1-.222-.063.443.443 0 0 1-.158-.18.585.585 0 0 1-.058-.266Zm.757.003a.322.322 0 0 0-.034-.154.247.247 0 0 0-.439-.002.312.312 0 0 0-.035.153c0 .059.011.11.035.155a.26.26 0 0 0 .094.101c.039.024.08.036.124.036a.247.247 0 0 0 .22-.134.322.322 0 0 0 .035-.155ZM36.776 45.55v.98h-.245v-.124a.322.322 0 0 1-.123.1.375.375 0 0 1-.164.036.402.402 0 0 1-.2-.049.34.34 0 0 1-.136-.143.48.48 0 0 1-.05-.226v-.574h.244v.539c0 .078.019.138.057.18.038.041.09.062.157.062s.12-.02.158-.063c.038-.041.057-.101.057-.179v-.54h.245ZM36.953 46.04c0-.102.02-.19.06-.267a.439.439 0 0 1 .17-.177.48.48 0 0 1 .246-.062c.12 0 .218.03.296.09.078.061.13.147.157.256h-.262a.195.195 0 0 0-.07-.1.202.202 0 0 0-.123-.036.2.2 0 0 0-.165.077.345.345 0 0 0-.06.218c0 .094.02.166.06.217a.2.2 0 0 0 .165.077c.099 0 .163-.045.193-.134h.262a.453.453 0 0 1-.158.253.46.46 0 0 1-.295.093.48.48 0 0 1-.247-.063.439.439 0 0 1-.168-.176.558.558 0 0 1-.06-.267ZM38.344 45.753v.474c0 .033.008.057.024.072.016.014.042.022.079.022h.113v.208h-.153c-.205 0-.307-.101-.307-.304v-.472h-.115v-.203h.115v-.243h.244v.243h.216v.203h-.216ZM39.168 46.545a.509.509 0 0 1-.253-.063.45.45 0 0 1-.176-.177.536.536 0 0 1-.064-.266c0-.1.021-.188.065-.265a.459.459 0 0 1 .18-.178.519.519 0 0 1 .255-.062c.093 0 .178.02.254.062a.459.459 0 0 1 .18.178.525.525 0 0 1 .066.265c0 .1-.023.19-.068.266a.47.47 0 0 1-.182.177.527.527 0 0 1-.257.063Zm0-.215c.044 0 .086-.011.125-.033a.237.237 0 0 0 .094-.098.333.333 0 0 0 .035-.16c0-.093-.024-.164-.073-.214a.238.238 0 0 0-.178-.076.233.233 0 0 0-.176.076c-.048.05-.071.121-.071.214 0 .094.023.165.069.215.046.05.104.076.175.076ZM40.087 45.702a.336.336 0 0 1 .295-.166v.26h-.064c-.077 0-.134.018-.173.054-.039.037-.058.1-.058.191v.488h-.243v-.98h.243v.153ZM41.103 45.433a.18.18 0 0 1-.122-.042.13.13 0 0 1-.048-.103.13.13 0 0 1 .048-.104.18.18 0 0 1 .122-.041.18.18 0 0 1 .12.041.13.13 0 0 1 .05.104.13.13 0 0 1-.05.103.18.18 0 0 1-.12.042Zm.136.117v.98h-.277v-.98h.277ZM41.975 45.535c.115 0 .207.037.278.111.07.074.106.177.106.309v.574h-.243v-.54c0-.079-.02-.138-.058-.18a.201.201 0 0 0-.156-.063c-.067 0-.12.02-.159.063-.039.042-.058.101-.058.18v.54h-.243v-.98h.243v.123a.337.337 0 0 1 .124-.1.378.378 0 0 1 .166-.037ZM42.873 45.753v.474c0 .033.008.057.024.072.015.014.042.022.079.022h.113v.208h-.153c-.205 0-.308-.101-.308-.304v-.472h-.114v-.203h.114v-.243h.245v.243h.216v.203h-.216ZM44.201 46.018a.57.57 0 0 1-.007.096h-.735a.24.24 0 0 0 .076.166c.045.04.1.06.166.06.094 0 .161-.04.201-.118h.274a.446.446 0 0 1-.167.232.496.496 0 0 1-.303.091.535.535 0 0 1-.26-.063.448.448 0 0 1-.18-.177.533.533 0 0 1-.065-.266c0-.1.022-.19.064-.267a.437.437 0 0 1 .178-.176.544.544 0 0 1 .263-.062.54.54 0 0 1 .257.06c.075.04.134.097.176.17a.506.506 0 0 1 .062.254Zm-.263-.07a.194.194 0 0 0-.07-.153.255.255 0 0 0-.17-.058.234.234 0 0 0-.158.056.243.243 0 0 0-.079.155h.477ZM44.579 45.702a.336.336 0 0 1 .295-.166v.26h-.064c-.076 0-.134.018-.173.054-.039.037-.058.1-.058.191v.488h-.243v-.98h.243v.153ZM44.975 46.036c0-.1.02-.187.058-.264a.42.42 0 0 1 .562-.197.359.359 0 0 1 .136.11v-.464h.246v1.308h-.246v-.145a.332.332 0 0 1-.127.117.391.391 0 0 1-.19.044.408.408 0 0 1-.222-.063.44.44 0 0 1-.159-.18.585.585 0 0 1-.058-.266Zm.757.003a.322.322 0 0 0-.034-.154.247.247 0 0 0-.439-.002.312.312 0 0 0-.036.153c0 .059.012.11.036.155a.26.26 0 0 0 .094.101c.039.024.08.036.124.036a.247.247 0 0 0 .22-.134.322.322 0 0 0 .035-.155ZM47.124 45.55v.98h-.245v-.124a.322.322 0 0 1-.123.1.375.375 0 0 1-.164.036.402.402 0 0 1-.2-.049.34.34 0 0 1-.136-.143.48.48 0 0 1-.05-.226v-.574h.244v.539c0 .078.019.138.057.18.038.041.09.062.156.062.068 0 .12-.02.159-.063.038-.041.057-.101.057-.179v-.54h.245ZM48.559 45.535c.118 0 .213.037.285.111a.422.422 0 0 1 .109.309v.574h-.243v-.54c0-.077-.02-.136-.058-.177a.204.204 0 0 0-.156-.06.207.207 0 0 0-.157.06c-.039.04-.058.1-.058.176v.541h-.243v-.54c0-.077-.02-.136-.058-.177a.204.204 0 0 0-.156-.06.21.21 0 0 0-.16.06c-.038.04-.057.1-.057.176v.541h-.243v-.98h.243v.12a.325.325 0 0 1 .12-.098.412.412 0 0 1 .364.013c.06.033.105.079.138.139a.383.383 0 0 1 .33-.187ZM50.506 45.55v.98h-.245v-.124a.322.322 0 0 1-.122.1.375.375 0 0 1-.165.036.402.402 0 0 1-.2-.049.34.34 0 0 1-.136-.143.48.48 0 0 1-.05-.226v-.574h.244v.539c0 .078.02.138.057.18.039.041.09.062.157.062s.12-.02.158-.063c.038-.041.057-.101.057-.179v-.54h.245ZM51.029 45.753v.474c0 .033.008.057.023.072.016.014.042.022.08.022h.112v.208h-.153c-.205 0-.307-.101-.307-.304v-.472h-.115v-.203h.115v-.243h.245v.243h.215v.203h-.215ZM52.235 46.3l.243-.75h.259l-.356.979h-.296l-.354-.98h.26zM53.811 46.018a.57.57 0 0 1-.007.096h-.735a.24.24 0 0 0 .076.166c.045.04.1.06.165.06.095 0 .162-.04.202-.118h.274a.446.446 0 0 1-.167.232.496.496 0 0 1-.303.091.535.535 0 0 1-.26-.063.448.448 0 0 1-.18-.177.533.533 0 0 1-.065-.266c0-.1.021-.19.064-.267a.437.437 0 0 1 .177-.176.544.544 0 0 1 .264-.062.54.54 0 0 1 .256.06c.076.04.135.097.176.17a.506.506 0 0 1 .063.254Zm-.263-.07a.194.194 0 0 0-.07-.153.255.255 0 0 0-.17-.058.234.234 0 0 0-.158.056.243.243 0 0 0-.08.155h.478ZM54.189 45.22v1.309h-.243V45.22zM55.085 45.22v1.309h-.243V45.22zM55.468 45.433a.18.18 0 0 1-.121-.042.13.13 0 0 1-.048-.103.13.13 0 0 1 .048-.104.18.18 0 0 1 .121-.041.18.18 0 0 1 .122.041.13.13 0 0 1 .048.104.13.13 0 0 1-.048.103.18.18 0 0 1-.122.042Zm.137.117v.98h-.277v-.98h.277ZM56.05 45.693a.35.35 0 0 1 .13-.115.393.393 0 0 1 .189-.044.415.415 0 0 1 .381.238.574.574 0 0 1 .058.264c0 .1-.02.189-.058.266a.443.443 0 0 1-.158.18.407.407 0 0 1-.223.063.393.393 0 0 1-.189-.043.368.368 0 0 1-.13-.112v.14h-.242v-1.31h.243v.473Zm.51.343a.312.312 0 0 0-.036-.153.249.249 0 0 0-.22-.132.24.24 0 0 0-.124.035.254.254 0 0 0-.094.1.317.317 0 0 0-.035.153c0 .06.012.11.035.154a.254.254 0 0 0 .094.1.24.24 0 0 0 .25 0 .26.26 0 0 0 .094-.101.321.321 0 0 0 .036-.156ZM57.923 46.018a.57.57 0 0 1-.007.096h-.735a.24.24 0 0 0 .076.166c.045.04.1.06.165.06.094 0 .161-.04.201-.118h.274a.446.446 0 0 1-.167.232.496.496 0 0 1-.303.091.535.535 0 0 1-.26-.063.448.448 0 0 1-.18-.177.533.533 0 0 1-.064-.266c0-.1.021-.19.063-.267a.437.437 0 0 1 .178-.176.544.544 0 0 1 .263-.062.54.54 0 0 1 .257.06c.076.04.134.097.176.17a.506.506 0 0 1 .063.254Zm-.263-.07a.194.194 0 0 0-.071-.153.255.255 0 0 0-.169-.058.234.234 0 0 0-.159.056.243.243 0 0 0-.079.155h.478ZM58.3 45.702a.336.336 0 0 1 .295-.166v.26h-.064c-.076 0-.134.018-.172.054-.04.037-.059.1-.059.191v.488h-.243v-.98h.243v.153ZM59.191 46.545a.509.509 0 0 1-.252-.063.45.45 0 0 1-.177-.177.536.536 0 0 1-.064-.266c0-.1.022-.188.066-.265a.459.459 0 0 1 .18-.178.519.519 0 0 1 .254-.062c.094 0 .179.02.255.062a.459.459 0 0 1 .18.178.525.525 0 0 1 .065.265c0 .1-.022.19-.067.266a.47.47 0 0 1-.183.177.527.527 0 0 1-.257.063Zm0-.215c.045 0 .086-.011.126-.033a.237.237 0 0 0 .093-.098.333.333 0 0 0 .036-.16c0-.093-.025-.164-.073-.214a.238.238 0 0 0-.178-.076.233.233 0 0 0-.177.076c-.047.05-.07.121-.07.214 0 .094.022.165.069.215.046.05.104.076.174.076ZM59.975 46.542a.149.149 0 0 1-.109-.042.139.139 0 0 1-.042-.103c0-.042.014-.076.042-.104a.149.149 0 0 1 .109-.041c.043 0 .078.014.106.041a.14.14 0 0 1 .042.104.14.14 0 0 1-.042.103.144.144 0 0 1-.106.042ZM61.77 46.529h-.243l-.551-.847v.847h-.243v-1.236h.243l.55.849v-.85h.244zM62.918 45.55v.98h-.245v-.124a.322.322 0 0 1-.123.1.375.375 0 0 1-.164.036.402.402 0 0 1-.2-.049.34.34 0 0 1-.136-.143.48.48 0 0 1-.05-.226v-.574h.244v.539c0 .078.019.138.057.18.038.041.09.062.156.062.067 0 .12-.02.158-.063.039-.041.058-.101.058-.179v-.54h.245ZM63.4 45.22v1.309h-.242V45.22zM63.884 45.22v1.309h-.243V45.22zM64.06 46.036c0-.1.02-.187.059-.264a.415.415 0 0 1 .381-.239.386.386 0 0 1 .318.156v-.14h.245v.98h-.245v-.143a.364.364 0 0 1-.13.114.39.39 0 0 1-.19.045.404.404 0 0 1-.221-.063.443.443 0 0 1-.158-.18.585.585 0 0 1-.058-.266Zm.758.003a.322.322 0 0 0-.035-.154.247.247 0 0 0-.438-.002.312.312 0 0 0-.036.153c0 .059.012.11.036.155a.26.26 0 0 0 .093.101c.04.024.08.036.125.036a.247.247 0 0 0 .22-.134.322.322 0 0 0 .035-.155ZM66.496 45.535c.118 0 .213.037.286.111a.422.422 0 0 1 .108.309v.574h-.243v-.54c0-.077-.019-.136-.057-.177a.204.204 0 0 0-.157-.06.207.207 0 0 0-.157.06c-.039.04-.058.1-.058.176v.541h-.243v-.54c0-.077-.02-.136-.057-.177a.204.204 0 0 0-.157-.06.21.21 0 0 0-.159.06c-.039.04-.058.1-.058.176v.541h-.243v-.98h.243v.12a.325.325 0 0 1 .12-.098.412.412 0 0 1 .364.013c.06.033.106.079.138.139a.383.383 0 0 1 .33-.187ZM67.472 46.036c0-.1.02-.187.058-.264a.415.415 0 0 1 .381-.239.386.386 0 0 1 .319.156v-.14h.245v.98h-.245v-.143a.364.364 0 0 1-.13.114.39.39 0 0 1-.19.045.404.404 0 0 1-.221-.063.443.443 0 0 1-.159-.18.585.585 0 0 1-.058-.266Zm.758.003a.322.322 0 0 0-.035-.154.247.247 0 0 0-.439-.002.312.312 0 0 0-.035.153c0 .059.012.11.035.155a.26.26 0 0 0 .094.101c.039.024.08.036.124.036a.247.247 0 0 0 .22-.134.322.322 0 0 0 .036-.155ZM68.65 46.04c0-.102.02-.19.06-.267a.439.439 0 0 1 .17-.177.48.48 0 0 1 .246-.062c.12 0 .218.03.296.09.078.061.13.147.157.256h-.262a.195.195 0 0 0-.07-.1.202.202 0 0 0-.123-.036.2.2 0 0 0-.165.077.345.345 0 0 0-.06.218c0 .094.02.166.06.217a.2.2 0 0 0 .165.077c.099 0 .163-.045.193-.134h.262a.453.453 0 0 1-.158.253.46.46 0 0 1-.295.093.48.48 0 0 1-.247-.063.439.439 0 0 1-.168-.176.558.558 0 0 1-.061-.267ZM69.696 46.04c0-.102.02-.19.06-.267a.439.439 0 0 1 .17-.177.48.48 0 0 1 .246-.062c.119 0 .218.03.296.09.078.061.13.147.157.256h-.262a.195.195 0 0 0-.07-.1.202.202 0 0 0-.123-.036.2.2 0 0 0-.165.077.345.345 0 0 0-.06.218c0 .094.02.166.06.217a.2.2 0 0 0 .165.077c.098 0 .163-.045.193-.134h.262a.453.453 0 0 1-.158.253.46.46 0 0 1-.295.093.48.48 0 0 1-.247-.063.439.439 0 0 1-.168-.176.558.558 0 0 1-.061-.267ZM71.713 45.55v.98h-.245v-.124a.322.322 0 0 1-.123.1.375.375 0 0 1-.164.036.402.402 0 0 1-.2-.049.34.34 0 0 1-.136-.143.48.48 0 0 1-.05-.226v-.574h.244v.539c0 .078.019.138.057.18.038.041.09.062.156.062.067 0 .12-.02.158-.063.039-.041.058-.101.058-.179v-.54h.245ZM73.147 45.535c.119 0 .214.037.286.111a.422.422 0 0 1 .109.309v.574h-.243v-.54c0-.077-.02-.136-.058-.177a.204.204 0 0 0-.156-.06.207.207 0 0 0-.157.06c-.04.04-.059.1-.059.176v.541h-.243v-.54c0-.077-.019-.136-.057-.177a.204.204 0 0 0-.156-.06.21.21 0 0 0-.16.06c-.038.04-.058.1-.058.176v.541h-.243v-.98h.243v.12a.325.325 0 0 1 .121-.098.412.412 0 0 1 .364.013c.06.033.105.079.137.139a.383.383 0 0 1 .33-.187ZM74.141 46.545a.5.5 0 0 1-.212-.043.376.376 0 0 1-.148-.118.301.301 0 0 1-.06-.164h.245a.136.136 0 0 0 .054.094.188.188 0 0 0 .12.037c.046 0 .082-.01.108-.029a.086.086 0 0 0 .039-.072c0-.032-.016-.056-.048-.072a.888.888 0 0 0-.152-.052 1.271 1.271 0 0 1-.176-.055.306.306 0 0 1-.118-.086.235.235 0 0 1-.05-.158c0-.054.016-.103.046-.148a.31.31 0 0 1 .132-.106.487.487 0 0 1 .203-.04c.114 0 .206.03.274.088a.326.326 0 0 1 .113.236h-.233a.129.129 0 0 0-.048-.093.175.175 0 0 0-.113-.034.177.177 0 0 0-.102.025.08.08 0 0 0-.036.069c0 .033.017.058.05.075a.746.746 0 0 0 .15.052c.07.018.127.036.172.055a.304.304 0 0 1 .117.087c.033.04.05.092.052.157a.263.263 0 0 1-.046.152.304.304 0 0 1-.132.105.492.492 0 0 1-.201.038ZM74.657 46.036c0-.1.02-.187.058-.264a.415.415 0 0 1 .381-.239.386.386 0 0 1 .318.156v-.14h.245v.98h-.245v-.143a.364.364 0 0 1-.13.114.39.39 0 0 1-.19.045.404.404 0 0 1-.22-.063.443.443 0 0 1-.159-.18.585.585 0 0 1-.058-.266Zm.757.003a.322.322 0 0 0-.034-.154.247.247 0 0 0-.439-.002.312.312 0 0 0-.036.153c0 .059.012.11.036.155a.26.26 0 0 0 .094.101c.039.024.08.036.124.036a.247.247 0 0 0 .22-.134.322.322 0 0 0 .035-.155ZM76.43 45.535c.115 0 .208.037.278.111.071.074.106.177.106.309v.574h-.243v-.54c0-.079-.019-.138-.057-.18a.201.201 0 0 0-.156-.063c-.068 0-.12.02-.16.063-.038.042-.058.101-.058.18v.54h-.243v-.98h.243v.123a.337.337 0 0 1 .125-.1.378.378 0 0 1 .166-.037ZM77.312 46.269l-.204.497h-.156l.113-.497zM35.13 48.052h-.168v.776h-.246v-.776h-.11v-.203h.11v-.05c0-.12.033-.209.1-.265.068-.057.169-.083.304-.08v.209c-.059-.001-.1.009-.123.03-.023.021-.035.06-.035.115v.04h.169v.204ZM36.226 48.317a.57.57 0 0 1-.007.096h-.735a.24.24 0 0 0 .076.166c.045.04.1.06.165.06.095 0 .162-.04.202-.118h.274a.446.446 0 0 1-.167.232.496.496 0 0 1-.303.091.535.535 0 0 1-.26-.063.448.448 0 0 1-.18-.177.533.533 0 0 1-.065-.266c0-.1.022-.19.064-.267a.437.437 0 0 1 .178-.176.544.544 0 0 1 .263-.062.54.54 0 0 1 .257.06c.075.04.134.097.176.17a.506.506 0 0 1 .062.254Zm-.263-.07a.194.194 0 0 0-.07-.153.255.255 0 0 0-.17-.058.234.234 0 0 0-.158.056.243.243 0 0 0-.08.154h.478ZM36.604 47.52v1.308h-.243V47.52zM36.987 47.732a.18.18 0 0 1-.121-.042.13.13 0 0 1-.048-.103.13.13 0 0 1 .048-.104.18.18 0 0 1 .121-.041.18.18 0 0 1 .122.041.13.13 0 0 1 .048.104.13.13 0 0 1-.048.103.18.18 0 0 1-.122.042Zm.137.117v.98h-.277v-.98h.277ZM37.695 48.844a.5.5 0 0 1-.212-.043.376.376 0 0 1-.149-.118.301.301 0 0 1-.06-.164h.245a.136.136 0 0 0 .055.094.188.188 0 0 0 .12.037c.045 0 .082-.01.108-.029a.086.086 0 0 0 .039-.072c0-.032-.016-.056-.048-.072a.888.888 0 0 0-.152-.052 1.271 1.271 0 0 1-.176-.055.306.306 0 0 1-.118-.086.235.235 0 0 1-.05-.158c0-.054.015-.104.046-.148a.31.31 0 0 1 .132-.106.487.487 0 0 1 .202-.04c.115 0 .207.03.275.088a.326.326 0 0 1 .113.236h-.233a.129.129 0 0 0-.048-.093.175.175 0 0 0-.113-.034.177.177 0 0 0-.102.025.08.08 0 0 0-.036.069c0 .033.016.058.049.075a.746.746 0 0 0 .151.052c.07.018.127.036.172.055a.304.304 0 0 1 .117.087c.033.04.05.092.052.157a.263.263 0 0 1-.047.152.304.304 0 0 1-.132.105.492.492 0 0 1-.2.038ZM38.83 47.732a.18.18 0 0 1-.121-.042.13.13 0 0 1-.048-.103.13.13 0 0 1 .048-.104.18.18 0 0 1 .121-.041.18.18 0 0 1 .122.041.13.13 0 0 1 .048.104.13.13 0 0 1-.048.103.18.18 0 0 1-.122.042Zm.137.117v.98h-.277v-.98h.277ZM39.107 48.335c0-.1.02-.187.058-.264a.42.42 0 0 1 .562-.197.359.359 0 0 1 .136.11v-.464h.246v1.308h-.246v-.145a.332.332 0 0 1-.127.117.391.391 0 0 1-.19.044.408.408 0 0 1-.222-.063.44.44 0 0 1-.159-.18.585.585 0 0 1-.058-.266Zm.757.003a.322.322 0 0 0-.034-.154.247.247 0 0 0-.439-.002.312.312 0 0 0-.036.153c0 .059.012.11.036.155a.26.26 0 0 0 .094.101c.039.024.08.036.124.036a.247.247 0 0 0 .22-.134.322.322 0 0 0 .035-.155ZM41.956 47.834c.118 0 .213.037.286.111a.422.422 0 0 1 .108.309v.574h-.243v-.54c0-.077-.019-.136-.057-.177a.204.204 0 0 0-.157-.06.207.207 0 0 0-.157.06c-.039.04-.058.1-.058.176v.541h-.243v-.54c0-.077-.02-.136-.058-.177a.204.204 0 0 0-.156-.06.21.21 0 0 0-.159.06c-.039.04-.058.1-.058.176v.541h-.243v-.98h.243v.12a.325.325 0 0 1 .12-.098.412.412 0 0 1 .364.013c.06.032.105.079.138.139a.383.383 0 0 1 .33-.187ZM43.013 48.844a.509.509 0 0 1-.252-.063.45.45 0 0 1-.176-.177.536.536 0 0 1-.065-.266c0-.1.022-.188.066-.265a.459.459 0 0 1 .18-.178.519.519 0 0 1 .254-.062c.094 0 .179.02.255.062a.459.459 0 0 1 .18.178.525.525 0 0 1 .065.265c0 .1-.022.19-.067.266a.47.47 0 0 1-.183.177.527.527 0 0 1-.257.063Zm0-.216c.045 0 .087-.01.126-.032a.237.237 0 0 0 .094-.098.333.333 0 0 0 .035-.16c0-.093-.024-.164-.073-.214a.238.238 0 0 0-.178-.076.233.233 0 0 0-.176.076c-.048.05-.071.121-.071.214 0 .094.023.165.069.215.046.05.104.075.174.075ZM43.933 47.52v1.308h-.243V47.52zM45.11 48.317a.57.57 0 0 1-.007.096h-.735a.24.24 0 0 0 .076.166c.045.04.1.06.165.06.094 0 .162-.04.201-.118h.275a.446.446 0 0 1-.167.232.496.496 0 0 1-.304.091.535.535 0 0 1-.26-.063.448.448 0 0 1-.18-.177.533.533 0 0 1-.064-.266c0-.1.021-.19.063-.267a.437.437 0 0 1 .178-.176.544.544 0 0 1 .263-.062.54.54 0 0 1 .257.06c.076.04.135.097.176.17a.506.506 0 0 1 .063.254Zm-.263-.07a.194.194 0 0 0-.071-.153.255.255 0 0 0-.169-.058.234.234 0 0 0-.159.056.243.243 0 0 0-.079.154h.478ZM45.613 48.844a.5.5 0 0 1-.212-.043.376.376 0 0 1-.149-.118.301.301 0 0 1-.06-.164h.245a.136.136 0 0 0 .055.094.188.188 0 0 0 .119.037c.046 0 .082-.01.108-.029a.086.086 0 0 0 .04-.072c0-.032-.016-.056-.048-.072a.888.888 0 0 0-.152-.052 1.271 1.271 0 0 1-.177-.055.306.306 0 0 1-.118-.086.235.235 0 0 1-.05-.158c0-.054.016-.104.047-.148a.31.31 0 0 1 .132-.106.487.487 0 0 1 .202-.04c.115 0 .206.03.275.088a.326.326 0 0 1 .113.236h-.233a.129.129 0 0 0-.048-.093.175.175 0 0 0-.114-.034.177.177 0 0 0-.101.025.08.08 0 0 0-.036.069c0 .033.016.058.049.075a.746.746 0 0 0 .15.052c.07.018.128.036.173.055a.304.304 0 0 1 .117.087c.033.04.05.092.051.157a.263.263 0 0 1-.046.152.304.304 0 0 1-.132.105.492.492 0 0 1-.2.038ZM46.474 48.052v.474c0 .033.008.057.024.072.015.014.042.022.079.022h.113v.208h-.153c-.205 0-.308-.101-.308-.304v-.472h-.114v-.203h.114v-.243h.245v.243h.216v.203h-.216ZM47.009 47.732a.18.18 0 0 1-.122-.042.13.13 0 0 1-.048-.103.13.13 0 0 1 .048-.104.18.18 0 0 1 .122-.041.18.18 0 0 1 .121.041.13.13 0 0 1 .048.104.13.13 0 0 1-.048.103.18.18 0 0 1-.121.042Zm.136.117v.98h-.276v-.98h.276ZM48.285 48.317a.57.57 0 0 1-.007.096h-.735a.24.24 0 0 0 .076.166c.045.04.1.06.165.06.095 0 .162-.04.202-.118h.274a.446.446 0 0 1-.167.232.496.496 0 0 1-.303.091.535.535 0 0 1-.26-.063.448.448 0 0 1-.18-.177.533.533 0 0 1-.065-.266c0-.1.022-.19.064-.267a.437.437 0 0 1 .178-.176.544.544 0 0 1 .263-.062.54.54 0 0 1 .257.06c.075.04.134.097.176.17a.506.506 0 0 1 .062.254Zm-.263-.07a.194.194 0 0 0-.07-.153.255.255 0 0 0-.17-.058.234.234 0 0 0-.158.056.243.243 0 0 0-.08.154h.478ZM49.077 47.52v1.308h-.243V47.52zM49.254 48.335c0-.1.019-.187.058-.264a.415.415 0 0 1 .381-.239.386.386 0 0 1 .318.156v-.14h.245v.98h-.245v-.143a.364.364 0 0 1-.13.114.39.39 0 0 1-.19.045.404.404 0 0 1-.221-.063.443.443 0 0 1-.158-.18.585.585 0 0 1-.058-.266Zm.757.003a.322.322 0 0 0-.035-.154.247.247 0 0 0-.438-.002.312.312 0 0 0-.036.153c0 .059.012.11.036.155a.26.26 0 0 0 .093.101c.04.024.08.036.125.036a.247.247 0 0 0 .22-.134.322.322 0 0 0 .035-.155ZM50.431 48.338c0-.1.02-.19.061-.266a.439.439 0 0 1 .169-.177.48.48 0 0 1 .246-.062c.12 0 .218.03.296.09.079.061.131.147.158.256h-.263a.195.195 0 0 0-.07-.1.202.202 0 0 0-.122-.036.2.2 0 0 0-.166.077.345.345 0 0 0-.06.218c0 .094.02.166.06.217a.2.2 0 0 0 .166.077c.098 0 .162-.045.192-.134h.263a.453.453 0 0 1-.158.252.46.46 0 0 1-.296.094.48.48 0 0 1-.246-.063.439.439 0 0 1-.169-.176.558.558 0 0 1-.06-.267ZM51.683 47.732a.18.18 0 0 1-.121-.042.13.13 0 0 1-.049-.103.13.13 0 0 1 .049-.104.18.18 0 0 1 .121-.041.18.18 0 0 1 .122.041.13.13 0 0 1 .048.104.13.13 0 0 1-.048.103.18.18 0 0 1-.122.042Zm.136.117v.98h-.276v-.98h.276ZM52.556 47.834c.114 0 .207.037.278.111.07.074.106.177.106.309v.574h-.244v-.54c0-.079-.019-.138-.057-.18a.201.201 0 0 0-.156-.063c-.067 0-.12.02-.16.063-.038.042-.057.101-.057.18v.54h-.244v-.98h.244v.123a.337.337 0 0 1 .124-.1.378.378 0 0 1 .166-.037ZM53.314 47.732a.18.18 0 0 1-.121-.042.13.13 0 0 1-.048-.103.13.13 0 0 1 .048-.104.18.18 0 0 1 .121-.041.18.18 0 0 1 .122.041.13.13 0 0 1 .048.104.13.13 0 0 1-.048.103.18.18 0 0 1-.122.042Zm.137.117v.98h-.277v-.98h.277ZM53.591 48.335c0-.1.02-.187.058-.264a.415.415 0 0 1 .381-.239.386.386 0 0 1 .318.156v-.14h.245v.98h-.245v-.143a.364.364 0 0 1-.129.114.39.39 0 0 1-.19.045.404.404 0 0 1-.222-.063.443.443 0 0 1-.158-.18.585.585 0 0 1-.058-.266Zm.757.003a.322.322 0 0 0-.034-.154.247.247 0 0 0-.439-.002.312.312 0 0 0-.036.153c0 .059.012.11.036.155a.26.26 0 0 0 .094.101c.039.024.08.036.124.036a.247.247 0 0 0 .22-.134.322.322 0 0 0 .035-.155ZM55.098 48.568l-.204.497h-.156l.113-.497zM55.93 47.52v1.308h-.244V47.52zM56.106 48.335c0-.1.02-.187.059-.264a.415.415 0 0 1 .381-.239.386.386 0 0 1 .318.156v-.14h.245v.98h-.245v-.143a.364.364 0 0 1-.13.114.39.39 0 0 1-.19.045.404.404 0 0 1-.221-.063.443.443 0 0 1-.158-.18.585.585 0 0 1-.059-.266Zm.758.003a.322.322 0 0 0-.035-.154.247.247 0 0 0-.439-.002.312.312 0 0 0-.035.153c0 .059.012.11.035.155a.26.26 0 0 0 .094.101c.039.024.08.036.124.036a.247.247 0 0 0 .221-.134.322.322 0 0 0 .035-.155ZM57.284 48.338c0-.1.02-.19.061-.266a.439.439 0 0 1 .168-.177.48.48 0 0 1 .247-.062c.12 0 .218.03.296.09.078.061.13.147.158.256h-.263a.195.195 0 0 0-.07-.1.202.202 0 0 0-.123-.036.2.2 0 0 0-.165.077.345.345 0 0 0-.06.218c0 .094.02.166.06.217a.2.2 0 0 0 .165.077c.099 0 .163-.045.193-.134h.263a.453.453 0 0 1-.159.252.46.46 0 0 1-.295.094.48.48 0 0 1-.247-.063.439.439 0 0 1-.168-.176.558.558 0 0 1-.06-.267ZM59.3 47.849v.98h-.244v-.124a.322.322 0 0 1-.122.1.375.375 0 0 1-.165.036.402.402 0 0 1-.2-.049.34.34 0 0 1-.136-.143.48.48 0 0 1-.05-.226v-.574h.244v.539c0 .078.019.138.057.18.038.041.09.062.157.062s.12-.02.158-.063c.038-.041.057-.101.057-.179v-.54h.245ZM59.909 48.844a.5.5 0 0 1-.212-.043.376.376 0 0 1-.149-.118.301.301 0 0 1-.06-.164h.245a.136.136 0 0 0 .055.094.188.188 0 0 0 .12.037c.046 0 .082-.01.108-.029a.086.086 0 0 0 .039-.072c0-.032-.016-.056-.048-.072a.888.888 0 0 0-.152-.052 1.271 1.271 0 0 1-.176-.055.306.306 0 0 1-.118-.086.235.235 0 0 1-.05-.158c0-.054.015-.104.046-.148a.31.31 0 0 1 .132-.106.487.487 0 0 1 .203-.04c.114 0 .206.03.274.088a.326.326 0 0 1 .113.236h-.233a.129.129 0 0 0-.048-.093.175.175 0 0 0-.113-.034.177.177 0 0 0-.102.025.08.08 0 0 0-.036.069c0 .033.017.058.049.075a.746.746 0 0 0 .151.052c.07.018.127.036.172.055a.304.304 0 0 1 .117.087c.033.04.05.092.052.157a.263.263 0 0 1-.046.152.304.304 0 0 1-.132.105.492.492 0 0 1-.201.038ZM61.838 48.317a.57.57 0 0 1-.007.096h-.735a.24.24 0 0 0 .076.166c.045.04.1.06.165.06.095 0 .162-.04.202-.118h.274a.446.446 0 0 1-.167.232.496.496 0 0 1-.303.091.535.535 0 0 1-.26-.063.448.448 0 0 1-.18-.177.533.533 0 0 1-.065-.266c0-.1.021-.19.064-.267a.437.437 0 0 1 .178-.176.544.544 0 0 1 .263-.062.54.54 0 0 1 .257.06c.075.04.134.097.176.17a.506.506 0 0 1 .062.254Zm-.263-.07a.194.194 0 0 0-.07-.153.255.255 0 0 0-.17-.058.234.234 0 0 0-.158.056.243.243 0 0 0-.08.154h.478ZM62.216 48a.336.336 0 0 1 .295-.166v.26h-.064c-.077 0-.134.019-.173.055-.039.037-.058.1-.058.191v.488h-.243v-.98h.243v.153ZM62.612 48.335c0-.1.02-.187.058-.264a.415.415 0 0 1 .381-.239.386.386 0 0 1 .318.156v-.14h.245v.98h-.245v-.143a.364.364 0 0 1-.13.114.39.39 0 0 1-.19.045.404.404 0 0 1-.22-.063.443.443 0 0 1-.159-.18.585.585 0 0 1-.058-.266Zm.757.003a.322.322 0 0 0-.035-.154.247.247 0 0 0-.438-.002.312.312 0 0 0-.036.153c0 .059.012.11.036.155a.26.26 0 0 0 .094.101c.038.024.08.036.124.036a.247.247 0 0 0 .22-.134.322.322 0 0 0 .035-.155ZM64.135 48.052v.474c0 .033.008.057.024.072.015.014.042.022.079.022h.113v.208h-.153c-.205 0-.308-.101-.308-.304v-.472h-.114v-.203h.114v-.243h.245v.243h.216v.203h-.216ZM65.308 48.844a.5.5 0 0 1-.212-.043.376.376 0 0 1-.149-.118.301.301 0 0 1-.06-.164h.245a.136.136 0 0 0 .055.094.188.188 0 0 0 .12.037c.045 0 .082-.01.108-.029a.086.086 0 0 0 .039-.072c0-.032-.016-.056-.048-.072a.888.888 0 0 0-.152-.052 1.271 1.271 0 0 1-.176-.055.306.306 0 0 1-.118-.086.235.235 0 0 1-.05-.158c0-.054.015-.104.046-.148a.31.31 0 0 1 .132-.106.487.487 0 0 1 .202-.04c.115 0 .207.03.275.088a.326.326 0 0 1 .113.236h-.233a.129.129 0 0 0-.048-.093.175.175 0 0 0-.113-.034.177.177 0 0 0-.102.025.08.08 0 0 0-.036.069c0 .033.017.058.049.075a.746.746 0 0 0 .151.052c.07.018.127.036.172.055a.304.304 0 0 1 .117.087c.033.04.05.092.052.157a.263.263 0 0 1-.047.152.304.304 0 0 1-.132.105.492.492 0 0 1-.2.038ZM66.318 48.844a.509.509 0 0 1-.252-.063.45.45 0 0 1-.176-.177.536.536 0 0 1-.065-.266c0-.1.022-.188.066-.265a.459.459 0 0 1 .18-.178.519.519 0 0 1 .254-.062c.094 0 .179.02.255.062a.459.459 0 0 1 .18.178.525.525 0 0 1 .065.265c0 .1-.022.19-.067.266a.47.47 0 0 1-.183.177.527.527 0 0 1-.257.063Zm0-.216c.045 0 .087-.01.126-.032a.237.237 0 0 0 .094-.098.333.333 0 0 0 .035-.16c0-.093-.024-.164-.073-.214a.238.238 0 0 0-.178-.076.233.233 0 0 0-.176.076c-.048.05-.071.121-.071.214 0 .094.023.165.069.215.046.05.104.075.174.075ZM67.238 47.52v1.308h-.243V47.52zM67.72 47.52v1.308h-.242V47.52zM68.104 47.732a.18.18 0 0 1-.121-.042.13.13 0 0 1-.049-.103.13.13 0 0 1 .049-.104.18.18 0 0 1 .121-.041.18.18 0 0 1 .122.041.13.13 0 0 1 .048.104.13.13 0 0 1-.048.103.18.18 0 0 1-.122.042Zm.136.117v.98h-.276v-.98h.276ZM68.38 48.338c0-.1.021-.19.062-.266a.439.439 0 0 1 .168-.177.48.48 0 0 1 .247-.062c.119 0 .218.03.296.09.078.061.13.147.157.256h-.262a.195.195 0 0 0-.07-.1.202.202 0 0 0-.123-.036.2.2 0 0 0-.165.077.345.345 0 0 0-.06.218c0 .094.02.166.06.217a.2.2 0 0 0 .165.077c.098 0 .163-.045.193-.134h.262a.453.453 0 0 1-.158.252.46.46 0 0 1-.295.094.48.48 0 0 1-.247-.063.439.439 0 0 1-.168-.176.558.558 0 0 1-.061-.267ZM69.633 47.732a.18.18 0 0 1-.122-.042.13.13 0 0 1-.048-.103.13.13 0 0 1 .048-.104.18.18 0 0 1 .122-.041.18.18 0 0 1 .121.041.13.13 0 0 1 .049.104.13.13 0 0 1-.049.103.18.18 0 0 1-.121.042Zm.136.117v.98h-.276v-.98h.276ZM70.255 48.052v.474c0 .033.008.057.024.072.015.014.042.022.079.022h.113v.208h-.153c-.205 0-.308-.101-.308-.304v-.472h-.114v-.203h.114v-.243h.245v.243h.216v.203h-.216ZM71.554 47.849v.98h-.244v-.124a.322.322 0 0 1-.123.1.375.375 0 0 1-.164.036.402.402 0 0 1-.2-.049.34.34 0 0 1-.136-.143.48.48 0 0 1-.05-.226v-.574h.243v.539c0 .078.02.138.058.18.038.041.09.062.156.062.067 0 .12-.02.158-.063.038-.041.058-.101.058-.179v-.54h.244ZM71.732 48.335c0-.1.02-.187.058-.264a.42.42 0 0 1 .562-.197.359.359 0 0 1 .135.11v-.464h.247v1.308h-.247v-.145a.332.332 0 0 1-.127.117.391.391 0 0 1-.189.044.408.408 0 0 1-.222-.063.44.44 0 0 1-.16-.18.585.585 0 0 1-.057-.266Zm.757.003a.322.322 0 0 0-.035-.154.247.247 0 0 0-.438-.002.312.312 0 0 0-.036.153c0 .059.012.11.036.155a.26.26 0 0 0 .093.101c.04.024.08.036.125.036a.247.247 0 0 0 .22-.134.322.322 0 0 0 .035-.155ZM73.116 47.732a.18.18 0 0 1-.122-.042.13.13 0 0 1-.048-.103.13.13 0 0 1 .048-.104.18.18 0 0 1 .122-.041.18.18 0 0 1 .121.041.13.13 0 0 1 .048.104.13.13 0 0 1-.048.103.18.18 0 0 1-.121.042Zm.136.117v.98h-.276v-.98h.276ZM73.988 47.834c.115 0 .207.037.278.111.07.074.106.177.106.309v.574h-.243v-.54c0-.079-.02-.138-.057-.18a.201.201 0 0 0-.157-.063c-.067 0-.12.02-.159.063-.039.042-.058.101-.058.18v.54h-.243v-.98h.243v.123a.337.337 0 0 1 .124-.1.378.378 0 0 1 .166-.037ZM35.223 50.133c.115 0 .207.037.278.11.07.075.106.177.106.31v.574h-.243v-.54c0-.079-.02-.139-.058-.18a.201.201 0 0 0-.156-.063c-.067 0-.12.02-.159.063-.039.041-.058.101-.058.18v.54h-.243v-.98h.243v.123a.337.337 0 0 1 .124-.1.378.378 0 0 1 .166-.037ZM36.746 50.148v.98h-.245v-.125a.322.322 0 0 1-.122.1.375.375 0 0 1-.164.037.402.402 0 0 1-.2-.049.34.34 0 0 1-.136-.143.48.48 0 0 1-.05-.226v-.574h.243v.539c0 .078.02.138.058.18.038.041.09.062.156.062.067 0 .12-.02.158-.063.038-.041.057-.101.057-.18v-.538h.245ZM37.52 50.133c.114 0 .207.037.277.11.071.075.106.177.106.31v.574h-.243v-.54c0-.079-.019-.139-.057-.18a.201.201 0 0 0-.157-.063c-.067 0-.12.02-.159.063-.038.041-.058.101-.058.18v.54h-.243v-.98h.243v.123a.337.337 0 0 1 .124-.1.378.378 0 0 1 .166-.037ZM38.072 50.637c0-.101.02-.19.06-.266a.439.439 0 0 1 .17-.177.48.48 0 0 1 .246-.062c.119 0 .218.03.296.09.078.061.13.147.157.256h-.262a.195.195 0 0 0-.07-.1.202.202 0 0 0-.123-.036.2.2 0 0 0-.165.077.345.345 0 0 0-.06.218c0 .094.02.166.06.217a.2.2 0 0 0 .165.077c.098 0 .163-.045.193-.134H39a.453.453 0 0 1-.158.252.46.46 0 0 1-.295.094.48.48 0 0 1-.247-.063.439.439 0 0 1-.168-.176.558.558 0 0 1-.061-.267ZM39.446 50.867l-.203.497h-.156l.113-.497zM40.568 50.133c.115 0 .207.037.278.11.07.075.106.177.106.31v.574h-.243v-.54c0-.079-.02-.139-.058-.18a.201.201 0 0 0-.156-.063c-.067 0-.12.02-.159.063-.039.041-.058.101-.058.18v.54h-.243v-.98h.243v.123a.337.337 0 0 1 .124-.1.378.378 0 0 1 .166-.037ZM41.615 51.143a.509.509 0 0 1-.253-.063.45.45 0 0 1-.176-.177.536.536 0 0 1-.064-.266c0-.1.022-.188.066-.265a.459.459 0 0 1 .18-.178.519.519 0 0 1 .254-.062c.094 0 .178.02.255.062a.459.459 0 0 1 .18.178.525.525 0 0 1 .065.265c0 .1-.022.19-.067.266a.47.47 0 0 1-.183.177.527.527 0 0 1-.257.063Zm0-.216c.045 0 .086-.01.126-.032a.237.237 0 0 0 .093-.098.333.333 0 0 0 .035-.16c0-.093-.024-.164-.072-.214a.238.238 0 0 0-.178-.076.233.233 0 0 0-.177.076c-.047.05-.07.121-.07.214 0 .094.022.165.069.215.046.05.104.075.174.075ZM42.824 50.133c.115 0 .208.037.278.11.071.075.106.177.106.31v.574h-.243v-.54c0-.079-.019-.139-.057-.18a.201.201 0 0 0-.156-.063c-.068 0-.12.02-.16.063-.038.041-.058.101-.058.18v.54h-.243v-.98h.243v.123a.337.337 0 0 1 .125-.1.378.378 0 0 1 .165-.037ZM44.221 51.143a.5.5 0 0 1-.212-.043.376.376 0 0 1-.148-.118.301.301 0 0 1-.06-.164h.245a.136.136 0 0 0 .054.094.188.188 0 0 0 .12.037c.046 0 .082-.01.108-.029a.086.086 0 0 0 .039-.072c0-.032-.016-.056-.048-.072a.888.888 0 0 0-.152-.052 1.271 1.271 0 0 1-.176-.055.306.306 0 0 1-.118-.086.235.235 0 0 1-.05-.158c0-.054.016-.104.046-.148a.31.31 0 0 1 .132-.106.487.487 0 0 1 .203-.04c.114 0 .206.03.274.088a.326.326 0 0 1 .113.236h-.233a.129.129 0 0 0-.047-.093.175.175 0 0 0-.114-.034.177.177 0 0 0-.102.025.08.08 0 0 0-.035.069c0 .033.016.058.048.075a.746.746 0 0 0 .151.052c.07.018.127.036.172.055a.304.304 0 0 1 .118.087c.033.04.05.092.05.157a.263.263 0 0 1-.045.152.304.304 0 0 1-.132.105.492.492 0 0 1-.2.038ZM45.232 51.143a.509.509 0 0 1-.253-.063.45.45 0 0 1-.176-.177.536.536 0 0 1-.064-.266c0-.1.022-.188.066-.265a.459.459 0 0 1 .18-.178.519.519 0 0 1 .254-.062c.093 0 .178.02.254.062a.459.459 0 0 1 .18.178.525.525 0 0 1 .066.265c0 .1-.023.19-.068.266a.47.47 0 0 1-.182.177.527.527 0 0 1-.257.063Zm0-.216a.237.237 0 0 0 .22-.13.333.333 0 0 0 .034-.16c0-.093-.024-.164-.073-.214a.238.238 0 0 0-.178-.076.233.233 0 0 0-.176.076c-.047.05-.071.121-.071.214 0 .094.023.165.07.215.045.05.104.075.174.075ZM46.15 49.819v1.308h-.242v-1.308zM46.634 49.819v1.308h-.243v-1.308zM47.017 50.03a.18.18 0 0 1-.121-.04.13.13 0 0 1-.048-.104.13.13 0 0 1 .048-.104.18.18 0 0 1 .121-.041.18.18 0 0 1 .122.041.13.13 0 0 1 .048.104.13.13 0 0 1-.048.103.18.18 0 0 1-.122.042Zm.137.118v.98h-.277v-.98h.277ZM47.294 50.637c0-.101.02-.19.06-.266a.439.439 0 0 1 .17-.177.48.48 0 0 1 .246-.062c.12 0 .218.03.296.09.078.061.13.147.157.256h-.262a.195.195 0 0 0-.07-.1.202.202 0 0 0-.123-.036.2.2 0 0 0-.165.077.345.345 0 0 0-.06.218c0 .094.02.166.06.217a.2.2 0 0 0 .165.077c.099 0 .163-.045.193-.134h.262a.453.453 0 0 1-.158.252.46.46 0 0 1-.295.094.48.48 0 0 1-.247-.063.439.439 0 0 1-.168-.176.558.558 0 0 1-.06-.267ZM48.546 50.03a.18.18 0 0 1-.121-.04.13.13 0 0 1-.049-.104.13.13 0 0 1 .049-.104.18.18 0 0 1 .121-.041.18.18 0 0 1 .121.041.13.13 0 0 1 .049.104.13.13 0 0 1-.049.103.18.18 0 0 1-.121.042Zm.136.118v.98h-.276v-.98h.276ZM49.168 50.35v.475c0 .033.008.057.024.071.015.015.042.023.079.023h.113v.208h-.153c-.205 0-.308-.101-.308-.304v-.472h-.114v-.203h.114v-.243h.245v.243h.216v.203h-.216ZM50.468 50.148v.98h-.245v-.125a.322.322 0 0 1-.123.1.375.375 0 0 1-.164.037.402.402 0 0 1-.2-.049.34.34 0 0 1-.136-.143.48.48 0 0 1-.05-.226v-.574h.244v.539c0 .078.019.138.057.18.038.041.09.062.156.062.068 0 .12-.02.158-.063.039-.041.058-.101.058-.18v-.538h.245ZM50.645 50.634c0-.1.02-.187.058-.264a.42.42 0 0 1 .562-.197.359.359 0 0 1 .136.11v-.464h.246v1.308h-.246v-.145a.332.332 0 0 1-.127.117.391.391 0 0 1-.19.044.408.408 0 0 1-.222-.063.44.44 0 0 1-.159-.18.585.585 0 0 1-.058-.266Zm.757.003a.322.322 0 0 0-.034-.154.247.247 0 0 0-.439-.002.312.312 0 0 0-.036.153c0 .059.012.11.036.155a.26.26 0 0 0 .094.101c.039.024.08.036.124.036a.247.247 0 0 0 .22-.134.322.322 0 0 0 .035-.155ZM52.029 50.03a.18.18 0 0 1-.121-.04.13.13 0 0 1-.049-.104.13.13 0 0 1 .049-.104.18.18 0 0 1 .12-.041.18.18 0 0 1 .122.041.13.13 0 0 1 .049.104.13.13 0 0 1-.049.103.18.18 0 0 1-.121.042Zm.136.118v.98h-.276v-.98h.276ZM52.901 50.133c.115 0 .208.037.278.11.071.075.106.177.106.31v.574h-.243v-.54c0-.079-.019-.139-.057-.18a.201.201 0 0 0-.157-.063c-.067 0-.12.02-.158.063-.04.041-.059.101-.059.18v.54h-.243v-.98h.243v.123a.337.337 0 0 1 .125-.1.378.378 0 0 1 .165-.037ZM54.867 50.616a.57.57 0 0 1-.007.096h-.735a.24.24 0 0 0 .076.166c.045.04.1.06.165.06.095 0 .162-.04.202-.118h.274a.446.446 0 0 1-.167.232.496.496 0 0 1-.303.091.535.535 0 0 1-.26-.063.448.448 0 0 1-.18-.177.533.533 0 0 1-.065-.266c0-.101.021-.19.064-.267a.437.437 0 0 1 .178-.176.544.544 0 0 1 .263-.062.54.54 0 0 1 .257.06c.075.04.134.097.176.17a.506.506 0 0 1 .062.254Zm-.263-.07a.194.194 0 0 0-.07-.154.255.255 0 0 0-.17-.057.234.234 0 0 0-.158.056.243.243 0 0 0-.08.154h.478ZM55.245 50.3a.336.336 0 0 1 .295-.166v.26h-.064c-.077 0-.134.018-.173.054-.039.037-.058.1-.058.191v.488h-.243v-.98h.243v.153ZM56.136 51.143a.509.509 0 0 1-.253-.063.45.45 0 0 1-.176-.177.536.536 0 0 1-.064-.266c0-.1.022-.188.065-.265a.459.459 0 0 1 .18-.178.519.519 0 0 1 .255-.062c.093 0 .178.02.254.062a.459.459 0 0 1 .18.178.525.525 0 0 1 .066.265c0 .1-.023.19-.068.266a.47.47 0 0 1-.182.177.527.527 0 0 1-.257.063Zm0-.216a.237.237 0 0 0 .22-.13.333.333 0 0 0 .034-.16c0-.093-.024-.164-.073-.214a.238.238 0 0 0-.178-.076.233.233 0 0 0-.176.076c-.048.05-.071.121-.071.214 0 .094.023.165.069.215.046.05.104.075.175.075ZM57.18 51.143a.5.5 0 0 1-.212-.043.376.376 0 0 1-.149-.118.301.301 0 0 1-.06-.164h.245a.136.136 0 0 0 .055.094.188.188 0 0 0 .12.037c.046 0 .082-.01.108-.029a.086.086 0 0 0 .039-.072c0-.032-.016-.056-.048-.072a.888.888 0 0 0-.152-.052 1.271 1.271 0 0 1-.176-.055.306.306 0 0 1-.118-.086.235.235 0 0 1-.05-.158c0-.054.015-.104.046-.148a.31.31 0 0 1 .132-.106.487.487 0 0 1 .203-.04c.114 0 .206.03.274.088a.326.326 0 0 1 .113.236h-.233a.129.129 0 0 0-.048-.093.175.175 0 0 0-.113-.034.177.177 0 0 0-.102.025.08.08 0 0 0-.036.069c0 .033.017.058.049.075a.746.746 0 0 0 .151.052c.07.018.127.036.172.055a.304.304 0 0 1 .117.087c.033.04.05.092.052.157a.263.263 0 0 1-.046.152.304.304 0 0 1-.132.105.492.492 0 0 1-.201.038ZM59.11 50.616a.57.57 0 0 1-.008.096h-.735a.24.24 0 0 0 .076.166c.045.04.1.06.165.06.095 0 .162-.04.202-.118h.274a.446.446 0 0 1-.167.232.496.496 0 0 1-.303.091.535.535 0 0 1-.26-.063.448.448 0 0 1-.18-.177.533.533 0 0 1-.065-.266c0-.101.021-.19.064-.267a.437.437 0 0 1 .178-.176.544.544 0 0 1 .263-.062.54.54 0 0 1 .257.06c.075.04.134.097.176.17a.506.506 0 0 1 .062.254Zm-.264-.07a.194.194 0 0 0-.07-.154.255.255 0 0 0-.17-.057.234.234 0 0 0-.158.056.243.243 0 0 0-.08.154h.478ZM59.612 51.143a.5.5 0 0 1-.212-.043.376.376 0 0 1-.149-.118.301.301 0 0 1-.06-.164h.245a.136.136 0 0 0 .055.094.188.188 0 0 0 .12.037c.045 0 .082-.01.108-.029a.086.086 0 0 0 .039-.072c0-.032-.016-.056-.048-.072a.888.888 0 0 0-.152-.052 1.271 1.271 0 0 1-.176-.055.306.306 0 0 1-.118-.086.235.235 0 0 1-.05-.158c0-.054.015-.104.046-.148a.31.31 0 0 1 .132-.106.487.487 0 0 1 .203-.04c.114 0 .206.03.274.088a.326.326 0 0 1 .113.236h-.233a.129.129 0 0 0-.048-.093.175.175 0 0 0-.113-.034.177.177 0 0 0-.102.025.08.08 0 0 0-.036.069c0 .033.017.058.049.075a.746.746 0 0 0 .151.052c.07.018.127.036.172.055a.304.304 0 0 1 .117.087c.033.04.05.092.052.157a.263.263 0 0 1-.046.152.304.304 0 0 1-.132.105.492.492 0 0 1-.201.038ZM60.473 50.35v.475c0 .033.008.057.024.071.016.015.042.023.079.023h.113v.208h-.153c-.205 0-.307-.101-.307-.304v-.472h-.115v-.203h.115v-.243h.244v.243h.216v.203h-.216ZM62.215 50.616a.57.57 0 0 1-.007.096h-.735a.24.24 0 0 0 .076.166c.045.04.1.06.165.06.095 0 .162-.04.202-.118h.274a.446.446 0 0 1-.167.232.496.496 0 0 1-.303.091.535.535 0 0 1-.26-.063.448.448 0 0 1-.18-.177.533.533 0 0 1-.065-.266c0-.101.021-.19.064-.267a.437.437 0 0 1 .178-.176.544.544 0 0 1 .263-.062.54.54 0 0 1 .257.06c.075.04.134.097.176.17a.506.506 0 0 1 .062.254Zm-.263-.07a.194.194 0 0 0-.07-.154.255.255 0 0 0-.17-.057.234.234 0 0 0-.158.056.243.243 0 0 0-.08.154h.478ZM62.79 50.35h-.168v.777h-.246v-.776h-.11v-.203h.11v-.05c0-.12.033-.209.1-.265.068-.057.169-.083.304-.08v.209c-.059-.001-.1.009-.123.03-.023.021-.035.06-.035.115v.04h.169v.204ZM63.39 50.35h-.168v.777h-.247v-.776h-.11v-.203h.11v-.05c0-.12.033-.209.1-.265.068-.057.17-.083.305-.08v.209c-.06-.001-.1.009-.124.03-.023.021-.034.06-.034.115v.04h.168v.204ZM63.692 50.03a.18.18 0 0 1-.122-.04.13.13 0 0 1-.048-.104.13.13 0 0 1 .048-.104.18.18 0 0 1 .122-.041.18.18 0 0 1 .121.041.13.13 0 0 1 .049.104.13.13 0 0 1-.049.103.18.18 0 0 1-.121.042Zm.136.118v.98h-.276v-.98h.276ZM63.969 50.637c0-.101.02-.19.06-.266a.439.439 0 0 1 .169-.177.48.48 0 0 1 .247-.062c.119 0 .218.03.296.09.078.061.13.147.157.256h-.262a.195.195 0 0 0-.07-.1.202.202 0 0 0-.123-.036.2.2 0 0 0-.165.077.345.345 0 0 0-.061.218c0 .094.02.166.06.217a.2.2 0 0 0 .166.077c.098 0 .162-.045.193-.134h.262a.453.453 0 0 1-.158.252.46.46 0 0 1-.295.094.48.48 0 0 1-.247-.063.439.439 0 0 1-.169-.176.558.558 0 0 1-.06-.267ZM65.22 50.03a.18.18 0 0 1-.12-.04.13.13 0 0 1-.05-.104.13.13 0 0 1 .05-.104.18.18 0 0 1 .12-.041.18.18 0 0 1 .122.041.13.13 0 0 1 .048.104.13.13 0 0 1-.048.103.18.18 0 0 1-.121.042Zm.137.118v.98h-.277v-.98h.277ZM65.843 50.35v.475c0 .033.008.057.023.071.016.015.042.023.08.023h.112v.208h-.153c-.205 0-.307-.101-.307-.304v-.472h-.115v-.203h.115v-.243h.245v.243h.215v.203h-.215ZM67.142 50.148v.98h-.245v-.125a.322.322 0 0 1-.122.1.375.375 0 0 1-.164.037.402.402 0 0 1-.2-.049.34.34 0 0 1-.136-.143.48.48 0 0 1-.05-.226v-.574h.243v.539c0 .078.02.138.058.18.038.041.09.062.156.062.067 0 .12-.02.158-.063.038-.041.057-.101.057-.18v-.538h.245ZM67.625 50.3a.336.336 0 0 1 .295-.166v.26h-.064c-.076 0-.134.018-.173.054-.038.037-.058.1-.058.191v.488h-.243v-.98h.243v.153ZM68.74 49.819v1.308h-.242v-1.308zM69.124 50.03a.18.18 0 0 1-.122-.04.13.13 0 0 1-.048-.104.13.13 0 0 1 .048-.104.18.18 0 0 1 .122-.041.18.18 0 0 1 .121.041.13.13 0 0 1 .049.104.13.13 0 0 1-.049.103.18.18 0 0 1-.121.042Zm.136.118v.98h-.276v-.98h.276ZM69.84 50.132c.072 0 .135.014.19.043a.35.35 0 0 1 .128.112v-.14h.245v.987c0 .091-.018.172-.054.244a.404.404 0 0 1-.162.17.51.51 0 0 1-.26.062.55.55 0 0 1-.336-.097.362.362 0 0 1-.149-.265h.242c.012.044.04.08.082.107.042.026.094.04.154.04.07 0 .128-.022.172-.065.044-.043.066-.108.066-.196v-.152a.38.38 0 0 1-.318.16.408.408 0 0 1-.222-.062.44.44 0 0 1-.16-.18.585.585 0 0 1-.058-.266c0-.1.02-.187.059-.264a.415.415 0 0 1 .381-.239Zm.318.505a.322.322 0 0 0-.035-.154.247.247 0 0 0-.439-.002.312.312 0 0 0-.035.153c0 .059.012.11.035.155a.26.26 0 0 0 .094.101c.04.024.08.036.124.036a.247.247 0 0 0 .221-.134.322.322 0 0 0 .035-.155ZM71.55 50.148v.98h-.246v-.125a.322.322 0 0 1-.122.1.375.375 0 0 1-.164.037.402.402 0 0 1-.2-.049.34.34 0 0 1-.136-.143.48.48 0 0 1-.05-.226v-.574h.243v.539c0 .078.02.138.058.18.038.041.09.062.156.062.067 0 .12-.02.158-.063.038-.041.057-.101.057-.18v-.538h.245ZM72.033 49.819v1.308h-.244v-1.308zM72.21 50.634c0-.1.019-.187.058-.264a.415.415 0 0 1 .381-.239.386.386 0 0 1 .318.156v-.14h.245v.98h-.245v-.143a.364.364 0 0 1-.13.114.39.39 0 0 1-.19.045.404.404 0 0 1-.221-.063.443.443 0 0 1-.158-.18.585.585 0 0 1-.059-.266Zm.757.003a.322.322 0 0 0-.035-.154.247.247 0 0 0-.439-.002.312.312 0 0 0-.035.153c0 .059.012.11.035.155a.26.26 0 0 0 .094.101c.039.024.08.036.124.036a.247.247 0 0 0 .221-.134.322.322 0 0 0 .035-.155ZM73.557 51.14a.149.149 0 0 1-.108-.042.139.139 0 0 1-.043-.103c0-.042.014-.076.043-.104a.149.149 0 0 1 .108-.041c.043 0 .079.013.106.041a.14.14 0 0 1 .042.104.14.14 0 0 1-.042.103.144.144 0 0 1-.106.042Z"/></g><path d="M29 27v4H11v-4h18Zm-11 1.3a.515.515 0 0 0-.43.215v-.193h-.327V30.3h.328v-.83a.544.544 0 0 0 .177.153.51.51 0 0 0 .251.06c.111 0 .211-.029.301-.087.09-.058.16-.14.213-.245a.81.81 0 0 0 .078-.364.795.795 0 0 0-.078-.362.589.589 0 0 0-.213-.24.553.553 0 0 0-.3-.085Zm-5.457 0a.648.648 0 0 0-.273.053.42.42 0 0 0-.178.145.355.355 0 0 0-.062.203c0 .09.023.162.067.216a.413.413 0 0 0 .16.118c.06.026.14.051.237.075.094.026.162.05.205.071.043.022.064.055.064.098 0 .04-.017.074-.053.1a.243.243 0 0 1-.146.038.25.25 0 0 1-.16-.05.187.187 0 0 1-.074-.129H12a.416.416 0 0 0 .08.225c.05.068.117.122.2.161.085.04.18.06.286.06a.655.655 0 0 0 .27-.053.411.411 0 0 0 .179-.144.363.363 0 0 0 .062-.208.336.336 0 0 0-.07-.214.41.41 0 0 0-.157-.12 1.689 1.689 0 0 0-.232-.074.996.996 0 0 1-.204-.072c-.043-.023-.065-.057-.065-.102 0-.04.016-.072.048-.095a.236.236 0 0 1 .137-.034c.064 0 .115.016.153.048.038.031.06.073.064.127h.314a.449.449 0 0 0-.152-.323.545.545 0 0 0-.37-.12Zm1.398 0a.724.724 0 0 0-.354.085.594.594 0 0 0-.24.241.752.752 0 0 0-.085.366c0 .137.029.258.086.362a.608.608 0 0 0 .243.243c.103.058.22.086.35.086a.662.662 0 0 0 .409-.124.61.61 0 0 0 .225-.318h-.37c-.053.108-.144.162-.27.162a.319.319 0 0 1-.223-.082.331.331 0 0 1-.103-.228h.99a.79.79 0 0 0-.074-.477.582.582 0 0 0-.237-.234.719.719 0 0 0-.347-.082Zm5.485 0a.724.724 0 0 0-.355.085.594.594 0 0 0-.24.241.752.752 0 0 0-.085.366c0 .137.029.258.087.362a.608.608 0 0 0 .242.243c.103.058.22.086.35.086a.662.662 0 0 0 .41-.124.61.61 0 0 0 .224-.318h-.37c-.053.108-.143.162-.27.162a.319.319 0 0 1-.223-.082.331.331 0 0 1-.103-.228h.99a.79.79 0 0 0-.074-.477.582.582 0 0 0-.237-.234.719.719 0 0 0-.346-.082Zm-3.025.002a.51.51 0 0 0-.445.257.459.459 0 0 0-.185-.19.548.548 0 0 0-.49-.018.439.439 0 0 0-.163.133v-.162h-.328v1.34h.328v-.74c0-.105.026-.185.078-.241a.28.28 0 0 1 .214-.084c.09 0 .16.028.211.084.052.056.077.136.077.24v.74h.328v-.74c0-.104.026-.184.078-.24a.277.277 0 0 1 .212-.084c.09 0 .16.028.21.084.052.056.078.136.078.24v.74h.328v-.785c0-.181-.049-.322-.146-.422a.512.512 0 0 0-.385-.152Zm4.599 0a.447.447 0 0 0-.398.228v-.208h-.328v1.34h.328v-.668c0-.124.026-.211.078-.261.053-.05.13-.075.233-.075H21Zm-3.087.295a.33.33 0 0 1 .296.18.432.432 0 0 1 .048.21.444.444 0 0 1-.048.213.354.354 0 0 1-.127.137.317.317 0 0 1-.337.002.345.345 0 0 1-.126-.137.439.439 0 0 1-.048-.21c0-.081.016-.151.048-.21a.345.345 0 0 1 .126-.137.32.32 0 0 1 .168-.048Zm-3.981-.019a.34.34 0 0 1 .227.079.267.267 0 0 1 .096.209h-.644a.334.334 0 0 1 .107-.212.313.313 0 0 1 .214-.076Zm5.484 0a.34.34 0 0 1 .227.079.267.267 0 0 1 .096.209h-.643a.334.334 0 0 1 .106-.212.313.313 0 0 1 .214-.076Z"/><path d="M11 32h18v4H11z" opacity=".3"/><path fill-rule="nonzero" d="m12.746 34.452.36-1.072h.382l-.527 1.397h-.437L12 33.38h.386l.36 1.072Zm1.158-1.238a.272.272 0 0 1-.18-.06.184.184 0 0 1-.071-.147c0-.059.024-.108.072-.148a.272.272 0 0 1 .18-.059c.071 0 .131.02.179.06.048.039.071.088.071.147a.184.184 0 0 1-.071.147.272.272 0 0 1-.18.06Zm.202.166v1.397h-.41V33.38h.41ZM15 34.452l.36-1.072h.383l-.527 1.397h-.437l-.525-1.397h.386l.36 1.072Zm2.333-.404c0 .05-.003.096-.01.137h-1.088a.338.338 0 0 0 .357.322c.14 0 .24-.056.298-.169h.406a.638.638 0 0 1-.247.332.754.754 0 0 1-.449.13.817.817 0 0 1-.385-.09.651.651 0 0 1-.266-.253.739.739 0 0 1-.096-.378c0-.145.032-.272.094-.381a.636.636 0 0 1 .264-.252.83.83 0 0 1 .39-.089c.14 0 .267.029.38.086a.625.625 0 0 1 .26.244.7.7 0 0 1 .092.361Zm-.39-.1a.273.273 0 0 0-.104-.219.386.386 0 0 0-.25-.082.355.355 0 0 0-.235.08.342.342 0 0 0-.116.22h.706Zm.949-.351a.502.502 0 0 1 .437-.237v.37h-.095c-.113 0-.198.027-.256.079-.057.052-.086.143-.086.272v.696h-.36V33.38h.36v.217Zm1.039 0a.502.502 0 0 1 .437-.237v.37h-.096c-.113 0-.198.027-.255.079-.058.052-.086.143-.086.272v.696h-.36V33.38h.36v.217Zm.586.477c0-.142.028-.267.086-.376a.624.624 0 0 1 .564-.34.563.563 0 0 1 .47.222v-.2H21v1.397h-.362v-.204a.532.532 0 0 1-.192.163.595.595 0 0 1-.281.064.614.614 0 0 1-.562-.347.81.81 0 0 1-.086-.38Zm1.12.005a.446.446 0 0 0-.05-.221.359.359 0 0 0-.14-.141.377.377 0 0 0-.51.138.432.432 0 0 0-.053.219c0 .084.018.157.053.22a.375.375 0 0 0 .139.145.377.377 0 0 0 .371.001.359.359 0 0 0 .14-.14.446.446 0 0 0 .05-.221Z"/></g></svg>