<svg xmlns="http://www.w3.org/2000/svg" width="80" height="80" viewBox="0 0 80 80"><g fill="#000" fill-rule="nonzero"><path d="M72 28H44v24h28V28Zm-1 1v22H45V29h26Z"/><path d="m44.138 39.977.448-.381c3.61-2.998 6.205-3.226 9.01-1.57l.358.22.186.118.397.265.462.32 1.41.993c4.35 2.995 8.225 3.755 14.853 1.573l.41-.138.328.911c-7.06 2.412-11.307 1.7-15.888-1.37l-.432-.297-1.277-.9-.43-.298-.379-.253-.176-.113-.337-.205-.306-.173c-2.29-1.227-4.466-.955-7.6 1.674l-.423.365c-.239.21-.443-.037-.614-.741ZM65.5 32a3.5 3.5 0 1 0 0 7 3.5 3.5 0 0 0 0-7Zm0 1.06a2.44 2.44 0 1 1 0 4.88 2.44 2.44 0 0 1 0-4.88ZM23 28h16v2H23zM23 35h17v1H23zM23 37h13v1H23zM23 39h16v1H23zM23 41h6v1h-6zM23 31h12v2H23zM7 28h9v2H7zM7 31h9v2H7zM7 34h9v2H7z"/></g></svg>