<?xml version="1.0" encoding="UTF-8"?>
<svg width="80px" height="80px" viewBox="0 0 80 80" version="1.1" xmlns="http://www.w3.org/2000/svg" xmlns:xlink="http://www.w3.org/1999/xlink">
    <title>Artboard</title>
    <g id="Artboard" stroke="none" stroke-width="1" fill="none" fill-rule="evenodd">
        <g id="Testimonials-1" transform="translate(13.000000, 27.000000)" fill="#000000" fill-rule="nonzero">
            <rect id="Rectangle" x="26.8" y="17.1" width="26.8" height="1"></rect>
            <rect id="Rectangle" x="26.8" y="19.4" width="20.5" height="1"></rect>
            <rect id="Rectangle" x="26.8" y="21.8" width="24.6" height="1"></rect>
            <rect id="Rectangle" x="26.8" y="9.9" width="26.8" height="1"></rect>
            <rect id="Rectangle" x="26.8" y="12.3" width="20.5" height="1"></rect>
            <rect id="Rectangle" x="26.8" y="14.7" width="24.6" height="1"></rect>
            <rect id="Rectangle" x="26.8" y="24.2" width="9.9" height="1"></rect>
            <rect id="Rectangle" x="0" y="10.1" width="19.6" height="2.4"></rect>
            <path d="M29.6,6.2 L26.7,6.2 L26.7,4.2 C26.7,3.4 26.8,2.7 26.9,2.2 C27,1.7 27.3,1.3 27.7,0.9 C28.1,0.5 28.6,0.2 29.2,0 L29.8,1.2 C29.2,1.4 28.8,1.7 28.6,2 C28.4,2.3 28.2,2.8 28.2,3.4 L29.6,3.4 L29.6,6.2 L29.6,6.2 Z M34.4,6.2 L31.5,6.2 L31.5,4.2 C31.5,3.4 31.6,2.7 31.7,2.2 C31.8,1.7 32.1,1.3 32.5,0.9 C33,0.5 33.5,0.2 34.1,0 L34.7,1.2 C34.1,1.4 33.7,1.7 33.5,2 C33.3,2.3 33.1,2.8 33,3.3 L34.4,3.3 L34.4,6.2 Z" id="Shape"></path>
        </g>
    </g>
</svg>