<svg xmlns="http://www.w3.org/2000/svg" width="120" height="80" viewBox="0 0 120 80"><g fill="none" fill-rule="nonzero"><g fill="#000" transform="translate(54 41)"><path d="M0 0h11v11H0z" opacity=".3"/><path d="M0 5.518c1.256-.114 2.945.314 5.067 1.284 2.122.97 4.1 1.237 5.933.802V11H0V5.518Z"/><circle cx="8.25" cy="2.75" r="1.375"/></g><g fill="#0D0D0D"><path d="M11.458 19.052H11l.334-.784h.3l-.176.784Zm.625 0h-.458l.334-.784h.3l-.176.784ZM14.44 20.441h-.433l-.981-1.491v1.491h-.433v-2.176h.433l.981 1.494v-1.494h.433zM16.484 18.716v1.725h-.436v-.218a.572.572 0 0 1-.218.176.673.673 0 0 1-.292.064.722.722 0 0 1-.356-.086.602.602 0 0 1-.243-.252.838.838 0 0 1-.088-.397v-1.012h.433v.95c0 .137.034.242.102.316a.36.36 0 0 0 .278.11c.12 0 .214-.037.282-.11.068-.074.102-.18.102-.316v-.95h.436ZM17.344 18.137v2.304h-.433v-2.304zM18.204 18.137v2.304h-.433v-2.304zM18.52 19.572c0-.174.034-.329.103-.464a.746.746 0 0 1 .679-.42.694.694 0 0 1 .566.274v-.246h.436v1.725h-.436v-.252a.645.645 0 0 1-.23.2.701.701 0 0 1-.34.08.725.725 0 0 1-.393-.112.783.783 0 0 1-.282-.316 1.02 1.02 0 0 1-.104-.469Zm1.348.007a.562.562 0 0 0-.062-.273.438.438 0 0 0-.393-.235.436.436 0 0 0-.388.232.544.544 0 0 0-.063.27c0 .103.02.194.063.272a.458.458 0 0 0 .167.179.444.444 0 0 0 .614-.173.562.562 0 0 0 .062-.272ZM21.684 18.51a.263.263 0 0 1-.19-.073.243.243 0 0 1-.076-.182c0-.072.025-.133.075-.182a.263.263 0 0 1 .19-.073c.077 0 .14.024.19.073.051.049.077.11.077.182a.243.243 0 0 1-.076.182.263.263 0 0 1-.19.074Zm.213.206v1.725h-.433v-1.725h.433ZM24.452 18.691c.21 0 .38.065.509.195s.193.31.193.543v1.012h-.433v-.953c0-.135-.034-.238-.102-.31a.366.366 0 0 0-.278-.107.37.37 0 0 0-.28.107c-.07.072-.104.175-.104.31v.953h-.433v-.953c0-.135-.034-.238-.102-.31a.366.366 0 0 0-.278-.107.375.375 0 0 0-.283.107c-.07.072-.104.175-.104.31v.953h-.433v-1.725h.433v.209a.577.577 0 0 1 .215-.172.667.667 0 0 1 .29-.062.74.74 0 0 1 .358.086.598.598 0 0 1 .244.244c.056-.1.137-.18.243-.24a.688.688 0 0 1 .345-.09ZM25.999 18.965a.695.695 0 0 1 .566-.277.746.746 0 0 1 .679.419c.069.134.103.289.103.465 0 .177-.034.333-.103.469a.783.783 0 0 1-.282.316.73.73 0 0 1-.397.112.688.688 0 0 1-.566-.274v1.068h-.433v-2.547h.433v.25Zm.906.607a.544.544 0 0 0-.063-.269.44.44 0 0 0-.78.005.553.553 0 0 0-.063.27c0 .104.02.195.063.271a.45.45 0 0 0 .167.176.43.43 0 0 0 .445-.001c.07-.042.125-.1.168-.178a.56.56 0 0 0 .063-.274ZM29.256 19.541c0 .062-.004.118-.013.168h-1.252a.43.43 0 0 0 .13.293.4.4 0 0 0 .281.106c.16 0 .275-.07.343-.209h.467a.786.786 0 0 1-.284.41.827.827 0 0 1-.517.16.89.89 0 0 1-.444-.11.776.776 0 0 1-.306-.313.964.964 0 0 1-.11-.467c0-.179.036-.336.109-.47a.758.758 0 0 1 .303-.312.903.903 0 0 1 .448-.109c.163 0 .31.035.438.106.129.07.229.17.3.3.071.13.107.28.107.447Zm-.449-.124a.347.347 0 0 0-.12-.27.426.426 0 0 0-.288-.1.392.392 0 0 0-.27.097.432.432 0 0 0-.135.273h.813ZM30.004 18.984a.603.603 0 0 1 .526-.293v.458h-.114c-.136 0-.239.032-.308.096-.07.065-.104.177-.104.337v.859h-.433v-1.725h.433v.268ZM30.71 19.572c0-.174.034-.329.103-.464a.754.754 0 0 1 1-.347.638.638 0 0 1 .242.195v-.819h.44v2.304h-.44v-.255a.588.588 0 0 1-.226.205.704.704 0 0 1-.337.078.732.732 0 0 1-.396-.112.779.779 0 0 1-.283-.316 1.02 1.02 0 0 1-.104-.469Zm1.348.007a.562.562 0 0 0-.062-.273.438.438 0 0 0-.393-.235.436.436 0 0 0-.388.232.544.544 0 0 0-.063.27c0 .103.021.194.063.272a.458.458 0 0 0 .167.179.444.444 0 0 0 .614-.173.562.562 0 0 0 .062-.272ZM33.138 18.51a.263.263 0 0 1-.19-.073.243.243 0 0 1-.076-.182c0-.072.025-.133.075-.182a.263.263 0 0 1 .19-.073c.077 0 .14.024.19.073.051.049.077.11.077.182a.243.243 0 0 1-.076.182.263.263 0 0 1-.19.074Zm.213.206v1.725h-.433v-1.725h.433ZM35.37 19.541c0 .062-.003.118-.012.168h-1.252a.43.43 0 0 0 .13.293.4.4 0 0 0 .281.106c.161 0 .275-.07.343-.209h.468a.786.786 0 0 1-.285.41.827.827 0 0 1-.517.16.89.89 0 0 1-.443-.11.776.776 0 0 1-.307-.313.964.964 0 0 1-.11-.467c0-.179.037-.336.109-.47a.758.758 0 0 1 .303-.312.903.903 0 0 1 .448-.109c.163 0 .31.035.438.106.129.07.229.17.3.3.071.13.107.28.107.447Zm-.448-.124a.347.347 0 0 0-.12-.27.426.426 0 0 0-.288-.1.392.392 0 0 0-.27.097.432.432 0 0 0-.135.273h.813ZM36.19 19.074v.835c0 .058.014.1.042.126.028.026.075.039.141.039h.201v.367h-.272c-.365 0-.548-.179-.548-.536v-.83h-.204v-.359h.204v-.426h.437v.426h.383v.358h-.383ZM38.384 20.469a.898.898 0 0 1-.446-.11.793.793 0 0 1-.31-.313.943.943 0 0 1-.114-.467c0-.177.04-.333.116-.467a.809.809 0 0 1 .317-.313.915.915 0 0 1 .449-.11c.165 0 .314.036.448.11.134.073.24.178.318.313.077.134.115.29.115.467 0 .176-.04.332-.119.467a.827.827 0 0 1-.321.312.93.93 0 0 1-.453.111Zm0-.38c.078 0 .152-.019.22-.057a.417.417 0 0 0 .166-.173.585.585 0 0 0 .062-.28c0-.164-.043-.29-.128-.379a.42.42 0 0 0-.314-.132.41.41 0 0 0-.311.132c-.084.088-.125.215-.125.379s.04.29.122.378a.401.401 0 0 0 .308.132ZM39.485 19.572c0-.174.034-.329.103-.464a.754.754 0 0 1 1-.347.638.638 0 0 1 .242.195v-.819h.44v2.304h-.44v-.255a.588.588 0 0 1-.226.205.704.704 0 0 1-.337.078.732.732 0 0 1-.396-.112.779.779 0 0 1-.283-.316 1.02 1.02 0 0 1-.103-.469Zm1.348.007a.562.562 0 0 0-.062-.273.438.438 0 0 0-.392-.235.436.436 0 0 0-.389.232.544.544 0 0 0-.063.27c0 .103.021.194.063.272a.458.458 0 0 0 .167.179.444.444 0 0 0 .614-.173.562.562 0 0 0 .062-.272ZM41.913 18.51a.263.263 0 0 1-.19-.073.243.243 0 0 1-.076-.182c0-.072.025-.133.076-.182a.263.263 0 0 1 .19-.073c.076 0 .14.024.19.073.05.049.076.11.076.182a.243.243 0 0 1-.076.182.263.263 0 0 1-.19.074Zm.213.206v1.725h-.433v-1.725h.433ZM43.314 20.469a.898.898 0 0 1-.445-.11.793.793 0 0 1-.311-.313.943.943 0 0 1-.113-.467c0-.177.039-.333.116-.467a.809.809 0 0 1 .317-.313.915.915 0 0 1 .448-.11c.165 0 .315.036.449.11.134.073.24.178.317.313.077.134.116.29.116.467 0 .176-.04.332-.12.467a.827.827 0 0 1-.32.312.93.93 0 0 1-.454.111Zm0-.38c.078 0 .152-.019.221-.057a.417.417 0 0 0 .166-.173.585.585 0 0 0 .062-.28c0-.164-.043-.29-.129-.379a.42.42 0 0 0-.314-.132.41.41 0 0 0-.31.132c-.084.088-.126.215-.126.379s.04.29.122.378a.401.401 0 0 0 .308.132ZM45.918 20.469a.898.898 0 0 1-.377-.076.667.667 0 0 1-.264-.207.527.527 0 0 1-.107-.29h.436a.24.24 0 0 0 .098.165.337.337 0 0 0 .211.066.327.327 0 0 0 .194-.05.151.151 0 0 0 .07-.128c0-.056-.03-.098-.086-.126a1.593 1.593 0 0 0-.27-.092 2.283 2.283 0 0 1-.314-.096.545.545 0 0 1-.21-.153.411.411 0 0 1-.089-.277.45.45 0 0 1 .082-.262.551.551 0 0 1 .235-.186.876.876 0 0 1 .36-.069c.205 0 .368.051.49.154a.572.572 0 0 1 .2.416h-.414a.226.226 0 0 0-.085-.164.315.315 0 0 0-.203-.06.318.318 0 0 0-.18.043.14.14 0 0 0-.064.122c0 .058.029.102.086.132.058.03.148.06.27.092.123.031.225.063.306.096.08.034.15.085.209.155.058.069.089.16.09.275 0 .1-.027.189-.081.268a.54.54 0 0 1-.235.185.886.886 0 0 1-.358.067ZM48.541 19.541c0 .062-.004.118-.012.168h-1.253a.43.43 0 0 0 .13.293.4.4 0 0 0 .282.106c.16 0 .275-.07.343-.209h.467a.786.786 0 0 1-.284.41.827.827 0 0 1-.517.16.89.89 0 0 1-.444-.11.776.776 0 0 1-.306-.313.964.964 0 0 1-.11-.467c0-.179.036-.336.108-.47a.758.758 0 0 1 .304-.312.903.903 0 0 1 .448-.109c.163 0 .309.035.438.106.129.07.229.17.3.3.07.13.106.28.106.447Zm-.448-.124a.347.347 0 0 0-.12-.27.426.426 0 0 0-.288-.1.392.392 0 0 0-.271.097.432.432 0 0 0-.135.273h.814ZM48.746 19.572c0-.174.034-.329.103-.464a.754.754 0 0 1 1-.347.638.638 0 0 1 .242.195v-.819h.44v2.304h-.44v-.255a.588.588 0 0 1-.226.205.704.704 0 0 1-.337.078.732.732 0 0 1-.396-.112.779.779 0 0 1-.283-.316 1.02 1.02 0 0 1-.103-.469Zm1.348.007a.562.562 0 0 0-.062-.273.438.438 0 0 0-.392-.235.436.436 0 0 0-.389.232.544.544 0 0 0-.063.27c0 .103.021.194.063.272a.458.458 0 0 0 .167.179.444.444 0 0 0 .614-.173.562.562 0 0 0 .062-.272ZM52.194 19.074v.835c0 .058.014.1.042.126.028.026.075.039.141.039h.201v.367h-.272c-.365 0-.548-.179-.548-.536v-.83h-.204v-.359h.204v-.426h.436v.426h.384v.358h-.384ZM54.508 18.716v1.725h-.436v-.218a.572.572 0 0 1-.218.176.673.673 0 0 1-.292.064.722.722 0 0 1-.356-.086.602.602 0 0 1-.243-.252.838.838 0 0 1-.088-.397v-1.012h.433v.95c0 .137.034.242.102.316a.36.36 0 0 0 .278.11c.12 0 .214-.037.282-.11.068-.074.102-.18.102-.316v-.95h.436ZM55.368 18.984a.603.603 0 0 1 .526-.293v.458h-.115c-.136 0-.238.032-.307.096-.07.065-.104.177-.104.337v.859h-.433v-1.725h.433v.268ZM56.618 18.965a.695.695 0 0 1 .566-.277.746.746 0 0 1 .679.419c.069.134.103.289.103.465 0 .177-.034.333-.103.469a.783.783 0 0 1-.282.316.73.73 0 0 1-.397.112.688.688 0 0 1-.566-.274v1.068h-.433v-2.547h.433v.25Zm.906.607a.544.544 0 0 0-.063-.269.44.44 0 0 0-.78.005.553.553 0 0 0-.063.27c0 .104.02.195.063.271a.45.45 0 0 0 .167.176.43.43 0 0 0 .446-.001c.069-.042.124-.1.167-.178a.56.56 0 0 0 .063-.274ZM58.501 18.51a.263.263 0 0 1-.19-.073.243.243 0 0 1-.076-.182c0-.072.026-.133.076-.182a.263.263 0 0 1 .19-.073c.077 0 .14.024.19.073.051.049.076.11.076.182a.243.243 0 0 1-.075.182.263.263 0 0 1-.19.074Zm.214.206v1.725h-.433v-1.725h.433ZM59.797 20.469a.898.898 0 0 1-.377-.076.667.667 0 0 1-.264-.207.527.527 0 0 1-.107-.29h.436a.24.24 0 0 0 .097.165.337.337 0 0 0 .212.066.327.327 0 0 0 .194-.05.151.151 0 0 0 .07-.128c0-.056-.03-.098-.086-.126a1.593 1.593 0 0 0-.27-.092 2.283 2.283 0 0 1-.314-.096.545.545 0 0 1-.21-.153.411.411 0 0 1-.089-.277.45.45 0 0 1 .082-.262.551.551 0 0 1 .235-.186.876.876 0 0 1 .36-.069c.205 0 .368.051.49.154a.572.572 0 0 1 .2.416h-.414a.226.226 0 0 0-.085-.164.315.315 0 0 0-.203-.06.318.318 0 0 0-.18.043.14.14 0 0 0-.064.122c0 .058.029.102.086.132.058.03.148.06.27.092.123.031.225.063.306.096.08.034.15.085.208.155.06.069.09.16.092.275 0 .1-.028.189-.082.268a.54.54 0 0 1-.235.185.886.886 0 0 1-.358.067ZM62.324 20.469a.898.898 0 0 1-.445-.11.793.793 0 0 1-.31-.313.943.943 0 0 1-.114-.467c0-.177.039-.333.116-.467a.809.809 0 0 1 .317-.313.915.915 0 0 1 .449-.11c.165 0 .314.036.448.11.134.073.24.178.317.313.078.134.116.29.116.467 0 .176-.04.332-.119.467a.827.827 0 0 1-.321.312.93.93 0 0 1-.454.111Zm0-.38c.079 0 .153-.019.222-.057a.417.417 0 0 0 .165-.173.585.585 0 0 0 .062-.28c0-.164-.043-.29-.128-.379a.42.42 0 0 0-.314-.132.41.41 0 0 0-.311.132c-.084.088-.125.215-.125.379s.04.29.122.378a.401.401 0 0 0 .307.132ZM63.97 18.984a.603.603 0 0 1 .526-.293v.458h-.115c-.136 0-.238.032-.307.096-.07.065-.104.177-.104.337v.859h-.433v-1.725h.433v.268ZM65.736 18.691c.204 0 .37.065.495.195.126.13.189.31.189.543v1.012h-.433v-.953c0-.137-.034-.242-.102-.316a.36.36 0 0 0-.279-.11.37.37 0 0 0-.283.11c-.069.074-.103.18-.103.316v.953h-.433v-1.725h.433v.215a.599.599 0 0 1 .22-.176.68.68 0 0 1 .296-.064ZM66.72 19.572c0-.174.034-.329.103-.464a.746.746 0 0 1 .679-.42.694.694 0 0 1 .566.274v-.246h.437v1.725h-.437v-.252a.645.645 0 0 1-.23.2.701.701 0 0 1-.339.08.725.725 0 0 1-.394-.112.783.783 0 0 1-.282-.316 1.02 1.02 0 0 1-.103-.469Zm1.348.007a.562.562 0 0 0-.061-.273.438.438 0 0 0-.393-.235.436.436 0 0 0-.388.232.544.544 0 0 0-.064.27c0 .103.021.194.064.272a.458.458 0 0 0 .167.179c.069.041.142.062.22.062a.444.444 0 0 0 .394-.235.562.562 0 0 0 .061-.272ZM69.361 18.984a.603.603 0 0 1 .526-.293v.458h-.114c-.136 0-.239.032-.308.096-.07.065-.104.177-.104.337v.859h-.433v-1.725h.433v.268ZM71.77 19.541c0 .062-.003.118-.011.168h-1.253a.43.43 0 0 0 .13.293.4.4 0 0 0 .281.106c.161 0 .276-.07.344-.209h.467a.786.786 0 0 1-.285.41.827.827 0 0 1-.516.16.89.89 0 0 1-.444-.11.776.776 0 0 1-.307-.313.964.964 0 0 1-.11-.467c0-.179.037-.336.109-.47a.758.758 0 0 1 .303-.312.903.903 0 0 1 .449-.109c.162 0 .308.035.437.106.13.07.23.17.3.3.071.13.107.28.107.447Zm-.448-.124a.347.347 0 0 0-.12-.27.426.426 0 0 0-.288-.1.392.392 0 0 0-.27.097.432.432 0 0 0-.135.273h.813ZM73.042 18.51a.263.263 0 0 1-.19-.073.243.243 0 0 1-.076-.182c0-.072.025-.133.076-.182a.263.263 0 0 1 .19-.073c.077 0 .14.024.19.073.051.049.076.11.076.182a.243.243 0 0 1-.076.182.263.263 0 0 1-.19.074Zm.214.206v1.725h-.433v-1.725h.433ZM74.632 18.691c.204 0 .37.065.495.195.126.13.189.31.189.543v1.012h-.433v-.953c0-.137-.034-.242-.102-.316a.36.36 0 0 0-.279-.11.37.37 0 0 0-.283.11c-.069.074-.103.18-.103.316v.953h-.433v-1.725h.433v.215a.599.599 0 0 1 .22-.176.68.68 0 0 1 .296-.064ZM76.231 19.074v.835c0 .058.014.1.042.126.028.026.075.039.14.039h.202v.367h-.272c-.365 0-.548-.179-.548-.536v-.83h-.204v-.359h.204v-.426h.436v.426h.384v.358h-.384ZM78.52 19.541c0 .062-.004.118-.012.168h-1.253a.43.43 0 0 0 .13.293.4.4 0 0 0 .281.106c.161 0 .276-.07.344-.209h.467a.786.786 0 0 1-.285.41.827.827 0 0 1-.516.16.89.89 0 0 1-.444-.11.776.776 0 0 1-.306-.313.964.964 0 0 1-.11-.467c0-.179.036-.336.108-.47a.758.758 0 0 1 .303-.312.903.903 0 0 1 .449-.109c.163 0 .309.035.437.106.13.07.23.17.3.3.072.13.107.28.107.447Zm-.448-.124a.347.347 0 0 0-.121-.27.426.426 0 0 0-.288-.1.392.392 0 0 0-.27.097.432.432 0 0 0-.135.273h.814ZM79.269 18.984a.603.603 0 0 1 .526-.293v.458h-.115c-.136 0-.239.032-.308.096-.069.065-.103.177-.103.337v.859h-.433v-1.725h.433v.268ZM79.974 19.572c0-.174.035-.329.104-.464a.754.754 0 0 1 1-.347.638.638 0 0 1 .241.195v-.819h.44v2.304h-.44v-.255a.588.588 0 0 1-.225.205.704.704 0 0 1-.337.078.732.732 0 0 1-.396-.112.779.779 0 0 1-.283-.316 1.02 1.02 0 0 1-.104-.469Zm1.349.007a.562.562 0 0 0-.062-.273.438.438 0 0 0-.393-.235.436.436 0 0 0-.388.232.544.544 0 0 0-.064.27c0 .103.021.194.064.272a.458.458 0 0 0 .167.179c.069.041.143.062.22.062a.444.444 0 0 0 .394-.235.562.562 0 0 0 .062-.272ZM83.8 18.716v1.725h-.436v-.218a.572.572 0 0 1-.218.176.673.673 0 0 1-.292.064.722.722 0 0 1-.356-.086.602.602 0 0 1-.243-.252.838.838 0 0 1-.088-.397v-1.012h.433v.95c0 .137.034.242.102.316a.36.36 0 0 0 .278.11c.12 0 .214-.037.282-.11.068-.074.102-.18.102-.316v-.95h.436ZM86.355 18.691c.21 0 .38.065.509.195s.193.31.193.543v1.012h-.433v-.953c0-.135-.034-.238-.102-.31a.366.366 0 0 0-.278-.107.37.37 0 0 0-.28.107c-.07.072-.104.175-.104.31v.953h-.433v-.953c0-.135-.034-.238-.102-.31a.366.366 0 0 0-.278-.107.375.375 0 0 0-.283.107c-.07.072-.104.175-.104.31v.953h-.433v-1.725h.433v.209a.577.577 0 0 1 .215-.172.667.667 0 0 1 .29-.062.74.74 0 0 1 .358.086.598.598 0 0 1 .244.244c.056-.1.137-.18.243-.24a.688.688 0 0 1 .345-.09ZM87.66 20.463a.267.267 0 0 1-.193-.073.243.243 0 0 1-.076-.183c0-.072.026-.133.076-.182a.267.267 0 0 1 .193-.073c.077 0 .14.025.19.073.049.05.073.11.073.182a.245.245 0 0 1-.074.183.258.258 0 0 1-.189.073ZM90.583 18.94a.68.68 0 0 1-.082.327.604.604 0 0 1-.256.246.929.929 0 0 1-.441.094h-.362v.834h-.433v-2.173h.795c.167 0 .31.029.427.087a.605.605 0 0 1 .264.24.678.678 0 0 1 .088.345Zm-.798.315c.12 0 .209-.028.266-.083a.305.305 0 0 0 .087-.232c0-.211-.118-.317-.353-.317h-.343v.632h.343ZM92.483 19.541c0 .062-.004.118-.013.168h-1.252a.43.43 0 0 0 .13.293.4.4 0 0 0 .28.106c.162 0 .276-.07.344-.209h.467a.786.786 0 0 1-.284.41.827.827 0 0 1-.517.16.89.89 0 0 1-.444-.11.776.776 0 0 1-.306-.313.964.964 0 0 1-.11-.467c0-.179.036-.336.109-.47a.758.758 0 0 1 .303-.312.903.903 0 0 1 .448-.109c.163 0 .309.035.438.106.129.07.229.17.3.3.071.13.107.28.107.447Zm-.449-.124a.347.347 0 0 0-.12-.27.426.426 0 0 0-.288-.1.392.392 0 0 0-.27.097.432.432 0 0 0-.135.273h.813ZM93.231 18.137v2.304h-.433v-2.304zM94.091 18.137v2.304h-.433v-2.304zM96.11 19.541c0 .062-.003.118-.011.168h-1.253a.43.43 0 0 0 .13.293.4.4 0 0 0 .281.106c.161 0 .275-.07.344-.209h.467a.786.786 0 0 1-.285.41.827.827 0 0 1-.517.16.89.89 0 0 1-.443-.11.776.776 0 0 1-.307-.313.964.964 0 0 1-.11-.467c0-.179.037-.336.109-.47a.758.758 0 0 1 .303-.312.903.903 0 0 1 .448-.109c.163 0 .31.035.438.106.129.07.229.17.3.3.071.13.107.28.107.447Zm-.448-.124a.347.347 0 0 0-.12-.27.426.426 0 0 0-.288-.1.392.392 0 0 0-.27.097.432.432 0 0 0-.135.273h.813ZM97.376 18.691c.204 0 .37.065.495.195.126.13.189.31.189.543v1.012h-.433v-.953c0-.137-.035-.242-.103-.316a.36.36 0 0 0-.278-.11.37.37 0 0 0-.283.11c-.069.074-.104.18-.104.316v.953h-.433v-1.725h.433v.215a.599.599 0 0 1 .222-.176.68.68 0 0 1 .295-.064ZM98.975 19.074v.835c0 .058.014.1.042.126.028.026.075.039.14.039h.202v.367h-.273c-.365 0-.547-.179-.547-.536v-.83h-.204v-.359h.204v-.426h.436v.426h.384v.358h-.384ZM101.264 19.541c0 .062-.004.118-.012.168h-1.253a.43.43 0 0 0 .13.293.4.4 0 0 0 .281.106c.161 0 .276-.07.344-.209h.467a.786.786 0 0 1-.285.41.827.827 0 0 1-.516.16.89.89 0 0 1-.444-.11.776.776 0 0 1-.306-.313.964.964 0 0 1-.11-.467c0-.179.036-.336.108-.47a.758.758 0 0 1 .303-.312.903.903 0 0 1 .449-.109c.163 0 .308.035.437.106.13.07.23.17.3.3.071.13.107.28.107.447Zm-.448-.124a.347.347 0 0 0-.121-.27.426.426 0 0 0-.288-.1.392.392 0 0 0-.27.097.432.432 0 0 0-.135.273h.814ZM102.235 20.469a.898.898 0 0 1-.377-.076.667.667 0 0 1-.265-.207.527.527 0 0 1-.106-.29h.436a.24.24 0 0 0 .097.165.337.337 0 0 0 .212.066.327.327 0 0 0 .194-.05.151.151 0 0 0 .07-.128c0-.056-.03-.098-.086-.126a1.593 1.593 0 0 0-.27-.092 2.283 2.283 0 0 1-.315-.096.545.545 0 0 1-.21-.153.411.411 0 0 1-.088-.277.45.45 0 0 1 .082-.262.551.551 0 0 1 .235-.186.876.876 0 0 1 .36-.069c.205 0 .367.051.49.154a.572.572 0 0 1 .2.416h-.414a.226.226 0 0 0-.085-.164.315.315 0 0 0-.203-.06.318.318 0 0 0-.181.043.14.14 0 0 0-.063.122c0 .058.029.102.086.132.058.03.148.06.27.092.123.031.225.063.306.096.08.034.15.085.208.155.06.069.09.16.092.275 0 .1-.028.189-.082.268a.54.54 0 0 1-.235.185.886.886 0 0 1-.358.067ZM103.154 19.575c0-.172.036-.325.107-.459a.798.798 0 0 1 .289-.313.753.753 0 0 1 .402-.112c.122 0 .23.024.323.07a.66.66 0 0 1 .228.18v-.225h.436v2.547h-.436v-1.059a.707.707 0 0 1-.56.262.733.733 0 0 1-.398-.114.8.8 0 0 1-.286-.316.985.985 0 0 1-.105-.46Zm1.349.004a.55.55 0 0 0-.065-.274.449.449 0 0 0-.39-.234.451.451 0 0 0-.387.232.54.54 0 0 0-.065.272c0 .106.022.198.065.276a.446.446 0 0 0 .387.235.439.439 0 0 0 .39-.233.55.55 0 0 0 .065-.274ZM106.98 18.716v1.725h-.436v-.218a.572.572 0 0 1-.218.176.673.673 0 0 1-.292.064.722.722 0 0 1-.356-.086.602.602 0 0 1-.243-.252.838.838 0 0 1-.088-.397v-1.012h.433v.95c0 .137.034.242.102.316a.36.36 0 0 0 .278.11c.12 0 .214-.037.282-.11.068-.074.102-.18.102-.316v-.95h.436ZM109 19.541c0 .062-.004.118-.012.168h-1.253a.43.43 0 0 0 .13.293.4.4 0 0 0 .281.106c.161 0 .276-.07.344-.209h.467a.786.786 0 0 1-.285.41.827.827 0 0 1-.516.16.89.89 0 0 1-.444-.11.776.776 0 0 1-.307-.313.964.964 0 0 1-.11-.467c0-.179.037-.336.109-.47a.758.758 0 0 1 .303-.312.903.903 0 0 1 .449-.109c.162 0 .308.035.437.106.13.07.23.17.3.3.071.13.107.28.107.447Zm-.449-.124a.347.347 0 0 0-.12-.27.426.426 0 0 0-.288-.1.392.392 0 0 0-.27.097.432.432 0 0 0-.135.273h.813ZM15.74 22.383v2.304h-.433v-2.304zM16.928 24.715a.898.898 0 0 1-.445-.11.793.793 0 0 1-.311-.314.943.943 0 0 1-.113-.467c0-.176.038-.332.116-.467a.809.809 0 0 1 .317-.313.915.915 0 0 1 .448-.11c.165 0 .315.037.449.11.134.074.24.178.317.313.077.135.116.29.116.467 0 .177-.04.332-.12.467a.827.827 0 0 1-.32.313.93.93 0 0 1-.454.11Zm0-.38c.078 0 .152-.02.221-.058a.417.417 0 0 0 .166-.173.585.585 0 0 0 .062-.28c0-.164-.043-.29-.129-.378a.42.42 0 0 0-.314-.132.41.41 0 0 0-.31.132c-.084.088-.126.214-.126.378s.04.29.122.379a.401.401 0 0 0 .308.132ZM18.574 23.23a.603.603 0 0 1 .526-.293v.458h-.115c-.136 0-.239.032-.308.096s-.103.177-.103.336v.86h-.433v-1.725h.433v.268ZM20.983 23.787c0 .062-.004.118-.012.168h-1.253a.43.43 0 0 0 .13.293.4.4 0 0 0 .281.106c.161 0 .276-.07.344-.21h.467a.786.786 0 0 1-.285.41.827.827 0 0 1-.516.16.89.89 0 0 1-.444-.11.776.776 0 0 1-.306-.313.964.964 0 0 1-.11-.467c0-.178.036-.335.108-.47a.758.758 0 0 1 .303-.311.903.903 0 0 1 .449-.11c.163 0 .308.036.437.107.13.07.23.17.3.3.072.13.107.279.107.447Zm-.448-.125a.347.347 0 0 0-.121-.269.426.426 0 0 0-.288-.101.392.392 0 0 0-.27.098.432.432 0 0 0-.135.272h.814ZM23.427 22.937c.21 0 .38.065.509.194.128.13.193.311.193.544v1.012h-.433v-.953c0-.135-.034-.238-.102-.31a.366.366 0 0 0-.279-.107.37.37 0 0 0-.28.107c-.069.072-.103.175-.103.31v.953h-.433v-.953c0-.135-.034-.238-.102-.31a.366.366 0 0 0-.279-.107.375.375 0 0 0-.283.107c-.069.072-.103.175-.103.31v.953h-.433v-1.725h.433v.208a.577.577 0 0 1 .215-.17.667.667 0 0 1 .289-.063.74.74 0 0 1 .359.086.598.598 0 0 1 .244.244c.056-.1.137-.18.243-.24a.688.688 0 0 1 .345-.09ZM25.165 23.818c0-.174.035-.329.104-.464a.754.754 0 0 1 1-.347.638.638 0 0 1 .242.195v-.82h.439v2.305h-.44v-.256a.588.588 0 0 1-.225.206.704.704 0 0 1-.337.078.732.732 0 0 1-.396-.112.779.779 0 0 1-.283-.316 1.02 1.02 0 0 1-.104-.469Zm1.349.006a.562.562 0 0 0-.062-.272.438.438 0 0 0-.393-.235.436.436 0 0 0-.388.232.544.544 0 0 0-.064.269c0 .104.021.195.064.272a.458.458 0 0 0 .167.18.444.444 0 0 0 .614-.173.562.562 0 0 0 .062-.273ZM27.593 22.756a.263.263 0 0 1-.19-.073.243.243 0 0 1-.076-.182c0-.073.025-.133.076-.182a.263.263 0 0 1 .19-.073c.076 0 .14.024.19.073.05.049.076.11.076.182a.243.243 0 0 1-.076.182.263.263 0 0 1-.19.073Zm.214.206v1.725h-.433v-1.725h.433ZM28.122 23.818c0-.174.035-.329.104-.464a.746.746 0 0 1 .679-.42.694.694 0 0 1 .566.274v-.246h.436v1.725h-.436v-.253a.645.645 0 0 1-.23.201.701.701 0 0 1-.34.08.725.725 0 0 1-.394-.112.783.783 0 0 1-.281-.316 1.02 1.02 0 0 1-.104-.469Zm1.349.006a.562.562 0 0 0-.062-.272.438.438 0 0 0-.393-.235.436.436 0 0 0-.388.232.544.544 0 0 0-.064.269c0 .104.022.195.064.272a.458.458 0 0 0 .167.18.444.444 0 0 0 .614-.173.562.562 0 0 0 .062-.273ZM32.459 22.937c.21 0 .38.065.508.194.13.13.194.311.194.544v1.012h-.433v-.953c0-.135-.034-.238-.102-.31a.366.366 0 0 0-.279-.107.37.37 0 0 0-.28.107c-.069.072-.103.175-.103.31v.953h-.433v-.953c0-.135-.034-.238-.102-.31a.366.366 0 0 0-.279-.107.375.375 0 0 0-.283.107c-.069.072-.103.175-.103.31v.953h-.433v-1.725h.433v.208a.577.577 0 0 1 .215-.17.667.667 0 0 1 .289-.063.74.74 0 0 1 .359.086.598.598 0 0 1 .244.244c.056-.1.137-.18.243-.24a.688.688 0 0 1 .345-.09ZM34.045 24.229l-.361.875h-.279l.201-.875zM35.527 22.383v2.304h-.433v-2.304zM37.572 22.962v1.725h-.437v-.218a.572.572 0 0 1-.218.176.673.673 0 0 1-.292.063.722.722 0 0 1-.356-.085.602.602 0 0 1-.242-.252.838.838 0 0 1-.089-.397v-1.012h.433v.95c0 .136.035.242.103.315a.36.36 0 0 0 .278.111c.12 0 .213-.037.281-.11.068-.074.102-.18.102-.317v-.95h.437ZM37.887 23.824c0-.178.036-.334.108-.468a.777.777 0 0 1 .3-.312.864.864 0 0 1 .44-.11.84.84 0 0 1 .527.16.78.78 0 0 1 .28.45h-.467a.344.344 0 0 0-.125-.176.362.362 0 0 0-.218-.064.356.356 0 0 0-.294.136c-.072.09-.109.218-.109.384 0 .164.037.291.109.382.072.09.17.135.294.135.175 0 .29-.079.343-.237h.467a.796.796 0 0 1-.282.446.826.826 0 0 1-.525.165.864.864 0 0 1-.44-.11.777.777 0 0 1-.3-.312.973.973 0 0 1-.108-.469ZM40.365 23.32v.834c0 .058.014.1.041.126.028.026.075.04.141.04h.201v.367h-.272c-.365 0-.547-.179-.547-.536v-.831h-.205v-.358h.205v-.427h.436v.427h.383v.358h-.383ZM42.678 22.962v1.725h-.436v-.218a.572.572 0 0 1-.218.176.673.673 0 0 1-.292.063.722.722 0 0 1-.356-.085.602.602 0 0 1-.243-.252.838.838 0 0 1-.088-.397v-1.012h.433v.95c0 .136.034.242.102.315a.36.36 0 0 0 .279.111c.12 0 .213-.037.281-.11.068-.074.102-.18.102-.317v-.95h.436ZM43.761 24.715a.898.898 0 0 1-.377-.077.667.667 0 0 1-.265-.207.527.527 0 0 1-.107-.29h.437a.24.24 0 0 0 .097.166.337.337 0 0 0 .212.065.327.327 0 0 0 .193-.05.151.151 0 0 0 .07-.127c0-.056-.029-.098-.085-.126a1.593 1.593 0 0 0-.27-.092 2.283 2.283 0 0 1-.315-.097.545.545 0 0 1-.21-.152.411.411 0 0 1-.088-.277.45.45 0 0 1 .082-.262.551.551 0 0 1 .235-.187.876.876 0 0 1 .36-.068c.204 0 .367.051.489.154a.572.572 0 0 1 .2.416h-.414a.226.226 0 0 0-.085-.164.315.315 0 0 0-.202-.06.318.318 0 0 0-.181.043.14.14 0 0 0-.064.121c0 .059.03.103.087.133.058.03.147.06.27.092.123.03.225.063.305.096.08.033.15.085.21.154.058.07.088.162.09.276 0 .1-.027.189-.082.267a.54.54 0 0 1-.235.186.886.886 0 0 1-.357.067ZM47.655 22.937c.21 0 .38.065.51.194.128.13.192.311.192.544v1.012h-.433v-.953c0-.135-.034-.238-.102-.31a.366.366 0 0 0-.278-.107.37.37 0 0 0-.28.107c-.07.072-.104.175-.104.31v.953h-.433v-.953c0-.135-.034-.238-.102-.31a.366.366 0 0 0-.278-.107.375.375 0 0 0-.283.107c-.07.072-.104.175-.104.31v.953h-.433v-1.725h.433v.208a.577.577 0 0 1 .215-.17.667.667 0 0 1 .29-.063.74.74 0 0 1 .358.086.598.598 0 0 1 .245.244c.055-.1.136-.18.242-.24a.688.688 0 0 1 .345-.09ZM48.657 23.818c0-.174.035-.329.104-.464a.746.746 0 0 1 .679-.42.694.694 0 0 1 .566.274v-.246h.436v1.725h-.436v-.253a.645.645 0 0 1-.23.201.701.701 0 0 1-.34.08.725.725 0 0 1-.393-.112.783.783 0 0 1-.282-.316 1.02 1.02 0 0 1-.104-.469Zm1.35.006a.562.562 0 0 0-.063-.272.438.438 0 0 0-.393-.235.436.436 0 0 0-.388.232.544.544 0 0 0-.063.269c0 .104.02.195.063.272a.458.458 0 0 0 .167.18.444.444 0 0 0 .614-.173.562.562 0 0 0 .062-.273ZM51.299 22.383v2.304h-.433v-2.304zM53.319 23.787c0 .062-.004.118-.013.168h-1.252a.43.43 0 0 0 .13.293.4.4 0 0 0 .281.106c.161 0 .275-.07.343-.21h.468a.786.786 0 0 1-.285.41.827.827 0 0 1-.517.16.89.89 0 0 1-.443-.11.776.776 0 0 1-.307-.313.964.964 0 0 1-.11-.467c0-.178.037-.335.109-.47a.758.758 0 0 1 .303-.311.903.903 0 0 1 .448-.11c.163 0 .31.036.438.107.129.07.229.17.3.3.071.13.107.279.107.447Zm-.449-.125a.347.347 0 0 0-.12-.269.426.426 0 0 0-.288-.101.392.392 0 0 0-.27.098.432.432 0 0 0-.135.272h.813ZM54.29 24.715a.898.898 0 0 1-.377-.077.667.667 0 0 1-.265-.207.527.527 0 0 1-.106-.29h.436a.24.24 0 0 0 .097.166.337.337 0 0 0 .212.065.327.327 0 0 0 .193-.05.151.151 0 0 0 .07-.127c0-.056-.028-.098-.085-.126a1.593 1.593 0 0 0-.27-.092 2.283 2.283 0 0 1-.315-.097.545.545 0 0 1-.21-.152.411.411 0 0 1-.088-.277.45.45 0 0 1 .082-.262.551.551 0 0 1 .235-.187.876.876 0 0 1 .36-.068c.204 0 .367.051.489.154a.572.572 0 0 1 .2.416h-.414a.226.226 0 0 0-.085-.164.315.315 0 0 0-.202-.06.318.318 0 0 0-.181.043.14.14 0 0 0-.064.121c0 .059.03.103.087.133.058.03.147.06.27.092.123.03.225.063.305.096.08.033.15.085.21.154.058.07.088.162.09.276 0 .1-.027.189-.082.267a.54.54 0 0 1-.235.186.886.886 0 0 1-.357.067ZM56.938 22.962v1.725h-.436v-.218a.572.572 0 0 1-.218.176.673.673 0 0 1-.293.063.722.722 0 0 1-.355-.085.602.602 0 0 1-.243-.252.838.838 0 0 1-.088-.397v-1.012h.433v.95c0 .136.034.242.102.315a.36.36 0 0 0 .278.111c.12 0 .214-.037.282-.11.068-.074.102-.18.102-.317v-.95h.436ZM57.253 23.818c0-.174.035-.329.104-.464a.746.746 0 0 1 .679-.42.694.694 0 0 1 .566.274v-.246h.436v1.725h-.436v-.253a.645.645 0 0 1-.23.201.701.701 0 0 1-.34.08.725.725 0 0 1-.394-.112.783.783 0 0 1-.281-.316 1.02 1.02 0 0 1-.104-.469Zm1.349.006a.562.562 0 0 0-.062-.272.438.438 0 0 0-.393-.235.436.436 0 0 0-.388.232.544.544 0 0 0-.063.269c0 .104.02.195.063.272a.458.458 0 0 0 .167.18.444.444 0 0 0 .614-.173.562.562 0 0 0 .062-.273ZM59.35 23.818c0-.174.035-.329.104-.464a.754.754 0 0 1 1-.347.638.638 0 0 1 .242.195v-.82h.44v2.305h-.44v-.256a.588.588 0 0 1-.226.206.704.704 0 0 1-.337.078.732.732 0 0 1-.396-.112.779.779 0 0 1-.283-.316 1.02 1.02 0 0 1-.104-.469Zm1.349.006a.562.562 0 0 0-.062-.272.438.438 0 0 0-.393-.235.436.436 0 0 0-.388.232.544.544 0 0 0-.063.269c0 .104.02.195.063.272a.458.458 0 0 0 .167.18.444.444 0 0 0 .614-.173.562.562 0 0 0 .062-.273ZM61.448 23.818c0-.174.034-.329.103-.464a.746.746 0 0 1 .679-.42.694.694 0 0 1 .566.274v-.246h.436v1.725h-.436v-.253a.645.645 0 0 1-.23.201.701.701 0 0 1-.339.08.725.725 0 0 1-.394-.112.783.783 0 0 1-.282-.316 1.02 1.02 0 0 1-.103-.469Zm1.348.006a.562.562 0 0 0-.062-.272.438.438 0 0 0-.392-.235.436.436 0 0 0-.389.232.544.544 0 0 0-.063.269c0 .104.021.195.063.272a.458.458 0 0 0 .167.18.444.444 0 0 0 .614-.173.562.562 0 0 0 .062-.273ZM64.825 22.383v2.304h-.433v-2.304zM66.87 22.962v1.725h-.436v-.218a.572.572 0 0 1-.218.176.673.673 0 0 1-.293.063.722.722 0 0 1-.355-.085.602.602 0 0 1-.243-.252.838.838 0 0 1-.088-.397v-1.012h.433v.95c0 .136.034.242.102.315a.36.36 0 0 0 .278.111c.12 0 .214-.037.282-.11.068-.074.102-.18.102-.317v-.95h.436ZM67.185 23.824c0-.178.036-.334.109-.468a.777.777 0 0 1 .3-.312.864.864 0 0 1 .439-.11.84.84 0 0 1 .527.16.78.78 0 0 1 .28.45h-.467a.344.344 0 0 0-.125-.176.362.362 0 0 0-.218-.064.356.356 0 0 0-.294.136c-.072.09-.108.218-.108.384 0 .164.036.291.108.382.072.09.17.135.294.135.175 0 .29-.079.343-.237h.467a.796.796 0 0 1-.281.446.826.826 0 0 1-.526.165.864.864 0 0 1-.44-.11.777.777 0 0 1-.3-.312.973.973 0 0 1-.108-.469ZM69.663 23.32v.834c0 .058.014.1.042.126.028.026.074.04.14.04h.202v.367h-.273c-.365 0-.547-.179-.547-.536v-.831h-.204v-.358h.204v-.427h.436v.427h.384v.358h-.384ZM71.977 22.962v1.725h-.436v-.218a.572.572 0 0 1-.219.176.673.673 0 0 1-.292.063.722.722 0 0 1-.356-.085.602.602 0 0 1-.242-.252.838.838 0 0 1-.089-.397v-1.012h.434v.95c0 .136.034.242.102.315a.36.36 0 0 0 .278.111c.12 0 .213-.037.281-.11.068-.074.103-.18.103-.317v-.95h.436ZM73.06 24.715a.898.898 0 0 1-.378-.077.667.667 0 0 1-.265-.207.527.527 0 0 1-.106-.29h.436a.24.24 0 0 0 .097.166.337.337 0 0 0 .212.065.327.327 0 0 0 .193-.05.151.151 0 0 0 .07-.127c0-.056-.028-.098-.085-.126a1.593 1.593 0 0 0-.27-.092 2.283 2.283 0 0 1-.315-.097.545.545 0 0 1-.21-.152.411.411 0 0 1-.088-.277.45.45 0 0 1 .082-.262.551.551 0 0 1 .235-.187.876.876 0 0 1 .36-.068c.204 0 .367.051.489.154a.572.572 0 0 1 .201.416h-.414a.226.226 0 0 0-.085-.164.315.315 0 0 0-.203-.06.318.318 0 0 0-.181.043.14.14 0 0 0-.063.121c0 .059.028.103.086.133.058.03.148.06.27.092.123.03.225.063.306.096.08.033.15.085.208.154.06.07.09.162.092.276 0 .1-.028.189-.082.267a.54.54 0 0 1-.235.186.886.886 0 0 1-.358.067ZM74.714 23.821c0-.172.036-.325.107-.46a.798.798 0 0 1 .289-.312.753.753 0 0 1 .402-.112c.122 0 .23.023.323.07a.66.66 0 0 1 .228.179v-.224h.436v2.547h-.436V24.45a.707.707 0 0 1-.56.262.733.733 0 0 1-.398-.114.8.8 0 0 1-.286-.316.985.985 0 0 1-.105-.46Zm1.349.003a.55.55 0 0 0-.065-.274.449.449 0 0 0-.39-.233.451.451 0 0 0-.387.232.54.54 0 0 0-.065.272c0 .106.022.198.065.276a.446.446 0 0 0 .387.235.439.439 0 0 0 .39-.234.55.55 0 0 0 .065-.274ZM78.54 22.962v1.725h-.436v-.218a.572.572 0 0 1-.218.176.673.673 0 0 1-.292.063.722.722 0 0 1-.356-.085.602.602 0 0 1-.243-.252.838.838 0 0 1-.088-.397v-1.012h.433v.95c0 .136.034.242.102.315a.36.36 0 0 0 .279.111c.12 0 .213-.037.281-.11.068-.074.102-.18.102-.317v-.95h.436ZM79.187 22.756a.263.263 0 0 1-.19-.073.243.243 0 0 1-.076-.182c0-.073.025-.133.076-.182a.263.263 0 0 1 .19-.073c.076 0 .14.024.19.073.05.049.076.11.076.182a.243.243 0 0 1-.076.182.263.263 0 0 1-.19.073Zm.213.206v1.725h-.433v-1.725h.433ZM80.483 24.715a.898.898 0 0 1-.378-.077.667.667 0 0 1-.264-.207.527.527 0 0 1-.107-.29h.436a.24.24 0 0 0 .098.166.337.337 0 0 0 .212.065.327.327 0 0 0 .193-.05.151.151 0 0 0 .07-.127c0-.056-.029-.098-.085-.126a1.593 1.593 0 0 0-.271-.092 2.283 2.283 0 0 1-.314-.097.545.545 0 0 1-.21-.152.411.411 0 0 1-.089-.277.45.45 0 0 1 .082-.262.551.551 0 0 1 .236-.187.876.876 0 0 1 .36-.068c.204 0 .367.051.489.154a.572.572 0 0 1 .2.416h-.414a.226.226 0 0 0-.085-.164.315.315 0 0 0-.203-.06.318.318 0 0 0-.18.043.14.14 0 0 0-.064.121c0 .059.029.103.087.133.057.03.147.06.269.092.124.03.226.063.306.096.08.033.15.085.209.154.059.07.089.162.091.276 0 .1-.027.189-.082.267a.54.54 0 0 1-.235.186.886.886 0 0 1-.357.067ZM81.986 24.229l-.362.875h-.278l.201-.875zM85.163 22.937c.21 0 .38.065.509.194.128.13.193.311.193.544v1.012h-.433v-.953c0-.135-.034-.238-.102-.31a.366.366 0 0 0-.279-.107.37.37 0 0 0-.28.107c-.069.072-.103.175-.103.31v.953h-.433v-.953c0-.135-.034-.238-.102-.31a.366.366 0 0 0-.279-.107.375.375 0 0 0-.283.107c-.069.072-.103.175-.103.31v.953h-.433v-1.725h.433v.208a.577.577 0 0 1 .215-.17.667.667 0 0 1 .289-.063.74.74 0 0 1 .359.086.598.598 0 0 1 .244.244c.056-.1.137-.18.243-.24a.688.688 0 0 1 .345-.09ZM87.037 24.715a.898.898 0 0 1-.445-.11.793.793 0 0 1-.311-.314.943.943 0 0 1-.113-.467c0-.176.039-.332.116-.467a.809.809 0 0 1 .317-.313.915.915 0 0 1 .449-.11c.164 0 .314.037.448.11.134.074.24.178.317.313.077.135.116.29.116.467 0 .177-.04.332-.119.467a.827.827 0 0 1-.322.313.93.93 0 0 1-.453.11Zm0-.38c.079 0 .152-.02.221-.058a.417.417 0 0 0 .166-.173.585.585 0 0 0 .062-.28c0-.164-.043-.29-.129-.378a.42.42 0 0 0-.314-.132.41.41 0 0 0-.31.132c-.084.088-.126.214-.126.378s.04.29.122.379a.401.401 0 0 0 .308.132ZM88.683 22.383v2.304h-.433v-2.304zM89.543 22.383v2.304h-.433v-2.304zM90.19 22.756a.263.263 0 0 1-.191-.073.243.243 0 0 1-.076-.182c0-.073.025-.133.076-.182a.263.263 0 0 1 .19-.073c.076 0 .14.024.19.073.05.049.076.11.076.182a.243.243 0 0 1-.076.182.263.263 0 0 1-.19.073Zm.212.206v1.725h-.433v-1.725h.433ZM91.485 24.715a.898.898 0 0 1-.377-.077.667.667 0 0 1-.265-.207.527.527 0 0 1-.106-.29h.436a.24.24 0 0 0 .097.166.337.337 0 0 0 .212.065.327.327 0 0 0 .193-.05.151.151 0 0 0 .07-.127c0-.056-.028-.098-.085-.126a1.593 1.593 0 0 0-.27-.092 2.283 2.283 0 0 1-.315-.097.545.545 0 0 1-.21-.152.411.411 0 0 1-.088-.277.45.45 0 0 1 .082-.262.551.551 0 0 1 .235-.187.876.876 0 0 1 .36-.068c.204 0 .367.051.489.154a.572.572 0 0 1 .2.416h-.414a.226.226 0 0 0-.085-.164.315.315 0 0 0-.202-.06.318.318 0 0 0-.181.043.14.14 0 0 0-.064.121c0 .059.03.103.087.133.058.03.147.06.27.092.123.03.225.063.305.096.08.033.15.085.21.154.058.07.088.162.09.276 0 .1-.027.189-.082.267a.54.54 0 0 1-.235.186.886.886 0 0 1-.357.067ZM94.844 23.787c0 .062-.004.118-.012.168h-1.253a.43.43 0 0 0 .13.293.4.4 0 0 0 .282.106c.16 0 .275-.07.343-.21h.467a.786.786 0 0 1-.285.41.827.827 0 0 1-.516.16.89.89 0 0 1-.444-.11.776.776 0 0 1-.306-.313.964.964 0 0 1-.11-.467c0-.178.036-.335.108-.47a.758.758 0 0 1 .303-.311.903.903 0 0 1 .449-.11c.163 0 .309.036.437.107.13.07.23.17.3.3.072.13.107.279.107.447Zm-.448-.125a.347.347 0 0 0-.12-.269.426.426 0 0 0-.289-.101.392.392 0 0 0-.27.098.432.432 0 0 0-.135.272h.814ZM96.777 22.962v1.725h-.436v-.218a.572.572 0 0 1-.218.176.673.673 0 0 1-.292.063.722.722 0 0 1-.356-.085.602.602 0 0 1-.243-.252.838.838 0 0 1-.088-.397v-1.012h.433v.95c0 .136.034.242.102.315a.36.36 0 0 0 .279.111c.12 0 .213-.037.281-.11.068-.074.102-.18.102-.317v-.95h.436ZM98.726 23.32h-.3v1.367h-.44V23.32h-.194v-.358h.195v-.087c0-.212.06-.368.18-.467.119-.1.3-.147.54-.14v.367c-.105-.002-.178.015-.219.053-.041.037-.062.105-.062.202v.072h.3v.358ZM100.6 23.787c0 .062-.004.118-.012.168h-1.253a.43.43 0 0 0 .13.293.4.4 0 0 0 .282.106c.16 0 .275-.07.343-.21h.467a.786.786 0 0 1-.284.41.827.827 0 0 1-.517.16.89.89 0 0 1-.444-.11.776.776 0 0 1-.306-.313.964.964 0 0 1-.11-.467c0-.178.036-.335.109-.47a.758.758 0 0 1 .303-.311.903.903 0 0 1 .448-.11c.163 0 .309.036.438.107.129.07.229.17.3.3.071.13.107.279.107.447Zm-.448-.125a.347.347 0 0 0-.12-.269.426.426 0 0 0-.288-.101.392.392 0 0 0-.27.098.432.432 0 0 0-.135.272h.813ZM101.349 22.383v2.304h-.433v-2.304zM101.996 22.756a.263.263 0 0 1-.19-.073.243.243 0 0 1-.076-.182c0-.073.025-.133.075-.182a.263.263 0 0 1 .19-.073c.077 0 .14.024.19.073.051.049.077.11.077.182a.243.243 0 0 1-.076.182.263.263 0 0 1-.19.073Zm.213.206v1.725h-.433v-1.725h.433ZM103.292 24.715a.898.898 0 0 1-.378-.077.667.667 0 0 1-.264-.207.527.527 0 0 1-.107-.29h.436a.24.24 0 0 0 .098.166.337.337 0 0 0 .212.065.327.327 0 0 0 .193-.05.151.151 0 0 0 .07-.127c0-.056-.029-.098-.086-.126a1.593 1.593 0 0 0-.27-.092 2.283 2.283 0 0 1-.314-.097.545.545 0 0 1-.21-.152.411.411 0 0 1-.089-.277.45.45 0 0 1 .082-.262.551.551 0 0 1 .235-.187.876.876 0 0 1 .36-.068c.205 0 .368.051.49.154a.572.572 0 0 1 .2.416h-.414a.226.226 0 0 0-.085-.164.315.315 0 0 0-.203-.06.318.318 0 0 0-.18.043.14.14 0 0 0-.064.121c0 .059.029.103.087.133.057.03.147.06.269.092.123.03.225.063.306.096.08.033.15.085.209.154.058.07.089.162.09.276 0 .1-.026.189-.081.267a.54.54 0 0 1-.235.186.886.886 0 0 1-.357.067ZM104.513 24.708a.267.267 0 0 1-.193-.073.243.243 0 0 1-.076-.182c0-.072.026-.133.076-.182a.267.267 0 0 1 .193-.073c.077 0 .14.024.19.073.049.049.073.11.073.182a.245.245 0 0 1-.074.182.258.258 0 0 1-.189.073ZM14.138 27.432a.68.68 0 0 1-.082.327.604.604 0 0 1-.257.246.929.929 0 0 1-.44.093h-.362v.834h-.433V26.76h.795c.167 0 .309.03.426.087a.605.605 0 0 1 .265.24.678.678 0 0 1 .088.346Zm-.798.314c.12 0 .208-.027.266-.082a.305.305 0 0 0 .087-.232c0-.212-.118-.318-.353-.318h-.343v.632h.343ZM15.41 27.183c.13 0 .245.028.346.085.1.057.18.141.236.252a.87.87 0 0 1 .085.4v1.012h-.433v-.952c0-.137-.034-.243-.102-.316a.36.36 0 0 0-.278-.11.37.37 0 0 0-.283.11c-.07.073-.104.179-.104.316v.952h-.433v-2.304h.433v.794a.565.565 0 0 1 .223-.176.733.733 0 0 1 .31-.063ZM16.377 28.064c0-.175.035-.33.104-.464a.746.746 0 0 1 .679-.42.694.694 0 0 1 .566.273v-.246h.436v1.725h-.436v-.252a.645.645 0 0 1-.23.201.701.701 0 0 1-.34.08.725.725 0 0 1-.393-.113.783.783 0 0 1-.282-.316 1.02 1.02 0 0 1-.104-.468Zm1.349.006a.562.562 0 0 0-.062-.273.438.438 0 0 0-.393-.235.436.436 0 0 0-.388.232.544.544 0 0 0-.063.27c0 .103.02.194.063.272a.458.458 0 0 0 .167.18.444.444 0 0 0 .614-.173.562.562 0 0 0 .062-.273ZM19.242 28.96a.898.898 0 0 1-.378-.076.667.667 0 0 1-.264-.207.527.527 0 0 1-.107-.29h.436a.24.24 0 0 0 .098.166.337.337 0 0 0 .212.065.327.327 0 0 0 .193-.05.151.151 0 0 0 .07-.128c0-.056-.029-.098-.086-.126a1.593 1.593 0 0 0-.27-.092 2.283 2.283 0 0 1-.314-.096.545.545 0 0 1-.21-.153.411.411 0 0 1-.089-.277.45.45 0 0 1 .082-.261.55.55 0 0 1 .235-.187.876.876 0 0 1 .36-.069c.205 0 .368.052.49.155a.572.572 0 0 1 .2.415h-.414a.226.226 0 0 0-.085-.163.315.315 0 0 0-.203-.061.318.318 0 0 0-.18.044.14.14 0 0 0-.064.121c0 .058.029.102.087.132.057.03.147.061.269.092.123.031.226.064.306.097.08.033.15.084.209.154.059.07.089.161.091.275 0 .1-.027.19-.082.268a.54.54 0 0 1-.235.185.886.886 0 0 1-.357.067ZM21.865 28.033c0 .062-.004.118-.013.168H20.6a.43.43 0 0 0 .13.292.4.4 0 0 0 .281.106c.16 0 .275-.07.343-.208h.467a.786.786 0 0 1-.284.409.827.827 0 0 1-.517.16.89.89 0 0 1-.444-.11.776.776 0 0 1-.306-.313.964.964 0 0 1-.11-.467c0-.179.036-.335.109-.47a.758.758 0 0 1 .303-.312.903.903 0 0 1 .448-.109c.163 0 .309.036.438.106s.229.171.3.3c.071.13.107.28.107.448Zm-.449-.125a.347.347 0 0 0-.12-.27.426.426 0 0 0-.288-.1.392.392 0 0 0-.27.098.432.432 0 0 0-.135.272h.813ZM22.613 26.628v2.304h-.433v-2.304zM23.473 26.628v2.304h-.433v-2.304zM25.518 27.207v1.725h-.436v-.218a.572.572 0 0 1-.219.176.673.673 0 0 1-.292.064.722.722 0 0 1-.356-.085.602.602 0 0 1-.242-.253.838.838 0 0 1-.089-.397v-1.012h.434v.95c0 .137.034.242.102.316a.36.36 0 0 0 .278.11c.12 0 .213-.036.281-.11.069-.074.103-.179.103-.316v-.95h.436ZM26.6 28.96a.898.898 0 0 1-.377-.076.667.667 0 0 1-.265-.207.527.527 0 0 1-.106-.29h.436a.24.24 0 0 0 .097.166.337.337 0 0 0 .212.065.327.327 0 0 0 .193-.05.151.151 0 0 0 .07-.128c0-.056-.028-.098-.085-.126a1.593 1.593 0 0 0-.27-.092 2.283 2.283 0 0 1-.315-.096.545.545 0 0 1-.21-.153.411.411 0 0 1-.088-.277.45.45 0 0 1 .082-.261.551.551 0 0 1 .235-.187.876.876 0 0 1 .36-.069c.204 0 .367.052.489.155a.572.572 0 0 1 .201.415h-.414a.226.226 0 0 0-.085-.163.315.315 0 0 0-.203-.061.318.318 0 0 0-.181.044.14.14 0 0 0-.063.121c0 .058.028.102.086.132.058.03.148.061.27.092.123.031.225.064.306.097.08.033.15.084.208.154.06.07.09.161.092.275 0 .1-.028.19-.082.268a.54.54 0 0 1-.235.185.886.886 0 0 1-.358.067ZM29.316 27.183c.204 0 .37.064.495.194.126.13.189.311.189.543v1.012h-.433v-.952c0-.137-.034-.243-.102-.316a.36.36 0 0 0-.279-.11.37.37 0 0 0-.283.11c-.069.073-.104.179-.104.316v.952h-.433v-1.725h.433v.215a.599.599 0 0 1 .222-.176.68.68 0 0 1 .295-.063ZM32.004 28.033c0 .062-.004.118-.012.168h-1.253a.43.43 0 0 0 .13.292.4.4 0 0 0 .281.106c.161 0 .276-.07.344-.208h.467a.786.786 0 0 1-.285.409.827.827 0 0 1-.516.16.89.89 0 0 1-.444-.11.776.776 0 0 1-.307-.313.964.964 0 0 1-.11-.467c0-.179.037-.335.109-.47a.758.758 0 0 1 .303-.312.903.903 0 0 1 .449-.109c.162 0 .308.036.437.106.13.07.23.171.3.3.071.13.107.28.107.448Zm-.449-.125a.347.347 0 0 0-.12-.27.426.426 0 0 0-.288-.1.392.392 0 0 0-.27.098.432.432 0 0 0-.135.272h.813ZM32.208 28.07c0-.179.036-.335.108-.469a.777.777 0 0 1 .3-.311.864.864 0 0 1 .44-.11.84.84 0 0 1 .527.16.78.78 0 0 1 .28.45h-.467a.344.344 0 0 0-.125-.176.362.362 0 0 0-.218-.064.356.356 0 0 0-.294.135c-.072.09-.109.219-.109.385 0 .164.037.291.109.381.072.09.17.136.294.136.175 0 .29-.08.343-.237h.467a.796.796 0 0 1-.282.445.826.826 0 0 1-.525.165.864.864 0 0 1-.44-.11.777.777 0 0 1-.3-.312.973.973 0 0 1-.108-.468ZM35.137 27.002a.267.267 0 0 1-.193-.073.243.243 0 0 1-.076-.182c0-.073.025-.134.076-.182a.267.267 0 0 1 .193-.074c.077 0 .14.025.189.074.05.048.074.109.074.182a.245.245 0 0 1-.074.182.258.258 0 0 1-.189.073Zm.214 2.214c0 .19-.047.328-.141.412-.094.084-.228.126-.404.126h-.191v-.37h.123c.066 0 .113-.013.14-.04.026-.025.04-.067.04-.125v-2.012h.433v2.009ZM37.395 27.207v1.725h-.436v-.218a.572.572 0 0 1-.218.176.673.673 0 0 1-.292.064.722.722 0 0 1-.356-.085.602.602 0 0 1-.243-.253.838.838 0 0 1-.088-.397v-1.012h.433v.95c0 .137.034.242.102.316a.36.36 0 0 0 .279.11c.12 0 .213-.036.281-.11.068-.074.102-.179.102-.316v-.95h.436ZM38.478 28.96a.898.898 0 0 1-.377-.076.667.667 0 0 1-.265-.207.527.527 0 0 1-.107-.29h.437a.24.24 0 0 0 .097.166.337.337 0 0 0 .212.065.327.327 0 0 0 .193-.05.151.151 0 0 0 .07-.128c0-.056-.029-.098-.085-.126a1.593 1.593 0 0 0-.271-.092 2.283 2.283 0 0 1-.314-.096.545.545 0 0 1-.21-.153.411.411 0 0 1-.088-.277.45.45 0 0 1 .082-.261.551.551 0 0 1 .235-.187.876.876 0 0 1 .36-.069c.204 0 .367.052.489.155a.572.572 0 0 1 .2.415h-.414a.226.226 0 0 0-.085-.163.315.315 0 0 0-.202-.061.318.318 0 0 0-.181.044.14.14 0 0 0-.064.121c0 .058.03.102.087.132.058.03.147.061.269.092.124.031.226.064.306.097.08.033.15.084.209.154.059.07.09.161.091.275 0 .1-.027.19-.082.268a.54.54 0 0 1-.235.185.886.886 0 0 1-.357.067ZM40.012 27.566v.834c0 .058.014.1.042.126.028.026.075.039.14.039h.202v.367h-.273c-.365 0-.547-.178-.547-.535v-.831h-.204v-.359h.204v-.426h.436v.426h.384v.359h-.384ZM41.469 28.96a.898.898 0 0 1-.445-.11.793.793 0 0 1-.311-.313.943.943 0 0 1-.113-.467c0-.177.038-.332.116-.467a.809.809 0 0 1 .317-.313.915.915 0 0 1 .448-.11c.165 0 .315.036.449.11.134.074.24.178.317.313.077.135.116.29.116.467 0 .176-.04.332-.12.467a.827.827 0 0 1-.32.313.93.93 0 0 1-.454.11Zm0-.38c.078 0 .152-.019.221-.057a.417.417 0 0 0 .166-.173.585.585 0 0 0 .061-.28c0-.164-.042-.29-.128-.378a.42.42 0 0 0-.314-.133.41.41 0 0 0-.31.133c-.084.088-.126.214-.126.378s.04.29.122.378a.401.401 0 0 0 .308.133ZM43.306 28.064c0-.175.035-.33.104-.464a.754.754 0 0 1 1-.347.638.638 0 0 1 .242.194v-.819h.44v2.304h-.44v-.255a.588.588 0 0 1-.226.206.704.704 0 0 1-.337.077.732.732 0 0 1-.396-.112.779.779 0 0 1-.283-.316 1.02 1.02 0 0 1-.104-.468Zm1.349.006a.562.562 0 0 0-.062-.273.438.438 0 0 0-.393-.235.436.436 0 0 0-.388.232.544.544 0 0 0-.063.27c0 .103.02.194.063.272a.458.458 0 0 0 .167.18.444.444 0 0 0 .614-.173.562.562 0 0 0 .062-.273ZM47.133 27.207v1.725h-.437v-.218a.572.572 0 0 1-.218.176.673.673 0 0 1-.292.064.722.722 0 0 1-.356-.085.602.602 0 0 1-.242-.253.838.838 0 0 1-.089-.397v-1.012h.433v.95c0 .137.034.242.102.316a.36.36 0 0 0 .279.11c.12 0 .213-.036.281-.11.068-.074.102-.179.102-.316v-.95h.437ZM47.779 27.002a.263.263 0 0 1-.19-.073.243.243 0 0 1-.076-.182c0-.073.025-.134.076-.182a.263.263 0 0 1 .19-.074c.076 0 .14.025.19.074.05.048.076.109.076.182a.243.243 0 0 1-.076.182.263.263 0 0 1-.19.073Zm.213.205v1.725h-.433v-1.725h.433ZM48.611 28.954a.267.267 0 0 1-.193-.073.243.243 0 0 1-.076-.182c0-.073.025-.134.076-.182a.267.267 0 0 1 .193-.073c.076 0 .14.024.189.073.05.048.074.11.074.182a.245.245 0 0 1-.074.182.258.258 0 0 1-.189.073ZM51.284 28.518h-.86l-.143.414h-.454l.776-2.176h.504l.777 2.176h-.458l-.142-.414Zm-.118-.348-.312-.91-.313.91h.625ZM53.767 28.033c0 .062-.004.118-.012.168h-1.253a.43.43 0 0 0 .13.292.4.4 0 0 0 .282.106c.16 0 .275-.07.343-.208h.467a.786.786 0 0 1-.285.409.827.827 0 0 1-.516.16.89.89 0 0 1-.444-.11.776.776 0 0 1-.306-.313.964.964 0 0 1-.11-.467c0-.179.036-.335.108-.47a.758.758 0 0 1 .303-.312.903.903 0 0 1 .449-.109c.163 0 .309.036.438.106.128.07.228.171.3.3.07.13.106.28.106.448Zm-.448-.125a.347.347 0 0 0-.12-.27.426.426 0 0 0-.288-.1.392.392 0 0 0-.271.098.432.432 0 0 0-.135.272h.814ZM55.032 27.183c.205 0 .37.064.495.194.126.13.189.311.189.543v1.012h-.433v-.952c0-.137-.034-.243-.102-.316a.36.36 0 0 0-.278-.11.37.37 0 0 0-.284.11c-.069.073-.103.179-.103.316v.952h-.433v-1.725h.433v.215a.599.599 0 0 1 .221-.176.68.68 0 0 1 .295-.063ZM57.72 28.033c0 .062-.004.118-.012.168h-1.253a.43.43 0 0 0 .13.292.4.4 0 0 0 .282.106c.16 0 .275-.07.343-.208h.467a.786.786 0 0 1-.285.409.827.827 0 0 1-.516.16.89.89 0 0 1-.444-.11.776.776 0 0 1-.306-.313.964.964 0 0 1-.11-.467c0-.179.036-.335.108-.47a.758.758 0 0 1 .303-.312.903.903 0 0 1 .449-.109c.163 0 .309.036.438.106.128.07.228.171.3.3.07.13.106.28.106.448Zm-.448-.125a.347.347 0 0 0-.12-.27.426.426 0 0 0-.288-.1.392.392 0 0 0-.271.098.432.432 0 0 0-.135.272h.814ZM57.925 28.064c0-.175.034-.33.103-.464a.746.746 0 0 1 .679-.42.694.694 0 0 1 .566.273v-.246h.436v1.725h-.436v-.252a.645.645 0 0 1-.23.201.701.701 0 0 1-.339.08.725.725 0 0 1-.394-.113.783.783 0 0 1-.282-.316 1.02 1.02 0 0 1-.103-.468Zm1.348.006a.562.562 0 0 0-.062-.273.438.438 0 0 0-.393-.235.436.436 0 0 0-.388.232.544.544 0 0 0-.063.27c0 .103.021.194.063.272a.458.458 0 0 0 .167.18.444.444 0 0 0 .614-.173.562.562 0 0 0 .062-.273ZM61.083 27.183c.204 0 .369.064.495.194.125.13.188.311.188.543v1.012h-.433v-.952c0-.137-.034-.243-.102-.316a.36.36 0 0 0-.278-.11.37.37 0 0 0-.283.11c-.07.073-.104.179-.104.316v.952h-.433v-1.725h.433v.215a.599.599 0 0 1 .221-.176.68.68 0 0 1 .296-.063ZM63.863 27.183c.204 0 .37.064.495.194.126.13.189.311.189.543v1.012h-.433v-.952c0-.137-.034-.243-.102-.316a.36.36 0 0 0-.279-.11.37.37 0 0 0-.283.11c-.069.073-.103.179-.103.316v.952h-.433v-1.725h.433v.215a.599.599 0 0 1 .22-.176.68.68 0 0 1 .296-.063ZM66.576 27.207v1.725h-.436v-.218a.572.572 0 0 1-.218.176.673.673 0 0 1-.292.064.722.722 0 0 1-.356-.085.602.602 0 0 1-.243-.253.838.838 0 0 1-.088-.397v-1.012h.433v.95c0 .137.034.242.102.316a.36.36 0 0 0 .278.11c.12 0 .214-.036.282-.11.068-.074.102-.179.102-.316v-.95h.436ZM67.436 26.628v2.304h-.433v-2.304zM68.296 26.628v2.304h-.433v-2.304zM68.611 28.064c0-.175.035-.33.104-.464a.746.746 0 0 1 .679-.42.694.694 0 0 1 .566.273v-.246h.436v1.725h-.436v-.252a.645.645 0 0 1-.23.201.701.701 0 0 1-.34.08.725.725 0 0 1-.394-.113.783.783 0 0 1-.281-.316 1.02 1.02 0 0 1-.104-.468Zm1.349.006a.562.562 0 0 0-.062-.273.438.438 0 0 0-.393-.235.436.436 0 0 0-.388.232.544.544 0 0 0-.063.27c0 .103.02.194.063.272a.458.458 0 0 0 .167.18.444.444 0 0 0 .614-.173.562.562 0 0 0 .062-.273ZM73.149 28.033c0 .062-.004.118-.012.168h-1.253a.43.43 0 0 0 .13.292.4.4 0 0 0 .281.106c.161 0 .276-.07.344-.208h.467a.786.786 0 0 1-.285.409.827.827 0 0 1-.516.16.89.89 0 0 1-.444-.11.776.776 0 0 1-.307-.313.964.964 0 0 1-.11-.467c0-.179.037-.335.109-.47a.758.758 0 0 1 .303-.312.903.903 0 0 1 .449-.109c.162 0 .308.036.437.106.13.07.23.171.3.3.071.13.107.28.107.448Zm-.449-.125a.347.347 0 0 0-.12-.27.426.426 0 0 0-.288-.1.392.392 0 0 0-.27.098.432.432 0 0 0-.135.272h.813ZM74.411 28.932l-.353-.535-.312.535h-.464l.56-.865-.566-.86h.488l.35.533.316-.533h.463l-.562.86.569.865zM75.608 28.475l-.362.875h-.278l.201-.875zM77.442 27.566h-.3v1.366h-.439v-1.366h-.195v-.359h.195v-.087c0-.211.06-.367.18-.467.119-.1.3-.146.54-.14v.368c-.105-.003-.178.015-.219.052-.041.038-.062.105-.062.203v.071h.3v.359ZM77.612 28.064c0-.175.035-.33.104-.464a.746.746 0 0 1 .679-.42.694.694 0 0 1 .566.273v-.246h.436v1.725h-.436v-.252a.645.645 0 0 1-.23.201.701.701 0 0 1-.34.08.725.725 0 0 1-.394-.113.783.783 0 0 1-.281-.316 1.02 1.02 0 0 1-.104-.468Zm1.349.006a.562.562 0 0 0-.062-.273.438.438 0 0 0-.393-.235.436.436 0 0 0-.388.232.544.544 0 0 0-.063.27c0 .103.02.194.063.272a.458.458 0 0 0 .167.18.444.444 0 0 0 .614-.173.562.562 0 0 0 .062-.273ZM81.439 27.207v1.725h-.437v-.218a.572.572 0 0 1-.218.176.673.673 0 0 1-.292.064.722.722 0 0 1-.356-.085.602.602 0 0 1-.242-.253.838.838 0 0 1-.089-.397v-1.012h.433v.95c0 .137.034.242.102.316a.36.36 0 0 0 .279.11c.12 0 .213-.036.281-.11.068-.074.102-.179.102-.316v-.95h.437ZM81.754 28.07c0-.179.036-.335.108-.469a.777.777 0 0 1 .3-.311.864.864 0 0 1 .44-.11.84.84 0 0 1 .527.16.78.78 0 0 1 .28.45h-.467a.344.344 0 0 0-.125-.176.362.362 0 0 0-.219-.064.356.356 0 0 0-.293.135c-.073.09-.109.219-.109.385 0 .164.036.291.109.381.072.09.17.136.293.136.176 0 .29-.08.344-.237h.467a.796.796 0 0 1-.282.445.826.826 0 0 1-.525.165.864.864 0 0 1-.44-.11.777.777 0 0 1-.3-.312.973.973 0 0 1-.108-.468ZM83.947 27.002a.263.263 0 0 1-.19-.073.243.243 0 0 1-.076-.182c0-.073.025-.134.076-.182a.263.263 0 0 1 .19-.074c.076 0 .14.025.19.074.05.048.076.109.076.182a.243.243 0 0 1-.076.182.263.263 0 0 1-.19.073Zm.214.205v1.725h-.434v-1.725h.434ZM85.02 27.46a.62.62 0 0 1 .23-.203.706.706 0 0 1 .336-.078.746.746 0 0 1 .68.42c.068.133.103.288.103.465 0 .176-.035.332-.104.468a.783.783 0 0 1-.281.316.73.73 0 0 1-.398.112.706.706 0 0 1-.335-.076.653.653 0 0 1-.23-.198v.246h-.434v-2.304h.433v.832Zm.907.604a.544.544 0 0 0-.064-.27.44.44 0 0 0-.78.005.553.553 0 0 0-.063.27c0 .105.022.195.064.272a.45.45 0 0 0 .167.176.43.43 0 0 0 .445-.002c.07-.041.125-.1.167-.177a.56.56 0 0 0 .064-.274ZM88.302 27.207v1.725h-.436v-.218a.572.572 0 0 1-.218.176.673.673 0 0 1-.292.064.722.722 0 0 1-.356-.085.602.602 0 0 1-.243-.253.838.838 0 0 1-.088-.397v-1.012h.433v.95c0 .137.034.242.102.316a.36.36 0 0 0 .279.11c.12 0 .213-.036.281-.11.068-.074.102-.179.102-.316v-.95h.436ZM89.385 28.96a.898.898 0 0 1-.378-.076.667.667 0 0 1-.264-.207.527.527 0 0 1-.107-.29h.436a.24.24 0 0 0 .098.166.337.337 0 0 0 .212.065.327.327 0 0 0 .193-.05.151.151 0 0 0 .07-.128c0-.056-.029-.098-.085-.126a1.593 1.593 0 0 0-.271-.092 2.283 2.283 0 0 1-.314-.096.545.545 0 0 1-.21-.153.411.411 0 0 1-.088-.277.45.45 0 0 1 .081-.261.55.55 0 0 1 .236-.187.876.876 0 0 1 .36-.069c.204 0 .367.052.489.155a.572.572 0 0 1 .2.415h-.414a.226.226 0 0 0-.085-.163.315.315 0 0 0-.202-.061.318.318 0 0 0-.181.044.14.14 0 0 0-.064.121c0 .058.03.102.087.132.058.03.147.061.269.092.124.031.226.064.306.097.08.033.15.084.209.154.059.07.09.161.091.275 0 .1-.027.19-.082.268a.54.54 0 0 1-.235.185.886.886 0 0 1-.357.067ZM92.744 28.033c0 .062-.004.118-.012.168h-1.253a.43.43 0 0 0 .13.292.4.4 0 0 0 .281.106c.161 0 .276-.07.344-.208h.467a.786.786 0 0 1-.285.409.827.827 0 0 1-.516.16.89.89 0 0 1-.444-.11.776.776 0 0 1-.307-.313.964.964 0 0 1-.11-.467c0-.179.037-.335.109-.47a.758.758 0 0 1 .303-.312.903.903 0 0 1 .449-.109c.162 0 .308.036.437.106.13.07.23.171.3.3.071.13.107.28.107.448Zm-.449-.125a.347.347 0 0 0-.12-.27.426.426 0 0 0-.288-.1.392.392 0 0 0-.27.098.432.432 0 0 0-.135.272h.813ZM93.564 27.566v.834c0 .058.014.1.041.126.028.026.075.039.141.039h.201v.367h-.272c-.365 0-.547-.178-.547-.535v-.831h-.205v-.359h.205v-.426h.436v.426h.383v.359h-.383ZM96.589 28.033c0 .062-.004.118-.013.168h-1.252a.43.43 0 0 0 .13.292.4.4 0 0 0 .281.106c.16 0 .275-.07.343-.208h.467a.786.786 0 0 1-.284.409.827.827 0 0 1-.517.16.89.89 0 0 1-.444-.11.776.776 0 0 1-.306-.313.964.964 0 0 1-.11-.467c0-.179.037-.335.109-.47a.758.758 0 0 1 .303-.312.903.903 0 0 1 .448-.109c.163 0 .31.036.438.106.129.07.229.171.3.3.071.13.107.28.107.448Zm-.449-.125a.347.347 0 0 0-.12-.27.426.426 0 0 0-.288-.1.392.392 0 0 0-.27.098.432.432 0 0 0-.135.272h.813ZM97.854 27.183c.204 0 .369.064.495.194s.188.311.188.543v1.012h-.433v-.952c0-.137-.034-.243-.102-.316a.36.36 0 0 0-.278-.11.37.37 0 0 0-.283.11c-.07.073-.104.179-.104.316v.952h-.433v-1.725h.433v.215a.599.599 0 0 1 .221-.176.68.68 0 0 1 .296-.063ZM99.168 27.002a.263.263 0 0 1-.19-.073.243.243 0 0 1-.076-.182c0-.073.026-.134.076-.182a.263.263 0 0 1 .19-.074c.077 0 .14.025.19.074.051.048.076.109.076.182a.243.243 0 0 1-.075.182.263.263 0 0 1-.19.073Zm.214.205v1.725h-.433v-1.725h.433ZM101.937 27.183c.21 0 .38.064.509.194s.193.311.193.543v1.012h-.433v-.952c0-.135-.034-.239-.102-.31a.366.366 0 0 0-.279-.108.37.37 0 0 0-.28.108c-.069.071-.103.175-.103.31v.952h-.433v-.952c0-.135-.034-.239-.102-.31a.366.366 0 0 0-.279-.108.375.375 0 0 0-.283.108c-.069.071-.103.175-.103.31v.952h-.433v-1.725h.433v.21a.577.577 0 0 1 .215-.172.667.667 0 0 1 .289-.062.74.74 0 0 1 .359.085.598.598 0 0 1 .244.245c.056-.1.137-.18.243-.24a.688.688 0 0 1 .345-.09ZM103.675 28.064c0-.175.035-.33.104-.464a.746.746 0 0 1 .679-.42.694.694 0 0 1 .566.273v-.246h.436v1.725h-.436v-.252a.645.645 0 0 1-.23.201.701.701 0 0 1-.34.08.725.725 0 0 1-.394-.113.783.783 0 0 1-.281-.316 1.02 1.02 0 0 1-.104-.468Zm1.349.006a.562.562 0 0 0-.062-.273.438.438 0 0 0-.393-.235.436.436 0 0 0-.388.232.544.544 0 0 0-.064.27c0 .103.022.194.064.272a.458.458 0 0 0 .167.18.444.444 0 0 0 .614-.173.562.562 0 0 0 .062-.273ZM106.388 27.566v.834c0 .058.014.1.042.126.027.026.074.039.14.039h.201v.367h-.272c-.365 0-.547-.178-.547-.535v-.831h-.204v-.359h.204v-.426h.436v.426h.383v.359h-.383ZM107.557 28.475l-.362.875h-.278l.201-.875zM13.63 31.811v.835c0 .058.015.1.042.126.028.026.075.039.141.039h.201v.367h-.272c-.365 0-.547-.178-.547-.535v-.832h-.205v-.358h.205v-.426h.436v.426h.383v.358h-.383ZM15.92 32.278c0 .063-.004.119-.013.168h-1.252a.43.43 0 0 0 .13.293.4.4 0 0 0 .28.106c.162 0 .276-.07.344-.209h.467a.786.786 0 0 1-.284.41.827.827 0 0 1-.517.16.89.89 0 0 1-.444-.11.776.776 0 0 1-.306-.313.964.964 0 0 1-.11-.467c0-.179.036-.336.109-.47a.758.758 0 0 1 .303-.312.903.903 0 0 1 .448-.109c.163 0 .309.035.438.106.129.07.229.17.3.3.071.13.107.28.107.447Zm-.449-.124a.347.347 0 0 0-.12-.27.426.426 0 0 0-.288-.1.392.392 0 0 0-.27.097.432.432 0 0 0-.135.273h.813ZM18.363 31.428c.21 0 .38.065.509.195s.193.31.193.543v1.012h-.433v-.953c0-.135-.034-.238-.102-.31a.366.366 0 0 0-.278-.107.37.37 0 0 0-.28.108c-.07.071-.104.174-.104.31v.952h-.433v-.953c0-.135-.034-.238-.102-.31a.366.366 0 0 0-.278-.107.375.375 0 0 0-.283.108c-.07.071-.104.174-.104.31v.952h-.433v-1.725h.433v.209a.577.577 0 0 1 .215-.171.667.667 0 0 1 .29-.063.74.74 0 0 1 .358.086.598.598 0 0 1 .245.244c.055-.1.136-.18.242-.24a.688.688 0 0 1 .345-.09ZM19.91 31.702a.695.695 0 0 1 .566-.277.746.746 0 0 1 .679.419c.069.134.103.289.103.465 0 .177-.034.333-.103.469a.783.783 0 0 1-.282.316.73.73 0 0 1-.397.112.688.688 0 0 1-.566-.274V34h-.433v-2.547h.433v.25Zm.906.607a.544.544 0 0 0-.063-.269.44.44 0 0 0-.78.005.553.553 0 0 0-.063.27c0 .104.02.195.063.271a.45.45 0 0 0 .167.176.43.43 0 0 0 .446-.001c.069-.042.124-.1.167-.178a.56.56 0 0 0 .063-.274ZM22.335 33.206a.898.898 0 0 1-.446-.11.793.793 0 0 1-.31-.313.943.943 0 0 1-.113-.467c0-.177.038-.333.116-.467a.809.809 0 0 1 .317-.313.915.915 0 0 1 .448-.11c.165 0 .315.036.449.11.134.073.24.178.317.313.077.134.116.29.116.467 0 .176-.04.332-.12.467a.827.827 0 0 1-.321.313.93.93 0 0 1-.453.11Zm0-.38c.078 0 .152-.019.221-.057a.417.417 0 0 0 .165-.173.585.585 0 0 0 .062-.28c0-.164-.042-.29-.128-.379a.42.42 0 0 0-.314-.132.41.41 0 0 0-.31.132c-.084.089-.126.215-.126.379s.04.29.122.378a.401.401 0 0 0 .308.132ZM23.98 31.72a.603.603 0 0 1 .526-.293v.459h-.114c-.136 0-.239.032-.308.096-.07.065-.104.177-.104.337v.859h-.433v-1.725h.433v.268ZM25.753 31.248a.263.263 0 0 1-.19-.074.243.243 0 0 1-.076-.182c0-.072.025-.133.076-.182a.263.263 0 0 1 .19-.073c.076 0 .14.024.19.073.05.049.076.11.076.182a.243.243 0 0 1-.076.182.263.263 0 0 1-.19.074Zm.213.205v1.725h-.433v-1.725h.433ZM26.282 32.31c0-.175.034-.33.103-.465a.746.746 0 0 1 .679-.42.694.694 0 0 1 .566.274v-.246h.436v1.725h-.436v-.252a.645.645 0 0 1-.23.2.701.701 0 0 1-.339.08.725.725 0 0 1-.394-.112.783.783 0 0 1-.282-.316 1.02 1.02 0 0 1-.103-.469Zm1.348.006a.562.562 0 0 0-.062-.273.438.438 0 0 0-.392-.235.436.436 0 0 0-.389.232.544.544 0 0 0-.063.27c0 .103.021.194.063.272a.458.458 0 0 0 .167.179.444.444 0 0 0 .614-.173.562.562 0 0 0 .062-.272ZM28.379 32.316c0-.179.036-.335.108-.469a.777.777 0 0 1 .3-.311.864.864 0 0 1 .44-.11.84.84 0 0 1 .527.16.78.78 0 0 1 .28.45h-.467a.344.344 0 0 0-.126-.177.362.362 0 0 0-.218-.063.356.356 0 0 0-.294.135c-.072.09-.108.219-.108.385 0 .164.036.29.108.381.073.09.17.135.294.135.176 0 .29-.078.344-.236h.467a.796.796 0 0 1-.282.445.826.826 0 0 1-.526.165.864.864 0 0 1-.439-.11.777.777 0 0 1-.3-.312.973.973 0 0 1-.108-.468ZM31.97 31.453v1.725h-.436v-.218a.572.572 0 0 1-.218.176.673.673 0 0 1-.293.064.722.722 0 0 1-.355-.086.602.602 0 0 1-.243-.252.838.838 0 0 1-.088-.397v-1.012h.433v.95c0 .137.034.242.102.316a.36.36 0 0 0 .278.11c.12 0 .214-.037.282-.11.068-.074.102-.18.102-.316v-.95h.436ZM32.83 30.874v2.304h-.433v-2.304zM33.476 31.248a.263.263 0 0 1-.19-.074.243.243 0 0 1-.076-.182c0-.072.026-.133.076-.182a.263.263 0 0 1 .19-.073c.077 0 .14.024.19.073.051.049.076.11.076.182a.243.243 0 0 1-.075.182.263.263 0 0 1-.19.074Zm.214.205v1.725h-.433v-1.725h.433ZM34.772 33.206a.898.898 0 0 1-.377-.076.667.667 0 0 1-.264-.207.527.527 0 0 1-.107-.29h.436a.24.24 0 0 0 .097.165.337.337 0 0 0 .212.066.327.327 0 0 0 .194-.05.151.151 0 0 0 .07-.128c0-.056-.03-.098-.086-.126a1.593 1.593 0 0 0-.27-.092 2.283 2.283 0 0 1-.315-.096.545.545 0 0 1-.21-.153.411.411 0 0 1-.088-.277.45.45 0 0 1 .082-.262.55.55 0 0 1 .235-.186.876.876 0 0 1 .36-.069c.205 0 .367.052.49.154a.572.572 0 0 1 .2.416h-.414a.226.226 0 0 0-.085-.164.315.315 0 0 0-.203-.06.318.318 0 0 0-.18.043.14.14 0 0 0-.064.122c0 .058.029.102.086.132.058.03.148.06.27.092.123.031.225.063.306.096.08.034.15.085.208.155.06.07.09.16.092.275 0 .1-.028.189-.082.268a.54.54 0 0 1-.235.185.886.886 0 0 1-.358.067ZM38.131 32.278c0 .063-.004.119-.012.168h-1.253a.43.43 0 0 0 .13.293.4.4 0 0 0 .282.106c.16 0 .275-.07.343-.209h.467a.786.786 0 0 1-.284.41.827.827 0 0 1-.517.16.89.89 0 0 1-.444-.11.776.776 0 0 1-.306-.313.964.964 0 0 1-.11-.467c0-.179.036-.336.108-.47a.758.758 0 0 1 .304-.312.903.903 0 0 1 .448-.109c.163 0 .309.035.438.106.129.07.229.17.3.3.07.13.106.28.106.447Zm-.448-.124a.347.347 0 0 0-.12-.27.426.426 0 0 0-.288-.1.392.392 0 0 0-.271.097.432.432 0 0 0-.135.273h.814ZM39.397 31.428c.204 0 .369.065.494.195.126.13.19.31.19.543v1.012h-.434v-.953c0-.137-.034-.242-.102-.316a.36.36 0 0 0-.278-.11.37.37 0 0 0-.283.11c-.07.074-.104.18-.104.316v.953h-.433v-1.725h.433v.215a.599.599 0 0 1 .221-.176.68.68 0 0 1 .296-.064ZM40.711 31.248a.263.263 0 0 1-.19-.074.243.243 0 0 1-.076-.182c0-.072.025-.133.076-.182a.263.263 0 0 1 .19-.073c.076 0 .14.024.19.073.05.049.076.11.076.182a.243.243 0 0 1-.076.182.263.263 0 0 1-.19.074Zm.214.205v1.725h-.433v-1.725h.433ZM43.48 31.428c.21 0 .38.065.508.195.13.13.194.31.194.543v1.012h-.433v-.953c0-.135-.034-.238-.102-.31a.366.366 0 0 0-.279-.107.37.37 0 0 0-.28.108c-.069.071-.103.174-.103.31v.952h-.433v-.953c0-.135-.034-.238-.102-.31a.366.366 0 0 0-.279-.107.375.375 0 0 0-.283.108c-.069.071-.104.174-.104.31v.952h-.433v-1.725h.433v.209A.577.577 0 0 1 42 31.49a.667.667 0 0 1 .29-.063.74.74 0 0 1 .358.086.598.598 0 0 1 .245.244c.056-.1.136-.18.243-.24a.688.688 0 0 1 .345-.09ZM44.785 33.2a.267.267 0 0 1-.193-.073.243.243 0 0 1-.076-.182c0-.073.025-.134.076-.183a.267.267 0 0 1 .193-.073c.076 0 .139.025.189.073.049.05.074.11.074.183a.245.245 0 0 1-.074.182.258.258 0 0 1-.19.073ZM46.56 31.005v1.345c0 .147.038.26.115.338a.43.43 0 0 0 .321.116c.14 0 .249-.039.325-.116.077-.078.115-.19.115-.338v-1.345h.436v1.342a.87.87 0 0 1-.12.468.757.757 0 0 1-.318.288 1.006 1.006 0 0 1-.444.097.979.979 0 0 1-.437-.097.732.732 0 0 1-.311-.288.898.898 0 0 1-.115-.468v-1.342h.433ZM48.794 31.811v.835c0 .058.013.1.041.126.028.026.075.039.141.039h.201v.367h-.272c-.365 0-.548-.178-.548-.535v-.832h-.204v-.358h.204v-.426h.437v.426h.383v.358h-.383ZM50.445 31.248a.263.263 0 0 1-.19-.074.243.243 0 0 1-.076-.182c0-.072.026-.133.076-.182a.263.263 0 0 1 .19-.073c.077 0 .14.024.19.073.051.049.076.11.076.182a.243.243 0 0 1-.075.182.263.263 0 0 1-.19.074Zm.214.205v1.725h-.433v-1.725h.433ZM50.974 32.31c0-.175.035-.33.104-.465a.754.754 0 0 1 1-.347.638.638 0 0 1 .242.195v-.819h.439v2.304h-.44v-.255a.588.588 0 0 1-.225.205.704.704 0 0 1-.337.078.732.732 0 0 1-.396-.112.779.779 0 0 1-.283-.316 1.02 1.02 0 0 1-.104-.469Zm1.349.006a.562.562 0 0 0-.062-.273.438.438 0 0 0-.393-.235.436.436 0 0 0-.388.232.544.544 0 0 0-.063.27c0 .103.02.194.063.272a.458.458 0 0 0 .167.179.444.444 0 0 0 .614-.173.562.562 0 0 0 .062-.272ZM54.575 33.206a.898.898 0 0 1-.378-.076.667.667 0 0 1-.264-.207.527.527 0 0 1-.107-.29h.436a.24.24 0 0 0 .098.165.337.337 0 0 0 .212.066.327.327 0 0 0 .193-.05.151.151 0 0 0 .07-.128c0-.056-.029-.098-.086-.126a1.593 1.593 0 0 0-.27-.092 2.283 2.283 0 0 1-.314-.096.545.545 0 0 1-.21-.153.411.411 0 0 1-.089-.277.45.45 0 0 1 .082-.262.551.551 0 0 1 .235-.186.876.876 0 0 1 .36-.069c.205 0 .368.052.49.154a.572.572 0 0 1 .2.416h-.414a.226.226 0 0 0-.085-.164.315.315 0 0 0-.203-.06.318.318 0 0 0-.18.043.14.14 0 0 0-.064.122c0 .058.029.102.087.132.057.03.147.06.269.092.123.031.225.063.306.096.08.034.15.085.209.155.058.07.089.16.09.275 0 .1-.026.189-.081.268a.54.54 0 0 1-.235.185.886.886 0 0 1-.357.067ZM57.198 32.278c0 .063-.005.119-.013.168h-1.252a.43.43 0 0 0 .13.293.4.4 0 0 0 .28.106c.162 0 .276-.07.344-.209h.467a.786.786 0 0 1-.284.41.827.827 0 0 1-.517.16.89.89 0 0 1-.444-.11.776.776 0 0 1-.306-.313.964.964 0 0 1-.11-.467c0-.179.036-.336.109-.47a.758.758 0 0 1 .303-.312.903.903 0 0 1 .448-.109c.163 0 .309.035.438.106.129.07.229.17.3.3.071.13.107.28.107.447Zm-.449-.124a.347.347 0 0 0-.12-.27.426.426 0 0 0-.288-.1.392.392 0 0 0-.27.097.432.432 0 0 0-.135.273h.813ZM59.641 31.428c.21 0 .38.065.509.195s.193.31.193.543v1.012h-.433v-.953c0-.135-.034-.238-.102-.31a.366.366 0 0 0-.278-.107.37.37 0 0 0-.28.108c-.07.071-.104.174-.104.31v.952h-.433v-.953c0-.135-.034-.238-.102-.31a.366.366 0 0 0-.278-.107.375.375 0 0 0-.283.108c-.07.071-.104.174-.104.31v.952h-.433v-1.725h.433v.209a.577.577 0 0 1 .215-.171.667.667 0 0 1 .29-.063.74.74 0 0 1 .358.086.598.598 0 0 1 .244.244c.056-.1.137-.18.243-.24a.688.688 0 0 1 .345-.09ZM62.205 32.776l.433-1.323h.461l-.634 1.725h-.526l-.631-1.725h.464zM64.937 32.278c0 .063-.004.119-.013.168h-1.252a.43.43 0 0 0 .13.293.4.4 0 0 0 .28.106c.162 0 .276-.07.344-.209h.467a.786.786 0 0 1-.284.41.827.827 0 0 1-.517.16.89.89 0 0 1-.444-.11.776.776 0 0 1-.306-.313.964.964 0 0 1-.11-.467c0-.179.036-.336.109-.47a.758.758 0 0 1 .303-.312.903.903 0 0 1 .448-.109c.163 0 .309.035.438.106.129.07.229.17.3.3.071.13.107.28.107.447Zm-.449-.124a.347.347 0 0 0-.12-.27.426.426 0 0 0-.288-.1.392.392 0 0 0-.27.097.432.432 0 0 0-.135.273h.813ZM65.685 30.874v2.304h-.433v-2.304zM68.441 32.278c0 .063-.004.119-.012.168h-1.253a.43.43 0 0 0 .13.293.4.4 0 0 0 .281.106c.161 0 .276-.07.344-.209h.467a.786.786 0 0 1-.285.41.827.827 0 0 1-.516.16.89.89 0 0 1-.444-.11.776.776 0 0 1-.306-.313.964.964 0 0 1-.11-.467c0-.179.036-.336.108-.47a.758.758 0 0 1 .303-.312.903.903 0 0 1 .449-.109c.163 0 .309.035.437.106.13.07.23.17.3.3.072.13.107.28.107.447Zm-.448-.124a.347.347 0 0 0-.121-.27.426.426 0 0 0-.288-.1.392.392 0 0 0-.27.097.432.432 0 0 0-.135.273h.814ZM69.706 31.428c.204 0 .37.065.495.195.126.13.189.31.189.543v1.012h-.433v-.953c0-.137-.034-.242-.102-.316a.36.36 0 0 0-.279-.11.37.37 0 0 0-.283.11c-.069.074-.103.18-.103.316v.953h-.433v-1.725h.433v.215a.599.599 0 0 1 .22-.176.68.68 0 0 1 .296-.064ZM71.02 31.248a.263.263 0 0 1-.19-.074.243.243 0 0 1-.075-.182c0-.072.025-.133.076-.182a.263.263 0 0 1 .19-.073c.076 0 .14.024.19.073.05.049.076.11.076.182a.243.243 0 0 1-.076.182.263.263 0 0 1-.19.074Zm.214.205v1.725h-.433v-1.725h.433ZM73.79 31.428c.21 0 .38.065.508.195.129.13.193.31.193.543v1.012h-.433v-.953c0-.135-.034-.238-.102-.31a.366.366 0 0 0-.278-.107.37.37 0 0 0-.28.108c-.07.071-.104.174-.104.31v.952h-.433v-.953c0-.135-.034-.238-.102-.31a.366.366 0 0 0-.278-.107.375.375 0 0 0-.283.108c-.07.071-.104.174-.104.31v.952h-.433v-1.725h.433v.209a.577.577 0 0 1 .215-.171.667.667 0 0 1 .29-.063.74.74 0 0 1 .358.086.598.598 0 0 1 .245.244c.055-.1.136-.18.242-.24a.688.688 0 0 1 .345-.09ZM77.232 32.278c0 .063-.004.119-.012.168h-1.253a.43.43 0 0 0 .13.293.4.4 0 0 0 .281.106c.161 0 .275-.07.344-.209h.467a.786.786 0 0 1-.285.41.827.827 0 0 1-.517.16.89.89 0 0 1-.443-.11.776.776 0 0 1-.307-.313.964.964 0 0 1-.11-.467c0-.179.037-.336.109-.47a.758.758 0 0 1 .303-.312.903.903 0 0 1 .448-.109c.163 0 .31.035.438.106.129.07.229.17.3.3.071.13.107.28.107.447Zm-.449-.124a.347.347 0 0 0-.12-.27.426.426 0 0 0-.288-.1.392.392 0 0 0-.27.097.432.432 0 0 0-.135.273h.813ZM79.165 31.453v1.725h-.436v-.218a.572.572 0 0 1-.218.176.673.673 0 0 1-.292.064.722.722 0 0 1-.356-.086.602.602 0 0 1-.243-.252.838.838 0 0 1-.088-.397v-1.012h.433v.95c0 .137.034.242.102.316a.36.36 0 0 0 .278.11c.12 0 .214-.037.282-.11.068-.074.102-.18.102-.316v-.95h.436ZM79.812 31.248a.263.263 0 0 1-.19-.074.243.243 0 0 1-.076-.182c0-.072.025-.133.075-.182a.263.263 0 0 1 .19-.073c.077 0 .14.024.19.073.051.049.077.11.077.182a.243.243 0 0 1-.076.182.263.263 0 0 1-.19.074Zm.213.205v1.725h-.433v-1.725h.433ZM81.108 33.206a.898.898 0 0 1-.378-.076.667.667 0 0 1-.264-.207.527.527 0 0 1-.107-.29h.436a.24.24 0 0 0 .098.165.337.337 0 0 0 .212.066.327.327 0 0 0 .193-.05.151.151 0 0 0 .07-.128c0-.056-.029-.098-.086-.126a1.593 1.593 0 0 0-.27-.092 2.283 2.283 0 0 1-.314-.096.545.545 0 0 1-.21-.153.411.411 0 0 1-.089-.277.45.45 0 0 1 .082-.262.551.551 0 0 1 .235-.186.876.876 0 0 1 .36-.069c.205 0 .368.052.49.154a.572.572 0 0 1 .2.416h-.414a.226.226 0 0 0-.085-.164.315.315 0 0 0-.203-.06.318.318 0 0 0-.18.043.14.14 0 0 0-.064.122c0 .058.029.102.087.132.057.03.147.06.269.092.123.031.225.063.306.096.08.034.15.085.209.155.058.07.089.16.09.275 0 .1-.026.189-.081.268a.54.54 0 0 1-.235.185.886.886 0 0 1-.357.067ZM84.266 31.428c.21 0 .38.065.509.195.128.13.193.31.193.543v1.012h-.433v-.953c0-.135-.034-.238-.102-.31a.366.366 0 0 0-.279-.107.37.37 0 0 0-.28.108c-.069.071-.103.174-.103.31v.952h-.433v-.953c0-.135-.034-.238-.102-.31a.366.366 0 0 0-.279-.107.375.375 0 0 0-.283.108c-.069.071-.103.174-.103.31v.952h-.433v-1.725h.433v.209a.577.577 0 0 1 .215-.171.667.667 0 0 1 .289-.063.74.74 0 0 1 .359.086.598.598 0 0 1 .244.244c.056-.1.137-.18.243-.24a.688.688 0 0 1 .345-.09ZM86.14 33.206a.898.898 0 0 1-.445-.11.793.793 0 0 1-.311-.313.943.943 0 0 1-.113-.467c0-.177.039-.333.116-.467a.809.809 0 0 1 .317-.313.915.915 0 0 1 .449-.11c.164 0 .314.036.448.11.134.073.24.178.317.313.077.134.116.29.116.467 0 .176-.04.332-.119.467a.827.827 0 0 1-.322.313.93.93 0 0 1-.453.11Zm0-.38c.078 0 .152-.019.221-.057a.417.417 0 0 0 .166-.173.585.585 0 0 0 .062-.28c0-.164-.043-.29-.129-.379a.42.42 0 0 0-.314-.132.41.41 0 0 0-.31.132c-.084.089-.126.215-.126.379s.04.29.122.378a.401.401 0 0 0 .308.132ZM87.241 32.31c0-.175.035-.33.104-.465a.754.754 0 0 1 1-.347.638.638 0 0 1 .242.195v-.819h.439v2.304h-.44v-.255a.588.588 0 0 1-.225.205.704.704 0 0 1-.337.078.732.732 0 0 1-.396-.112.779.779 0 0 1-.283-.316 1.02 1.02 0 0 1-.104-.469Zm1.349.006a.562.562 0 0 0-.062-.273.438.438 0 0 0-.393-.235.436.436 0 0 0-.388.232.544.544 0 0 0-.063.27c0 .103.02.194.063.272a.458.458 0 0 0 .167.179.444.444 0 0 0 .614-.173.562.562 0 0 0 .062-.272ZM92.314 31.428c.21 0 .38.065.509.195s.193.31.193.543v1.012h-.433v-.953c0-.135-.034-.238-.102-.31a.366.366 0 0 0-.278-.107.37.37 0 0 0-.28.108c-.07.071-.104.174-.104.31v.952h-.433v-.953c0-.135-.034-.238-.102-.31a.366.366 0 0 0-.278-.107.375.375 0 0 0-.283.108c-.07.071-.104.174-.104.31v.952h-.433v-1.725h.433v.209a.577.577 0 0 1 .215-.171.667.667 0 0 1 .29-.063.74.74 0 0 1 .358.086.598.598 0 0 1 .244.244c.056-.1.137-.18.243-.24a.688.688 0 0 1 .345-.09ZM93.316 32.31c0-.175.035-.33.104-.465a.746.746 0 0 1 .679-.42.694.694 0 0 1 .566.274v-.246h.436v1.725h-.436v-.252a.645.645 0 0 1-.23.2.701.701 0 0 1-.34.08.725.725 0 0 1-.394-.112.783.783 0 0 1-.281-.316 1.02 1.02 0 0 1-.104-.469Zm1.349.006a.562.562 0 0 0-.062-.273.438.438 0 0 0-.393-.235.436.436 0 0 0-.388.232.544.544 0 0 0-.063.27c0 .103.02.194.063.272a.458.458 0 0 0 .167.179.444.444 0 0 0 .614-.173.562.562 0 0 0 .062-.272ZM96.471 33.178l-.352-.535-.313.535h-.464l.56-.866-.566-.859h.489l.349.533.316-.533h.464l-.563.859.569.866zM97.415 31.248a.263.263 0 0 1-.19-.074.243.243 0 0 1-.076-.182c0-.072.025-.133.075-.182a.263.263 0 0 1 .19-.073c.077 0 .14.024.19.073.051.049.077.11.077.182a.243.243 0 0 1-.076.182.263.263 0 0 1-.19.074Zm.213.205v1.725h-.433v-1.725h.433ZM100.183 31.428c.21 0 .38.065.509.195s.193.31.193.543v1.012h-.433v-.953c0-.135-.034-.238-.102-.31a.366.366 0 0 0-.278-.107.37.37 0 0 0-.28.108c-.07.071-.104.174-.104.31v.952h-.433v-.953c0-.135-.034-.238-.102-.31a.366.366 0 0 0-.278-.107.375.375 0 0 0-.283.108c-.07.071-.104.174-.104.31v.952h-.433v-1.725h.433v.209a.577.577 0 0 1 .215-.171.667.667 0 0 1 .29-.063.74.74 0 0 1 .358.086.598.598 0 0 1 .244.244c.056-.1.137-.18.243-.24a.688.688 0 0 1 .345-.09ZM102.914 31.453v1.725h-.436v-.218a.572.572 0 0 1-.218.176.673.673 0 0 1-.292.064.722.722 0 0 1-.356-.086.602.602 0 0 1-.243-.252.838.838 0 0 1-.088-.397v-1.012h.433v.95c0 .137.034.242.102.316a.36.36 0 0 0 .279.11c.12 0 .213-.037.281-.11.068-.074.102-.18.102-.316v-.95h.436ZM103.997 33.206a.898.898 0 0 1-.378-.076.667.667 0 0 1-.264-.207.527.527 0 0 1-.107-.29h.436a.24.24 0 0 0 .098.165.337.337 0 0 0 .212.066.327.327 0 0 0 .193-.05.151.151 0 0 0 .07-.128c0-.056-.029-.098-.085-.126a1.593 1.593 0 0 0-.271-.092 2.283 2.283 0 0 1-.314-.096.545.545 0 0 1-.21-.153.411.411 0 0 1-.088-.277.45.45 0 0 1 .081-.262.551.551 0 0 1 .236-.186.876.876 0 0 1 .36-.069c.204 0 .367.052.489.154a.572.572 0 0 1 .2.416h-.414a.226.226 0 0 0-.085-.164.315.315 0 0 0-.202-.06.318.318 0 0 0-.181.043.14.14 0 0 0-.064.122c0 .058.03.102.087.132.058.03.147.06.269.092.124.031.226.063.306.096.08.034.15.085.209.155.059.07.09.16.091.275 0 .1-.027.189-.082.268a.54.54 0 0 1-.235.185.886.886 0 0 1-.357.067ZM105.219 33.2a.267.267 0 0 1-.194-.073.243.243 0 0 1-.075-.182c0-.073.025-.134.075-.183a.267.267 0 0 1 .194-.073c.076 0 .139.025.188.073.05.05.075.11.075.183a.245.245 0 0 1-.075.182.258.258 0 0 1-.188.073ZM105.918 31.005h.454l-.334.784h-.297l.177-.784Zm.624 0h.455l-.334.784h-.297l.176-.784Z"/></g><g fill="#0D0D0D"><path d="M53.19 56.885a.455.455 0 0 1-.254.422.684.684 0 0 1-.32.068h-.235v.552H52V56.39h.617c.124 0 .23.02.316.063.086.042.15.1.193.175.043.075.065.16.065.256Zm-.602.193c.072 0 .127-.017.162-.05a.186.186 0 0 0 .054-.143.186.186 0 0 0-.054-.142c-.035-.034-.09-.05-.162-.05h-.207v.385h.207ZM54.56 57.296a.94.94 0 0 1-.007.11h-.861c.006.076.03.134.074.174a.23.23 0 0 0 .162.06c.095 0 .16-.04.198-.118h.405a.543.543 0 0 1-.316.367.664.664 0 0 1-.274.055.676.676 0 0 1-.325-.076.55.55 0 0 1-.223-.22.666.666 0 0 1-.08-.332c0-.127.027-.238.08-.332a.542.542 0 0 1 .22-.22.68.68 0 0 1 .328-.076c.12 0 .227.025.32.075a.54.54 0 0 1 .22.212c.053.092.079.199.079.321Zm-.39-.098a.19.19 0 0 0-.066-.153.248.248 0 0 0-.167-.057.244.244 0 0 0-.162.055.242.242 0 0 0-.081.155h.476ZM55.14 56.91c.045-.068.101-.12.168-.16a.436.436 0 0 1 .222-.057v.396h-.104c-.095 0-.166.02-.214.06-.047.04-.071.11-.071.211v.567h-.38v-1.221h.38v.203ZM56.218 57.944a.725.725 0 0 1-.29-.055.493.493 0 0 1-.2-.15.39.39 0 0 1-.082-.213h.376a.142.142 0 0 0 .06.103c.036.026.08.04.132.04a.19.19 0 0 0 .11-.028.083.083 0 0 0 .039-.071c0-.035-.019-.06-.056-.078a1.138 1.138 0 0 0-.18-.055 1.715 1.715 0 0 1-.223-.065.385.385 0 0 1-.153-.107.289.289 0 0 1-.065-.198c0-.07.02-.134.06-.192a.396.396 0 0 1 .173-.136.675.675 0 0 1 .273-.05c.155 0 .278.037.368.113a.44.44 0 0 1 .155.302h-.352a.148.148 0 0 0-.057-.1.2.2 0 0 0-.126-.038.176.176 0 0 0-.102.025.08.08 0 0 0-.036.07c0 .034.02.06.057.078a.92.92 0 0 0 .177.052c.092.024.167.047.225.07.058.022.109.058.152.109.044.05.067.118.068.202 0 .072-.02.136-.06.192-.042.056-.1.1-.177.132a.683.683 0 0 1-.266.048ZM57.52 57.944a.695.695 0 0 1-.328-.076.566.566 0 0 1-.23-.22.645.645 0 0 1-.083-.332.64.64 0 0 1 .085-.331.57.57 0 0 1 .231-.22.702.702 0 0 1 .33-.077c.122 0 .231.026.33.077a.57.57 0 0 1 .23.22.64.64 0 0 1 .085.331.633.633 0 0 1-.085.332.575.575 0 0 1-.234.22.709.709 0 0 1-.33.076Zm0-.324a.25.25 0 0 0 .186-.078c.052-.053.077-.128.077-.226s-.025-.173-.074-.225a.243.243 0 0 0-.184-.079.244.244 0 0 0-.185.078c-.049.052-.073.127-.073.226 0 .098.024.173.072.226a.236.236 0 0 0 .181.078ZM59.13 56.693c.145 0 .261.046.348.139.087.092.13.22.13.381v.714h-.378v-.663a.265.265 0 0 0-.064-.19.228.228 0 0 0-.174-.069.228.228 0 0 0-.174.068.265.265 0 0 0-.064.19v.664h-.38v-1.221h.38v.162a.4.4 0 0 1 .156-.128.503.503 0 0 1 .22-.047ZM59.96 56.391h.39l-.25.586h-.256zM61.078 57.944a.725.725 0 0 1-.29-.055.493.493 0 0 1-.2-.15.39.39 0 0 1-.082-.213h.376a.142.142 0 0 0 .06.103c.035.026.08.04.131.04a.19.19 0 0 0 .11-.028.083.083 0 0 0 .04-.071c0-.035-.02-.06-.056-.078a1.138 1.138 0 0 0-.18-.055 1.715 1.715 0 0 1-.223-.065.385.385 0 0 1-.154-.107.289.289 0 0 1-.064-.198c0-.07.02-.134.059-.192a.396.396 0 0 1 .173-.136.675.675 0 0 1 .273-.05c.156 0 .279.037.368.113a.44.44 0 0 1 .155.302h-.352a.148.148 0 0 0-.056-.1.2.2 0 0 0-.126-.038.176.176 0 0 0-.103.025.08.08 0 0 0-.035.07c0 .034.019.06.057.078a.92.92 0 0 0 .177.052c.092.024.166.047.224.07.058.022.11.058.153.109.044.05.066.118.068.202 0 .072-.02.136-.061.192-.041.056-.1.1-.176.132a.683.683 0 0 1-.266.048ZM63.684 57.927h-.38l-.637-.948v.948h-.381v-1.536h.381l.637.951v-.951h.38zM63.885 57.314a.72.72 0 0 1 .072-.33.521.521 0 0 1 .475-.295c.088 0 .165.017.23.052a.391.391 0 0 1 .153.138v-.173h.38v1.22h-.38v-.172a.409.409 0 0 1-.155.138.485.485 0 0 1-.23.052.512.512 0 0 1-.276-.077.54.54 0 0 1-.197-.221.726.726 0 0 1-.072-.332Zm.93.002a.303.303 0 0 0-.079-.22.259.259 0 0 0-.192-.082.26.26 0 0 0-.193.08.299.299 0 0 0-.079.22c0 .093.026.167.079.222a.257.257 0 0 0 .193.082c.075 0 .14-.027.192-.08a.303.303 0 0 0 .08-.222ZM67.057 56.693c.154 0 .277.046.368.137a.52.52 0 0 1 .137.383v.714h-.378v-.663c0-.08-.022-.14-.064-.183a.234.234 0 0 0-.175-.065.234.234 0 0 0-.174.065c-.043.043-.064.104-.064.183v.663h-.378v-.663c0-.08-.021-.14-.064-.183a.234.234 0 0 0-.174-.065.234.234 0 0 0-.175.065c-.042.043-.064.104-.064.183v.663h-.38v-1.221h.38v.153a.406.406 0 0 1 .152-.122.483.483 0 0 1 .211-.044c.094 0 .177.02.25.059.074.039.132.095.173.168a.497.497 0 0 1 .419-.227ZM69 57.296a.94.94 0 0 1-.007.11h-.861c.006.076.03.134.074.174a.23.23 0 0 0 .162.06c.095 0 .16-.04.198-.118h.405a.543.543 0 0 1-.316.367.664.664 0 0 1-.274.055.676.676 0 0 1-.325-.076.55.55 0 0 1-.222-.22.666.666 0 0 1-.08-.332c0-.127.026-.238.078-.332a.542.542 0 0 1 .222-.22.68.68 0 0 1 .327-.076c.12 0 .227.025.32.075a.54.54 0 0 1 .22.212c.053.092.079.199.079.321Zm-.39-.098a.19.19 0 0 0-.066-.153.248.248 0 0 0-.167-.057.244.244 0 0 0-.162.055.242.242 0 0 0-.08.155h.475Z"/></g><g fill="#0D0D0D"><path d="M56.134 59.486v.955a.406.406 0 0 1-.116.31.432.432 0 0 1-.31.11.445.445 0 0 1-.318-.113.412.412 0 0 1-.12-.316h.274a.217.217 0 0 0 .043.136c.027.033.066.049.117.049.05 0 .087-.016.114-.047a.194.194 0 0 0 .039-.129v-.955h.277ZM56.937 60.865a.577.577 0 0 1-.283-.07.5.5 0 0 1-.197-.196.584.584 0 0 1-.072-.292c0-.11.025-.208.074-.293a.51.51 0 0 1 .201-.196.588.588 0 0 1 .285-.07c.105 0 .2.024.285.07a.51.51 0 0 1 .201.196c.05.085.074.182.074.293a.56.56 0 0 1-.076.292.522.522 0 0 1-.204.196.598.598 0 0 1-.288.07Zm0-.238c.05 0 .097-.012.14-.036a.263.263 0 0 0 .106-.109.363.363 0 0 0 .04-.175c0-.103-.028-.182-.082-.237a.269.269 0 0 0-.2-.083.263.263 0 0 0-.197.083c-.053.055-.08.134-.08.237 0 .102.026.181.078.237a.256.256 0 0 0 .195.083ZM57.983 59.924a.392.392 0 0 1 .146-.126.453.453 0 0 1 .213-.05.479.479 0 0 1 .431.263.62.62 0 0 1 .066.292c0 .11-.022.208-.066.293a.469.469 0 0 1-.431.268.454.454 0 0 1-.213-.047.413.413 0 0 1-.146-.124v.154h-.276v-1.443h.276v.52Zm.575.379a.337.337 0 0 0-.04-.169.278.278 0 0 0-.249-.145.276.276 0 0 0-.246.148.343.343 0 0 0-.04.17c0 .065.013.121.04.17a.283.283 0 0 0 .246.148.274.274 0 0 0 .143-.04.29.29 0 0 0 .106-.11.347.347 0 0 0 .04-.172ZM60.244 59l-.531 2.2h-.269l.531-2.2zM61.637 60.847l-.303-.53h-.13v.53h-.275v-1.361h.515c.106 0 .197.018.271.055a.39.39 0 0 1 .224.362c0 .09-.026.17-.078.243a.404.404 0 0 1-.234.149l.328.552h-.318Zm-.433-.735h.23c.075 0 .13-.018.167-.054a.199.199 0 0 0 .055-.15.19.19 0 0 0-.055-.144c-.036-.035-.092-.052-.167-.052h-.23v.4ZM62.672 60.865a.577.577 0 0 1-.283-.07.5.5 0 0 1-.197-.196.584.584 0 0 1-.072-.292c0-.11.024-.208.074-.293a.51.51 0 0 1 .201-.196.588.588 0 0 1 .285-.07c.105 0 .2.024.285.07a.51.51 0 0 1 .201.196c.05.085.074.182.074.293a.56.56 0 0 1-.076.292.522.522 0 0 1-.204.196.598.598 0 0 1-.288.07Zm0-.238c.05 0 .097-.012.14-.036a.263.263 0 0 0 .106-.109.363.363 0 0 0 .039-.175c0-.103-.027-.182-.082-.237a.269.269 0 0 0-.2-.083.263.263 0 0 0-.197.083c-.053.055-.08.134-.08.237 0 .102.027.181.078.237a.256.256 0 0 0 .196.083ZM63.717 59.404v1.443h-.275v-1.443zM65 60.283a.64.64 0 0 1-.008.106h-.796c.007.078.035.139.083.183a.255.255 0 0 0 .179.066.225.225 0 0 0 .218-.13h.296a.492.492 0 0 1-.18.256.53.53 0 0 1-.328.1.571.571 0 0 1-.282-.069.489.489 0 0 1-.195-.196.597.597 0 0 1-.07-.292c0-.112.023-.21.07-.295a.478.478 0 0 1 .192-.195.58.58 0 0 1 .285-.068c.103 0 .196.022.278.066a.468.468 0 0 1 .19.188.566.566 0 0 1 .068.28Zm-.285-.078a.216.216 0 0 0-.076-.168.273.273 0 0 0-.183-.064.25.25 0 0 0-.172.062.27.27 0 0 0-.086.17h.517Z"/></g></g></svg>