<svg xmlns="http://www.w3.org/2000/svg" width="120" height="80" viewBox="0 0 120 80"><g fill="none" fill-rule="evenodd"><g fill="#000"><path fill-opacity=".49" d="M65.888 42.204h4v4h-4zM65.888 48.204h4v4h-4zM65.888 54.204h4v4h-4z"/><path fill-rule="nonzero" d="m70.597 42.204.291.3-2.618 2.7-1.382-1.425.291-.3 1.091 1.124z"/></g><g fill="#000" fill-rule="nonzero"><path d="M9.82 13.676h.896v.528h-1.58v-2.808h.684zM12.06 14.236c-.219 0-.415-.047-.59-.14a1.025 1.025 0 0 1-.412-.4c-.1-.173-.15-.376-.15-.608 0-.23.05-.431.152-.606.101-.175.24-.309.416-.402.176-.093.373-.14.592-.14.219 0 .416.047.592.14.176.093.315.227.416.402.101.175.152.377.152.606 0 .23-.051.431-.154.606a1.041 1.041 0 0 1-.42.402c-.177.093-.375.14-.594.14Zm0-.592c.13 0 .242-.048.334-.144.092-.096.138-.233.138-.412 0-.179-.045-.316-.134-.412a.433.433 0 0 0-.33-.144.434.434 0 0 0-.332.142c-.088.095-.132.233-.132.414 0 .179.043.316.13.412a.42.42 0 0 0 .326.144ZM14.276 12.344c.08-.123.18-.22.3-.29a.774.774 0 0 1 .4-.106v.724h-.188c-.17 0-.299.037-.384.11-.085.073-.128.202-.128.386v1.036h-.684v-2.232h.684v.372ZM17.408 13.052c0 .064-.004.13-.012.2h-1.548c.01.139.055.245.134.318a.41.41 0 0 0 .29.11c.17 0 .29-.072.356-.216h.728a.999.999 0 0 1-.568.672c-.147.067-.31.1-.492.1-.219 0-.413-.047-.584-.14a.996.996 0 0 1-.4-.4 1.235 1.235 0 0 1-.144-.608c0-.232.047-.435.142-.608a.983.983 0 0 1 .398-.4c.17-.093.367-.14.588-.14.216 0 .408.045.576.136.168.09.3.22.394.388.095.168.142.364.142.588Zm-.7-.18c0-.117-.04-.21-.12-.28a.442.442 0 0 0-.3-.104.433.433 0 0 0-.29.1.444.444 0 0 0-.146.284h.856ZM20.616 11.948c.277 0 .498.084.662.252.164.168.246.401.246.7v1.304h-.68v-1.212a.461.461 0 0 0-.114-.334.416.416 0 0 0-.314-.118.416.416 0 0 0-.314.118.461.461 0 0 0-.114.334v1.212h-.68v-1.212a.461.461 0 0 0-.114-.334.416.416 0 0 0-.314-.118.416.416 0 0 0-.314.118.461.461 0 0 0-.114.334v1.212h-.684v-2.232h.684v.28a.732.732 0 0 1 .272-.222.855.855 0 0 1 .38-.082c.168 0 .318.036.45.108a.774.774 0 0 1 .31.308.9.9 0 0 1 .752-.416ZM23.196 11.74a.415.415 0 0 1-.294-.106.343.343 0 0 1-.114-.262c0-.107.038-.195.114-.266a.415.415 0 0 1 .294-.106.41.41 0 0 1 .29.106c.076.07.114.16.114.266a.343.343 0 0 1-.114.262.41.41 0 0 1-.29.106Zm.34.232v2.232h-.684v-2.232h.684ZM24.716 12.288a.743.743 0 0 1 .276-.252.847.847 0 0 1 .412-.096.924.924 0 0 1 .854.54c.087.173.13.375.13.604 0 .23-.043.431-.13.606a.981.981 0 0 1-.354.404.914.914 0 0 1-.5.142.85.85 0 0 1-.41-.096.752.752 0 0 1-.278-.248v1.376h-.684v-3.296h.684v.316Zm.976.796a.552.552 0 0 0-.142-.402.469.469 0 0 0-.35-.146.461.461 0 0 0-.346.148.56.56 0 0 0-.142.404c0 .17.047.305.142.404.095.099.21.148.346.148.136 0 .252-.05.348-.15a.562.562 0 0 0 .144-.406ZM27.656 14.236c-.195 0-.368-.033-.52-.1a.888.888 0 0 1-.36-.274.72.72 0 0 1-.148-.39h.676a.26.26 0 0 0 .108.188.382.382 0 0 0 .236.072.337.337 0 0 0 .198-.05.153.153 0 0 0 .07-.13c0-.064-.033-.111-.1-.142a2.02 2.02 0 0 0-.324-.102 3.042 3.042 0 0 1-.4-.118.691.691 0 0 1-.276-.196.534.534 0 0 1-.116-.362c0-.128.035-.245.106-.35a.714.714 0 0 1 .312-.25c.137-.061.3-.092.49-.092.28 0 .5.07.662.208a.81.81 0 0 1 .278.552h-.632a.272.272 0 0 0-.102-.184.354.354 0 0 0-.226-.068.312.312 0 0 0-.184.046.147.147 0 0 0-.064.126c0 .064.034.112.102.144.068.032.174.064.318.096.165.043.3.085.404.126a.697.697 0 0 1 .274.2c.079.092.12.215.122.37 0 .13-.037.247-.11.35a.728.728 0 0 1-.316.242 1.209 1.209 0 0 1-.478.088ZM31.184 11.972v2.232H30.5V13.9a.75.75 0 0 1-.282.238.86.86 0 0 1-.394.09.882.882 0 0 1-.452-.114.769.769 0 0 1-.304-.33 1.123 1.123 0 0 1-.108-.508v-1.304h.68v1.212c0 .15.039.265.116.348a.407.407 0 0 0 .312.124.412.412 0 0 0 .316-.124.49.49 0 0 0 .116-.348v-1.212h.684ZM34.524 11.948c.277 0 .498.084.662.252.164.168.246.401.246.7v1.304h-.68v-1.212a.461.461 0 0 0-.114-.334.416.416 0 0 0-.314-.118.416.416 0 0 0-.314.118.461.461 0 0 0-.114.334v1.212h-.68v-1.212a.461.461 0 0 0-.114-.334.416.416 0 0 0-.314-.118.416.416 0 0 0-.314.118.461.461 0 0 0-.114.334v1.212h-.684v-2.232h.684v.28a.732.732 0 0 1 .272-.222.855.855 0 0 1 .38-.082c.168 0 .318.036.45.108a.774.774 0 0 1 .31.308.9.9 0 0 1 .752-.416ZM36.624 13.084c0-.23.043-.43.13-.604a.924.924 0 0 1 .854-.54c.147 0 .28.03.402.092a.733.733 0 0 1 .286.248v-1.036h.684v2.96h-.684v-.32a.697.697 0 0 1-.274.256.859.859 0 0 1-.414.096.914.914 0 0 1-.5-.142.981.981 0 0 1-.354-.404 1.347 1.347 0 0 1-.13-.606Zm1.672.004a.56.56 0 0 0-.142-.404.461.461 0 0 0-.346-.148.464.464 0 0 0-.346.146.552.552 0 0 0-.142.402c0 .17.047.306.142.406.095.1.21.15.346.15.136 0 .251-.05.346-.148a.56.56 0 0 0 .142-.404ZM40.492 14.236c-.219 0-.415-.047-.59-.14a1.025 1.025 0 0 1-.412-.4c-.1-.173-.15-.376-.15-.608 0-.23.05-.431.152-.606.101-.175.24-.309.416-.402.176-.093.373-.14.592-.14.219 0 .416.047.592.14.176.093.315.227.416.402.101.175.152.377.152.606 0 .23-.051.431-.154.606a1.041 1.041 0 0 1-.42.402c-.177.093-.375.14-.594.14Zm0-.592c.13 0 .242-.048.334-.144.092-.096.138-.233.138-.412 0-.179-.045-.316-.134-.412a.433.433 0 0 0-.33-.144.434.434 0 0 0-.332.142c-.088.095-.132.233-.132.414 0 .179.043.316.13.412a.42.42 0 0 0 .326.144ZM42.708 11.244v2.96h-.684v-2.96zM44.22 14.236c-.219 0-.415-.047-.59-.14a1.025 1.025 0 0 1-.412-.4c-.1-.173-.15-.376-.15-.608 0-.23.05-.431.152-.606.101-.175.24-.309.416-.402.176-.093.373-.14.592-.14.219 0 .416.047.592.14.176.093.315.227.416.402.101.175.152.377.152.606 0 .23-.051.431-.154.606a1.041 1.041 0 0 1-.42.402c-.177.093-.375.14-.594.14Zm0-.592c.13 0 .242-.048.334-.144.092-.096.138-.233.138-.412 0-.179-.045-.316-.134-.412a.433.433 0 0 0-.33-.144.434.434 0 0 0-.332.142c-.088.095-.132.233-.132.414 0 .179.043.316.13.412a.42.42 0 0 0 .326.144ZM46.436 12.344c.08-.123.18-.22.3-.29a.774.774 0 0 1 .4-.106v.724h-.188c-.17 0-.299.037-.384.11-.085.073-.128.202-.128.386v1.036h-.684v-2.232h.684v.372ZM49.22 14.236c-.195 0-.368-.033-.52-.1a.888.888 0 0 1-.36-.274.72.72 0 0 1-.148-.39h.676a.26.26 0 0 0 .108.188.382.382 0 0 0 .236.072.337.337 0 0 0 .198-.05.153.153 0 0 0 .07-.13c0-.064-.033-.111-.1-.142a2.02 2.02 0 0 0-.324-.102 3.042 3.042 0 0 1-.4-.118.691.691 0 0 1-.276-.196.534.534 0 0 1-.116-.362c0-.128.035-.245.106-.35a.714.714 0 0 1 .312-.25c.137-.061.3-.092.49-.092.28 0 .5.07.662.208a.81.81 0 0 1 .278.552h-.632a.272.272 0 0 0-.102-.184.354.354 0 0 0-.226-.068.312.312 0 0 0-.184.046.147.147 0 0 0-.064.126c0 .064.034.112.102.144.068.032.174.064.318.096.165.043.3.085.404.126a.697.697 0 0 1 .274.2c.079.092.12.215.122.37 0 .13-.037.247-.11.35a.728.728 0 0 1-.316.242 1.209 1.209 0 0 1-.478.088ZM50.888 11.74a.415.415 0 0 1-.294-.106.343.343 0 0 1-.114-.262c0-.107.038-.195.114-.266a.415.415 0 0 1 .294-.106.41.41 0 0 1 .29.106c.076.07.114.16.114.266a.343.343 0 0 1-.114.262.41.41 0 0 1-.29.106Zm.34.232v2.232h-.684v-2.232h.684ZM52.968 13.624v.58h-.348c-.248 0-.441-.06-.58-.182-.139-.121-.208-.32-.208-.594v-.888h-.272v-.568h.272v-.544h.684v.544h.448v.568h-.448v.896c0 .067.016.115.048.144.032.03.085.044.16.044h.244ZM9 17.784c0-.23.043-.43.13-.604a.924.924 0 0 1 .854-.54c.157 0 .295.032.414.096s.21.148.274.252v-.316h.684v2.232h-.684v-.316a.739.739 0 0 1-.278.252.859.859 0 0 1-.414.096.908.908 0 0 1-.496-.142.981.981 0 0 1-.354-.404 1.347 1.347 0 0 1-.13-.606Zm1.672.004a.56.56 0 0 0-.142-.404.461.461 0 0 0-.346-.148.464.464 0 0 0-.346.146.552.552 0 0 0-.142.402c0 .17.047.306.142.406.095.1.21.15.346.15.136 0 .251-.05.346-.148a.56.56 0 0 0 .142-.404ZM14.7 16.648c.277 0 .498.084.662.252.164.168.246.401.246.7v1.304h-.68v-1.212a.461.461 0 0 0-.114-.334.416.416 0 0 0-.314-.118.416.416 0 0 0-.314.118.461.461 0 0 0-.114.334v1.212h-.68v-1.212a.461.461 0 0 0-.114-.334.416.416 0 0 0-.314-.118.416.416 0 0 0-.314.118.461.461 0 0 0-.114.334v1.212h-.684v-2.232h.684v.28a.732.732 0 0 1 .272-.222.855.855 0 0 1 .38-.082c.168 0 .318.036.45.108a.774.774 0 0 1 .31.308.9.9 0 0 1 .752-.416ZM18.192 17.752c0 .064-.004.13-.012.2h-1.548c.01.139.055.245.134.318a.41.41 0 0 0 .29.11c.17 0 .29-.072.356-.216h.728a.999.999 0 0 1-.568.672c-.147.067-.31.1-.492.1-.219 0-.413-.047-.584-.14a.996.996 0 0 1-.4-.4 1.235 1.235 0 0 1-.144-.608c0-.232.047-.435.142-.608a.983.983 0 0 1 .398-.4c.17-.093.367-.14.588-.14.216 0 .408.045.576.136.168.09.3.22.394.388.095.168.142.364.142.588Zm-.7-.18c0-.117-.04-.21-.12-.28a.442.442 0 0 0-.3-.104.433.433 0 0 0-.29.1.444.444 0 0 0-.146.284h.856ZM19.796 18.324v.58h-.348c-.248 0-.441-.06-.58-.182-.139-.121-.208-.32-.208-.594v-.888h-.272v-.568h.272v-.544h.684v.544h.448v.568h-.448v.896c0 .067.016.115.048.144.032.03.085.044.16.044h.244ZM20.912 18.272l-.444 1.148h-.436l.232-1.148zM22.036 17.788c0-.232.047-.435.142-.608a.986.986 0 0 1 .396-.4c.17-.093.363-.14.582-.14.28 0 .514.073.702.22.188.147.311.353.37.62H23.5c-.061-.17-.18-.256-.356-.256a.359.359 0 0 0-.3.146c-.075.097-.112.237-.112.418s.037.32.112.418a.359.359 0 0 0 .3.146c.176 0 .295-.085.356-.256h.728a1.048 1.048 0 0 1-.372.616c-.19.15-.423.224-.7.224-.219 0-.413-.047-.582-.14a.986.986 0 0 1-.396-.4 1.249 1.249 0 0 1-.142-.608ZM25.608 18.936c-.219 0-.415-.047-.59-.14a1.025 1.025 0 0 1-.412-.4c-.1-.173-.15-.376-.15-.608 0-.23.05-.431.152-.606.101-.175.24-.309.416-.402.176-.093.373-.14.592-.14.219 0 .416.047.592.14.176.093.315.227.416.402.101.175.152.377.152.606 0 .23-.051.431-.154.606a1.041 1.041 0 0 1-.42.402c-.177.093-.375.14-.594.14Zm0-.592c.13 0 .242-.048.334-.144.092-.096.138-.233.138-.412 0-.179-.045-.316-.134-.412a.433.433 0 0 0-.33-.144.434.434 0 0 0-.332.142c-.088.095-.132.233-.132.414 0 .179.043.316.13.412a.42.42 0 0 0 .326.144ZM28.5 16.648c.261 0 .47.085.626.254.156.17.234.402.234.698v1.304h-.68v-1.212a.49.49 0 0 0-.116-.348.407.407 0 0 0-.312-.124.407.407 0 0 0-.312.124.49.49 0 0 0-.116.348v1.212h-.684v-2.232h.684v.296a.722.722 0 0 1 .28-.234.89.89 0 0 1 .396-.086ZM30.744 18.936c-.195 0-.368-.033-.52-.1a.888.888 0 0 1-.36-.274.72.72 0 0 1-.148-.39h.676a.26.26 0 0 0 .108.188.382.382 0 0 0 .236.072.337.337 0 0 0 .198-.05.153.153 0 0 0 .07-.13c0-.064-.033-.111-.1-.142a2.02 2.02 0 0 0-.324-.102 3.042 3.042 0 0 1-.4-.118.691.691 0 0 1-.276-.196.534.534 0 0 1-.116-.362c0-.128.035-.245.106-.35a.714.714 0 0 1 .312-.25c.137-.061.3-.092.49-.092.28 0 .5.07.662.208a.81.81 0 0 1 .278.552h-.632a.272.272 0 0 0-.102-.184.354.354 0 0 0-.226-.068.312.312 0 0 0-.184.046.147.147 0 0 0-.064.126c0 .064.034.112.102.144.068.032.174.064.318.096.165.043.3.085.404.126a.697.697 0 0 1 .274.2c.079.092.12.215.122.37 0 .13-.037.247-.11.35a.728.728 0 0 1-.316.242 1.209 1.209 0 0 1-.478.088ZM34.172 17.752c0 .064-.004.13-.012.2h-1.548c.01.139.055.245.134.318a.41.41 0 0 0 .29.11c.17 0 .29-.072.356-.216h.728a.999.999 0 0 1-.568.672c-.147.067-.31.1-.492.1-.219 0-.413-.047-.584-.14a.996.996 0 0 1-.4-.4 1.235 1.235 0 0 1-.144-.608c0-.232.047-.435.142-.608a.983.983 0 0 1 .398-.4c.17-.093.367-.14.588-.14.216 0 .408.045.576.136.168.09.3.22.394.388.095.168.142.364.142.588Zm-.7-.18c0-.117-.04-.21-.12-.28a.442.442 0 0 0-.3-.104.433.433 0 0 0-.29.1.444.444 0 0 0-.146.284h.856ZM34.396 17.788c0-.232.047-.435.142-.608a.986.986 0 0 1 .396-.4c.17-.093.363-.14.582-.14.28 0 .514.073.702.22.188.147.311.353.37.62h-.728c-.061-.17-.18-.256-.356-.256a.359.359 0 0 0-.3.146c-.075.097-.112.237-.112.418s.037.32.112.418a.359.359 0 0 0 .3.146c.176 0 .295-.085.356-.256h.728a1.048 1.048 0 0 1-.372.616c-.19.15-.423.224-.7.224-.219 0-.413-.047-.582-.14a.986.986 0 0 1-.396-.4 1.249 1.249 0 0 1-.142-.608ZM38.196 18.324v.58h-.348c-.248 0-.441-.06-.58-.182-.139-.121-.208-.32-.208-.594v-.888h-.272v-.568h.272v-.544h.684v.544h.448v.568h-.448v.896c0 .067.016.115.048.144.032.03.085.044.16.044h.244ZM40.68 17.752c0 .064-.004.13-.012.2H39.12c.01.139.055.245.134.318a.41.41 0 0 0 .29.11c.17 0 .29-.072.356-.216h.728a.999.999 0 0 1-.568.672c-.147.067-.31.1-.492.1-.219 0-.413-.047-.584-.14a.996.996 0 0 1-.4-.4 1.235 1.235 0 0 1-.144-.608c0-.232.047-.435.142-.608a.983.983 0 0 1 .398-.4c.17-.093.367-.14.588-.14.216 0 .408.045.576.136.168.09.3.22.394.388.095.168.142.364.142.588Zm-.7-.18c0-.117-.04-.21-.12-.28a.442.442 0 0 0-.3-.104.433.433 0 0 0-.29.1.444.444 0 0 0-.146.284h.856ZM42.284 18.324v.58h-.348c-.248 0-.441-.06-.58-.182-.139-.121-.208-.32-.208-.594v-.888h-.272v-.568h.272v-.544h.684v.544h.448v.568h-.448v.896c0 .067.016.115.048.144.032.03.085.044.16.044h.244ZM44.868 16.672v2.232h-.684V18.6a.75.75 0 0 1-.282.238.86.86 0 0 1-.394.09.882.882 0 0 1-.452-.114.769.769 0 0 1-.304-.33 1.123 1.123 0 0 1-.108-.508v-1.304h.68v1.212c0 .15.039.265.116.348a.407.407 0 0 0 .312.124.412.412 0 0 0 .316-.124.49.49 0 0 0 .116-.348v-1.212h.684ZM46.044 17.044c.08-.123.18-.22.3-.29a.774.774 0 0 1 .4-.106v.724h-.188c-.17 0-.299.037-.384.11-.085.073-.128.202-.128.386v1.036h-.684v-2.232h.684v.372ZM9 22.484c0-.23.043-.43.13-.604a.924.924 0 0 1 .854-.54c.157 0 .295.032.414.096s.21.148.274.252v-.316h.684v2.232h-.684v-.316a.739.739 0 0 1-.278.252.859.859 0 0 1-.414.096.908.908 0 0 1-.496-.142.981.981 0 0 1-.354-.404 1.347 1.347 0 0 1-.13-.606Zm1.672.004a.56.56 0 0 0-.142-.404.461.461 0 0 0-.346-.148.464.464 0 0 0-.346.146.552.552 0 0 0-.142.402c0 .17.047.306.142.406.095.1.21.15.346.15.136 0 .251-.05.346-.148a.56.56 0 0 0 .142-.404ZM11.716 22.484c0-.23.043-.43.13-.604a.924.924 0 0 1 .854-.54c.147 0 .28.03.402.092a.733.733 0 0 1 .286.248v-1.036h.684v2.96h-.684v-.32a.697.697 0 0 1-.274.256.859.859 0 0 1-.414.096.914.914 0 0 1-.5-.142.981.981 0 0 1-.354-.404 1.347 1.347 0 0 1-.13-.606Zm1.672.004a.56.56 0 0 0-.142-.404.461.461 0 0 0-.346-.148.464.464 0 0 0-.346.146.552.552 0 0 0-.142.402c0 .17.047.306.142.406.095.1.21.15.346.15.136 0 .251-.05.346-.148a.56.56 0 0 0 .142-.404ZM14.912 21.14a.415.415 0 0 1-.294-.106.343.343 0 0 1-.114-.262c0-.107.038-.195.114-.266a.415.415 0 0 1 .294-.106.41.41 0 0 1 .29.106c.076.07.114.16.114.266a.343.343 0 0 1-.114.262.41.41 0 0 1-.29.106Zm.34.232v2.232h-.684v-2.232h.684ZM16.432 21.688a.743.743 0 0 1 .276-.252.847.847 0 0 1 .412-.096.924.924 0 0 1 .854.54c.087.173.13.375.13.604 0 .23-.043.431-.13.606a.981.981 0 0 1-.354.404.914.914 0 0 1-.5.142.85.85 0 0 1-.41-.096.752.752 0 0 1-.278-.248v1.376h-.684v-3.296h.684v.316Zm.976.796a.552.552 0 0 0-.142-.402.469.469 0 0 0-.35-.146.461.461 0 0 0-.346.148.56.56 0 0 0-.142.404c0 .17.047.305.142.404.095.099.21.148.346.148.136 0 .252-.05.348-.15a.562.562 0 0 0 .144-.406ZM18.808 21.14a.415.415 0 0 1-.294-.106.343.343 0 0 1-.114-.262c0-.107.038-.195.114-.266a.415.415 0 0 1 .294-.106.41.41 0 0 1 .29.106c.076.07.114.16.114.266a.343.343 0 0 1-.114.262.41.41 0 0 1-.29.106Zm.34.232v2.232h-.684v-2.232h.684ZM20.552 23.636c-.195 0-.368-.033-.52-.1a.888.888 0 0 1-.36-.274.72.72 0 0 1-.148-.39h.676a.26.26 0 0 0 .108.188.382.382 0 0 0 .236.072.337.337 0 0 0 .198-.05.153.153 0 0 0 .07-.13c0-.064-.033-.111-.1-.142a2.02 2.02 0 0 0-.324-.102 3.042 3.042 0 0 1-.4-.118.691.691 0 0 1-.276-.196.534.534 0 0 1-.116-.362c0-.128.035-.245.106-.35a.714.714 0 0 1 .312-.25c.137-.061.3-.092.49-.092.28 0 .5.07.662.208a.81.81 0 0 1 .278.552h-.632a.272.272 0 0 0-.102-.184.354.354 0 0 0-.226-.068.312.312 0 0 0-.184.046.147.147 0 0 0-.064.126c0 .064.034.112.102.144.068.032.174.064.318.096.165.043.3.085.404.126a.697.697 0 0 1 .274.2c.079.092.12.215.122.37 0 .13-.037.247-.11.35a.728.728 0 0 1-.316.242 1.209 1.209 0 0 1-.478.088ZM21.74 22.488c0-.232.047-.435.142-.608a.986.986 0 0 1 .396-.4c.17-.093.363-.14.582-.14.28 0 .514.073.702.22.188.147.311.353.37.62h-.728c-.061-.17-.18-.256-.356-.256a.359.359 0 0 0-.3.146c-.075.097-.112.237-.112.418s.037.32.112.418a.359.359 0 0 0 .3.146c.176 0 .295-.085.356-.256h.728a1.048 1.048 0 0 1-.372.616c-.19.15-.423.224-.7.224-.219 0-.413-.047-.582-.14a.986.986 0 0 1-.396-.4 1.249 1.249 0 0 1-.142-.608ZM24.64 21.14a.415.415 0 0 1-.294-.106.343.343 0 0 1-.114-.262c0-.107.038-.195.114-.266a.415.415 0 0 1 .294-.106.41.41 0 0 1 .29.106c.076.07.114.16.114.266a.343.343 0 0 1-.114.262.41.41 0 0 1-.29.106Zm.34.232v2.232h-.684v-2.232h.684ZM26.836 21.348c.261 0 .47.085.626.254.156.17.234.402.234.698v1.304h-.68v-1.212a.49.49 0 0 0-.116-.348.407.407 0 0 0-.312-.124.407.407 0 0 0-.312.124.49.49 0 0 0-.116.348v1.212h-.684v-2.232h.684v.296a.722.722 0 0 1 .28-.234.89.89 0 0 1 .396-.086ZM29.02 21.34c.157 0 .295.032.414.096s.21.148.274.252v-.316h.684V23.6c0 .205-.04.391-.122.558a.93.93 0 0 1-.372.398 1.203 1.203 0 0 1-.622.148c-.33 0-.599-.078-.804-.234a.883.883 0 0 1-.352-.634h.676a.324.324 0 0 0 .152.202c.08.05.179.074.296.074.141 0 .254-.04.338-.122.084-.081.126-.211.126-.39v-.316a.759.759 0 0 1-.276.254.833.833 0 0 1-.412.098.914.914 0 0 1-.5-.142.981.981 0 0 1-.354-.404 1.347 1.347 0 0 1-.13-.606c0-.23.043-.43.13-.604a.924.924 0 0 1 .854-.54Zm.688 1.148a.56.56 0 0 0-.142-.404.461.461 0 0 0-.346-.148.464.464 0 0 0-.346.146.552.552 0 0 0-.142.402c0 .17.047.306.142.406.095.1.21.15.346.15.136 0 .251-.05.346-.148a.56.56 0 0 0 .142-.404ZM33.84 22.452c0 .064-.004.13-.012.2H32.28c.01.139.055.245.134.318a.41.41 0 0 0 .29.11c.17 0 .29-.072.356-.216h.728a.999.999 0 0 1-.568.672c-.147.067-.31.1-.492.1-.219 0-.413-.047-.584-.14a.996.996 0 0 1-.4-.4 1.235 1.235 0 0 1-.144-.608c0-.232.047-.435.142-.608a.983.983 0 0 1 .398-.4c.17-.093.367-.14.588-.14.216 0 .408.045.576.136.168.09.3.22.394.388.095.168.142.364.142.588Zm-.7-.18c0-.117-.04-.21-.12-.28a.442.442 0 0 0-.3-.104.433.433 0 0 0-.29.1.444.444 0 0 0-.146.284h.856ZM34.884 20.644v2.96H34.2v-2.96zM35.724 21.14a.415.415 0 0 1-.294-.106.343.343 0 0 1-.114-.262c0-.107.038-.195.114-.266a.415.415 0 0 1 .294-.106.41.41 0 0 1 .29.106c.076.07.114.16.114.266a.343.343 0 0 1-.114.262.41.41 0 0 1-.29.106Zm.34.232v2.232h-.684v-2.232h.684ZM37.804 23.024v.58h-.348c-.248 0-.441-.06-.58-.182-.139-.121-.208-.32-.208-.594v-.888h-.272v-.568h.272v-.544h.684v.544h.448v.568h-.448v.896c0 .067.016.115.048.144.032.03.085.044.16.044h.244ZM38.504 23.636a.415.415 0 0 1-.294-.106.343.343 0 0 1-.114-.262c0-.107.038-.196.114-.268a.41.41 0 0 1 .294-.108c.117 0 .214.036.29.108a.354.354 0 0 1 .114.268.343.343 0 0 1-.114.262.41.41 0 0 1-.29.106ZM10.333 29.999c0 .093-.022.18-.066.262a.487.487 0 0 1-.208.198.755.755 0 0 1-.356.075H9.41v.67h-.35v-1.745h.643c.135 0 .25.023.345.07.095.047.166.11.214.192a.542.542 0 0 1 .071.278Zm-.645.253c.097 0 .168-.023.215-.067a.244.244 0 0 0 .07-.186c0-.17-.095-.255-.285-.255H9.41v.508h.278ZM11.868 30.482c0 .05-.003.095-.01.134h-1.013c.009.1.044.179.105.236a.324.324 0 0 0 .228.084c.13 0 .222-.055.277-.167h.378a.63.63 0 0 1-.23.329.671.671 0 0 1-.418.129.722.722 0 0 1-.358-.09.625.625 0 0 1-.248-.25.77.77 0 0 1-.089-.376c0-.143.03-.269.088-.377a.61.61 0 0 1 .245-.25.734.734 0 0 1 .362-.088c.132 0 .25.029.354.085a.598.598 0 0 1 .243.242.73.73 0 0 1 .086.358Zm-.363-.1a.278.278 0 0 0-.097-.217.345.345 0 0 0-.232-.081.318.318 0 0 0-.22.079.346.346 0 0 0-.108.218h.657ZM12.473 29.354v1.85h-.35v-1.85zM13.168 29.354v1.85h-.35v-1.85zM14.8 30.482c0 .05-.003.095-.01.134h-1.012c.008.1.043.179.105.236a.324.324 0 0 0 .227.084c.13 0 .223-.055.278-.167h.377a.63.63 0 0 1-.23.329.671.671 0 0 1-.417.129.722.722 0 0 1-.359-.09.625.625 0 0 1-.247-.25.77.77 0 0 1-.089-.376c0-.143.03-.269.088-.377a.61.61 0 0 1 .245-.25.734.734 0 0 1 .362-.088c.132 0 .25.029.354.085a.598.598 0 0 1 .242.242.73.73 0 0 1 .086.358Zm-.362-.1a.278.278 0 0 0-.098-.217.345.345 0 0 0-.232-.081.318.318 0 0 0-.219.079.346.346 0 0 0-.108.218h.657ZM15.823 29.799c.165 0 .298.052.4.156.102.104.152.25.152.437v.812h-.35v-.765c0-.11-.027-.195-.082-.254a.292.292 0 0 0-.225-.088.3.3 0 0 0-.229.088c-.056.06-.084.144-.084.254v.765h-.35v-1.385h.35v.172a.484.484 0 0 1 .18-.14.553.553 0 0 1 .238-.052ZM17.115 30.107v.67c0 .046.012.08.034.1.023.022.06.032.114.032h.162v.295h-.22c-.294 0-.442-.143-.442-.43v-.668h-.165v-.287h.165v-.342h.352v.342h.31v.288h-.31ZM18.965 30.482c0 .05-.003.095-.01.134h-1.012c.008.1.043.179.105.236a.324.324 0 0 0 .228.084c.13 0 .222-.055.277-.167h.377a.63.63 0 0 1-.23.329.671.671 0 0 1-.417.129.722.722 0 0 1-.359-.09.625.625 0 0 1-.247-.25.77.77 0 0 1-.089-.376c0-.143.03-.269.087-.377a.61.61 0 0 1 .245-.25.734.734 0 0 1 .363-.088c.132 0 .25.029.354.085a.598.598 0 0 1 .242.242.73.73 0 0 1 .086.358Zm-.362-.1a.278.278 0 0 0-.098-.217.345.345 0 0 0-.232-.081.318.318 0 0 0-.219.079.346.346 0 0 0-.108.218h.657ZM19.75 31.227a.73.73 0 0 1-.305-.062.539.539 0 0 1-.213-.166.421.421 0 0 1-.087-.232h.353a.192.192 0 0 0 .079.132.274.274 0 0 0 .171.052.266.266 0 0 0 .156-.04.121.121 0 0 0 .056-.102c0-.045-.022-.079-.068-.101a1.294 1.294 0 0 0-.219-.074 1.854 1.854 0 0 1-.254-.078.44.44 0 0 1-.17-.122.329.329 0 0 1-.071-.223c0-.076.022-.146.066-.21a.445.445 0 0 1 .19-.15.712.712 0 0 1 .291-.055c.165 0 .297.042.395.124a.458.458 0 0 1 .163.334h-.335a.181.181 0 0 0-.069-.131.256.256 0 0 0-.164-.049.258.258 0 0 0-.146.035.112.112 0 0 0-.051.097c0 .047.023.083.07.107.047.024.12.049.217.073.1.026.183.051.248.078a.437.437 0 0 1 .169.124.34.34 0 0 1 .073.221c0 .08-.022.152-.066.215a.436.436 0 0 1-.19.149.72.72 0 0 1-.289.054ZM20.493 30.509a.77.77 0 0 1 .086-.369.642.642 0 0 1 .234-.251.612.612 0 0 1 .325-.09c.098 0 .185.019.261.056a.534.534 0 0 1 .184.144v-.18h.352v2.045h-.352v-.85a.574.574 0 0 1-.453.21.595.595 0 0 1-.32-.091.643.643 0 0 1-.232-.254.786.786 0 0 1-.085-.37Zm1.09.002a.439.439 0 0 0-.052-.22.361.361 0 0 0-.316-.187.364.364 0 0 0-.313.186.432.432 0 0 0-.052.219c0 .085.018.159.053.221a.36.36 0 0 0 .313.189.357.357 0 0 0 .314-.188.439.439 0 0 0 .053-.22ZM23.585 29.819v1.385h-.352v-.175a.462.462 0 0 1-.176.141.547.547 0 0 1-.236.051.587.587 0 0 1-.288-.068.485.485 0 0 1-.196-.203.67.67 0 0 1-.072-.319v-.812h.35v.762c0 .11.028.195.083.254.055.06.13.089.225.089.097 0 .173-.03.228-.089.055-.059.082-.143.082-.254v-.762h.352ZM25.218 30.482c0 .05-.003.095-.01.134h-1.012c.008.1.043.179.104.236a.324.324 0 0 0 .228.084c.13 0 .223-.055.277-.167h.378a.63.63 0 0 1-.23.329.671.671 0 0 1-.418.129.722.722 0 0 1-.358-.09.625.625 0 0 1-.248-.25.77.77 0 0 1-.088-.376c0-.143.029-.269.087-.377a.61.61 0 0 1 .245-.25.734.734 0 0 1 .363-.088c.131 0 .25.029.353.085a.598.598 0 0 1 .243.242.73.73 0 0 1 .086.358Zm-.363-.1a.278.278 0 0 0-.097-.217.345.345 0 0 0-.232-.081.318.318 0 0 0-.22.079.346.346 0 0 0-.108.218h.657ZM26.645 30.882l.35-1.063h.373l-.512 1.385h-.426l-.51-1.385h.375zM27.743 29.654a.213.213 0 0 1-.154-.059.194.194 0 0 1-.061-.146c0-.058.02-.107.061-.146a.213.213 0 0 1 .154-.059c.062 0 .113.02.154.059.04.039.061.088.061.146 0 .058-.02.107-.061.146a.213.213 0 0 1-.154.059Zm.172.165v1.385h-.35v-1.385h.35ZM28.838 30.882l.35-1.063h.373l-.512 1.385h-.425l-.51-1.385h.374zM31.046 30.482c0 .05-.004.095-.01.134h-1.013c.008.1.043.179.105.236a.324.324 0 0 0 .227.084c.13 0 .223-.055.278-.167h.378a.63.63 0 0 1-.23.329.671.671 0 0 1-.418.129.722.722 0 0 1-.359-.09.625.625 0 0 1-.247-.25.77.77 0 0 1-.089-.376c0-.143.03-.269.087-.377a.61.61 0 0 1 .245-.25.734.734 0 0 1 .363-.088c.132 0 .25.029.354.085a.598.598 0 0 1 .242.242.73.73 0 0 1 .087.358Zm-.363-.1a.278.278 0 0 0-.098-.217.345.345 0 0 0-.232-.081.318.318 0 0 0-.219.079.346.346 0 0 0-.108.218h.657ZM31.65 30.034a.49.49 0 0 1 .425-.235v.367h-.092c-.11 0-.193.026-.249.078-.056.052-.084.142-.084.27v.69h-.35v-1.385h.35v.215ZM32.66 30.034a.49.49 0 0 1 .425-.235v.367h-.092c-.11 0-.193.026-.249.078-.056.052-.084.142-.084.27v.69h-.35v-1.385h.35v.215ZM33.23 30.506c0-.14.028-.264.084-.372a.606.606 0 0 1 .549-.338.564.564 0 0 1 .457.22v-.197h.353v1.385h-.353v-.203a.52.52 0 0 1-.186.162.57.57 0 0 1-.273.064.589.589 0 0 1-.32-.09.63.63 0 0 1-.227-.254.815.815 0 0 1-.084-.377Zm1.09.005a.449.449 0 0 0-.05-.218.353.353 0 0 0-.317-.189.354.354 0 0 0-.314.186.435.435 0 0 0-.051.216c0 .084.017.157.051.22.034.062.08.11.135.143a.36.36 0 0 0 .496-.139.449.449 0 0 0 .05-.219ZM36.14 31.227a.73.73 0 0 1-.305-.062.539.539 0 0 1-.213-.166.421.421 0 0 1-.087-.232h.353a.192.192 0 0 0 .079.132.274.274 0 0 0 .171.052.266.266 0 0 0 .156-.04.121.121 0 0 0 .056-.102c0-.045-.022-.079-.068-.101a1.294 1.294 0 0 0-.219-.074 1.854 1.854 0 0 1-.254-.078.44.44 0 0 1-.17-.122.329.329 0 0 1-.071-.223c0-.076.022-.146.066-.21a.445.445 0 0 1 .19-.15.712.712 0 0 1 .291-.055c.166 0 .297.042.395.124a.458.458 0 0 1 .163.334h-.335a.181.181 0 0 0-.069-.131.256.256 0 0 0-.163-.049.258.258 0 0 0-.147.035.112.112 0 0 0-.051.097c0 .047.023.083.07.107.047.024.12.049.217.073.1.026.183.051.248.078a.437.437 0 0 1 .169.124.34.34 0 0 1 .074.221c0 .08-.023.152-.067.215a.436.436 0 0 1-.19.149.72.72 0 0 1-.288.054ZM38.26 30.482c0 .05-.003.095-.01.134h-1.012c.008.1.043.179.105.236a.324.324 0 0 0 .227.084c.13 0 .223-.055.278-.167h.377a.63.63 0 0 1-.23.329.671.671 0 0 1-.417.129.722.722 0 0 1-.359-.09.625.625 0 0 1-.247-.25.77.77 0 0 1-.089-.376c0-.143.03-.269.087-.377a.61.61 0 0 1 .245-.25.734.734 0 0 1 .363-.088c.132 0 .25.029.354.085a.598.598 0 0 1 .242.242.73.73 0 0 1 .087.358Zm-.362-.1a.278.278 0 0 0-.098-.217.345.345 0 0 0-.232-.081.318.318 0 0 0-.219.079.346.346 0 0 0-.108.218h.657ZM40.236 29.799c.17 0 .307.052.41.156.105.104.157.25.157.437v.812h-.35v-.765c0-.108-.028-.191-.083-.249a.297.297 0 0 0-.224-.086.3.3 0 0 0-.227.086c-.056.058-.084.14-.084.249v.765h-.35v-.765c0-.108-.027-.191-.082-.249a.297.297 0 0 0-.225-.086.304.304 0 0 0-.229.086c-.056.058-.084.14-.084.249v.765h-.35v-1.385h.35v.168a.466.466 0 0 1 .174-.138.601.601 0 0 1 .524.019c.085.046.15.111.197.196a.501.501 0 0 1 .197-.192.559.559 0 0 1 .279-.073ZM41.486 30.019a.564.564 0 0 1 .457-.223.606.606 0 0 1 .549.337.8.8 0 0 1 .084.373.815.815 0 0 1-.084.377.63.63 0 0 1-.228.253.593.593 0 0 1-.321.09.559.559 0 0 1-.457-.22v.858h-.35v-2.045h.35v.2Zm.732.488a.435.435 0 0 0-.051-.217.355.355 0 0 0-.317-.186.362.362 0 0 0-.314.19.442.442 0 0 0-.05.218c0 .083.017.155.05.217a.362.362 0 0 0 .314.19.347.347 0 0 0 .182-.05c.056-.033.1-.08.135-.142a.447.447 0 0 0 .051-.22ZM44.118 30.482c0 .05-.003.095-.01.134h-1.012c.008.1.043.179.105.236a.324.324 0 0 0 .227.084c.13 0 .222-.055.278-.167h.377a.63.63 0 0 1-.23.329.671.671 0 0 1-.417.129.722.722 0 0 1-.36-.09.625.625 0 0 1-.247-.25.77.77 0 0 1-.089-.376c0-.143.03-.269.088-.377a.61.61 0 0 1 .245-.25.734.734 0 0 1 .363-.088c.131 0 .25.029.353.085a.598.598 0 0 1 .243.242.73.73 0 0 1 .086.358Zm-.363-.1a.278.278 0 0 0-.097-.217.345.345 0 0 0-.233-.081.318.318 0 0 0-.218.079.346.346 0 0 0-.109.218h.657ZM44.723 30.034a.49.49 0 0 1 .425-.235v.367h-.093c-.11 0-.192.026-.248.078-.056.052-.084.142-.084.27v.69h-.35v-1.385h.35v.215ZM46.555 30.882l.35-1.063h.373l-.512 1.385h-.425l-.51-1.385h.374zM48.763 30.482c0 .05-.003.095-.01.134H47.74c.009.1.044.179.105.236a.324.324 0 0 0 .228.084c.13 0 .223-.055.277-.167h.378a.63.63 0 0 1-.23.329.671.671 0 0 1-.417.129.722.722 0 0 1-.36-.09.625.625 0 0 1-.247-.25.77.77 0 0 1-.089-.376c0-.143.03-.269.088-.377a.61.61 0 0 1 .245-.25.734.734 0 0 1 .362-.088c.132 0 .25.029.354.085a.598.598 0 0 1 .243.242.73.73 0 0 1 .086.358Zm-.363-.1a.278.278 0 0 0-.097-.217.345.345 0 0 0-.233-.081.318.318 0 0 0-.218.079.346.346 0 0 0-.109.218h.657ZM49.368 29.354v1.85h-.35v-1.85zM49.89 29.654a.213.213 0 0 1-.153-.059.194.194 0 0 1-.062-.146c0-.058.02-.107.062-.146a.213.213 0 0 1 .154-.059c.061 0 .112.02.153.059.041.039.062.088.062.146 0 .058-.02.107-.062.146a.213.213 0 0 1-.153.059Zm.173.165v1.385h-.35v-1.385h.35ZM50.816 30.107v.67c0 .046.01.08.033.1.023.022.06.032.114.032h.163v.295h-.22c-.295 0-.443-.143-.443-.43v-.668h-.165v-.287h.165v-.342h.352v.342h.31v.288h-.31ZM51.533 31.221a.217.217 0 0 1-.156-.058.194.194 0 0 1-.062-.146c0-.059.02-.108.062-.147a.217.217 0 0 1 .156-.059c.062 0 .112.02.153.06.04.038.06.087.06.146 0 .058-.02.107-.06.146a.209.209 0 0 1-.153.058ZM10.963 32.859v1.745h-.35v-1.135l-.468 1.135h-.264l-.47-1.135v1.135h-.35v-1.745h.397l.555 1.298.556-1.298zM11.923 34.627a.73.73 0 0 1-.36-.09.64.64 0 0 1-.251-.25.753.753 0 0 1-.091-.375c0-.142.03-.267.093-.375a.651.651 0 0 1 .256-.252.744.744 0 0 1 .363-.088c.133 0 .254.03.362.088.109.06.194.143.257.252a.737.737 0 0 1 .093.375.722.722 0 0 1-.096.375.667.667 0 0 1-.26.25.756.756 0 0 1-.366.09Zm0-.306a.364.364 0 0 0 .179-.046c.056-.03.1-.077.133-.139a.468.468 0 0 0 .05-.224c0-.132-.034-.233-.103-.304a.341.341 0 0 0-.254-.106c-.1 0-.184.035-.251.106-.068.07-.101.172-.101.304 0 .131.032.232.098.303.066.071.149.106.249.106ZM13.253 33.434a.49.49 0 0 1 .425-.235v.367h-.093c-.11 0-.192.026-.248.078-.056.052-.084.142-.084.27v.69h-.35v-1.385h.35v.215ZM14.263 33.422a.5.5 0 0 1 .186-.163.574.574 0 0 1 .271-.063.606.606 0 0 1 .55.337.8.8 0 0 1 .083.373.815.815 0 0 1-.084.377.63.63 0 0 1-.227.254.593.593 0 0 1-.322.09.574.574 0 0 1-.27-.062.527.527 0 0 1-.187-.158v.197h-.35v-1.85h.35v.668Zm.732.485a.435.435 0 0 0-.05-.217.355.355 0 0 0-.317-.186.362.362 0 0 0-.314.19.442.442 0 0 0-.051.218c0 .083.017.155.051.217a.362.362 0 0 0 .314.19.347.347 0 0 0 .181-.05c.056-.033.101-.08.135-.142a.447.447 0 0 0 .051-.22ZM15.785 33.054a.213.213 0 0 1-.153-.059.194.194 0 0 1-.062-.146c0-.058.02-.107.062-.146a.213.213 0 0 1 .153-.059c.062 0 .113.02.154.059.041.039.061.088.061.146 0 .058-.02.107-.06.146a.213.213 0 0 1-.155.059Zm.173.165v1.385h-.35v-1.385h.35ZM17.666 33.199c.165 0 .298.052.4.156.101.104.152.25.152.437v.812h-.35v-.765c0-.11-.027-.195-.082-.254a.292.292 0 0 0-.226-.089.3.3 0 0 0-.228.09c-.056.058-.084.143-.084.253v.765h-.35v-1.385h.35v.172a.484.484 0 0 1 .179-.14.553.553 0 0 1 .239-.052ZM19.166 34.627a.73.73 0 0 1-.36-.09.64.64 0 0 1-.252-.25.753.753 0 0 1-.091-.375c0-.142.031-.267.094-.375a.651.651 0 0 1 .256-.252.744.744 0 0 1 .363-.088c.133 0 .254.03.362.088.108.06.194.143.256.252a.737.737 0 0 1 .094.375.722.722 0 0 1-.096.375.667.667 0 0 1-.26.25.756.756 0 0 1-.366.09Zm0-.306a.364.364 0 0 0 .178-.046c.056-.03.1-.077.134-.139a.468.468 0 0 0 .05-.224c0-.132-.035-.233-.104-.304a.341.341 0 0 0-.254-.106c-.1 0-.183.035-.25.106-.068.07-.102.172-.102.304 0 .131.033.232.099.303.066.071.148.106.248.106ZM20.913 33.199c.165 0 .298.052.4.156.102.104.152.25.152.437v.812h-.35v-.765c0-.11-.027-.195-.082-.254a.292.292 0 0 0-.225-.089.3.3 0 0 0-.229.09c-.056.058-.084.143-.084.253v.765h-.35v-1.385h.35v.172a.484.484 0 0 1 .18-.14.553.553 0 0 1 .238-.052ZM22.8 33.507v.67c0 .046.012.08.034.1.023.022.06.032.114.032h.163v.295h-.22c-.295 0-.443-.143-.443-.43v-.667h-.165v-.288h.165v-.343h.352v.343h.31v.288h-.31ZM23.713 33.434a.49.49 0 0 1 .425-.235v.367h-.093c-.11 0-.192.026-.248.078-.056.052-.084.142-.084.27v.69h-.35v-1.385h.35v.215ZM24.55 33.054a.213.213 0 0 1-.153-.059.194.194 0 0 1-.061-.146c0-.058.02-.107.06-.146a.213.213 0 0 1 .154-.059c.062 0 .113.02.154.059.041.039.061.088.061.146 0 .058-.02.107-.06.146a.213.213 0 0 1-.154.059Zm.173.165v1.385h-.35v-1.385h.35ZM25.598 34.627a.73.73 0 0 1-.305-.062.539.539 0 0 1-.214-.166.421.421 0 0 1-.086-.233h.352a.192.192 0 0 0 .08.133.274.274 0 0 0 .17.053.266.266 0 0 0 .157-.04.121.121 0 0 0 .056-.103c0-.045-.023-.079-.069-.101a1.294 1.294 0 0 0-.219-.074 1.854 1.854 0 0 1-.253-.078.44.44 0 0 1-.17-.122.329.329 0 0 1-.072-.223c0-.076.023-.146.067-.21a.445.445 0 0 1 .19-.15.712.712 0 0 1 .291-.054c.165 0 .297.04.395.123a.458.458 0 0 1 .162.334h-.334a.181.181 0 0 0-.07-.131.256.256 0 0 0-.163-.049.258.258 0 0 0-.146.035.112.112 0 0 0-.052.097c0 .047.024.083.07.107.047.024.12.048.218.074.1.025.183.05.248.077a.437.437 0 0 1 .168.124.34.34 0 0 1 .074.221c0 .08-.022.152-.066.215a.436.436 0 0 1-.19.149.72.72 0 0 1-.289.053ZM26.838 33.507v.67c0 .046.011.08.034.1.022.022.06.032.113.032h.163v.295h-.22c-.295 0-.443-.143-.443-.43v-.667h-.165v-.288h.165v-.343h.353v.343h.31v.288h-.31ZM27.578 33.054a.213.213 0 0 1-.154-.059.194.194 0 0 1-.061-.146c0-.058.02-.107.061-.146a.213.213 0 0 1 .154-.059c.062 0 .113.02.154.059.04.039.061.088.061.146 0 .058-.02.107-.061.146a.213.213 0 0 1-.154.059Zm.172.165v1.385h-.35v-1.385h.35ZM28.005 33.909a.77.77 0 0 1 .087-.369.642.642 0 0 1 .233-.251.612.612 0 0 1 .326-.09c.098 0 .185.019.26.056a.534.534 0 0 1 .184.144v-.18h.353v2.045h-.353v-.85a.574.574 0 0 1-.452.21.595.595 0 0 1-.321-.091.643.643 0 0 1-.232-.254.786.786 0 0 1-.085-.37Zm1.09.003a.439.439 0 0 0-.052-.22.361.361 0 0 0-.315-.188.364.364 0 0 0-.313.186.432.432 0 0 0-.052.219c0 .085.017.159.052.221a.36.36 0 0 0 .313.189.357.357 0 0 0 .315-.188.439.439 0 0 0 .052-.22ZM31.098 33.219v1.385h-.352v-.175a.462.462 0 0 1-.177.141.547.547 0 0 1-.236.051.587.587 0 0 1-.287-.068.485.485 0 0 1-.197-.203.67.67 0 0 1-.071-.319v-.812h.35v.762c0 .11.027.195.082.254.055.06.13.089.226.089s.172-.03.227-.089c.055-.059.082-.144.082-.254v-.762h.353ZM32.73 33.882c0 .05-.003.095-.01.135h-1.012c.008.1.043.178.105.234a.324.324 0 0 0 .227.086c.13 0 .223-.056.278-.168h.377a.63.63 0 0 1-.23.329.671.671 0 0 1-.417.129.722.722 0 0 1-.359-.09.625.625 0 0 1-.247-.25.77.77 0 0 1-.089-.375c0-.144.03-.27.087-.378a.61.61 0 0 1 .245-.25.734.734 0 0 1 .363-.087c.132 0 .25.028.354.084a.598.598 0 0 1 .242.242.73.73 0 0 1 .087.358Zm-.362-.1a.278.278 0 0 0-.098-.217.345.345 0 0 0-.232-.081.318.318 0 0 0-.219.079.346.346 0 0 0-.108.218h.657ZM33.49 33.907c0-.14.028-.265.084-.373a.606.606 0 0 1 .549-.337.564.564 0 0 1 .458.22v-.198h.352v1.385h-.352v-.203a.52.52 0 0 1-.187.162.57.57 0 0 1-.273.063.589.589 0 0 1-.32-.09.63.63 0 0 1-.227-.253.815.815 0 0 1-.084-.377Zm1.09.005a.449.449 0 0 0-.05-.22.353.353 0 0 0-.317-.188.354.354 0 0 0-.314.186.435.435 0 0 0-.051.217c0 .083.017.156.051.218.034.063.08.11.135.144a.36.36 0 0 0 .496-.139.449.449 0 0 0 .05-.218ZM36.043 33.199c.165 0 .298.052.4.156.102.104.153.25.153.437v.812h-.35v-.765c0-.11-.028-.195-.083-.254a.292.292 0 0 0-.225-.089.3.3 0 0 0-.229.09c-.056.058-.084.143-.084.253v.765h-.35v-1.385h.35v.172a.484.484 0 0 1 .18-.14.553.553 0 0 1 .238-.052ZM37.335 33.507v.67c0 .046.012.08.034.1.023.022.06.032.114.032h.163v.295h-.22c-.296 0-.443-.143-.443-.43v-.667h-.165v-.288h.165v-.343h.352v.343h.31v.288h-.31ZM39.186 33.882c0 .05-.004.095-.01.135h-1.013c.008.1.043.178.105.234a.324.324 0 0 0 .227.086c.13 0 .223-.056.278-.168h.377a.63.63 0 0 1-.23.329.671.671 0 0 1-.417.129.722.722 0 0 1-.359-.09.625.625 0 0 1-.247-.25.77.77 0 0 1-.089-.375c0-.144.03-.27.087-.378a.61.61 0 0 1 .245-.25.734.734 0 0 1 .363-.087c.132 0 .25.028.354.084a.598.598 0 0 1 .242.242.73.73 0 0 1 .087.358Zm-.363-.1a.278.278 0 0 0-.098-.217.345.345 0 0 0-.232-.081.318.318 0 0 0-.219.079.346.346 0 0 0-.109.218h.658ZM39.596 34.621a.217.217 0 0 1-.157-.058.194.194 0 0 1-.061-.147c0-.058.02-.107.061-.146a.217.217 0 0 1 .157-.059c.061 0 .112.02.152.06.04.038.06.087.06.145 0 .059-.02.108-.06.147a.209.209 0 0 1-.152.058ZM9.663 38.022a.829.829 0 0 1-.329-.063.54.54 0 0 1-.231-.18.474.474 0 0 1-.088-.278h.375c.005.072.03.129.077.17a.27.27 0 0 0 .188.063.29.29 0 0 0 .193-.059c.047-.039.07-.09.07-.153a.178.178 0 0 0-.047-.128.333.333 0 0 0-.12-.079 1.965 1.965 0 0 0-.196-.063 2.102 2.102 0 0 1-.276-.1.42.42 0 0 1-.259-.411c0-.103.026-.193.078-.27a.493.493 0 0 1 .217-.176c.094-.04.2-.061.32-.061.18 0 .327.044.44.131.112.088.174.21.186.366h-.386a.2.2 0 0 0-.076-.148.287.287 0 0 0-.188-.059.243.243 0 0 0-.164.052c-.041.035-.062.086-.062.153 0 .047.016.085.047.116.03.031.069.056.115.075.046.02.11.041.193.066.114.034.206.067.278.1a.498.498 0 0 1 .185.15.417.417 0 0 1 .078.263.494.494 0 0 1-.286.451.725.725 0 0 1-.332.072ZM11.89 36.619v1.385h-.352v-.175a.462.462 0 0 1-.176.141.547.547 0 0 1-.237.052.587.587 0 0 1-.287-.07.485.485 0 0 1-.196-.202.67.67 0 0 1-.072-.319v-.812h.35v.763c0 .11.028.194.083.253.055.06.13.089.225.089.097 0 .172-.03.227-.089.056-.059.083-.143.083-.253v-.763h.352ZM12.765 38.026a.73.73 0 0 1-.305-.06.539.539 0 0 1-.213-.167.421.421 0 0 1-.087-.233h.353a.192.192 0 0 0 .079.133.274.274 0 0 0 .171.053.266.266 0 0 0 .156-.04.121.121 0 0 0 .056-.103c0-.045-.022-.079-.068-.101a1.294 1.294 0 0 0-.219-.074 1.854 1.854 0 0 1-.254-.078.44.44 0 0 1-.17-.122.329.329 0 0 1-.071-.223c0-.076.022-.146.066-.21a.445.445 0 0 1 .19-.15.712.712 0 0 1 .291-.055c.165 0 .297.042.396.124a.458.458 0 0 1 .162.334h-.335a.181.181 0 0 0-.069-.131.256.256 0 0 0-.164-.049.258.258 0 0 0-.146.035.112.112 0 0 0-.051.098c0 .046.023.082.07.106.047.024.12.049.217.074.1.025.183.05.248.077a.437.437 0 0 1 .169.124.34.34 0 0 1 .073.221c0 .08-.022.152-.066.215a.436.436 0 0 1-.19.149.72.72 0 0 1-.289.053ZM13.948 36.819a.564.564 0 0 1 .457-.223.606.606 0 0 1 .55.337.8.8 0 0 1 .083.373.815.815 0 0 1-.084.377.63.63 0 0 1-.227.254.593.593 0 0 1-.322.09.559.559 0 0 1-.457-.22v.857h-.35v-2.045h.35v.2Zm.732.487a.435.435 0 0 0-.05-.216.355.355 0 0 0-.317-.186.362.362 0 0 0-.314.19.442.442 0 0 0-.051.218c0 .083.017.155.051.217a.362.362 0 0 0 .314.19.347.347 0 0 0 .181-.05c.056-.033.101-.08.135-.142a.447.447 0 0 0 .051-.22ZM16.58 37.282c0 .05-.003.095-.01.135h-1.012c.008.1.043.178.105.234a.324.324 0 0 0 .227.085c.13 0 .223-.055.278-.167h.378a.63.63 0 0 1-.23.329.671.671 0 0 1-.418.128.722.722 0 0 1-.359-.088.625.625 0 0 1-.247-.252.77.77 0 0 1-.089-.374c0-.144.03-.27.088-.378a.61.61 0 0 1 .244-.25.734.734 0 0 1 .363-.087c.132 0 .25.028.354.084a.598.598 0 0 1 .242.242.73.73 0 0 1 .087.358Zm-.362-.1a.278.278 0 0 0-.098-.217.345.345 0 0 0-.232-.081.318.318 0 0 0-.219.079.346.346 0 0 0-.109.218h.658ZM17.603 36.599c.165 0 .298.052.4.156.102.104.152.25.152.436v.813h-.35v-.765c0-.11-.027-.195-.082-.254a.292.292 0 0 0-.225-.088.3.3 0 0 0-.229.088c-.056.06-.084.144-.084.254v.765h-.35v-1.385h.35v.172a.484.484 0 0 1 .18-.14.553.553 0 0 1 .238-.052ZM18.398 37.306c0-.14.028-.264.084-.372a.61.61 0 0 1 .809-.279c.081.04.146.091.195.157v-.658h.354v1.85h-.354v-.205a.474.474 0 0 1-.183.165.572.572 0 0 1-.273.063.595.595 0 0 1-.32-.09.627.627 0 0 1-.228-.254.815.815 0 0 1-.084-.377Zm1.09.006a.449.449 0 0 0-.05-.22.353.353 0 0 0-.317-.188.354.354 0 0 0-.314.186.435.435 0 0 0-.052.216c0 .084.018.157.052.22.034.062.079.11.135.143.056.033.115.05.178.05a.36.36 0 0 0 .318-.189.449.449 0 0 0 .05-.218ZM20.36 36.454a.213.213 0 0 1-.153-.059.194.194 0 0 1-.062-.146c0-.058.02-.107.062-.146a.213.213 0 0 1 .154-.059c.061 0 .112.02.153.059.041.039.061.088.061.146 0 .058-.02.107-.06.146a.213.213 0 0 1-.154.059Zm.173.165v1.385h-.35v-1.385h.35ZM21.408 38.026a.73.73 0 0 1-.305-.06.539.539 0 0 1-.214-.167.421.421 0 0 1-.086-.233h.352a.192.192 0 0 0 .08.133.274.274 0 0 0 .17.053.266.266 0 0 0 .157-.04.121.121 0 0 0 .056-.103c0-.045-.023-.079-.069-.101a1.294 1.294 0 0 0-.218-.074 1.854 1.854 0 0 1-.254-.078.44.44 0 0 1-.17-.122.329.329 0 0 1-.072-.223c0-.076.023-.146.067-.21a.445.445 0 0 1 .19-.15.712.712 0 0 1 .291-.055c.165 0 .297.042.395.124a.458.458 0 0 1 .163.334h-.335a.181.181 0 0 0-.07-.131.256.256 0 0 0-.163-.049.258.258 0 0 0-.146.035.112.112 0 0 0-.052.098c0 .046.024.082.07.106.047.024.12.049.218.074.1.025.182.05.247.077a.437.437 0 0 1 .17.124.34.34 0 0 1 .073.221c0 .08-.022.152-.066.215a.436.436 0 0 1-.19.149.72.72 0 0 1-.289.053ZM22.77 38.026a.73.73 0 0 1-.305-.06.539.539 0 0 1-.213-.167.421.421 0 0 1-.086-.233h.352a.192.192 0 0 0 .079.133.274.274 0 0 0 .171.053.266.266 0 0 0 .156-.04.121.121 0 0 0 .056-.103c0-.045-.022-.079-.068-.101a1.294 1.294 0 0 0-.219-.074 1.854 1.854 0 0 1-.254-.078.44.44 0 0 1-.17-.122.329.329 0 0 1-.071-.223c0-.076.022-.146.066-.21a.445.445 0 0 1 .19-.15.712.712 0 0 1 .291-.055c.165 0 .297.042.395.124a.458.458 0 0 1 .163.334h-.335a.181.181 0 0 0-.069-.131.256.256 0 0 0-.163-.049.258.258 0 0 0-.147.035.112.112 0 0 0-.051.098c0 .046.023.082.07.106.047.024.12.049.217.074.1.025.183.05.248.077a.437.437 0 0 1 .169.124.34.34 0 0 1 .073.221c0 .08-.022.152-.066.215a.436.436 0 0 1-.19.149.72.72 0 0 1-.289.053ZM24.89 37.282c0 .05-.003.095-.01.135h-1.012c.008.1.043.178.105.234a.324.324 0 0 0 .227.085c.13 0 .223-.055.278-.167h.377a.63.63 0 0 1-.23.329.671.671 0 0 1-.417.128.722.722 0 0 1-.359-.088.625.625 0 0 1-.247-.252.77.77 0 0 1-.089-.374c0-.144.03-.27.087-.378a.61.61 0 0 1 .245-.25.734.734 0 0 1 .363-.087c.132 0 .25.028.354.084a.598.598 0 0 1 .242.242.73.73 0 0 1 .087.358Zm-.362-.1a.278.278 0 0 0-.098-.217.345.345 0 0 0-.232-.081.318.318 0 0 0-.219.079.346.346 0 0 0-.108.218h.657ZM25.3 38.022a.217.217 0 0 1-.156-.06.194.194 0 0 1-.061-.146c0-.058.02-.107.061-.146a.217.217 0 0 1 .157-.059c.061 0 .112.02.152.06.04.038.06.087.06.145 0 .059-.02.108-.06.147a.209.209 0 0 1-.152.059Z"/></g><g fill="#000" fill-rule="nonzero"><path d="M74.353 44.704h-.308l-.697-1.054v1.054h-.308v-1.538h.308l.697 1.056v-1.056h.308zM75.807 43.485v1.219h-.31v-.154a.407.407 0 0 1-.155.124.481.481 0 0 1-.208.045.516.516 0 0 1-.253-.06.426.426 0 0 1-.172-.178.589.589 0 0 1-.063-.28v-.716h.308v.671c0 .097.024.171.072.224a.257.257 0 0 0 .198.078.26.26 0 0 0 .2-.078c.049-.053.073-.127.073-.224v-.67h.31ZM76.786 43.468a.47.47 0 0 1 .352.137c.09.092.135.22.135.384v.715h-.308v-.673c0-.097-.025-.171-.073-.224a.257.257 0 0 0-.198-.078.263.263 0 0 0-.201.078c-.05.053-.074.127-.074.224v.673h-.308v-1.219h.308v.152a.425.425 0 0 1 .157-.124.487.487 0 0 1 .21-.045ZM77.486 44.095c0-.127.026-.237.077-.331a.55.55 0 0 1 .213-.22.617.617 0 0 1 .313-.079.6.6 0 0 1 .375.114.551.551 0 0 1 .199.318h-.332a.243.243 0 0 0-.09-.125.259.259 0 0 0-.154-.045.254.254 0 0 0-.21.096.424.424 0 0 0-.076.272.42.42 0 0 0 .077.27.254.254 0 0 0 .209.095c.124 0 .206-.056.244-.167h.332a.562.562 0 0 1-.2.314.59.59 0 0 1-.374.117.617.617 0 0 1-.313-.078.55.55 0 0 1-.213-.22.684.684 0 0 1-.077-.331ZM79.334 44.095c0-.127.026-.237.077-.331a.55.55 0 0 1 .213-.22.617.617 0 0 1 .313-.079.6.6 0 0 1 .375.114.551.551 0 0 1 .199.318h-.332a.243.243 0 0 0-.09-.125.259.259 0 0 0-.154-.045.254.254 0 0 0-.21.096.424.424 0 0 0-.076.272.42.42 0 0 0 .077.27.254.254 0 0 0 .209.095c.124 0 .206-.056.244-.167h.332a.562.562 0 0 1-.2.314.59.59 0 0 1-.374.117.617.617 0 0 1-.313-.078.55.55 0 0 1-.213-.22.684.684 0 0 1-.077-.331ZM81.279 44.724a.642.642 0 0 1-.317-.078.562.562 0 0 1-.221-.221.663.663 0 0 1-.08-.33c0-.125.027-.235.082-.33a.573.573 0 0 1 .226-.221.654.654 0 0 1 .319-.079c.117 0 .223.026.319.078.095.053.17.126.225.222a.648.648 0 0 1 .083.33.635.635 0 0 1-.085.33.587.587 0 0 1-.229.22.665.665 0 0 1-.322.079Zm0-.269a.32.32 0 0 0 .157-.04.296.296 0 0 0 .118-.122.411.411 0 0 0 .044-.198c0-.116-.03-.205-.091-.268a.3.3 0 0 0-.224-.093.293.293 0 0 0-.22.093c-.06.063-.09.152-.09.268 0 .115.029.205.087.267.058.062.13.093.219.093ZM82.817 43.468a.47.47 0 0 1 .352.137c.09.092.134.22.134.384v.715h-.308v-.673c0-.097-.024-.171-.073-.224a.257.257 0 0 0-.198-.078.263.263 0 0 0-.201.078c-.05.053-.074.127-.074.224v.673h-.308v-1.219h.308v.152a.425.425 0 0 1 .157-.124.487.487 0 0 1 .21-.045ZM84.062 44.724c-.1 0-.19-.018-.269-.054a.474.474 0 0 1-.188-.146.37.37 0 0 1-.076-.205h.31a.169.169 0 0 0 .07.117c.04.03.09.046.15.046a.234.234 0 0 0 .138-.035.107.107 0 0 0 .05-.09c0-.04-.02-.07-.06-.09a1.138 1.138 0 0 0-.193-.065 1.631 1.631 0 0 1-.224-.068.388.388 0 0 1-.15-.108.29.29 0 0 1-.062-.195c0-.068.02-.13.058-.185a.391.391 0 0 1 .168-.132.627.627 0 0 1 .256-.049c.145 0 .26.037.347.11.087.072.135.17.143.293h-.294a.16.16 0 0 0-.06-.116.225.225 0 0 0-.145-.042.227.227 0 0 0-.129.03.098.098 0 0 0-.045.086c0 .041.02.072.062.094a.957.957 0 0 0 .191.065c.088.022.16.044.218.068.057.023.107.06.148.109.042.049.064.114.065.194 0 .07-.019.134-.058.19a.384.384 0 0 1-.167.13.633.633 0 0 1-.254.048ZM85.927 44.068a.727.727 0 0 1-.008.119h-.891a.303.303 0 0 0 .092.207c.054.05.121.075.2.075.115 0 .196-.05.244-.148h.333a.555.555 0 0 1-.203.29.59.59 0 0 1-.367.113.636.636 0 0 1-.316-.078.55.55 0 0 1-.218-.221.677.677 0 0 1-.078-.33.69.69 0 0 1 .077-.333.537.537 0 0 1 .216-.22.646.646 0 0 1 .319-.077.64.64 0 0 1 .311.075c.092.05.163.12.213.212.051.092.076.197.076.316Zm-.319-.088a.244.244 0 0 0-.085-.19.304.304 0 0 0-.205-.072.28.28 0 0 0-.192.07.305.305 0 0 0-.096.192h.578ZM86.073 44.092c0-.121.025-.23.076-.324a.565.565 0 0 1 .205-.221.539.539 0 0 1 .286-.08c.087 0 .163.017.23.05a.47.47 0 0 1 .162.127v-.159h.31v1.8h-.31v-.748a.505.505 0 0 1-.398.185.524.524 0 0 1-.283-.08.566.566 0 0 1-.204-.224.692.692 0 0 1-.074-.326Zm.959.003a.386.386 0 0 0-.046-.194.318.318 0 0 0-.278-.165.32.32 0 0 0-.275.164.38.38 0 0 0-.046.192c0 .075.016.14.046.195a.316.316 0 0 0 .275.166.314.314 0 0 0 .278-.165.386.386 0 0 0 .046-.193ZM88.794 43.485v1.219h-.31v-.154a.407.407 0 0 1-.155.124.481.481 0 0 1-.208.045.516.516 0 0 1-.253-.06.426.426 0 0 1-.173-.178.589.589 0 0 1-.063-.28v-.716h.308v.671c0 .097.025.171.073.224a.257.257 0 0 0 .198.078.26.26 0 0 0 .2-.078c.049-.053.073-.127.073-.224v-.67h.31ZM89.018 44.09c0-.123.025-.232.074-.328a.533.533 0 0 1 .483-.297.497.497 0 0 1 .403.194v-.174h.31v1.219h-.31v-.178a.458.458 0 0 1-.164.142.501.501 0 0 1-.241.056.518.518 0 0 1-.28-.08.554.554 0 0 1-.2-.223.717.717 0 0 1-.075-.33Zm.96.005a.395.395 0 0 0-.044-.193.31.31 0 0 0-.28-.166.312.312 0 0 0-.276.164.382.382 0 0 0-.045.19c0 .074.015.138.045.193.03.055.07.097.119.126a.318.318 0 0 0 .437-.122.395.395 0 0 0 .044-.192ZM90.948 43.738v.59c0 .04.01.07.03.089.02.018.053.027.1.027h.143v.26h-.194c-.26 0-.39-.126-.39-.378v-.588h-.145v-.253h.146v-.301h.31v.301h.273v.253h-.273ZM91.78 44.38l-.258.62h-.198l.143-.62zM93.658 44.068a.727.727 0 0 1-.009.119h-.89a.303.303 0 0 0 .092.207c.054.05.12.075.2.075.114 0 .196-.05.244-.148h.332a.555.555 0 0 1-.202.29.59.59 0 0 1-.367.113.636.636 0 0 1-.316-.078.55.55 0 0 1-.218-.221.677.677 0 0 1-.078-.33.69.69 0 0 1 .077-.333.537.537 0 0 1 .216-.22.646.646 0 0 1 .319-.077.64.64 0 0 1 .31.075c.093.05.164.12.214.212.05.092.076.197.076.316Zm-.319-.088a.244.244 0 0 0-.086-.19.304.304 0 0 0-.204-.072.28.28 0 0 0-.193.07.305.305 0 0 0-.095.192h.578ZM94.558 43.468a.47.47 0 0 1 .352.137c.09.092.134.22.134.384v.715h-.308v-.673c0-.097-.024-.171-.072-.224a.257.257 0 0 0-.198-.078.263.263 0 0 0-.202.078c-.049.053-.073.127-.073.224v.673h-.308v-1.219h.308v.152a.425.425 0 0 1 .157-.124.487.487 0 0 1 .21-.045ZM95.493 43.34a.188.188 0 0 1-.135-.052.171.171 0 0 1-.054-.128c0-.052.018-.095.054-.13a.188.188 0 0 1 .135-.05c.054 0 .1.016.135.05a.171.171 0 0 1 .054.13.171.171 0 0 1-.054.128.188.188 0 0 1-.135.052Zm.152.145v1.219h-.308v-1.219h.308ZM97.462 43.468c.15 0 .27.045.362.137.092.092.137.22.137.384v.715h-.308v-.673c0-.096-.024-.169-.072-.22a.261.261 0 0 0-.198-.075.265.265 0 0 0-.2.076c-.048.05-.073.123-.073.219v.673h-.308v-.673c0-.096-.024-.169-.073-.22a.261.261 0 0 0-.198-.075.268.268 0 0 0-.2.076c-.05.05-.075.123-.075.219v.673h-.308v-1.219h.308v.148a.41.41 0 0 1 .153-.121.53.53 0 0 1 .46.017c.076.04.134.097.175.172a.441.441 0 0 1 .173-.17.492.492 0 0 1 .245-.063ZM98.934 43.34a.188.188 0 0 1-.135-.052.171.171 0 0 1-.054-.128c0-.052.018-.095.053-.13a.188.188 0 0 1 .136-.05c.054 0 .1.016.135.05a.171.171 0 0 1 .054.13.171.171 0 0 1-.054.128.188.188 0 0 1-.135.052Zm.152.145v1.219h-.308v-1.219h.308ZM99.31 44.09c0-.123.025-.232.074-.328a.538.538 0 0 1 .711-.245c.072.035.13.08.172.138v-.579h.312v1.628h-.312v-.18a.417.417 0 0 1-.16.145.503.503 0 0 1-.24.055.523.523 0 0 1-.282-.08.552.552 0 0 1-.201-.223.717.717 0 0 1-.074-.33Zm.96.005a.395.395 0 0 0-.045-.193.31.31 0 0 0-.28-.166.312.312 0 0 0-.275.164.382.382 0 0 0-.045.19c0 .074.015.138.045.193.03.055.07.097.118.126a.318.318 0 0 0 .437-.122.395.395 0 0 0 .044-.192ZM101.963 43.738h-.213v.966h-.313v-.966h-.138v-.253h.138v-.061c0-.15.043-.26.128-.33s.213-.104.385-.1v.26c-.075-.001-.127.011-.156.038-.03.026-.044.074-.044.143v.05h.213v.253ZM102.084 44.09c0-.123.025-.232.074-.328a.533.533 0 0 1 .483-.297.497.497 0 0 1 .402.194v-.174h.31v1.219h-.31v-.178a.458.458 0 0 1-.163.142.501.501 0 0 1-.241.056.518.518 0 0 1-.28-.08.554.554 0 0 1-.201-.223.717.717 0 0 1-.074-.33Zm.96.005a.395.395 0 0 0-.045-.193.31.31 0 0 0-.279-.166.312.312 0 0 0-.276.164.382.382 0 0 0-.045.19c0 .074.015.138.045.193.03.055.07.097.119.126a.318.318 0 0 0 .437-.122.395.395 0 0 0 .043-.192ZM104.806 43.485v1.219h-.31v-.154a.407.407 0 0 1-.156.124.481.481 0 0 1-.208.045.516.516 0 0 1-.253-.06.426.426 0 0 1-.172-.178.589.589 0 0 1-.063-.28v-.716h.308v.671c0 .097.024.171.073.224a.257.257 0 0 0 .198.078.26.26 0 0 0 .2-.078c.048-.053.072-.127.072-.224v-.67h.31ZM105.03 44.095c0-.127.026-.237.077-.331a.55.55 0 0 1 .213-.22.617.617 0 0 1 .313-.079.6.6 0 0 1 .375.114.551.551 0 0 1 .199.318h-.332a.243.243 0 0 0-.09-.125.259.259 0 0 0-.154-.045.254.254 0 0 0-.21.096.424.424 0 0 0-.076.272.42.42 0 0 0 .077.27.254.254 0 0 0 .209.095c.124 0 .206-.056.244-.167h.332a.562.562 0 0 1-.2.314.59.59 0 0 1-.374.117.617.617 0 0 1-.313-.078.55.55 0 0 1-.213-.22.684.684 0 0 1-.077-.331ZM106.59 43.34a.188.188 0 0 1-.136-.052.171.171 0 0 1-.053-.128c0-.052.018-.095.053-.13a.188.188 0 0 1 .136-.05c.054 0 .1.016.135.05a.171.171 0 0 1 .054.13.171.171 0 0 1-.054.128.188.188 0 0 1-.135.052Zm.152.145v1.219h-.308v-1.219h.308ZM107.353 43.663a.44.44 0 0 1 .164-.143.505.505 0 0 1 .239-.055.533.533 0 0 1 .483.296c.049.095.073.205.073.33a.717.717 0 0 1-.073.33.554.554 0 0 1-.2.224.522.522 0 0 1-.283.079.505.505 0 0 1-.239-.054.464.464 0 0 1-.164-.14v.174h-.308v-1.628h.308v.587Zm.645.427a.382.382 0 0 0-.045-.19.312.312 0 0 0-.279-.164.318.318 0 0 0-.276.167.389.389 0 0 0-.045.192c0 .073.015.137.045.191a.318.318 0 0 0 .276.167c.058 0 .11-.014.16-.044a.327.327 0 0 0 .119-.125.394.394 0 0 0 .045-.194ZM109.687 43.485v1.219h-.31v-.154a.407.407 0 0 1-.155.124.481.481 0 0 1-.208.045.516.516 0 0 1-.253-.06.426.426 0 0 1-.172-.178.589.589 0 0 1-.063-.28v-.716h.308v.671c0 .097.024.171.072.224a.257.257 0 0 0 .198.078.26.26 0 0 0 .2-.078c.049-.053.073-.127.073-.224v-.67h.31ZM110.457 44.724c-.1 0-.189-.018-.268-.054a.474.474 0 0 1-.188-.146.37.37 0 0 1-.076-.205h.31a.169.169 0 0 0 .07.117c.04.03.09.046.15.046a.234.234 0 0 0 .138-.035.107.107 0 0 0 .05-.09c0-.04-.021-.07-.061-.09a1.138 1.138 0 0 0-.193-.065 1.631 1.631 0 0 1-.223-.068.388.388 0 0 1-.15-.108.29.29 0 0 1-.062-.195c0-.068.019-.13.058-.185a.391.391 0 0 1 .167-.132.627.627 0 0 1 .256-.049c.146 0 .261.037.348.11.087.072.134.17.143.293h-.295a.16.16 0 0 0-.06-.116.225.225 0 0 0-.144-.042.227.227 0 0 0-.13.03.098.098 0 0 0-.044.086c0 .041.02.072.061.094a.957.957 0 0 0 .192.065c.088.022.16.044.218.068.057.023.106.06.148.109.042.049.064.114.065.194 0 .07-.02.134-.058.19a.384.384 0 0 1-.168.13.633.633 0 0 1-.254.048ZM111.326 44.72a.19.19 0 0 1-.137-.052.171.171 0 0 1-.054-.129c0-.051.018-.094.054-.129a.19.19 0 0 1 .137-.051c.055 0 .1.017.135.051a.173.173 0 0 1 .052.129.173.173 0 0 1-.052.129.184.184 0 0 1-.135.051Z"/></g><g fill="#000" fill-rule="nonzero"><path d="M73.343 49.168v.95c0 .105.028.184.082.24.054.055.13.082.229.082.1 0 .176-.027.23-.082.055-.055.082-.135.082-.24v-.95h.31v.949c0 .13-.028.24-.085.33a.537.537 0 0 1-.226.204.72.72 0 0 1-.316.068.7.7 0 0 1-.311-.068.52.52 0 0 1-.221-.203.631.631 0 0 1-.082-.331v-.949h.308ZM74.881 49.076v1.628h-.308v-1.628zM75.492 49.076v1.628h-.308v-1.628zM75.717 50.09c0-.123.025-.232.074-.328a.533.533 0 0 1 .483-.297.497.497 0 0 1 .402.194v-.174h.31v1.219h-.31v-.178a.458.458 0 0 1-.164.142.501.501 0 0 1-.24.056.518.518 0 0 1-.28-.08.554.554 0 0 1-.201-.223.717.717 0 0 1-.074-.33Zm.96.005a.395.395 0 0 0-.045-.193.31.31 0 0 0-.279-.166.312.312 0 0 0-.276.164.382.382 0 0 0-.045.19c0 .074.015.138.045.193.03.055.07.097.119.126a.318.318 0 0 0 .437-.122.395.395 0 0 0 .043-.192ZM78.802 49.468c.15 0 .27.045.361.137.092.092.138.22.138.384v.715h-.308v-.673c0-.096-.024-.169-.073-.22a.261.261 0 0 0-.198-.075.265.265 0 0 0-.199.076c-.049.05-.073.123-.073.219v.673h-.308v-.673c0-.096-.025-.169-.073-.22a.261.261 0 0 0-.198-.075.268.268 0 0 0-.201.076c-.05.05-.074.123-.074.219v.673h-.308v-1.219h.308v.148a.41.41 0 0 1 .153-.121.53.53 0 0 1 .46.017c.076.04.134.097.175.172a.441.441 0 0 1 .172-.17.492.492 0 0 1 .246-.063ZM79.514 50.095c0-.127.026-.237.077-.331a.55.55 0 0 1 .214-.22.617.617 0 0 1 .312-.079.6.6 0 0 1 .375.114.551.551 0 0 1 .2.318h-.333a.243.243 0 0 0-.089-.125.259.259 0 0 0-.155-.045.254.254 0 0 0-.209.096.424.424 0 0 0-.077.272.42.42 0 0 0 .077.27.254.254 0 0 0 .209.095c.125 0 .206-.056.244-.167h.332a.562.562 0 0 1-.2.314.59.59 0 0 1-.374.117.617.617 0 0 1-.312-.078.55.55 0 0 1-.214-.22.684.684 0 0 1-.077-.331ZM81.46 50.724a.642.642 0 0 1-.318-.078.562.562 0 0 1-.22-.221.663.663 0 0 1-.081-.33c0-.125.028-.235.082-.33a.573.573 0 0 1 .226-.221.654.654 0 0 1 .319-.079c.117 0 .224.026.319.078.095.053.17.126.225.222a.648.648 0 0 1 .083.33.635.635 0 0 1-.085.33.587.587 0 0 1-.229.22.665.665 0 0 1-.322.079Zm0-.269a.32.32 0 0 0 .157-.04.296.296 0 0 0 .117-.122.411.411 0 0 0 .044-.198c0-.116-.03-.205-.091-.268a.3.3 0 0 0-.223-.093.293.293 0 0 0-.222.093c-.059.063-.089.152-.089.268 0 .115.03.205.087.267.058.062.131.093.22.093ZM82.63 49.674a.431.431 0 0 1 .374-.207v.324h-.082c-.097 0-.17.023-.219.068-.049.046-.073.125-.073.238v.607h-.308v-1.219h.308v.19ZM83.518 49.661a.497.497 0 0 1 .403-.196.533.533 0 0 1 .483.296c.049.095.074.205.074.33a.717.717 0 0 1-.074.33.554.554 0 0 1-.2.224.522.522 0 0 1-.283.079.492.492 0 0 1-.403-.194v.755h-.308v-1.8h.308v.176Zm.645.43a.382.382 0 0 0-.045-.191.312.312 0 0 0-.278-.164.318.318 0 0 0-.276.167.389.389 0 0 0-.046.192c0 .073.015.137.045.191a.318.318 0 0 0 .277.167c.057 0 .11-.014.16-.044a.327.327 0 0 0 .118-.125.394.394 0 0 0 .045-.194ZM85.835 50.068a.727.727 0 0 1-.009.119h-.89a.303.303 0 0 0 .092.207c.054.05.12.075.2.075.114 0 .196-.05.244-.148h.332a.555.555 0 0 1-.202.29.59.59 0 0 1-.368.113.636.636 0 0 1-.315-.078.55.55 0 0 1-.218-.221.677.677 0 0 1-.078-.33.69.69 0 0 1 .077-.333.537.537 0 0 1 .215-.22.646.646 0 0 1 .32-.077.64.64 0 0 1 .31.075c.092.05.163.12.214.212.05.092.076.197.076.316Zm-.319-.088a.244.244 0 0 0-.086-.19.304.304 0 0 0-.204-.072.28.28 0 0 0-.193.07.305.305 0 0 0-.096.192h.579ZM86.367 49.674a.431.431 0 0 1 .374-.207v.324h-.081c-.097 0-.17.023-.219.068-.049.046-.074.125-.074.238v.607h-.308v-1.219h.308v.19ZM87.628 49.34a.188.188 0 0 1-.135-.052.171.171 0 0 1-.054-.128c0-.052.018-.095.054-.13a.188.188 0 0 1 .135-.05c.054 0 .1.016.135.05a.171.171 0 0 1 .054.13.171.171 0 0 1-.054.128.188.188 0 0 1-.135.052Zm.152.145v1.219h-.308v-1.219h.308ZM88.759 49.468a.47.47 0 0 1 .352.137c.09.092.134.22.134.384v.715h-.308v-.673c0-.097-.024-.171-.073-.224a.257.257 0 0 0-.198-.078.263.263 0 0 0-.2.078c-.05.053-.075.127-.075.224v.673h-.308v-1.219h.308v.152a.425.425 0 0 1 .158-.124.487.487 0 0 1 .21-.045ZM90.37 49.661a.497.497 0 0 1 .403-.196.533.533 0 0 1 .482.296c.049.095.073.205.073.33a.717.717 0 0 1-.073.33.554.554 0 0 1-.2.224.522.522 0 0 1-.283.079.492.492 0 0 1-.403-.194v.755h-.308v-1.8h.308v.176Zm.644.43a.382.382 0 0 0-.045-.191.312.312 0 0 0-.279-.164.318.318 0 0 0-.276.167.389.389 0 0 0-.045.192c0 .073.015.137.045.191a.318.318 0 0 0 .276.167c.058 0 .11-.014.16-.044a.327.327 0 0 0 .119-.125.394.394 0 0 0 .045-.194ZM92.703 49.485v1.219h-.31v-.154a.407.407 0 0 1-.155.124.481.481 0 0 1-.208.045.516.516 0 0 1-.253-.06.426.426 0 0 1-.172-.178.589.589 0 0 1-.063-.28v-.716h.308v.671c0 .097.024.171.072.224a.257.257 0 0 0 .198.078.26.26 0 0 0 .2-.078c.049-.053.073-.127.073-.224v-.67h.31ZM93.315 49.674a.431.431 0 0 1 .374-.207v.324h-.081c-.097 0-.17.023-.22.068-.048.046-.073.125-.073.238v.607h-.308v-1.219h.308v.19ZM95.046 49.485v1.219h-.31v-.154a.407.407 0 0 1-.155.124.481.481 0 0 1-.208.045.516.516 0 0 1-.253-.06.426.426 0 0 1-.173-.178.589.589 0 0 1-.062-.28v-.716h.308v.671c0 .097.024.171.072.224a.257.257 0 0 0 .198.078.26.26 0 0 0 .2-.078c.049-.053.073-.127.073-.224v-.67h.31ZM95.816 50.724c-.1 0-.189-.018-.268-.054a.474.474 0 0 1-.188-.146.37.37 0 0 1-.076-.205h.31a.169.169 0 0 0 .07.117c.04.03.09.046.15.046a.234.234 0 0 0 .138-.035.107.107 0 0 0 .05-.09c0-.04-.021-.07-.061-.09a1.138 1.138 0 0 0-.193-.065 1.631 1.631 0 0 1-.223-.068.388.388 0 0 1-.15-.108.29.29 0 0 1-.062-.195c0-.068.019-.13.058-.185a.391.391 0 0 1 .167-.132.627.627 0 0 1 .256-.049c.146 0 .261.037.348.11.087.072.134.17.143.293h-.295a.16.16 0 0 0-.06-.116.225.225 0 0 0-.144-.042.227.227 0 0 0-.13.03.098.098 0 0 0-.044.086c0 .041.02.072.061.094a.957.957 0 0 0 .192.065c.088.022.16.044.218.068.057.023.106.06.148.109.042.049.064.114.065.194 0 .07-.02.134-.058.19a.384.384 0 0 1-.168.13.633.633 0 0 1-.254.048ZM96.685 50.72a.19.19 0 0 1-.137-.052.171.171 0 0 1-.054-.129c0-.051.018-.094.054-.129a.19.19 0 0 1 .137-.051c.055 0 .1.017.135.051a.173.173 0 0 1 .052.129.173.173 0 0 1-.052.129.184.184 0 0 1-.135.051Z"/></g><g fill="#000" fill-rule="nonzero"><path d="M74.714 55.168v1.536h-.308v-.999l-.411 1h-.233l-.414-1v1h-.308v-1.537h.35l.488 1.142.489-1.142zM74.938 56.09c0-.123.025-.232.074-.328a.533.533 0 0 1 .483-.297.497.497 0 0 1 .403.194v-.174h.31v1.219h-.31v-.178a.458.458 0 0 1-.164.142.501.501 0 0 1-.241.056.518.518 0 0 1-.28-.08.554.554 0 0 1-.2-.223.717.717 0 0 1-.075-.33Zm.96.005a.395.395 0 0 0-.044-.193.31.31 0 0 0-.28-.166.312.312 0 0 0-.276.164.382.382 0 0 0-.045.19c0 .074.015.138.045.193.03.055.07.097.119.126a.318.318 0 0 0 .437-.122.395.395 0 0 0 .044-.192ZM77.642 56.068a.727.727 0 0 1-.009.119h-.89a.303.303 0 0 0 .092.207c.054.05.12.075.2.075.114 0 .196-.05.244-.148h.332a.555.555 0 0 1-.202.29.59.59 0 0 1-.367.113.636.636 0 0 1-.316-.078.55.55 0 0 1-.218-.221.677.677 0 0 1-.078-.33.69.69 0 0 1 .077-.333.537.537 0 0 1 .216-.22.646.646 0 0 1 .319-.077.64.64 0 0 1 .31.075c.093.05.164.12.214.212.05.092.076.197.076.316Zm-.319-.088a.244.244 0 0 0-.086-.19.304.304 0 0 0-.204-.072.28.28 0 0 0-.193.07.305.305 0 0 0-.095.192h.578ZM77.787 56.095c0-.127.026-.237.077-.331a.55.55 0 0 1 .214-.22.617.617 0 0 1 .312-.079.6.6 0 0 1 .375.114.551.551 0 0 1 .2.318h-.333a.243.243 0 0 0-.089-.125.259.259 0 0 0-.155-.045.254.254 0 0 0-.209.096.424.424 0 0 0-.077.272.42.42 0 0 0 .077.27.254.254 0 0 0 .209.095c.125 0 .206-.056.244-.167h.332a.562.562 0 0 1-.2.314.59.59 0 0 1-.374.117.617.617 0 0 1-.312-.078.55.55 0 0 1-.214-.22.684.684 0 0 1-.077-.331ZM80.324 56.068a.727.727 0 0 1-.009.119h-.89a.303.303 0 0 0 .092.207c.054.05.12.075.2.075.114 0 .196-.05.244-.148h.332a.555.555 0 0 1-.202.29.59.59 0 0 1-.368.113.636.636 0 0 1-.315-.078.55.55 0 0 1-.218-.221.677.677 0 0 1-.078-.33.69.69 0 0 1 .077-.333.537.537 0 0 1 .215-.22.646.646 0 0 1 .32-.077.64.64 0 0 1 .31.075c.092.05.163.12.214.212.05.092.076.197.076.316Zm-.319-.088a.244.244 0 0 0-.086-.19.304.304 0 0 0-.204-.072.28.28 0 0 0-.193.07.305.305 0 0 0-.096.192h.579ZM81.224 55.468a.47.47 0 0 1 .352.137c.09.092.134.22.134.384v.715h-.308v-.673c0-.097-.024-.171-.073-.224a.257.257 0 0 0-.198-.078.263.263 0 0 0-.2.078c-.05.053-.075.127-.075.224v.673h-.308v-1.219h.308v.152a.425.425 0 0 1 .158-.124.487.487 0 0 1 .21-.045ZM81.923 56.09c0-.123.025-.232.074-.328a.533.533 0 0 1 .483-.297.497.497 0 0 1 .403.194v-.174h.31v1.219h-.31v-.178a.458.458 0 0 1-.164.142.501.501 0 0 1-.241.056.518.518 0 0 1-.28-.08.554.554 0 0 1-.2-.223.717.717 0 0 1-.075-.33Zm.96.005a.395.395 0 0 0-.044-.193.31.31 0 0 0-.28-.166.312.312 0 0 0-.276.164.382.382 0 0 0-.045.19c0 .074.015.138.045.193.03.055.07.097.119.126a.318.318 0 0 0 .437-.122.395.395 0 0 0 .044-.192ZM83.96 56.724c-.1 0-.189-.018-.268-.054a.474.474 0 0 1-.188-.146.37.37 0 0 1-.076-.205h.31a.169.169 0 0 0 .07.117c.04.03.09.046.15.046a.234.234 0 0 0 .138-.035.107.107 0 0 0 .05-.09c0-.04-.02-.07-.061-.09a1.138 1.138 0 0 0-.193-.065 1.631 1.631 0 0 1-.223-.068.388.388 0 0 1-.15-.108.29.29 0 0 1-.062-.195c0-.068.02-.13.058-.185a.391.391 0 0 1 .167-.132.627.627 0 0 1 .257-.049c.145 0 .26.037.347.11.087.072.134.17.143.293h-.295a.16.16 0 0 0-.06-.116.225.225 0 0 0-.144-.042.227.227 0 0 0-.129.03.098.098 0 0 0-.045.086c0 .041.02.072.062.094a.957.957 0 0 0 .191.065c.088.022.16.044.218.068.057.023.106.06.148.109.042.049.064.114.065.194 0 .07-.02.134-.058.19a.384.384 0 0 1-.167.13.633.633 0 0 1-.254.048ZM85.776 55.738h-.214v.966h-.312v-.966h-.139v-.253h.139v-.061c0-.15.042-.26.127-.33.085-.07.214-.104.385-.1v.26c-.074-.001-.126.011-.156.038-.03.026-.044.074-.044.143v.05h.214v.253ZM87.109 56.068a.727.727 0 0 1-.009.119h-.891a.303.303 0 0 0 .092.207c.055.05.121.075.2.075.115 0 .196-.05.245-.148h.332a.555.555 0 0 1-.202.29.59.59 0 0 1-.368.113.636.636 0 0 1-.316-.078.55.55 0 0 1-.217-.221.677.677 0 0 1-.078-.33.69.69 0 0 1 .077-.333.537.537 0 0 1 .215-.22.646.646 0 0 1 .32-.077.64.64 0 0 1 .31.075c.092.05.163.12.214.212.05.092.076.197.076.316Zm-.32-.088a.244.244 0 0 0-.085-.19.304.304 0 0 0-.205-.072.28.28 0 0 0-.192.07.305.305 0 0 0-.096.192h.579ZM88.484 55.485v1.219h-.31v-.154a.407.407 0 0 1-.156.124.481.481 0 0 1-.207.045.516.516 0 0 1-.253-.06.426.426 0 0 1-.173-.178.589.589 0 0 1-.063-.28v-.716h.308v.671c0 .097.024.171.073.224a.257.257 0 0 0 .198.078.26.26 0 0 0 .2-.078c.048-.053.073-.127.073-.224v-.67h.31ZM89.265 55.465c.09 0 .17.018.24.054a.442.442 0 0 1 .162.14v-.174h.31v1.228a.654.654 0 0 1-.068.302.506.506 0 0 1-.204.212.654.654 0 0 1-.33.078.705.705 0 0 1-.426-.121.449.449 0 0 1-.188-.33h.306c.016.055.05.1.104.133.054.033.119.05.195.05.09 0 .162-.028.218-.081.056-.054.083-.135.083-.243v-.19a.489.489 0 0 1-.403.2.523.523 0 0 1-.28-.078.552.552 0 0 1-.202-.224.717.717 0 0 1-.074-.33c0-.124.025-.233.074-.329a.533.533 0 0 1 .483-.297Zm.402.63a.395.395 0 0 0-.044-.193.31.31 0 0 0-.279-.166.312.312 0 0 0-.276.164.382.382 0 0 0-.045.19c0 .074.015.138.045.193.03.055.07.097.119.126a.318.318 0 0 0 .437-.122.395.395 0 0 0 .043-.192ZM90.435 55.34a.188.188 0 0 1-.135-.052.171.171 0 0 1-.054-.128c0-.052.018-.095.054-.13a.188.188 0 0 1 .135-.05c.054 0 .1.016.135.05a.171.171 0 0 1 .054.13.171.171 0 0 1-.053.128.188.188 0 0 1-.136.052Zm.152.145v1.219h-.308v-1.219h.308ZM90.811 56.09c0-.123.025-.232.074-.328a.533.533 0 0 1 .483-.297.497.497 0 0 1 .403.194v-.174h.31v1.219h-.31v-.178a.458.458 0 0 1-.164.142.501.501 0 0 1-.241.056.518.518 0 0 1-.28-.08.554.554 0 0 1-.2-.223.717.717 0 0 1-.075-.33Zm.96.005a.395.395 0 0 0-.044-.193.31.31 0 0 0-.28-.166.312.312 0 0 0-.276.164.382.382 0 0 0-.045.19c0 .074.015.138.045.193.03.055.07.097.119.126a.318.318 0 0 0 .437-.122.395.395 0 0 0 .044-.192ZM92.74 55.738v.59c0 .04.01.07.03.089.02.018.054.027.1.027h.144v.26h-.194c-.26 0-.39-.126-.39-.378v-.588h-.145v-.253h.146v-.301h.31v.301h.273v.253h-.273ZM94.068 55.076v1.628h-.308v-1.628zM95.522 55.485v1.219h-.31v-.154a.407.407 0 0 1-.156.124.481.481 0 0 1-.208.045.516.516 0 0 1-.253-.06.426.426 0 0 1-.172-.178.589.589 0 0 1-.063-.28v-.716h.308v.671c0 .097.024.171.073.224a.257.257 0 0 0 .198.078.26.26 0 0 0 .2-.078c.048-.053.072-.127.072-.224v-.67h.31ZM95.746 56.095c0-.127.026-.237.077-.331a.55.55 0 0 1 .213-.22.617.617 0 0 1 .313-.079.6.6 0 0 1 .375.114.551.551 0 0 1 .199.318h-.332a.243.243 0 0 0-.09-.125.259.259 0 0 0-.154-.045.254.254 0 0 0-.21.096.424.424 0 0 0-.076.272.42.42 0 0 0 .077.27.254.254 0 0 0 .209.095c.124 0 .206-.056.244-.167h.332a.562.562 0 0 1-.2.314.59.59 0 0 1-.374.117.617.617 0 0 1-.313-.078.55.55 0 0 1-.213-.22.684.684 0 0 1-.077-.331ZM97.508 55.738v.59c0 .04.01.07.03.089.02.018.053.027.1.027h.143v.26h-.194c-.26 0-.389-.126-.389-.378v-.588h-.145v-.253h.145v-.301h.31v.301h.273v.253h-.273ZM99.154 55.485v1.219h-.31v-.154a.407.407 0 0 1-.155.124.481.481 0 0 1-.208.045.516.516 0 0 1-.253-.06.426.426 0 0 1-.173-.178.589.589 0 0 1-.063-.28v-.716h.308v.671c0 .097.024.171.073.224a.257.257 0 0 0 .198.078.26.26 0 0 0 .2-.078c.048-.053.073-.127.073-.224v-.67h.31ZM99.924 56.724c-.1 0-.19-.018-.269-.054a.474.474 0 0 1-.188-.146.37.37 0 0 1-.076-.205h.31a.169.169 0 0 0 .07.117c.04.03.09.046.15.046a.234.234 0 0 0 .138-.035.107.107 0 0 0 .05-.09c0-.04-.02-.07-.06-.09a1.138 1.138 0 0 0-.193-.065 1.631 1.631 0 0 1-.224-.068.388.388 0 0 1-.15-.108.29.29 0 0 1-.062-.195c0-.068.02-.13.058-.185a.391.391 0 0 1 .168-.132.627.627 0 0 1 .256-.049c.145 0 .26.037.347.11.087.072.135.17.143.293h-.294a.16.16 0 0 0-.06-.116.225.225 0 0 0-.145-.042.227.227 0 0 0-.129.03.098.098 0 0 0-.045.086c0 .041.02.072.062.094a.957.957 0 0 0 .191.065c.088.022.16.044.218.068.057.023.107.06.148.109.042.049.064.114.065.194 0 .07-.019.134-.058.19a.384.384 0 0 1-.167.13.633.633 0 0 1-.254.048ZM101.488 55.674a.431.431 0 0 1 .374-.207v.324h-.081c-.097 0-.17.023-.22.068-.048.046-.073.125-.073.238v.607h-.308v-1.219h.308v.19ZM103.22 55.485v1.219h-.31v-.154a.407.407 0 0 1-.156.124.481.481 0 0 1-.208.045.516.516 0 0 1-.253-.06.426.426 0 0 1-.173-.178.589.589 0 0 1-.062-.28v-.716h.308v.671c0 .097.024.171.072.224a.257.257 0 0 0 .198.078.26.26 0 0 0 .2-.078c.049-.053.073-.127.073-.224v-.67h.31ZM103.882 55.738v.59c0 .04.01.07.03.089.02.018.052.027.1.027h.142v.26h-.193c-.26 0-.39-.126-.39-.378v-.588h-.145v-.253h.145v-.301h.31v.301h.273v.253h-.272ZM104.685 55.674a.431.431 0 0 1 .374-.207v.324h-.082c-.097 0-.17.023-.219.068-.049.046-.073.125-.073.238v.607h-.308v-1.219h.308v.19ZM106.416 55.485v1.219h-.31v-.154a.407.407 0 0 1-.155.124.481.481 0 0 1-.208.045.516.516 0 0 1-.253-.06.426.426 0 0 1-.173-.178.589.589 0 0 1-.063-.28v-.716h.308v.671c0 .097.025.171.073.224a.257.257 0 0 0 .198.078.26.26 0 0 0 .2-.078c.049-.053.073-.127.073-.224v-.67h.31ZM108.233 55.468c.15 0 .27.045.362.137.092.092.138.22.138.384v.715h-.308v-.673c0-.096-.025-.169-.073-.22a.261.261 0 0 0-.198-.075.265.265 0 0 0-.2.076c-.048.05-.073.123-.073.219v.673h-.308v-.673c0-.096-.024-.169-.072-.22a.261.261 0 0 0-.198-.075.268.268 0 0 0-.202.076c-.049.05-.073.123-.073.219v.673h-.308v-1.219h.308v.148a.41.41 0 0 1 .152-.121.53.53 0 0 1 .46.017c.076.04.134.097.175.172a.441.441 0 0 1 .173-.17.492.492 0 0 1 .245-.063ZM109.162 56.72a.19.19 0 0 1-.138-.052.171.171 0 0 1-.054-.129c0-.051.018-.094.054-.129a.19.19 0 0 1 .138-.051c.054 0 .099.017.134.051a.173.173 0 0 1 .053.129.173.173 0 0 1-.053.129.184.184 0 0 1-.134.051Z"/></g><path fill="#000" fill-opacity=".5" d="M66.188 11.504h21.4v4.4h-21.4zM66.188 19.504h21.4v4.4h-21.4zM66.188 27.504h45.4v10.4h-45.4zM90.188 19.504h21.4v4.4h-21.4zM90.188 11.504h21.4v4.4h-21.4z"/><path fill="#000" fill-rule="nonzero" d="M65.888 63.204h18v6h-18z" opacity=".3"/><g fill="#0D0D0D" fill-rule="nonzero"><path d="M68.57 66.92a.73.73 0 0 1-.29-.056.475.475 0 0 1-.203-.158.417.417 0 0 1-.077-.244h.33a.213.213 0 0 0 .067.15c.04.036.096.054.166.054a.256.256 0 0 0 .17-.051.168.168 0 0 0 .061-.136.156.156 0 0 0-.041-.112.293.293 0 0 0-.105-.07 1.73 1.73 0 0 0-.173-.055 1.85 1.85 0 0 1-.243-.087.37.37 0 0 1-.228-.362c0-.09.023-.17.069-.238a.434.434 0 0 1 .191-.155.696.696 0 0 1 .282-.054.61.61 0 0 1 .386.116.428.428 0 0 1 .164.322h-.339a.176.176 0 0 0-.067-.13.253.253 0 0 0-.166-.052.214.214 0 0 0-.144.046c-.036.03-.054.075-.054.134 0 .041.013.075.04.102a.31.31 0 0 0 .102.066c.04.017.097.037.17.059.1.029.181.058.244.088.063.029.118.073.163.132a.367.367 0 0 1 .068.23.435.435 0 0 1-.25.398.638.638 0 0 1-.293.062ZM69.3 66.29c0-.123.025-.232.074-.328a.533.533 0 0 1 .483-.297.497.497 0 0 1 .403.194v-.174h.31v1.219h-.31v-.178a.458.458 0 0 1-.164.142.501.501 0 0 1-.241.056.518.518 0 0 1-.28-.08.554.554 0 0 1-.2-.223.717.717 0 0 1-.075-.33Zm.96.005a.395.395 0 0 0-.044-.193.31.31 0 0 0-.28-.166.312.312 0 0 0-.276.164.382.382 0 0 0-.045.19c0 .074.015.138.045.193.03.055.07.097.119.126a.318.318 0 0 0 .437-.122.395.395 0 0 0 .044-.192ZM71.349 65.665c.09 0 .17.018.24.054a.442.442 0 0 1 .162.14v-.174h.31v1.228a.654.654 0 0 1-.068.302.506.506 0 0 1-.204.212.654.654 0 0 1-.33.078.705.705 0 0 1-.426-.121.449.449 0 0 1-.188-.33h.306c.016.055.05.1.104.133.054.033.119.05.195.05.09 0 .162-.028.218-.081.055-.054.083-.135.083-.243v-.19a.489.489 0 0 1-.403.2.523.523 0 0 1-.281-.078.552.552 0 0 1-.201-.224.717.717 0 0 1-.074-.33c0-.124.025-.233.074-.329a.533.533 0 0 1 .483-.297Zm.402.63a.395.395 0 0 0-.044-.193.31.31 0 0 0-.28-.166.312.312 0 0 0-.275.164.382.382 0 0 0-.045.19c0 .074.015.138.045.193.03.055.07.097.119.126a.318.318 0 0 0 .437-.122.395.395 0 0 0 .043-.192ZM72.519 65.54a.188.188 0 0 1-.135-.052.171.171 0 0 1-.054-.128c0-.052.018-.095.054-.13a.188.188 0 0 1 .135-.05c.054 0 .1.016.135.05a.171.171 0 0 1 .054.13.171.171 0 0 1-.054.128.188.188 0 0 1-.135.052Zm.152.145v1.219h-.308v-1.219h.308ZM73.333 65.938v.59c0 .04.01.07.03.089.02.018.053.027.1.027h.143v.26h-.194c-.26 0-.39-.126-.39-.378v-.588h-.144v-.253h.145v-.301h.31v.301h.273v.253h-.273ZM74.187 65.938v.59c0 .04.01.07.03.089.02.018.052.027.1.027h.142v.26h-.193c-.26 0-.39-.126-.39-.378v-.588h-.145v-.253h.145v-.301h.31v.301h.273v.253h-.272ZM74.838 65.54a.188.188 0 0 1-.135-.052.171.171 0 0 1-.054-.128c0-.052.018-.095.053-.13a.188.188 0 0 1 .136-.05c.054 0 .1.016.135.05a.171.171 0 0 1 .054.13.171.171 0 0 1-.054.128.188.188 0 0 1-.135.052Zm.152.145v1.219h-.308v-1.219h.308ZM75.76 66.924c-.1 0-.19-.018-.269-.054a.474.474 0 0 1-.188-.146.37.37 0 0 1-.076-.205h.31a.169.169 0 0 0 .07.117c.04.03.09.046.15.046a.234.234 0 0 0 .138-.035.107.107 0 0 0 .05-.09c0-.04-.02-.07-.061-.09a1.138 1.138 0 0 0-.193-.065 1.631 1.631 0 0 1-.223-.068.388.388 0 0 1-.15-.108.29.29 0 0 1-.062-.195c0-.068.02-.13.058-.185a.391.391 0 0 1 .167-.132.627.627 0 0 1 .257-.049c.145 0 .26.037.347.11.087.072.134.17.143.293h-.295a.16.16 0 0 0-.06-.115.225.225 0 0 0-.144-.043.227.227 0 0 0-.129.03.098.098 0 0 0-.045.086c0 .041.02.072.062.094a.957.957 0 0 0 .191.065c.088.022.16.044.218.068.057.023.107.06.148.109.042.049.064.114.065.194 0 .07-.02.134-.058.19a.384.384 0 0 1-.167.13.633.633 0 0 1-.254.048Z"/></g><path stroke="#000" stroke-width=".5" d="m80.238 67.204 1-1-1-1"/></g></svg>