<?xml version="1.0" encoding="UTF-8"?>
<svg width="120px" height="80px" viewBox="0 0 120 80" version="1.1" xmlns="http://www.w3.org/2000/svg" xmlns:xlink="http://www.w3.org/1999/xlink">
    <title>Artboard</title>
    <g id="Artboard" stroke="none" stroke-width="1" fill="none" fill-rule="evenodd">
        <g id="Group" transform="translate(11.000000, 17.000000)" fill="#000000">
            <rect id="Rectangle" opacity="0.250860305" x="0" y="0" width="43" height="7" rx="2"></rect>
            <rect id="Rectangle-Copy" opacity="0.250860305" x="0" y="9" width="39" height="7" rx="2"></rect>
            <rect id="Rectangle-Copy-6" opacity="0.35" x="58" y="0" width="39" height="5" rx="1"></rect>
            <rect id="Rectangle-Copy-7" opacity="0.35" x="58" y="8" width="39" height="5" rx="1"></rect>
            <rect id="Rectangle-Copy-8" opacity="0.35" x="58" y="16" width="39" height="5" rx="1"></rect>
            <rect id="Rectangle-Copy-9" opacity="0.35" x="58" y="24" width="39" height="5" rx="1"></rect>
            <rect id="Rectangle-Copy-10" opacity="0.35" x="58" y="32" width="39" height="5" rx="1"></rect>
            <rect id="Rectangle-Copy-11" opacity="0.6" x="58" y="40" width="12" height="5" rx="1"></rect>
            <rect id="Rectangle-Copy-2" opacity="0.250860305" x="0" y="23" width="43" height="3" rx="1.5"></rect>
            <rect id="Rectangle-Copy-3" opacity="0.250860305" x="0" y="28" width="31" height="3" rx="1.5"></rect>
            <rect id="Rectangle-Copy-4" opacity="0.250860305" x="0" y="33" width="36" height="3" rx="1.5"></rect>
            <rect id="Rectangle-Copy-5" opacity="0.250860305" x="0" y="38" width="31" height="3" rx="1.5"></rect>
        </g>
    </g>
</svg>