<?xml version="1.0" encoding="UTF-8"?>
<svg width="120px" height="80px" viewBox="0 0 120 80" version="1.1" xmlns="http://www.w3.org/2000/svg" xmlns:xlink="http://www.w3.org/1999/xlink">
    <title>Artboard</title>
    <g id="Artboard" stroke="none" stroke-width="1" fill="none" fill-rule="evenodd" opacity="0.302618118">
        <g id="Group" transform="translate(10.000000, 12.000000)" fill="#000000">
            <path d="M98,0 C99.1045695,-2.02906125e-16 100,0.8954305 100,2 L100,54 C100,55.1045695 99.1045695,56 98,56 L2,56 C0.8954305,56 1.84399221e-15,55.1045695 0,54 L0,2 C-1.3527075e-16,0.8954305 0.8954305,-7.52907669e-16 2,0 L98,0 Z M50,13 C41.7157288,13 35,19.7157288 35,28 C35,36.2842712 41.7157288,43 50,43 C58.2842712,43 65,36.2842712 65,28 C65,19.7157288 58.2842712,13 50,13 Z" id="Video" fill-rule="nonzero"></path>
            <path d="M45.7307673,23.0483544 L45.7307673,33.4321266 C45.7307673,33.9844113 46.1784825,34.4321266 46.7307673,34.4321266 C46.9188037,34.4321266 47.1030302,34.3791102 47.2623038,34.279162 L55.5358871,29.0872759 C56.0036918,28.7937164 56.1449455,28.1765087 55.851386,27.708704 C55.7713229,27.5811187 55.6634724,27.4732681 55.5358871,27.3932051 L47.2623038,22.201319 C46.794499,21.9077595 46.1772914,22.0490132 45.8837319,22.5168179 C45.7837837,22.6760914 45.7307673,22.8603179 45.7307673,23.0483544 Z" id="Play"></path>
        </g>
    </g>
</svg>